<?xml version="1.0" encoding="utf-8"?>
<!-- Generator: Adobe Illustrator 16.0.0, SVG Export Plug-In . SVG Version: 6.00 Build 0)  -->
<!DOCTYPE svg PUBLIC "-//W3C//DTD SVG 1.1//EN" "http://www.w3.org/Graphics/SVG/1.1/DTD/svg11.dtd">
<svg version="1.1" id="레이어_1" xmlns="http://www.w3.org/2000/svg" xmlns:xlink="http://www.w3.org/1999/xlink" x="0px"
	 y="0px" width="587.691px" height="46.713px" viewBox="0 0 587.691 46.713" enable-background="new 0 0 587.691 46.713"
	 xml:space="preserve">
<rect fill="#00B5F0" width="587.691" height="46.713"/>
<g>
	<g>
		<path fill="#FFFFFF" d="M13.514,30.227c-0.141,0-0.24-0.026-0.297-0.08c-0.058-0.053-0.086-0.159-0.086-0.319V15.227
			c0-0.267,0.128-0.399,0.384-0.399h1.843c0.256,0,0.384,0.133,0.384,0.399v14.601c0,0.16-0.029,0.267-0.086,0.319
			c-0.058,0.054-0.157,0.08-0.298,0.08H13.514z"/>
		<path fill="#FFFFFF" d="M17.757,14.387c0.346,0,0.646,0.141,0.902,0.42c0.256,0.28,0.403,0.647,0.441,1.101
			c0.026,0.467-0.013,0.873-0.115,1.22c-0.103,0.347-0.244,0.674-0.422,0.98c-0.167,0.293-0.397,0.569-0.691,0.829
			c-0.294,0.261-0.589,0.444-0.883,0.551c-0.154,0.053-0.25,0.06-0.288,0.02c-0.038-0.04-0.057-0.12-0.057-0.24v-1.06
			c0-0.093,0.009-0.153,0.028-0.18c0.02-0.027,0.048-0.054,0.086-0.08c0.103-0.054,0.221-0.157,0.355-0.311s0.233-0.336,0.297-0.55
			c-0.23-0.066-0.448-0.21-0.653-0.43c-0.205-0.221-0.307-0.483-0.307-0.79c0-0.453,0.118-0.813,0.355-1.08
			C17.043,14.521,17.36,14.387,17.757,14.387z"/>
		<path fill="#FFFFFF" d="M32.81,30.227c-0.141,0-0.243-0.029-0.307-0.09c-0.064-0.06-0.096-0.17-0.096-0.33v-6.72
			c0-0.533-0.141-0.963-0.422-1.29c-0.282-0.326-0.633-0.49-1.056-0.49c-0.32,0-0.608,0.077-0.864,0.23
			c-0.256,0.153-0.474,0.363-0.653,0.63s-0.317,0.573-0.413,0.92c-0.096,0.347-0.144,0.707-0.144,1.08v5.66
			c0,0.267-0.122,0.399-0.365,0.399h-1.805c-0.141,0-0.243-0.029-0.307-0.09c-0.064-0.06-0.096-0.17-0.096-0.33v-6.72
			c0-0.627-0.119-1.08-0.355-1.36c-0.237-0.279-0.579-0.42-1.027-0.42c-0.615,0-1.101,0.217-1.459,0.65s-0.538,0.95-0.538,1.55v6.32
			c0,0.16-0.026,0.267-0.077,0.319c-0.051,0.054-0.147,0.08-0.288,0.08h-1.786c-0.153,0-0.256-0.033-0.307-0.1
			s-0.077-0.174-0.077-0.32v-7.819c0-0.507,0-1.011,0-1.511s-0.013-0.883-0.039-1.149c-0.026-0.146-0.009-0.25,0.048-0.311
			c0.058-0.06,0.183-0.09,0.375-0.09h1.786c0.141,0,0.23,0.014,0.269,0.04c0.038,0.027,0.058,0.101,0.058,0.22v0.82
			c0.281-0.307,0.624-0.576,1.027-0.81c0.403-0.233,0.81-0.351,1.219-0.351c0.614,0,1.193,0.167,1.738,0.5
			c0.544,0.334,0.963,0.78,1.257,1.34c0.167-0.253,0.358-0.493,0.576-0.72s0.451-0.427,0.701-0.6c0.25-0.174,0.519-0.313,0.807-0.42
			c0.288-0.106,0.585-0.16,0.893-0.16c0.576,0,1.101,0.087,1.575,0.26c0.473,0.174,0.88,0.427,1.219,0.76
			c0.339,0.334,0.602,0.744,0.787,1.23s0.279,1.043,0.279,1.67v7.12c0,0.16-0.029,0.267-0.086,0.319
			c-0.058,0.054-0.157,0.08-0.298,0.08H32.81z"/>
		<path fill="#FFFFFF" d="M47.881,30.267c-0.115,0-0.189-0.013-0.221-0.04c-0.032-0.026-0.048-0.106-0.048-0.239v-0.86
			c-0.218,0.36-0.573,0.667-1.065,0.92s-0.982,0.38-1.469,0.38c-0.525,0-1.03-0.077-1.517-0.229c-0.487-0.153-0.887-0.394-1.2-0.721
			c-0.313-0.326-0.56-0.72-0.739-1.18s-0.269-0.983-0.269-1.57c0-0.692,0.16-1.319,0.48-1.88c0.32-0.56,0.746-0.996,1.277-1.31
			c0.531-0.313,1.161-0.54,1.891-0.68c0.729-0.141,1.536-0.184,2.419-0.131c-0.077-1.053-0.512-1.633-1.305-1.739
			c-0.256-0.027-0.516-0.021-0.778,0.02c-0.263,0.04-0.519,0.104-0.768,0.19s-0.49,0.187-0.72,0.3
			c-0.23,0.113-0.436,0.229-0.615,0.35c-0.269,0.188-0.46,0.28-0.576,0.28s-0.173-0.133-0.173-0.4v-1.659
			c0-0.174,0.016-0.297,0.048-0.37c0.032-0.073,0.125-0.15,0.278-0.23c0.384-0.2,0.835-0.387,1.354-0.56
			c0.519-0.174,1.13-0.261,1.834-0.261c1.306,0,2.281,0.348,2.928,1.04c0.646,0.694,0.97,1.768,0.97,3.221v4.56
			c0,0.174,0,0.363,0,0.57s0.003,0.417,0.01,0.63c0.006,0.214,0.012,0.417,0.019,0.61c0.006,0.192,0.016,0.362,0.029,0.51
			c0.025,0.267,0.013,0.413-0.039,0.439c-0.051,0.027-0.141,0.04-0.269,0.04H47.881z M47.612,24.747
			c-0.729,0.014-1.331,0.07-1.805,0.17s-0.854,0.237-1.142,0.41c-0.288,0.173-0.483,0.38-0.586,0.62
			c-0.103,0.239-0.153,0.507-0.153,0.8c0,0.427,0.122,0.757,0.365,0.99s0.582,0.35,1.018,0.35c0.691,0,1.245-0.263,1.661-0.79
			C47.385,26.771,47.6,25.92,47.612,24.747z"/>
		<path fill="#FFFFFF" d="M61.571,30.707c-0.397,0-0.803-0.094-1.219-0.28s-0.777-0.474-1.085-0.859v3.42
			c0,0.146-0.022,0.25-0.067,0.31c-0.045,0.061-0.144,0.09-0.298,0.09h-1.786c-0.141,0-0.237-0.029-0.288-0.09
			c-0.051-0.06-0.077-0.163-0.077-0.31V19.427c0-0.187,0.035-0.31,0.106-0.37c0.07-0.06,0.176-0.09,0.316-0.09h1.728
			c0.154,0,0.259,0.023,0.317,0.07s0.086,0.144,0.086,0.29v0.78c0.115-0.16,0.262-0.317,0.442-0.471
			c0.179-0.153,0.377-0.286,0.595-0.399s0.451-0.203,0.701-0.271c0.25-0.066,0.496-0.1,0.739-0.1c0.652,0,1.238,0.14,1.757,0.42
			c0.518,0.28,0.963,0.68,1.334,1.2c0.371,0.52,0.656,1.146,0.854,1.88s0.298,1.56,0.298,2.479c0,0.867-0.103,1.66-0.308,2.38
			c-0.205,0.721-0.499,1.337-0.883,1.851c-0.384,0.513-0.852,0.913-1.402,1.2C62.883,30.563,62.262,30.707,61.571,30.707z
			 M61.34,21.307c-0.269,0-0.528,0.07-0.777,0.21c-0.25,0.141-0.471,0.354-0.663,0.641c-0.192,0.286-0.349,0.649-0.47,1.09
			c-0.122,0.439-0.183,0.96-0.183,1.56c0,0.627,0.054,1.16,0.164,1.601c0.108,0.439,0.256,0.8,0.441,1.08
			c0.186,0.279,0.406,0.483,0.662,0.609c0.256,0.127,0.531,0.19,0.826,0.19c0.64,0,1.155-0.28,1.545-0.84
			c0.391-0.561,0.586-1.44,0.586-2.641c0-1.253-0.199-2.149-0.595-2.689C62.479,21.577,61.967,21.307,61.34,21.307z"/>
		<path fill="#FFFFFF" d="M73.052,21.427c-0.244-0.106-0.467-0.17-0.672-0.189c-0.205-0.021-0.384-0.004-0.537,0.05
			c-0.308,0.106-0.554,0.28-0.739,0.52c-0.186,0.24-0.327,0.521-0.422,0.84c-0.096,0.32-0.157,0.654-0.183,1
			c-0.026,0.348-0.039,0.681-0.039,1v5.16c0,0.16-0.022,0.271-0.067,0.33c-0.045,0.061-0.138,0.09-0.278,0.09h-1.843
			c-0.141,0-0.23-0.026-0.269-0.08c-0.038-0.053-0.058-0.173-0.058-0.359v-7.92c0-0.427-0.006-0.873-0.019-1.34
			s-0.019-0.854-0.019-1.16c0-0.174,0.025-0.287,0.077-0.34c0.051-0.054,0.147-0.08,0.288-0.08h1.843
			c0.192,0,0.288,0.106,0.288,0.32v0.762c0.167-0.254,0.378-0.501,0.634-0.741s0.525-0.388,0.807-0.441
			c0.269-0.053,0.534-0.069,0.797-0.05c0.262,0.021,0.463,0.084,0.604,0.19c0.064,0.053,0.105,0.104,0.125,0.149
			c0.019,0.047,0.029,0.124,0.029,0.23v1.74c0,0.146-0.026,0.253-0.077,0.319C73.27,21.494,73.18,21.494,73.052,21.427z"/>
		<path fill="#FFFFFF" d="M82.614,28.667c-0.474,0.627-1.041,1.097-1.699,1.41c-0.66,0.313-1.392,0.47-2.199,0.47
			c-0.845,0-1.584-0.16-2.217-0.479c-0.634-0.32-1.165-0.75-1.594-1.29c-0.429-0.54-0.752-1.17-0.97-1.891
			c-0.218-0.72-0.326-1.479-0.326-2.279c0-0.801,0.105-1.561,0.317-2.28c0.211-0.72,0.531-1.351,0.96-1.891
			c0.429-0.54,0.963-0.966,1.603-1.279s1.382-0.471,2.227-0.471s1.587,0.16,2.228,0.48c0.64,0.32,1.174,0.75,1.603,1.29
			c0.429,0.54,0.752,1.167,0.97,1.88c0.217,0.714,0.326,1.47,0.326,2.271c0,0.786-0.105,1.529-0.317,2.229
			C83.314,27.537,83.01,28.146,82.614,28.667z M78.716,21.027c-0.422,0-0.793,0.104-1.113,0.31c-0.32,0.207-0.586,0.477-0.797,0.81
			c-0.211,0.334-0.372,0.714-0.48,1.141c-0.109,0.427-0.163,0.867-0.163,1.32s0.054,0.893,0.163,1.319
			c0.108,0.427,0.269,0.811,0.48,1.15c0.211,0.34,0.477,0.613,0.797,0.819c0.32,0.207,0.691,0.311,1.113,0.311
			c0.435,0,0.813-0.104,1.133-0.311c0.32-0.206,0.586-0.479,0.797-0.819c0.211-0.34,0.368-0.724,0.471-1.15
			c0.102-0.427,0.153-0.866,0.153-1.319c0-0.44-0.051-0.874-0.153-1.301c-0.103-0.426-0.259-0.81-0.471-1.149
			c-0.211-0.34-0.477-0.613-0.797-0.82C79.529,21.131,79.151,21.027,78.716,21.027z"/>
		<path fill="#FFFFFF" d="M93.999,33.587c-0.512,0-1.034-0.057-1.565-0.17c-0.531-0.113-1.04-0.264-1.526-0.45
			c-0.128-0.054-0.208-0.109-0.24-0.17c-0.032-0.06-0.042-0.163-0.029-0.31l0.115-1.74c0.013-0.16,0.045-0.267,0.096-0.32
			s0.186-0.026,0.403,0.08c0.384,0.2,0.826,0.366,1.325,0.5c0.499,0.133,1.011,0.187,1.536,0.16c0.717-0.027,1.306-0.267,1.766-0.72
			c0.461-0.454,0.723-1.101,0.788-1.94c-0.333,0.4-0.743,0.693-1.229,0.88c-0.487,0.187-0.935,0.273-1.344,0.26
			c-0.666-0.013-1.267-0.153-1.805-0.42s-0.995-0.636-1.373-1.109c-0.378-0.474-0.669-1.03-0.874-1.67
			c-0.205-0.641-0.308-1.34-0.308-2.101c0-1.746,0.381-3.116,1.143-4.109c0.761-0.993,1.84-1.49,3.235-1.49
			c0.243,0,0.492,0.033,0.749,0.1c0.256,0.067,0.5,0.153,0.73,0.261c0.23,0.106,0.441,0.229,0.633,0.369
			c0.192,0.141,0.339,0.284,0.442,0.431v-0.761c0-0.227,0.102-0.34,0.307-0.34h1.767c0.141,0,0.233,0.03,0.278,0.09
			c0.045,0.061,0.067,0.178,0.067,0.351v8.16c0,1.986-0.451,3.513-1.354,4.58C96.831,33.054,95.586,33.587,93.999,33.587z
			 M94.498,21.167c-0.64,0-1.159,0.233-1.555,0.7c-0.397,0.467-0.595,1.279-0.595,2.439c0,0.454,0.061,0.863,0.183,1.23
			c0.121,0.367,0.278,0.677,0.47,0.93c0.192,0.254,0.413,0.447,0.663,0.58c0.25,0.134,0.502,0.2,0.758,0.2
			c0.614,0,1.126-0.264,1.536-0.79s0.615-1.25,0.615-2.17c0-0.974-0.202-1.736-0.605-2.29S95.074,21.167,94.498,21.167z"/>
		<path fill="#FFFFFF" d="M109.531,28.667c-0.474,0.627-1.04,1.097-1.699,1.41c-0.659,0.313-1.392,0.47-2.198,0.47
			c-0.845,0-1.584-0.16-2.218-0.479c-0.633-0.32-1.165-0.75-1.593-1.29c-0.429-0.54-0.752-1.17-0.97-1.891
			c-0.218-0.72-0.327-1.479-0.327-2.279c0-0.801,0.106-1.561,0.317-2.28c0.211-0.72,0.531-1.351,0.96-1.891
			c0.429-0.54,0.963-0.966,1.603-1.279c0.64-0.313,1.382-0.471,2.227-0.471s1.587,0.16,2.228,0.48c0.64,0.32,1.174,0.75,1.603,1.29
			c0.429,0.54,0.751,1.167,0.969,1.88c0.218,0.714,0.327,1.47,0.327,2.271c0,0.786-0.105,1.529-0.317,2.229
			C110.232,27.537,109.928,28.146,109.531,28.667z M105.634,21.027c-0.422,0-0.794,0.104-1.113,0.31
			c-0.32,0.207-0.586,0.477-0.797,0.81c-0.211,0.334-0.372,0.714-0.48,1.141c-0.108,0.427-0.163,0.867-0.163,1.32
			s0.055,0.893,0.163,1.319c0.109,0.427,0.269,0.811,0.48,1.15c0.211,0.34,0.477,0.613,0.797,0.819
			c0.319,0.207,0.691,0.311,1.113,0.311c0.435,0,0.813-0.104,1.133-0.311c0.32-0.206,0.586-0.479,0.797-0.819s0.368-0.724,0.47-1.15
			s0.154-0.866,0.154-1.319c0-0.44-0.051-0.874-0.154-1.301c-0.103-0.426-0.259-0.81-0.47-1.149s-0.477-0.613-0.797-0.82
			C106.446,21.131,106.069,21.027,105.634,21.027z"/>
		<path fill="#FFFFFF" d="M120.59,28.667c-0.474,0.627-1.04,1.097-1.699,1.41c-0.659,0.313-1.392,0.47-2.198,0.47
			c-0.845,0-1.584-0.16-2.218-0.479c-0.633-0.32-1.165-0.75-1.593-1.29c-0.429-0.54-0.752-1.17-0.97-1.891
			c-0.218-0.72-0.327-1.479-0.327-2.279c0-0.801,0.106-1.561,0.317-2.28c0.211-0.72,0.531-1.351,0.96-1.891s0.963-0.966,1.604-1.279
			c0.64-0.313,1.382-0.471,2.227-0.471s1.587,0.16,2.227,0.48s1.174,0.75,1.604,1.29c0.429,0.54,0.751,1.167,0.969,1.88
			c0.218,0.714,0.327,1.47,0.327,2.271c0,0.786-0.105,1.529-0.317,2.229S120.987,28.146,120.59,28.667z M116.693,21.027
			c-0.422,0-0.794,0.104-1.114,0.31c-0.32,0.207-0.585,0.477-0.797,0.81c-0.211,0.334-0.371,0.714-0.48,1.141
			s-0.163,0.867-0.163,1.32s0.054,0.893,0.163,1.319s0.269,0.811,0.48,1.15c0.211,0.34,0.477,0.613,0.797,0.819
			c0.32,0.207,0.691,0.311,1.114,0.311c0.435,0,0.813-0.104,1.133-0.311c0.32-0.206,0.585-0.479,0.797-0.819
			c0.211-0.34,0.368-0.724,0.47-1.15s0.154-0.866,0.154-1.319c0-0.44-0.051-0.874-0.154-1.301c-0.103-0.426-0.259-0.81-0.47-1.149
			c-0.211-0.34-0.477-0.613-0.797-0.82C117.505,21.131,117.128,21.027,116.693,21.027z"/>
		<path fill="#FFFFFF" d="M127.176,33.587c-0.512,0-1.034-0.057-1.565-0.17s-1.04-0.264-1.526-0.45
			c-0.128-0.054-0.208-0.109-0.24-0.17c-0.032-0.06-0.042-0.163-0.029-0.31l0.115-1.74c0.012-0.16,0.044-0.267,0.096-0.32
			s0.186-0.026,0.403,0.08c0.384,0.2,0.826,0.366,1.325,0.5c0.499,0.133,1.011,0.187,1.536,0.16c0.717-0.027,1.306-0.267,1.767-0.72
			c0.46-0.454,0.723-1.101,0.787-1.94c-0.333,0.4-0.743,0.693-1.229,0.88c-0.487,0.187-0.935,0.273-1.344,0.26
			c-0.666-0.013-1.267-0.153-1.805-0.42c-0.537-0.267-0.995-0.636-1.373-1.109c-0.378-0.474-0.669-1.03-0.874-1.67
			c-0.205-0.641-0.308-1.34-0.308-2.101c0-1.746,0.381-3.116,1.143-4.109s1.84-1.49,3.235-1.49c0.243,0,0.493,0.033,0.749,0.1
			c0.256,0.067,0.499,0.153,0.729,0.261c0.23,0.106,0.441,0.229,0.633,0.369c0.192,0.141,0.339,0.284,0.442,0.431v-0.761
			c0-0.227,0.102-0.34,0.307-0.34h1.766c0.141,0,0.233,0.03,0.278,0.09c0.045,0.061,0.067,0.178,0.067,0.351v8.16
			c0,1.986-0.451,3.513-1.354,4.58C130.008,33.054,128.763,33.587,127.176,33.587z M127.675,21.167c-0.64,0-1.158,0.233-1.555,0.7
			s-0.595,1.279-0.595,2.439c0,0.454,0.061,0.863,0.183,1.23c0.122,0.367,0.278,0.677,0.47,0.93c0.192,0.254,0.413,0.447,0.663,0.58
			c0.25,0.134,0.502,0.2,0.758,0.2c0.615,0,1.126-0.264,1.536-0.79s0.614-1.25,0.614-2.17c0-0.974-0.202-1.736-0.605-2.29
			C128.741,21.443,128.251,21.167,127.675,21.167z"/>
		<path fill="#FFFFFF" d="M134.433,30.207c-0.115,0-0.195-0.027-0.24-0.08c-0.045-0.054-0.067-0.16-0.067-0.32v-15.62
			c0-0.159,0.019-0.267,0.058-0.319c0.038-0.054,0.122-0.08,0.25-0.08h1.901c0.128,0,0.214,0.026,0.259,0.08
			c0.044,0.053,0.067,0.16,0.067,0.319v15.62c0,0.16-0.022,0.267-0.067,0.32c-0.045,0.053-0.131,0.08-0.259,0.08H134.433z"/>
		<path fill="#FFFFFF" d="M146.836,25.007c-0.013,0.16-0.048,0.283-0.105,0.37s-0.163,0.13-0.317,0.13h-6.009
			c0.089,0.894,0.361,1.554,0.816,1.98c0.454,0.427,0.995,0.653,1.623,0.68c0.588,0.026,1.104-0.033,1.545-0.18
			c0.441-0.146,0.867-0.354,1.277-0.62c0.179-0.12,0.301-0.153,0.365-0.101c0.064,0.054,0.096,0.193,0.096,0.42v1.5
			c0,0.147-0.017,0.247-0.048,0.301c-0.032,0.053-0.105,0.126-0.221,0.22c-0.372,0.267-0.842,0.467-1.411,0.6
			c-0.57,0.134-1.13,0.2-1.68,0.2c-1.536,0-2.749-0.514-3.638-1.54c-0.89-1.026-1.334-2.486-1.334-4.38
			c0-0.706,0.089-1.413,0.269-2.12c0.179-0.706,0.467-1.343,0.864-1.91c0.396-0.566,0.883-1.026,1.459-1.38
			c0.576-0.353,1.261-0.53,2.055-0.53c0.806,0,1.488,0.154,2.045,0.461c0.557,0.307,1.011,0.72,1.363,1.239
			c0.352,0.521,0.605,1.124,0.758,1.811c0.154,0.687,0.23,1.417,0.23,2.189V25.007z M142.497,20.967c-0.269,0-0.519,0.067-0.749,0.2
			c-0.23,0.134-0.432,0.307-0.604,0.52c-0.173,0.214-0.324,0.46-0.451,0.74c-0.128,0.28-0.211,0.573-0.25,0.88h3.897
			c0-0.267-0.042-0.54-0.125-0.819c-0.083-0.28-0.199-0.53-0.346-0.75c-0.147-0.221-0.336-0.403-0.566-0.551
			C143.073,21.04,142.804,20.967,142.497,20.967z"/>
		<path fill="#FFFFFF" d="M153.499,21.427c-0.244-0.106-0.467-0.17-0.672-0.189c-0.205-0.021-0.384-0.004-0.537,0.05
			c-0.308,0.106-0.554,0.28-0.739,0.52c-0.186,0.24-0.327,0.521-0.422,0.84c-0.096,0.32-0.157,0.654-0.183,1
			c-0.026,0.348-0.039,0.681-0.039,1v5.16c0,0.16-0.022,0.271-0.067,0.33c-0.045,0.061-0.138,0.09-0.278,0.09h-1.843
			c-0.141,0-0.23-0.026-0.269-0.08c-0.038-0.053-0.058-0.173-0.058-0.359v-7.92c0-0.427-0.006-0.873-0.019-1.34
			s-0.019-0.854-0.019-1.16c0-0.174,0.025-0.287,0.077-0.34c0.051-0.054,0.147-0.08,0.288-0.08h1.843
			c0.192,0,0.288,0.106,0.288,0.32v0.762c0.167-0.254,0.378-0.501,0.634-0.741s0.525-0.388,0.807-0.441
			c0.269-0.053,0.534-0.069,0.797-0.05c0.262,0.021,0.463,0.084,0.604,0.19c0.064,0.053,0.105,0.104,0.125,0.149
			c0.019,0.047,0.029,0.124,0.029,0.23v1.74c0,0.146-0.026,0.253-0.077,0.319C153.716,21.494,153.626,21.494,153.499,21.427z"/>
		<path fill="#FFFFFF" d="M157.492,30.527c-0.436,0-0.794-0.144-1.075-0.431c-0.282-0.286-0.423-0.644-0.423-1.069
			c0-0.427,0.141-0.783,0.423-1.07c0.281-0.287,0.64-0.43,1.075-0.43c0.435,0,0.796,0.143,1.084,0.43s0.432,0.644,0.432,1.07
			c0,0.439-0.147,0.8-0.441,1.08C158.272,30.387,157.914,30.527,157.492,30.527z M158.682,25.947c0,0.227-0.019,0.366-0.057,0.42
			c-0.039,0.053-0.147,0.08-0.327,0.08h-1.67c-0.153,0-0.253-0.027-0.298-0.08c-0.045-0.054-0.067-0.193-0.067-0.42l-0.211-10.521
			c-0.013-0.293-0.006-0.479,0.02-0.56c0.025-0.08,0.147-0.12,0.365-0.12h2.074c0.204,0,0.323,0.04,0.355,0.12
			c0.032,0.08,0.048,0.267,0.048,0.56L158.682,25.947z"/>
	</g>
</g>
</svg>
