<?xml version="1.0" encoding="utf-8"?>
<!-- Generator: Adobe Illustrator 16.0.0, SVG Export Plug-In . SVG Version: 6.00 Build 0)  -->
<!DOCTYPE svg PUBLIC "-//W3C//DTD SVG 1.1//EN" "http://www.w3.org/Graphics/SVG/1.1/DTD/svg11.dtd">
<svg version="1.1" id="레이어_1" xmlns="http://www.w3.org/2000/svg" xmlns:xlink="http://www.w3.org/1999/xlink" x="0px"
	 y="0px" width="194.996px" height="20.482px" viewBox="0 0 194.996 20.482" enable-background="new 0 0 194.996 20.482"
	 xml:space="preserve">
<g>
	<path fill="#706F6F" d="M13.566,17.189c-0.174,0-0.279-0.024-0.319-0.072s-0.06-0.154-0.06-0.318V6.468L9.297,16.736
		c-0.066,0.151-0.127,0.247-0.18,0.288c-0.053,0.042-0.152,0.063-0.299,0.063H7.082c-0.146,0-0.249-0.021-0.309-0.063
		c-0.061-0.041-0.117-0.137-0.17-0.288L2.713,6.468v10.331c0,0.164-0.02,0.271-0.06,0.318s-0.146,0.072-0.319,0.072H0.379
		c-0.173,0-0.279-0.024-0.318-0.072C0.02,17.069,0,16.963,0,16.799V1.96c0-0.288,0.03-0.463,0.09-0.524
		C0.15,1.374,0.313,1.343,0.578,1.343h2.234c0.12,0,0.213,0.021,0.279,0.062c0.066,0.042,0.127,0.131,0.18,0.268L7.94,13.629
		l4.688-11.957c0.08-0.219,0.246-0.329,0.498-0.329h2.175c0.279,0,0.448,0.031,0.509,0.093S15.9,1.672,15.9,1.96v14.839
		c0,0.164-0.023,0.271-0.07,0.318s-0.149,0.072-0.309,0.072H13.566z"/>
	<path fill="#706F6F" d="M24.359,17.23c-0.12,0-0.197-0.014-0.23-0.041s-0.049-0.11-0.049-0.247v-0.885
		c-0.227,0.37-0.596,0.686-1.107,0.946c-0.513,0.261-1.021,0.392-1.526,0.392c-0.546,0-1.071-0.079-1.576-0.237
		c-0.506-0.157-0.921-0.404-1.247-0.74c-0.326-0.337-0.582-0.741-0.768-1.215c-0.188-0.473-0.279-1.011-0.279-1.615
		c0-0.713,0.166-1.358,0.498-1.935s0.775-1.025,1.327-1.348s1.207-0.556,1.965-0.7c0.759-0.144,1.597-0.188,2.514-0.134
		c-0.079-1.083-0.532-1.68-1.356-1.79c-0.266-0.027-0.535-0.021-0.809,0.021c-0.271,0.041-0.538,0.106-0.797,0.195
		c-0.26,0.09-0.51,0.192-0.748,0.309c-0.24,0.117-0.453,0.237-0.639,0.36c-0.279,0.192-0.479,0.288-0.6,0.288
		c-0.119,0-0.179-0.137-0.179-0.411V6.735c0-0.179,0.017-0.306,0.05-0.381s0.129-0.154,0.289-0.237
		c0.398-0.205,0.868-0.397,1.406-0.576c0.539-0.178,1.174-0.268,1.906-0.268c1.355,0,2.37,0.357,3.041,1.07
		c0.672,0.714,1.008,1.818,1.008,3.313v4.692c0,0.179,0,0.374,0,0.586c0,0.213,0.004,0.43,0.01,0.648
		c0.008,0.22,0.014,0.43,0.021,0.628c0.007,0.199,0.017,0.374,0.03,0.524c0.026,0.274,0.013,0.426-0.04,0.453
		c-0.054,0.027-0.146,0.041-0.279,0.041H24.359z M24.08,11.551c-0.759,0.014-1.384,0.072-1.876,0.175s-0.888,0.244-1.187,0.422
		c-0.3,0.179-0.502,0.391-0.609,0.638c-0.105,0.247-0.159,0.521-0.159,0.823c0,0.439,0.126,0.779,0.379,1.019
		c0.253,0.24,0.605,0.36,1.058,0.36c0.719,0,1.293-0.271,1.726-0.813S24.066,12.758,24.08,11.551z"/>
	<path fill="#706F6F" d="M29.945,16.942c-0.067,0.109-0.123,0.175-0.17,0.195s-0.104,0.031-0.17,0.031h-2.254
		c-0.146,0-0.227-0.031-0.24-0.093c-0.013-0.062,0.041-0.188,0.16-0.381l3.371-5.577L27.49,6.076
		c-0.133-0.206-0.186-0.343-0.159-0.411s0.153-0.104,0.38-0.104h2.134c0.159,0,0.28,0.069,0.359,0.206l1.855,3.148l1.854-3.148
		c0.08-0.137,0.2-0.206,0.359-0.206h2.135c0.227,0,0.353,0.035,0.379,0.104c0.027,0.068-0.026,0.205-0.159,0.411l-3.151,5.042
		l3.371,5.577c0.119,0.192,0.172,0.319,0.159,0.381s-0.093,0.093-0.239,0.093h-2.254c-0.066,0-0.123-0.011-0.17-0.031
		s-0.104-0.086-0.17-0.195L32.06,13.32L29.945,16.942z"/>
	<path fill="#706F6F" d="M45.307,16.778c0,0.164-0.027,0.273-0.08,0.329c-0.053,0.055-0.153,0.082-0.299,0.082h-1.855
		c-0.16,0-0.267-0.034-0.32-0.103c-0.053-0.069-0.079-0.179-0.079-0.329V8.711c0-0.521,0.003-1.05,0.01-1.585
		s-0.01-0.939-0.05-1.214c-0.027-0.151-0.014-0.247,0.04-0.288c0.054-0.042,0.173-0.063,0.358-0.063h1.896
		c0.146,0,0.238,0.014,0.279,0.041c0.039,0.028,0.06,0.104,0.06,0.227v0.782c0.279-0.302,0.642-0.579,1.087-0.833
		s0.9-0.381,1.367-0.381c1.329,0,2.304,0.391,2.922,1.173c0.619,0.782,0.928,1.921,0.928,3.416v6.792
		c0,0.164-0.026,0.273-0.08,0.329c-0.053,0.055-0.152,0.082-0.299,0.082h-1.855c-0.266,0-0.398-0.144-0.398-0.432v-6.359
		c0-1.66-0.486-2.49-1.457-2.49c-0.678,0-1.21,0.227-1.596,0.679c-0.386,0.453-0.578,1.07-0.578,1.853V16.778z"/>
	<path fill="#706F6F" d="M60.787,17.23c-0.146,0-0.242-0.021-0.289-0.062s-0.07-0.117-0.07-0.227V16.16
		c-0.119,0.192-0.275,0.367-0.469,0.525c-0.192,0.157-0.402,0.291-0.628,0.401c-0.227,0.109-0.459,0.198-0.698,0.268
		c-0.24,0.068-0.466,0.103-0.678,0.103c-1.305,0-2.281-0.398-2.934-1.193c-0.651-0.796-0.978-1.928-0.978-3.396V6.035
		c0-0.15,0.026-0.261,0.08-0.329c0.053-0.068,0.153-0.104,0.3-0.104h1.835c0.159,0,0.266,0.045,0.319,0.134
		c0.053,0.09,0.08,0.196,0.08,0.319v6.462c0,0.48,0.036,0.875,0.109,1.184c0.072,0.309,0.176,0.556,0.309,0.741
		c0.133,0.185,0.297,0.315,0.489,0.391s0.409,0.113,0.648,0.113c0.585,0,1.08-0.236,1.486-0.71c0.405-0.474,0.608-1.211,0.608-2.212
		V6.035c0-0.15,0.026-0.261,0.08-0.329c0.053-0.068,0.152-0.104,0.299-0.104h1.855c0.16,0,0.262,0.049,0.309,0.145
		s0.07,0.206,0.07,0.329v8.253c0,0.411,0.007,0.841,0.02,1.286c0.014,0.445,0.021,0.84,0.021,1.184c0,0.178-0.017,0.295-0.05,0.35
		s-0.143,0.082-0.329,0.082H60.787z"/>
	<path fill="#706F6F" d="M78.023,17.189c-0.146,0-0.252-0.031-0.318-0.093s-0.1-0.175-0.1-0.339V9.843
		c0-0.549-0.146-0.991-0.439-1.328c-0.293-0.336-0.658-0.504-1.098-0.504c-0.332,0-0.631,0.079-0.897,0.236
		c-0.267,0.158-0.492,0.374-0.679,0.648c-0.186,0.274-0.328,0.591-0.428,0.947c-0.101,0.356-0.15,0.728-0.15,1.111v5.824
		c0,0.273-0.127,0.411-0.379,0.411H71.66c-0.146,0-0.253-0.031-0.319-0.093c-0.067-0.062-0.101-0.175-0.101-0.339V9.843
		c0-0.646-0.123-1.111-0.369-1.399s-0.602-0.433-1.066-0.433c-0.639,0-1.145,0.224-1.517,0.669
		c-0.372,0.446-0.559,0.978-0.559,1.595v6.504c0,0.164-0.026,0.273-0.079,0.329c-0.054,0.055-0.154,0.082-0.3,0.082h-1.855
		c-0.159,0-0.267-0.034-0.319-0.103c-0.053-0.069-0.08-0.179-0.08-0.329V8.711c0-0.521,0-1.04,0-1.554
		c0-0.515-0.013-0.909-0.039-1.184c-0.027-0.151-0.01-0.258,0.05-0.319s0.189-0.093,0.389-0.093h1.855
		c0.146,0,0.239,0.014,0.279,0.041c0.04,0.028,0.06,0.104,0.06,0.227v0.844c0.293-0.315,0.648-0.593,1.068-0.833
		c0.418-0.24,0.84-0.36,1.266-0.36c0.639,0,1.24,0.172,1.807,0.515c0.564,0.343,1,0.803,1.307,1.379
		c0.172-0.261,0.371-0.508,0.598-0.741s0.469-0.438,0.729-0.617c0.26-0.178,0.539-0.322,0.838-0.433
		c0.299-0.109,0.608-0.164,0.928-0.164c0.598,0,1.144,0.089,1.636,0.268c0.491,0.178,0.914,0.439,1.267,0.782
		s0.625,0.765,0.818,1.266c0.192,0.501,0.289,1.073,0.289,1.718v7.327c0,0.164-0.029,0.273-0.09,0.329
		c-0.06,0.055-0.163,0.082-0.309,0.082H78.023z"/>
	<path fill="#706F6F" d="M85.205,16.84c0,0.15-0.023,0.25-0.069,0.298C85.089,17.186,85,17.21,84.867,17.21h-1.855
		c-0.16,0-0.27-0.024-0.33-0.072c-0.06-0.048-0.09-0.168-0.09-0.359V0.581c0-0.191,0.027-0.312,0.08-0.359s0.152-0.072,0.299-0.072
		h1.896c0.159,0,0.259,0.024,0.299,0.072c0.039,0.048,0.06,0.168,0.06,0.359v5.742c0.279-0.315,0.646-0.583,1.097-0.803
		c0.453-0.219,0.892-0.329,1.317-0.329c0.718,0,1.36,0.141,1.925,0.422c0.565,0.281,1.045,0.683,1.437,1.204
		s0.694,1.156,0.907,1.903c0.213,0.748,0.32,1.588,0.32,2.521c0,0.946-0.104,1.801-0.31,2.562c-0.206,0.762-0.503,1.407-0.888,1.935
		c-0.387,0.528-0.861,0.934-1.427,1.215s-1.214,0.422-1.944,0.422c-0.24,0-0.479-0.035-0.719-0.104s-0.469-0.157-0.688-0.268
		c-0.22-0.109-0.423-0.24-0.608-0.391c-0.187-0.151-0.332-0.302-0.439-0.453V16.84z M87.36,7.661c-0.306,0-0.589,0.065-0.849,0.195
		c-0.259,0.131-0.488,0.336-0.688,0.617s-0.355,0.648-0.469,1.102c-0.113,0.452-0.17,1.008-0.17,1.667
		c0,0.631,0.063,1.177,0.189,1.636c0.127,0.46,0.289,0.837,0.489,1.132c0.199,0.295,0.429,0.515,0.688,0.659
		c0.259,0.144,0.528,0.216,0.808,0.216c0.638,0,1.163-0.281,1.576-0.844c0.412-0.563,0.618-1.495,0.618-2.799
		c0-1.235-0.199-2.141-0.599-2.717S88.025,7.661,87.36,7.661z"/>
	<path fill="#706F6F" d="M102.542,11.818c-0.013,0.164-0.05,0.291-0.11,0.381c-0.059,0.089-0.169,0.134-0.328,0.134h-6.244
		c0.092,0.919,0.375,1.598,0.848,2.037c0.472,0.439,1.033,0.672,1.686,0.699c0.611,0.028,1.146-0.033,1.605-0.185
		s0.901-0.363,1.327-0.639c0.187-0.123,0.312-0.157,0.379-0.103c0.066,0.055,0.1,0.199,0.1,0.433v1.543
		c0,0.151-0.017,0.254-0.05,0.309s-0.109,0.131-0.229,0.227c-0.386,0.274-0.874,0.48-1.466,0.617
		c-0.592,0.138-1.174,0.206-1.746,0.206c-1.596,0-2.855-0.528-3.78-1.585c-0.925-1.056-1.387-2.559-1.387-4.507
		c0-0.727,0.093-1.454,0.279-2.182c0.187-0.727,0.485-1.382,0.897-1.965s0.918-1.057,1.517-1.42s1.31-0.546,2.135-0.546
		c0.838,0,1.546,0.158,2.124,0.474c0.579,0.315,1.051,0.741,1.417,1.276c0.366,0.534,0.628,1.155,0.788,1.862
		c0.16,0.706,0.239,1.458,0.239,2.253V11.818z M98.033,7.661c-0.279,0-0.539,0.068-0.777,0.206c-0.24,0.137-0.449,0.315-0.629,0.535
		c-0.18,0.219-0.336,0.473-0.469,0.761s-0.22,0.59-0.26,0.905h4.051c0-0.273-0.044-0.556-0.131-0.844
		c-0.086-0.288-0.206-0.545-0.358-0.771c-0.153-0.227-0.349-0.415-0.589-0.565C98.632,7.736,98.353,7.661,98.033,7.661z"/>
	<path fill="#706F6F" d="M109.266,8.135c-0.254-0.11-0.486-0.176-0.699-0.196s-0.398-0.003-0.559,0.052
		c-0.318,0.11-0.575,0.288-0.768,0.535c-0.193,0.247-0.34,0.535-0.439,0.864s-0.162,0.673-0.189,1.029
		c-0.026,0.356-0.039,0.699-0.039,1.028v5.311c0,0.164-0.023,0.277-0.07,0.339s-0.143,0.093-0.289,0.093h-1.916
		c-0.146,0-0.238-0.027-0.279-0.082c-0.039-0.056-0.059-0.179-0.059-0.371V8.587c0-0.438-0.008-0.898-0.021-1.379
		c-0.013-0.479-0.021-0.878-0.021-1.193c0-0.178,0.027-0.295,0.08-0.35s0.152-0.083,0.299-0.083h1.916
		c0.199,0,0.299,0.11,0.299,0.33v0.784c0.173-0.261,0.393-0.516,0.658-0.763c0.267-0.248,0.546-0.398,0.838-0.454
		c0.279-0.055,0.556-0.072,0.828-0.052c0.273,0.021,0.482,0.086,0.629,0.196c0.066,0.055,0.109,0.106,0.129,0.154
		c0.021,0.048,0.03,0.127,0.03,0.236v1.79c0,0.151-0.026,0.261-0.079,0.33C109.491,8.203,109.398,8.203,109.266,8.135z"/>
	<path fill="#706F6F" d="M123.789,15.584c-0.493,0.646-1.082,1.129-1.766,1.451c-0.686,0.322-1.447,0.483-2.285,0.483
		c-0.877,0-1.646-0.164-2.305-0.494c-0.658-0.329-1.21-0.771-1.655-1.327c-0.446-0.556-0.781-1.204-1.007-1.944
		c-0.227-0.741-0.34-1.523-0.34-2.347s0.109-1.604,0.329-2.346s0.552-1.39,0.997-1.945c0.446-0.556,1.002-0.994,1.666-1.316
		c0.666-0.322,1.438-0.484,2.314-0.484c0.878,0,1.649,0.165,2.314,0.494s1.221,0.771,1.666,1.327s0.781,1.201,1.008,1.935
		c0.226,0.734,0.338,1.513,0.338,2.336c0,0.81-0.109,1.574-0.328,2.295C124.517,14.422,124.2,15.049,123.789,15.584z M119.738,7.723
		c-0.438,0-0.824,0.106-1.156,0.319c-0.333,0.213-0.609,0.49-0.828,0.833c-0.22,0.344-0.387,0.734-0.499,1.173
		c-0.113,0.439-0.17,0.893-0.17,1.358c0,0.467,0.057,0.92,0.17,1.358c0.112,0.439,0.279,0.834,0.499,1.184
		c0.219,0.35,0.495,0.631,0.828,0.844c0.332,0.213,0.718,0.319,1.156,0.319c0.452,0,0.845-0.106,1.178-0.319
		c0.332-0.213,0.607-0.494,0.828-0.844c0.219-0.35,0.381-0.744,0.488-1.184c0.105-0.438,0.159-0.892,0.159-1.358
		c0-0.452-0.054-0.898-0.159-1.338c-0.107-0.438-0.27-0.833-0.488-1.183c-0.221-0.351-0.496-0.631-0.828-0.844
		C120.583,7.829,120.19,7.723,119.738,7.723z"/>
	<path fill="#706F6F" d="M131.888,2.475c0,0.138-0.03,0.216-0.09,0.237c-0.06,0.021-0.144,0.003-0.249-0.052
		c-0.187-0.082-0.359-0.137-0.52-0.165c-0.158-0.027-0.346-0.027-0.559,0c-0.346,0.056-0.578,0.316-0.697,0.782
		c-0.027,0.11-0.047,0.274-0.061,0.494s-0.02,0.467-0.02,0.741v1.028h1.676c0.16,0,0.263,0.031,0.309,0.093
		c0.047,0.062,0.07,0.168,0.07,0.319v1.708c0,0.151-0.023,0.257-0.07,0.318c-0.046,0.063-0.148,0.093-0.309,0.093h-1.676v8.706
		c0,0.164-0.029,0.273-0.09,0.329c-0.06,0.055-0.156,0.082-0.289,0.082h-1.855c-0.146,0-0.246-0.027-0.299-0.082
		c-0.054-0.056-0.08-0.165-0.08-0.329V8.072h-1.396c-0.253,0-0.379-0.137-0.379-0.411V5.953c0-0.274,0.126-0.412,0.379-0.412h1.396
		V4.656c0-0.576,0.043-1.146,0.129-1.708c0.087-0.563,0.246-1.06,0.479-1.492c0.232-0.432,0.552-0.775,0.958-1.029
		c0.404-0.253,0.928-0.394,1.565-0.422c0.267-0.013,0.559,0,0.878,0.041c0.319,0.042,0.552,0.097,0.698,0.165
		c0.093,0.041,0.153,0.086,0.18,0.134s0.032,0.127,0.021,0.236L131.888,2.475z"/>
	<path fill="#706F6F" d="M138.391,17.189c-0.146,0-0.249-0.027-0.309-0.082c-0.061-0.056-0.09-0.165-0.09-0.329V1.755
		c0-0.274,0.133-0.412,0.398-0.412h1.916c0.266,0,0.398,0.138,0.398,0.412v6.009h5.486V1.755c0-0.274,0.133-0.412,0.399-0.412h1.915
		c0.266,0,0.398,0.138,0.398,0.412v15.023c0,0.164-0.029,0.273-0.09,0.329c-0.059,0.055-0.162,0.082-0.309,0.082h-1.915
		c-0.147,0-0.249-0.027-0.31-0.082c-0.06-0.056-0.09-0.165-0.09-0.329v-6.421h-5.486v6.421c0,0.164-0.029,0.273-0.09,0.329
		c-0.06,0.055-0.162,0.082-0.309,0.082H138.391z"/>
	<path fill="#706F6F" d="M152.376,3.895c-0.438,0-0.805-0.157-1.097-0.473c-0.293-0.315-0.439-0.7-0.439-1.153
		c0-0.452,0.143-0.84,0.429-1.162s0.655-0.483,1.107-0.483s0.825,0.161,1.117,0.483s0.438,0.71,0.438,1.162
		c0,0.453-0.146,0.838-0.438,1.153S152.828,3.895,152.376,3.895z M151.358,17.189c-0.12,0-0.202-0.027-0.249-0.082
		c-0.047-0.056-0.07-0.165-0.07-0.329V6.056c0-0.165,0.02-0.274,0.061-0.329c0.039-0.055,0.126-0.082,0.259-0.082h1.976
		c0.133,0,0.223,0.027,0.27,0.082c0.046,0.055,0.069,0.164,0.069,0.329v10.723c0,0.164-0.023,0.273-0.069,0.329
		c-0.047,0.055-0.137,0.082-0.27,0.082H151.358z"/>
	<path fill="#706F6F" d="M160.436,16.758c-0.346,0.273-0.738,0.466-1.177,0.576c-0.438,0.109-0.905,0.171-1.396,0.185
		c-0.253,0-0.526-0.018-0.817-0.051c-0.293-0.035-0.572-0.076-0.839-0.124s-0.512-0.106-0.737-0.175
		c-0.227-0.068-0.399-0.131-0.52-0.186c-0.146-0.068-0.242-0.127-0.289-0.175s-0.063-0.147-0.05-0.298l0.159-1.503
		c0.014-0.164,0.047-0.268,0.1-0.309c0.054-0.041,0.153-0.034,0.3,0.021c0.412,0.151,0.841,0.281,1.286,0.392
		c0.445,0.109,0.908,0.164,1.387,0.164s0.832-0.123,1.058-0.37s0.339-0.556,0.339-0.926c0-0.261-0.116-0.519-0.349-0.772
		c-0.233-0.254-0.509-0.49-0.828-0.71c-0.319-0.219-0.646-0.422-0.978-0.606c-0.332-0.186-0.599-0.34-0.798-0.464
		c-0.438-0.274-0.808-0.627-1.107-1.06c-0.3-0.432-0.448-0.937-0.448-1.513c0-0.617,0.103-1.148,0.309-1.595
		c0.206-0.445,0.479-0.813,0.818-1.102c0.339-0.288,0.73-0.5,1.177-0.638c0.445-0.137,0.901-0.206,1.366-0.206
		c0.24,0,0.496,0.018,0.769,0.052s0.532,0.079,0.778,0.134s0.475,0.117,0.688,0.186s0.379,0.13,0.499,0.185
		c0.133,0.069,0.21,0.131,0.229,0.186s0.023,0.138,0.01,0.247l-0.18,1.564c-0.026,0.164-0.072,0.257-0.139,0.277
		c-0.067,0.021-0.174-0.003-0.32-0.072c-0.691-0.343-1.43-0.5-2.214-0.473c-0.426,0.014-0.735,0.12-0.928,0.318
		c-0.192,0.199-0.289,0.478-0.289,0.834c0,0.151,0.086,0.336,0.259,0.556s0.479,0.452,0.918,0.699
		c0.412,0.233,0.785,0.457,1.117,0.669c0.332,0.213,0.586,0.381,0.758,0.504c0.479,0.385,0.842,0.769,1.088,1.153
		c0.246,0.384,0.369,0.898,0.369,1.543c0,0.604-0.113,1.149-0.34,1.637C161.246,15.999,160.9,16.414,160.436,16.758z"/>
	<path fill="#706F6F" d="M168.555,17.046c-0.266,0.123-0.585,0.229-0.957,0.318c-0.373,0.089-0.798,0.127-1.277,0.113
		c-0.492-0.014-0.938-0.141-1.336-0.381c-0.399-0.24-0.691-0.531-0.878-0.874c-0.187-0.398-0.3-0.848-0.339-1.349
		c-0.041-0.5-0.061-1.148-0.061-1.944V8.072h-1.416c-0.253,0-0.379-0.137-0.379-0.411V5.953c0-0.274,0.126-0.412,0.379-0.412h1.416
		V2.804c0-0.273,0.133-0.411,0.399-0.411h1.835c0.253,0,0.379,0.138,0.379,0.411v2.737h1.696c0.159,0,0.263,0.031,0.31,0.093
		c0.046,0.062,0.069,0.168,0.069,0.319v1.708c0,0.151-0.023,0.257-0.069,0.318c-0.047,0.063-0.15,0.093-0.31,0.093h-1.696v4.61
		c0,0.494,0,0.896,0,1.204s0.014,0.511,0.041,0.606c0.053,0.261,0.166,0.426,0.338,0.494c0.174,0.069,0.359,0.09,0.559,0.062
		c0.2-0.027,0.393-0.075,0.579-0.144s0.333-0.13,0.438-0.186c0.107-0.055,0.187-0.058,0.24-0.01c0.053,0.048,0.086,0.147,0.1,0.298
		l0.18,1.544c0.013,0.123,0.006,0.223-0.021,0.298S168.675,16.99,168.555,17.046z"/>
	<path fill="#706F6F" d="M178.15,15.584c-0.492,0.646-1.08,1.129-1.766,1.451c-0.684,0.322-1.445,0.483-2.283,0.483
		c-0.877,0-1.646-0.164-2.305-0.494c-0.658-0.329-1.211-0.771-1.656-1.327s-0.781-1.204-1.007-1.944
		c-0.227-0.741-0.339-1.523-0.339-2.347s0.109-1.604,0.328-2.346c0.221-0.741,0.553-1.39,0.998-1.945s1.001-0.994,1.666-1.316
		s1.438-0.484,2.314-0.484s1.648,0.165,2.314,0.494c0.664,0.329,1.219,0.771,1.666,1.327c0.445,0.556,0.781,1.201,1.006,1.935
		c0.227,0.734,0.34,1.513,0.34,2.336c0,0.81-0.109,1.574-0.328,2.295C178.879,14.422,178.563,15.049,178.15,15.584z M174.102,7.723
		c-0.439,0-0.824,0.106-1.157,0.319s-0.608,0.49-0.828,0.833c-0.22,0.344-0.386,0.734-0.499,1.173
		c-0.113,0.439-0.17,0.893-0.17,1.358c0,0.467,0.057,0.92,0.17,1.358c0.113,0.439,0.279,0.834,0.499,1.184s0.495,0.631,0.828,0.844
		s0.718,0.319,1.157,0.319c0.451,0,0.844-0.106,1.178-0.319c0.332-0.213,0.607-0.494,0.826-0.844c0.221-0.35,0.383-0.744,0.49-1.184
		c0.105-0.438,0.158-0.892,0.158-1.358c0-0.452-0.053-0.898-0.158-1.338c-0.107-0.438-0.27-0.833-0.49-1.183
		c-0.219-0.351-0.494-0.631-0.826-0.844C174.945,7.829,174.553,7.723,174.102,7.723z"/>
	<path fill="#706F6F" d="M186.15,8.135c-0.252-0.11-0.486-0.176-0.699-0.196s-0.398-0.003-0.559,0.052
		c-0.318,0.11-0.574,0.288-0.768,0.535s-0.338,0.535-0.438,0.864c-0.102,0.329-0.164,0.673-0.191,1.029
		c-0.025,0.356-0.039,0.699-0.039,1.028v5.311c0,0.164-0.023,0.277-0.07,0.339s-0.143,0.093-0.289,0.093h-1.914
		c-0.146,0-0.24-0.027-0.279-0.082c-0.041-0.056-0.061-0.179-0.061-0.371V8.587c0-0.438-0.008-0.898-0.02-1.379
		c-0.014-0.479-0.02-0.878-0.02-1.193c0-0.178,0.025-0.295,0.078-0.35c0.055-0.055,0.154-0.083,0.301-0.083h1.914
		c0.199,0,0.299,0.11,0.299,0.33v0.784c0.174-0.261,0.393-0.516,0.658-0.763c0.268-0.248,0.547-0.398,0.838-0.454
		c0.279-0.055,0.557-0.072,0.828-0.052c0.273,0.021,0.482,0.086,0.629,0.196c0.066,0.055,0.109,0.106,0.131,0.154
		c0.02,0.048,0.029,0.127,0.029,0.236v1.79c0,0.151-0.027,0.261-0.08,0.33C186.377,8.203,186.283,8.203,186.15,8.135z"/>
	<path fill="#706F6F" d="M191.078,17.622c-0.346,1.015-0.777,1.745-1.297,2.191c-0.518,0.445-1.137,0.669-1.855,0.669
		c-0.146,0-0.359-0.011-0.639-0.031s-0.551-0.086-0.816-0.195c-0.146-0.068-0.244-0.127-0.289-0.175
		c-0.047-0.048-0.064-0.147-0.051-0.299l0.141-1.688c0.012-0.123,0.053-0.195,0.119-0.216s0.152-0.01,0.26,0.031
		c0.186,0.068,0.375,0.119,0.568,0.154c0.191,0.034,0.389,0.044,0.588,0.03c0.105-0.014,0.207-0.041,0.299-0.082
		c0.094-0.041,0.174-0.123,0.24-0.247c0.146-0.315,0.281-0.624,0.408-0.926s0.25-0.652,0.369-1.05l-3.311-9.714
		c-0.068-0.206-0.074-0.336-0.021-0.391c0.055-0.055,0.16-0.083,0.32-0.083h1.895c0.119,0,0.203,0.018,0.25,0.052
		s0.09,0.127,0.129,0.278l1.975,6.544l1.977-6.544c0.039-0.151,0.082-0.244,0.129-0.278s0.131-0.052,0.25-0.052h1.936
		c0.186,0,0.295,0.035,0.328,0.104s0.018,0.199-0.049,0.391L191.078,17.622z"/>
</g>
</svg>
