<?xml version="1.0" encoding="utf-8"?>
<!-- Generator: Adobe Illustrator 16.0.0, SVG Export Plug-In . SVG Version: 6.00 Build 0)  -->
<!DOCTYPE svg PUBLIC "-//W3C//DTD SVG 1.1//EN" "http://www.w3.org/Graphics/SVG/1.1/DTD/svg11.dtd">
<svg version="1.1" id="레이어_1" xmlns="http://www.w3.org/2000/svg" xmlns:xlink="http://www.w3.org/1999/xlink" x="0px"
	 y="0px" width="82.771px" height="19.304px" viewBox="0 0 82.771 19.304" enable-background="new 0 0 82.771 19.304"
	 xml:space="preserve">
<g>
	<path fill="#706F6F" d="M0.418,15.847C0.139,15.847,0,15.695,0,15.394V0.37c0-0.15,0.026-0.25,0.08-0.298
		C0.133,0.024,0.232,0,0.379,0h1.995C2.52,0,2.613,0.024,2.653,0.072s0.06,0.147,0.06,0.298v12.884h4.809
		c0.146,0,0.245,0.03,0.299,0.093c0.053,0.062,0.08,0.168,0.08,0.318v1.771c0,0.15-0.027,0.257-0.08,0.318
		c-0.054,0.062-0.153,0.093-0.299,0.093H0.418z"/>
	<path fill="#706F6F" d="M14.703,15.888c-0.12,0-0.197-0.014-0.23-0.041s-0.049-0.11-0.049-0.247v-0.885
		c-0.227,0.37-0.596,0.686-1.107,0.946c-0.513,0.261-1.021,0.392-1.526,0.392c-0.546,0-1.071-0.079-1.576-0.237
		c-0.506-0.157-0.921-0.404-1.247-0.74c-0.326-0.337-0.582-0.741-0.768-1.215C8.012,13.388,7.92,12.85,7.92,12.245
		c0-0.713,0.166-1.358,0.498-1.935s0.775-1.025,1.327-1.348s1.207-0.556,1.965-0.7c0.759-0.144,1.597-0.188,2.514-0.134
		c-0.079-1.083-0.532-1.68-1.356-1.79c-0.266-0.027-0.535-0.021-0.809,0.021c-0.271,0.041-0.538,0.106-0.797,0.195
		c-0.26,0.09-0.51,0.192-0.748,0.309c-0.24,0.117-0.453,0.237-0.639,0.36c-0.279,0.192-0.479,0.288-0.6,0.288
		c-0.119,0-0.179-0.137-0.179-0.411V5.393c0-0.179,0.017-0.306,0.05-0.381s0.129-0.154,0.289-0.237
		c0.398-0.205,0.868-0.397,1.406-0.576c0.539-0.178,1.174-0.268,1.906-0.268c1.355,0,2.37,0.357,3.041,1.07
		c0.672,0.714,1.008,1.818,1.008,3.313v4.692c0,0.179,0,0.374,0,0.586c0,0.213,0.004,0.43,0.01,0.648
		c0.008,0.22,0.014,0.43,0.021,0.628c0.007,0.199,0.017,0.374,0.03,0.524c0.026,0.274,0.013,0.426-0.04,0.453
		c-0.054,0.027-0.146,0.041-0.279,0.041H14.703z M14.424,10.208c-0.759,0.014-1.384,0.072-1.876,0.175s-0.888,0.244-1.187,0.422
		c-0.3,0.179-0.502,0.391-0.609,0.638c-0.105,0.247-0.159,0.521-0.159,0.823c0,0.439,0.126,0.779,0.379,1.019
		c0.253,0.24,0.605,0.36,1.058,0.36c0.719,0,1.293-0.271,1.726-0.813S14.41,11.415,14.424,10.208z"/>
	<path fill="#706F6F" d="M21.485,15.436c0,0.164-0.026,0.273-0.079,0.329c-0.054,0.055-0.154,0.082-0.3,0.082h-1.855
		c-0.159,0-0.267-0.034-0.319-0.103c-0.053-0.069-0.08-0.179-0.08-0.329V7.368c0-0.521,0.004-1.05,0.01-1.585
		c0.008-0.535-0.01-0.939-0.049-1.214c-0.027-0.151-0.014-0.247,0.039-0.288c0.054-0.042,0.174-0.063,0.359-0.063h1.896
		c0.146,0,0.239,0.014,0.279,0.041c0.04,0.028,0.06,0.104,0.06,0.227v0.782c0.279-0.302,0.642-0.579,1.088-0.833
		c0.445-0.254,0.9-0.381,1.366-0.381c1.329,0,2.304,0.391,2.923,1.173C27.44,6.01,27.75,7.148,27.75,8.644v6.792
		c0,0.164-0.027,0.273-0.08,0.329c-0.053,0.055-0.152,0.082-0.299,0.082h-1.855c-0.267,0-0.399-0.144-0.399-0.432V9.056
		c0-1.66-0.485-2.49-1.456-2.49c-0.678,0-1.211,0.227-1.596,0.679c-0.387,0.453-0.579,1.07-0.579,1.853V15.436z"/>
	<path fill="#706F6F" d="M34.113,19.304c-0.531,0-1.074-0.058-1.625-0.175c-0.553-0.116-1.082-0.271-1.586-0.463
		c-0.134-0.055-0.217-0.113-0.25-0.175s-0.043-0.168-0.029-0.319l0.119-1.79c0.014-0.165,0.047-0.274,0.1-0.329
		c0.053-0.056,0.193-0.028,0.419,0.082c0.399,0.206,0.858,0.377,1.376,0.515c0.52,0.137,1.051,0.192,1.597,0.165
		c0.745-0.028,1.356-0.275,1.835-0.741c0.479-0.467,0.752-1.132,0.818-1.996c-0.346,0.411-0.771,0.713-1.277,0.905
		c-0.505,0.192-0.971,0.281-1.396,0.268c-0.691-0.014-1.316-0.158-1.875-0.433s-1.034-0.654-1.426-1.142
		c-0.393-0.487-0.695-1.061-0.908-1.719s-0.319-1.379-0.319-2.161c0-1.797,0.396-3.207,1.187-4.229
		c0.792-1.022,1.912-1.533,3.362-1.533c0.253,0,0.512,0.034,0.778,0.103c0.266,0.068,0.519,0.158,0.758,0.268
		c0.239,0.11,0.459,0.236,0.658,0.381c0.199,0.144,0.353,0.291,0.459,0.442V4.445c0-0.233,0.106-0.35,0.319-0.35h1.835
		c0.146,0,0.242,0.03,0.289,0.093C39.377,4.25,39.4,4.37,39.4,4.548v8.397c0,2.044-0.469,3.614-1.406,4.713
		C37.057,18.755,35.763,19.304,34.113,19.304z M34.633,6.524c-0.666,0-1.205,0.24-1.616,0.72c-0.413,0.48-0.618,1.317-0.618,2.511
		c0,0.467,0.063,0.889,0.189,1.266c0.126,0.378,0.289,0.696,0.488,0.957s0.43,0.46,0.688,0.597c0.259,0.138,0.521,0.206,0.788,0.206
		c0.639,0,1.17-0.271,1.596-0.813s0.639-1.286,0.639-2.233c0-1.001-0.209-1.787-0.629-2.356C35.74,6.809,35.23,6.524,34.633,6.524z"
		/>
	<path fill="#706F6F" d="M48.258,15.888c-0.146,0-0.242-0.021-0.289-0.062s-0.07-0.117-0.07-0.227v-0.782
		c-0.119,0.192-0.275,0.367-0.469,0.525c-0.192,0.157-0.402,0.291-0.628,0.401c-0.227,0.109-0.459,0.198-0.698,0.268
		c-0.24,0.068-0.466,0.103-0.678,0.103c-1.305,0-2.281-0.398-2.934-1.193c-0.651-0.796-0.978-1.928-0.978-3.396V4.692
		c0-0.15,0.026-0.261,0.08-0.329c0.053-0.068,0.153-0.104,0.3-0.104h1.835c0.159,0,0.266,0.045,0.319,0.134
		c0.053,0.09,0.08,0.196,0.08,0.319v6.462c0,0.48,0.036,0.875,0.109,1.184c0.072,0.309,0.176,0.556,0.309,0.741
		c0.133,0.185,0.297,0.315,0.489,0.391s0.409,0.113,0.648,0.113c0.585,0,1.08-0.236,1.486-0.71c0.405-0.474,0.608-1.211,0.608-2.212
		V4.692c0-0.15,0.026-0.261,0.08-0.329c0.053-0.068,0.152-0.104,0.299-0.104h1.855c0.16,0,0.262,0.049,0.309,0.145
		s0.07,0.206,0.07,0.329v8.253c0,0.411,0.007,0.841,0.02,1.286c0.014,0.445,0.021,0.84,0.021,1.184c0,0.178-0.017,0.295-0.05,0.35
		s-0.143,0.082-0.329,0.082H48.258z"/>
	<path fill="#706F6F" d="M58.652,15.888c-0.12,0-0.197-0.014-0.23-0.041s-0.049-0.11-0.049-0.247v-0.885
		c-0.227,0.37-0.596,0.686-1.107,0.946c-0.513,0.261-1.021,0.392-1.526,0.392c-0.546,0-1.071-0.079-1.576-0.237
		c-0.506-0.157-0.921-0.404-1.247-0.74c-0.326-0.337-0.582-0.741-0.768-1.215c-0.188-0.473-0.279-1.011-0.279-1.615
		c0-0.713,0.166-1.358,0.498-1.935s0.775-1.025,1.327-1.348s1.207-0.556,1.965-0.7c0.759-0.144,1.597-0.188,2.514-0.134
		c-0.079-1.083-0.532-1.68-1.356-1.79c-0.266-0.027-0.535-0.021-0.809,0.021C55.736,6.4,55.47,6.466,55.211,6.555
		c-0.26,0.09-0.51,0.192-0.748,0.309c-0.24,0.117-0.453,0.237-0.639,0.36c-0.279,0.192-0.479,0.288-0.6,0.288
		c-0.119,0-0.179-0.137-0.179-0.411V5.393c0-0.179,0.017-0.306,0.05-0.381s0.129-0.154,0.289-0.237
		c0.398-0.205,0.868-0.397,1.406-0.576c0.539-0.178,1.174-0.268,1.906-0.268c1.355,0,2.37,0.357,3.041,1.07
		c0.672,0.714,1.008,1.818,1.008,3.313v4.692c0,0.179,0,0.374,0,0.586c0,0.213,0.004,0.43,0.01,0.648
		c0.008,0.22,0.014,0.43,0.021,0.628c0.007,0.199,0.017,0.374,0.03,0.524c0.026,0.274,0.013,0.426-0.04,0.453
		c-0.054,0.027-0.146,0.041-0.279,0.041H58.652z M58.373,10.208c-0.759,0.014-1.384,0.072-1.876,0.175s-0.888,0.244-1.187,0.422
		c-0.3,0.179-0.502,0.391-0.609,0.638c-0.105,0.247-0.159,0.521-0.159,0.823c0,0.439,0.126,0.779,0.379,1.019
		c0.253,0.24,0.605,0.36,1.058,0.36c0.719,0,1.293-0.271,1.726-0.813S58.359,11.415,58.373,10.208z"/>
	<path fill="#706F6F" d="M66.771,19.304c-0.532,0-1.074-0.058-1.626-0.175c-0.552-0.116-1.081-0.271-1.586-0.463
		c-0.134-0.055-0.216-0.113-0.249-0.175s-0.044-0.168-0.03-0.319l0.12-1.79c0.013-0.165,0.046-0.274,0.1-0.329
		c0.053-0.056,0.192-0.028,0.418,0.082c0.399,0.206,0.858,0.377,1.377,0.515c0.52,0.137,1.051,0.192,1.596,0.165
		c0.745-0.028,1.357-0.275,1.836-0.741c0.479-0.467,0.751-1.132,0.818-1.996c-0.347,0.411-0.771,0.713-1.277,0.905
		s-0.971,0.281-1.396,0.268c-0.691-0.014-1.316-0.158-1.875-0.433s-1.035-0.654-1.427-1.142c-0.393-0.487-0.695-1.061-0.907-1.719
		c-0.213-0.658-0.32-1.379-0.32-2.161c0-1.797,0.396-3.207,1.188-4.229c0.791-1.022,1.912-1.533,3.361-1.533
		c0.253,0,0.512,0.034,0.778,0.103s0.519,0.158,0.759,0.268c0.238,0.11,0.459,0.236,0.658,0.381
		c0.199,0.144,0.352,0.291,0.459,0.442V4.445c0-0.233,0.105-0.35,0.318-0.35h1.836c0.146,0,0.242,0.03,0.289,0.093
		c0.047,0.062,0.07,0.182,0.07,0.359v8.397c0,2.044-0.469,3.614-1.406,4.713C69.714,18.755,68.42,19.304,66.771,19.304z
		 M67.29,6.524c-0.665,0-1.204,0.24-1.616,0.72c-0.412,0.48-0.618,1.317-0.618,2.511c0,0.467,0.063,0.889,0.189,1.266
		c0.126,0.378,0.29,0.696,0.489,0.957s0.429,0.46,0.688,0.597c0.26,0.138,0.521,0.206,0.789,0.206c0.638,0,1.17-0.271,1.596-0.813
		s0.639-1.286,0.639-2.233c0-1.001-0.21-1.787-0.629-2.356S67.889,6.524,67.29,6.524z"/>
	<path fill="#706F6F" d="M82.771,10.476c-0.014,0.164-0.051,0.291-0.11,0.381c-0.06,0.089-0.169,0.134-0.329,0.134h-6.244
		c0.093,0.919,0.375,1.598,0.848,2.037s1.034,0.672,1.686,0.699c0.611,0.028,1.147-0.033,1.606-0.185
		c0.458-0.151,0.901-0.363,1.327-0.639c0.186-0.123,0.312-0.157,0.379-0.103c0.066,0.055,0.1,0.199,0.1,0.433v1.543
		c0,0.151-0.018,0.254-0.051,0.309s-0.109,0.131-0.229,0.227c-0.387,0.274-0.875,0.48-1.467,0.617
		c-0.592,0.138-1.174,0.206-1.746,0.206c-1.596,0-2.855-0.528-3.779-1.585c-0.926-1.056-1.387-2.559-1.387-4.507
		c0-0.727,0.092-1.454,0.279-2.182c0.186-0.727,0.484-1.382,0.897-1.965c0.412-0.583,0.917-1.057,1.517-1.42
		c0.598-0.363,1.309-0.546,2.135-0.546c0.838,0,1.545,0.158,2.124,0.474s1.05,0.741,1.417,1.276
		c0.365,0.534,0.628,1.155,0.787,1.862c0.16,0.706,0.24,1.458,0.24,2.253V10.476z M78.262,6.318c-0.279,0-0.538,0.068-0.777,0.206
		c-0.239,0.137-0.449,0.315-0.629,0.535c-0.18,0.219-0.336,0.473-0.469,0.761s-0.219,0.59-0.259,0.905h4.05
		c0-0.273-0.043-0.556-0.13-0.844s-0.206-0.545-0.358-0.771c-0.154-0.227-0.35-0.415-0.59-0.565
		C78.861,6.394,78.582,6.318,78.262,6.318z"/>
</g>
</svg>
