<?xml version="1.0" encoding="utf-8"?>
<!-- Generator: Adobe Illustrator 16.0.0, SVG Export Plug-In . SVG Version: 6.00 Build 0)  -->
<!DOCTYPE svg PUBLIC "-//W3C//DTD SVG 1.1//EN" "http://www.w3.org/Graphics/SVG/1.1/DTD/svg11.dtd">
<svg version="1.1" id="레이어_1" xmlns="http://www.w3.org/2000/svg" xmlns:xlink="http://www.w3.org/1999/xlink" x="0px"
	 y="0px" width="107.137px" height="17.324px" viewBox="0 0 107.137 17.324" enable-background="new 0 0 107.137 17.324"
	 xml:space="preserve">
<g>
	<path fill="#706F6F" d="M7.562,15.847c-0.346,0.397-0.805,0.724-1.377,0.978s-1.157,0.408-1.756,0.463
		c-0.318,0.041-0.682,0.048-1.087,0.021s-0.802-0.072-1.187-0.134c-0.387-0.062-0.738-0.13-1.059-0.205
		c-0.318-0.076-0.559-0.148-0.717-0.217c-0.146-0.068-0.24-0.134-0.279-0.195c-0.041-0.062-0.047-0.175-0.021-0.34l0.199-1.996
		c0.013-0.137,0.043-0.219,0.09-0.247c0.046-0.027,0.149-0.007,0.31,0.062c0.252,0.11,0.541,0.21,0.867,0.299
		c0.326,0.09,0.658,0.158,0.998,0.206c0.339,0.048,0.672,0.079,0.998,0.093c0.325,0.014,0.621-0.014,0.887-0.083
		c0.559-0.137,0.958-0.363,1.197-0.679s0.359-0.769,0.359-1.358c0-0.123-0.027-0.268-0.08-0.433
		c-0.053-0.164-0.152-0.346-0.299-0.545c-0.146-0.198-0.343-0.408-0.589-0.628c-0.246-0.219-0.562-0.452-0.948-0.699
		C3.339,9.741,2.716,9.31,2.204,8.911C1.692,8.514,1.273,8.119,0.948,7.728C0.622,7.337,0.382,6.936,0.229,6.524
		C0.077,6.112,0,5.659,0,5.166c0-0.618,0.123-1.19,0.369-1.719s0.585-0.988,1.018-1.379s0.94-0.696,1.526-0.916
		C3.498,0.934,4.13,0.823,4.808,0.823c0.679,0,1.26,0.052,1.746,0.154c0.485,0.103,0.888,0.23,1.207,0.381
		C7.934,1.44,8.03,1.51,8.05,1.564s0.017,0.157-0.01,0.309L7.661,3.622c-0.027,0.124-0.073,0.199-0.14,0.227
		c-0.067,0.027-0.2,0.007-0.399-0.062c-0.625-0.206-1.2-0.329-1.726-0.371C4.871,3.375,4.415,3.424,4.03,3.561
		C3.644,3.697,3.342,3.914,3.122,4.209C2.903,4.504,2.793,4.878,2.793,5.33c0,0.329,0.144,0.666,0.429,1.009
		C3.508,6.682,3.97,7.053,4.608,7.45C5.42,7.972,6.095,8.438,6.634,8.85c0.539,0.411,0.967,0.813,1.287,1.204
		c0.318,0.391,0.545,0.789,0.678,1.193c0.133,0.405,0.199,0.854,0.199,1.348c0,0.659-0.109,1.256-0.329,1.791
		S7.946,15.408,7.562,15.847z"/>
	<path fill="#706F6F" d="M19.072,11.607c-0.013,0.164-0.05,0.291-0.11,0.381c-0.059,0.089-0.169,0.134-0.328,0.134H12.39
		c0.092,0.919,0.375,1.598,0.848,2.037c0.472,0.439,1.033,0.672,1.686,0.699c0.611,0.028,1.146-0.033,1.605-0.185
		s0.901-0.363,1.327-0.639c0.187-0.123,0.312-0.157,0.379-0.103c0.066,0.055,0.1,0.199,0.1,0.433v1.543
		c0,0.151-0.017,0.254-0.05,0.309s-0.109,0.131-0.229,0.227c-0.386,0.274-0.874,0.48-1.466,0.617
		c-0.592,0.138-1.174,0.206-1.746,0.206c-1.596,0-2.855-0.528-3.78-1.585c-0.925-1.056-1.387-2.559-1.387-4.507
		c0-0.727,0.093-1.454,0.279-2.182c0.187-0.727,0.485-1.382,0.897-1.965s0.918-1.057,1.517-1.42s1.31-0.546,2.135-0.546
		c0.838,0,1.546,0.158,2.124,0.474c0.579,0.315,1.051,0.741,1.417,1.276c0.366,0.534,0.628,1.155,0.788,1.862
		c0.16,0.706,0.239,1.458,0.239,2.253V11.607z M14.563,7.45c-0.279,0-0.539,0.068-0.777,0.206c-0.24,0.137-0.449,0.315-0.629,0.535
		c-0.18,0.219-0.336,0.473-0.469,0.761s-0.22,0.59-0.26,0.905h4.051c0-0.273-0.044-0.556-0.131-0.844
		c-0.086-0.288-0.206-0.545-0.358-0.771c-0.153-0.227-0.349-0.415-0.589-0.565C15.162,7.525,14.883,7.45,14.563,7.45z"/>
	<path fill="#706F6F" d="M26.394,17.02c-0.119,0-0.195-0.014-0.229-0.041s-0.051-0.11-0.051-0.247v-0.885
		c-0.227,0.37-0.596,0.686-1.107,0.946s-1.021,0.392-1.525,0.392c-0.546,0-1.07-0.079-1.576-0.237
		c-0.506-0.157-0.922-0.404-1.247-0.74c-0.326-0.337-0.582-0.741-0.769-1.215c-0.186-0.473-0.279-1.011-0.279-1.615
		c0-0.713,0.166-1.358,0.5-1.935c0.332-0.576,0.773-1.025,1.326-1.348c0.552-0.322,1.207-0.556,1.965-0.7
		c0.758-0.144,1.596-0.188,2.514-0.134c-0.08-1.083-0.532-1.68-1.356-1.79c-0.267-0.027-0.536-0.021-0.808,0.021
		c-0.273,0.041-0.539,0.106-0.799,0.195c-0.259,0.09-0.508,0.192-0.748,0.309c-0.239,0.117-0.452,0.237-0.639,0.36
		c-0.279,0.192-0.479,0.288-0.598,0.288c-0.12,0-0.18-0.137-0.18-0.411V6.524c0-0.179,0.017-0.306,0.05-0.381
		s0.13-0.154,0.289-0.237c0.399-0.205,0.868-0.397,1.407-0.576c0.538-0.178,1.173-0.268,1.904-0.268c1.357,0,2.371,0.357,3.043,1.07
		c0.672,0.714,1.008,1.818,1.008,3.313v4.692c0,0.179,0,0.374,0,0.586c0,0.213,0.002,0.43,0.01,0.648
		c0.006,0.22,0.013,0.43,0.02,0.628c0.006,0.199,0.017,0.374,0.029,0.524c0.027,0.274,0.014,0.426-0.039,0.453
		c-0.054,0.027-0.146,0.041-0.279,0.041H26.394z M26.114,11.34c-0.758,0.014-1.383,0.072-1.875,0.175s-0.888,0.244-1.188,0.422
		c-0.299,0.179-0.502,0.391-0.607,0.638c-0.107,0.247-0.16,0.521-0.16,0.823c0,0.439,0.127,0.779,0.379,1.019
		c0.252,0.24,0.605,0.36,1.058,0.36c0.718,0,1.294-0.271,1.726-0.813S26.101,12.547,26.114,11.34z"/>
	<path fill="#706F6F" d="M35.87,7.924c-0.253-0.11-0.486-0.176-0.698-0.196c-0.213-0.021-0.399-0.003-0.559,0.052
		c-0.319,0.11-0.575,0.288-0.769,0.535c-0.192,0.247-0.339,0.535-0.438,0.864s-0.163,0.673-0.189,1.029s-0.04,0.699-0.04,1.028
		v5.311c0,0.164-0.023,0.277-0.07,0.339s-0.143,0.093-0.289,0.093h-1.915c-0.146,0-0.239-0.027-0.279-0.082
		c-0.04-0.056-0.06-0.179-0.06-0.371V8.376c0-0.438-0.007-0.898-0.02-1.379c-0.014-0.479-0.021-0.878-0.021-1.193
		c0-0.178,0.026-0.295,0.08-0.35c0.053-0.055,0.152-0.083,0.299-0.083h1.915c0.199,0,0.3,0.11,0.3,0.33v0.784
		c0.173-0.261,0.392-0.516,0.658-0.763c0.267-0.248,0.546-0.398,0.838-0.454c0.279-0.055,0.556-0.072,0.828-0.052
		s0.481,0.086,0.628,0.196c0.066,0.055,0.109,0.106,0.13,0.154s0.03,0.127,0.03,0.236v1.79c0,0.151-0.027,0.261-0.08,0.33
		C36.097,7.992,36.003,7.992,35.87,7.924z"/>
	<path fill="#706F6F" d="M44.409,16.896c-0.146,0.068-0.33,0.13-0.549,0.185c-0.22,0.055-0.459,0.1-0.719,0.134
		s-0.528,0.055-0.808,0.063c-0.279,0.007-0.546-0.004-0.798-0.031c-0.838-0.068-1.58-0.268-2.225-0.597
		c-0.646-0.329-1.188-0.759-1.626-1.286c-0.438-0.528-0.771-1.149-0.997-1.862c-0.227-0.714-0.34-1.489-0.34-2.326
		c0-0.878,0.133-1.688,0.399-2.429c0.266-0.74,0.642-1.378,1.127-1.913s1.07-0.95,1.756-1.245c0.685-0.295,1.446-0.442,2.284-0.442
		c0.386,0,0.809,0.027,1.267,0.082c0.459,0.055,0.881,0.151,1.267,0.288c0.12,0.041,0.189,0.089,0.21,0.144
		c0.021,0.056,0.022,0.158,0.01,0.31l-0.199,1.584c-0.026,0.165-0.069,0.274-0.13,0.329c-0.061,0.056-0.189,0.049-0.389-0.021
		c-0.279-0.109-0.619-0.188-1.018-0.236c-0.399-0.048-0.752-0.065-1.058-0.052c-0.917,0.028-1.626,0.367-2.124,1.019
		c-0.5,0.652-0.748,1.513-0.748,2.583c0,1.029,0.235,1.859,0.707,2.49c0.473,0.632,1.135,0.995,1.985,1.091
		c0.426,0.069,0.849,0.079,1.267,0.031c0.42-0.048,0.789-0.127,1.107-0.237c0.213-0.068,0.342-0.085,0.389-0.051
		s0.077,0.127,0.09,0.277l0.12,1.585c0.013,0.164,0.003,0.277-0.03,0.34C44.604,16.763,44.528,16.827,44.409,16.896z"/>
	<path fill="#706F6F" d="M52.548,16.979c-0.146,0-0.25-0.027-0.309-0.082c-0.061-0.055-0.09-0.164-0.09-0.328v-6.53
		c0-1.739-0.499-2.608-1.496-2.608c-0.559,0-1.018,0.113-1.377,0.339s-0.619,0.537-0.778,0.934v7.866c0,0.164-0.033,0.273-0.1,0.328
		c-0.067,0.055-0.167,0.082-0.3,0.082h-1.835c-0.146,0-0.246-0.027-0.3-0.082c-0.053-0.056-0.079-0.165-0.079-0.329V0.412
		C45.885,0.138,46.011,0,46.264,0h1.835c0.266,0,0.399,0.138,0.399,0.413v5.574c0.346-0.302,0.725-0.545,1.138-0.729
		c0.412-0.185,0.805-0.277,1.177-0.277c1.343,0,2.337,0.404,2.982,1.212c0.646,0.809,0.968,2.082,0.968,3.821v6.554
		c0,0.165-0.03,0.274-0.09,0.329c-0.061,0.055-0.156,0.082-0.289,0.082H52.548z"/>
	<path fill="#706F6F" d="M67.251,7.924c-0.253-0.11-0.486-0.176-0.698-0.196c-0.213-0.021-0.399-0.003-0.559,0.052
		c-0.319,0.11-0.575,0.288-0.769,0.535c-0.192,0.247-0.339,0.535-0.438,0.864s-0.163,0.673-0.189,1.029s-0.04,0.699-0.04,1.028
		v5.311c0,0.164-0.023,0.277-0.07,0.339s-0.143,0.093-0.289,0.093h-1.915c-0.146,0-0.239-0.027-0.279-0.082
		c-0.04-0.056-0.06-0.179-0.06-0.371V8.376c0-0.438-0.007-0.898-0.02-1.379c-0.014-0.479-0.021-0.878-0.021-1.193
		c0-0.178,0.026-0.295,0.08-0.35c0.053-0.055,0.152-0.083,0.299-0.083h1.915c0.199,0,0.3,0.11,0.3,0.33v0.784
		c0.173-0.261,0.392-0.516,0.658-0.763c0.267-0.248,0.546-0.398,0.838-0.454c0.279-0.055,0.556-0.072,0.828-0.052
		s0.481,0.086,0.628,0.196c0.066,0.055,0.109,0.106,0.13,0.154s0.03,0.127,0.03,0.236v1.79c0,0.151-0.027,0.261-0.08,0.33
		C67.478,7.992,67.384,7.992,67.251,7.924z"/>
	<path fill="#706F6F" d="M77.046,11.607c-0.014,0.164-0.05,0.291-0.109,0.381c-0.061,0.089-0.17,0.134-0.33,0.134h-6.244
		c0.094,0.919,0.376,1.598,0.848,2.037c0.473,0.439,1.035,0.672,1.687,0.699c0.611,0.028,1.147-0.033,1.606-0.185
		c0.458-0.151,0.9-0.363,1.326-0.639c0.186-0.123,0.313-0.157,0.379-0.103s0.1,0.199,0.1,0.433v1.543
		c0,0.151-0.017,0.254-0.05,0.309s-0.11,0.131-0.229,0.227c-0.386,0.274-0.875,0.48-1.467,0.617
		c-0.592,0.138-1.174,0.206-1.745,0.206c-1.596,0-2.856-0.528-3.78-1.585c-0.925-1.056-1.387-2.559-1.387-4.507
		c0-0.727,0.093-1.454,0.279-2.182c0.186-0.727,0.485-1.382,0.898-1.965c0.412-0.583,0.917-1.057,1.516-1.42s1.31-0.546,2.135-0.546
		c0.838,0,1.546,0.158,2.125,0.474c0.578,0.315,1.05,0.741,1.416,1.276c0.365,0.534,0.629,1.155,0.788,1.862
		c0.159,0.706,0.239,1.458,0.239,2.253V11.607z M72.537,7.45c-0.279,0-0.538,0.068-0.778,0.206
		c-0.238,0.137-0.448,0.315-0.628,0.535c-0.18,0.219-0.336,0.473-0.469,0.761c-0.134,0.288-0.22,0.59-0.259,0.905h4.049
		c0-0.273-0.043-0.556-0.129-0.844c-0.087-0.288-0.207-0.545-0.359-0.771c-0.153-0.227-0.35-0.415-0.589-0.565
		C73.136,7.525,72.856,7.45,72.537,7.45z"/>
	<path fill="#706F6F" d="M83.45,16.547c-0.346,0.273-0.738,0.466-1.178,0.576c-0.438,0.109-0.904,0.171-1.396,0.185
		c-0.252,0-0.525-0.018-0.817-0.051c-0.293-0.035-0.572-0.076-0.839-0.124c-0.266-0.048-0.512-0.106-0.737-0.175
		c-0.227-0.068-0.399-0.131-0.519-0.186c-0.146-0.068-0.243-0.127-0.289-0.175c-0.047-0.048-0.064-0.147-0.051-0.298l0.16-1.503
		c0.014-0.164,0.047-0.268,0.1-0.309s0.152-0.034,0.299,0.021c0.412,0.151,0.842,0.281,1.287,0.392
		c0.445,0.109,0.908,0.164,1.387,0.164s0.831-0.123,1.057-0.37c0.227-0.247,0.34-0.556,0.34-0.926c0-0.261-0.117-0.519-0.35-0.772
		s-0.508-0.49-0.828-0.71c-0.318-0.219-0.645-0.422-0.977-0.606c-0.333-0.186-0.6-0.34-0.799-0.464
		c-0.438-0.274-0.808-0.627-1.107-1.06c-0.299-0.432-0.448-0.937-0.448-1.513c0-0.617,0.103-1.148,0.31-1.595
		c0.205-0.445,0.479-0.813,0.817-1.102s0.731-0.5,1.177-0.638c0.445-0.137,0.901-0.206,1.367-0.206c0.239,0,0.495,0.018,0.768,0.052
		c0.273,0.034,0.532,0.079,0.778,0.134s0.476,0.117,0.688,0.186s0.379,0.13,0.498,0.185c0.133,0.069,0.21,0.131,0.23,0.186
		c0.02,0.055,0.022,0.138,0.01,0.247l-0.18,1.564c-0.027,0.164-0.073,0.257-0.14,0.277c-0.067,0.021-0.173-0.003-0.319-0.072
		c-0.691-0.343-1.43-0.5-2.215-0.473c-0.426,0.014-0.734,0.12-0.928,0.318c-0.192,0.199-0.289,0.478-0.289,0.834
		c0,0.151,0.086,0.336,0.26,0.556c0.172,0.22,0.479,0.452,0.918,0.699c0.412,0.233,0.784,0.457,1.117,0.669
		c0.332,0.213,0.585,0.381,0.758,0.504c0.479,0.385,0.841,0.769,1.088,1.153c0.245,0.384,0.368,0.898,0.368,1.543
		c0,0.604-0.112,1.149-0.339,1.637C84.261,15.788,83.915,16.203,83.45,16.547z"/>
	<path fill="#706F6F" d="M92.927,17.02c-0.146,0-0.243-0.021-0.289-0.062c-0.047-0.041-0.07-0.117-0.07-0.227v-0.782
		c-0.119,0.192-0.276,0.367-0.469,0.525c-0.193,0.157-0.402,0.291-0.629,0.401c-0.227,0.109-0.459,0.198-0.697,0.268
		c-0.24,0.068-0.467,0.103-0.679,0.103c-1.304,0-2.281-0.398-2.933-1.193c-0.652-0.796-0.979-1.928-0.979-3.396V5.824
		c0-0.15,0.027-0.261,0.08-0.329s0.153-0.104,0.3-0.104h1.835c0.16,0,0.266,0.045,0.319,0.134c0.054,0.09,0.08,0.196,0.08,0.319
		v6.462c0,0.48,0.036,0.875,0.11,1.184c0.072,0.309,0.176,0.556,0.309,0.741c0.133,0.185,0.296,0.315,0.488,0.391
		c0.193,0.075,0.409,0.113,0.648,0.113c0.586,0,1.08-0.236,1.486-0.71s0.609-1.211,0.609-2.212V5.824
		c0-0.15,0.025-0.261,0.079-0.329s0.153-0.104,0.3-0.104h1.855c0.159,0,0.262,0.049,0.309,0.145s0.07,0.206,0.07,0.329v8.253
		c0,0.411,0.006,0.841,0.02,1.286s0.02,0.84,0.02,1.184c0,0.178-0.017,0.295-0.049,0.35c-0.034,0.055-0.144,0.082-0.33,0.082H92.927
		z"/>
	<path fill="#706F6F" d="M97.415,16.958c-0.12,0-0.203-0.027-0.25-0.082c-0.047-0.056-0.07-0.165-0.07-0.329V0.474
		c0-0.165,0.021-0.274,0.061-0.329c0.039-0.055,0.126-0.083,0.26-0.083h1.975c0.133,0,0.223,0.028,0.27,0.083
		c0.046,0.055,0.069,0.164,0.069,0.329v16.073c0,0.164-0.023,0.273-0.069,0.329c-0.047,0.055-0.137,0.082-0.27,0.082H97.415z"/>
	<path fill="#706F6F" d="M106.891,16.835c-0.267,0.123-0.585,0.229-0.958,0.318c-0.372,0.089-0.797,0.127-1.276,0.113
		c-0.492-0.014-0.938-0.141-1.337-0.381c-0.398-0.24-0.691-0.531-0.877-0.874c-0.188-0.398-0.3-0.848-0.34-1.349
		c-0.04-0.5-0.06-1.148-0.06-1.944V7.861h-1.417c-0.252,0-0.379-0.137-0.379-0.411V5.742c0-0.274,0.127-0.412,0.379-0.412h1.417
		V2.593c0-0.273,0.133-0.411,0.399-0.411h1.835c0.253,0,0.379,0.138,0.379,0.411V5.33h1.696c0.159,0,0.262,0.031,0.309,0.093
		s0.07,0.168,0.07,0.319V7.45c0,0.151-0.023,0.257-0.07,0.318c-0.047,0.063-0.149,0.093-0.309,0.093h-1.696v4.61
		c0,0.494,0,0.896,0,1.204s0.013,0.511,0.04,0.606c0.053,0.261,0.166,0.426,0.339,0.494c0.173,0.069,0.359,0.09,0.559,0.062
		c0.2-0.027,0.392-0.075,0.579-0.144c0.186-0.068,0.332-0.13,0.438-0.186c0.106-0.055,0.187-0.058,0.239-0.01s0.086,0.147,0.1,0.298
		l0.18,1.544c0.014,0.123,0.007,0.223-0.02,0.298C107.083,16.714,107.011,16.779,106.891,16.835z"/>
</g>
</svg>
