<?xml version="1.0" encoding="utf-8"?>
<!-- Generator: Adobe Illustrator 16.0.0, SVG Export Plug-In . SVG Version: 6.00 Build 0)  -->
<!DOCTYPE svg PUBLIC "-//W3C//DTD SVG 1.1//EN" "http://www.w3.org/Graphics/SVG/1.1/DTD/svg11.dtd">
<svg version="1.1" id="레이어_1" xmlns="http://www.w3.org/2000/svg" xmlns:xlink="http://www.w3.org/1999/xlink" x="0px"
	 y="0px" width="587.691px" height="46.713px" viewBox="0 0 587.691 46.713" enable-background="new 0 0 587.691 46.713"
	 xml:space="preserve">
<rect fill="#EFEFEF" width="587.691" height="46.713"/>
<g>
	<path fill="#706F6F" d="M223.75,26.79c-0.229,0.088-0.42,0.148-0.576,0.181c-0.155,0.033-0.285-0.071-0.389-0.312l-1.121-2.563
		c-0.104-0.219-0.14-0.383-0.108-0.493c0.031-0.109,0.191-0.219,0.482-0.329c2.698-1.227,4.846-2.574,6.444-4.042
		s2.667-3.144,3.207-5.028c0.083-0.241,0.104-0.422,0.063-0.542c-0.042-0.121-0.229-0.181-0.561-0.181h-7.877
		c-0.271,0-0.436-0.066-0.498-0.197s-0.094-0.295-0.094-0.493v-2.366c0-0.241,0.042-0.411,0.125-0.51
		c0.082-0.099,0.249-0.147,0.498-0.147h10.679c0.955,0,1.604,0.17,1.946,0.509c0.343,0.34,0.514,0.926,0.514,1.758
		c0,1.336-0.291,2.706-0.872,4.108c-0.581,1.402-1.416,2.761-2.506,4.075s-2.424,2.542-4.001,3.681
		C227.528,25.038,225.744,26.001,223.75,26.79z M243.054,39.344h-14.042c-0.519,0-0.934-0.033-1.245-0.098
		c-0.312-0.066-0.556-0.192-0.731-0.378c-0.177-0.187-0.296-0.433-0.358-0.74c-0.063-0.307-0.093-0.702-0.093-1.183v-7.099
		c0-0.964,0.155-1.61,0.467-1.939s0.902-0.493,1.774-0.493h14.073c0.519,0,0.938,0.039,1.261,0.115
		c0.321,0.077,0.57,0.208,0.747,0.394c0.176,0.187,0.296,0.438,0.358,0.756c0.063,0.318,0.093,0.718,0.093,1.2v7.099
		c0,0.482-0.036,0.876-0.108,1.183c-0.073,0.307-0.197,0.548-0.374,0.723s-0.415,0.296-0.716,0.362
		C243.859,39.312,243.49,39.344,243.054,39.344z M241.031,31.522c0-0.263-0.125-0.394-0.374-0.394h-9.371
		c-0.271,0-0.405,0.143-0.405,0.427v3.681c0,0.263,0.135,0.395,0.405,0.395h9.34c0.166,0,0.275-0.017,0.327-0.049
		s0.078-0.159,0.078-0.378V31.522z M236.547,19.954c-0.395,0-0.592-0.219-0.592-0.657v-2.432c0-0.285,0.057-0.46,0.171-0.526
		s0.254-0.099,0.421-0.099h4.576V8.945c0-0.285,0.063-0.46,0.188-0.526c0.124-0.065,0.28-0.099,0.467-0.099h3.082
		c0.27,0,0.431,0.061,0.482,0.181c0.052,0.121,0.078,0.269,0.078,0.444v16.071c0,0.417-0.197,0.624-0.592,0.624h-3.113
		c-0.395,0-0.592-0.197-0.592-0.591v-5.094H236.547z"/>
	<path fill="#706F6F" d="M251.024,26.166c-0.291,0.197-0.488,0.263-0.592,0.197c-0.104-0.065-0.229-0.186-0.373-0.361l-1.495-1.874
		c-0.166-0.219-0.29-0.411-0.373-0.575c-0.083-0.164,0.021-0.366,0.312-0.607c1.12-0.854,2.06-1.78,2.817-2.777
		c0.758-0.997,1.37-2.038,1.837-3.122s0.805-2.207,1.012-3.369c0.207-1.161,0.312-2.333,0.312-3.517
		c0-0.306,0.041-0.503,0.125-0.591c0.082-0.087,0.27-0.12,0.56-0.099l2.896,0.164c0.229,0.022,0.39,0.077,0.483,0.165
		c0.093,0.088,0.14,0.252,0.14,0.493c0,0.942-0.052,1.846-0.155,2.711c-0.104,0.866-0.249,1.704-0.437,2.514
		c0.561,1.38,1.267,2.547,2.117,3.5c0.852,0.953,1.765,1.803,2.74,2.547c0.229,0.176,0.337,0.329,0.327,0.46
		c-0.011,0.131-0.078,0.285-0.203,0.46l-1.4,2.235c-0.167,0.241-0.327,0.361-0.482,0.361c-0.156,0-0.349-0.076-0.576-0.23
		c-0.312-0.197-0.654-0.449-1.027-0.756c-0.374-0.307-0.758-0.657-1.152-1.052c-0.395-0.394-0.783-0.821-1.168-1.282
		c-0.384-0.46-0.721-0.931-1.012-1.413C254.947,22.759,253.204,24.698,251.024,26.166z M274.126,39.771h-3.083
		c-0.436,0-0.653-0.219-0.653-0.657v-6.836c0-0.328-0.156-0.493-0.467-0.493h-14.945c-0.166,0-0.307-0.033-0.42-0.099
		c-0.114-0.066-0.172-0.219-0.172-0.46v-2.563c0-0.307,0.058-0.487,0.172-0.542c0.113-0.054,0.254-0.082,0.42-0.082h17.529
		c0.456,0,0.83,0.039,1.12,0.115c0.291,0.077,0.515,0.213,0.67,0.411s0.265,0.455,0.327,0.772c0.062,0.318,0.093,0.707,0.093,1.167
		v8.61C274.717,39.552,274.52,39.771,274.126,39.771z M274.157,26.429h-3.082c-0.229,0-0.384-0.044-0.467-0.131
		s-0.125-0.251-0.125-0.493v-6.178h-2.241v5.948c0,0.263-0.036,0.433-0.109,0.509c-0.072,0.077-0.223,0.115-0.451,0.115h-2.958
		c-0.229,0-0.389-0.038-0.482-0.115c-0.094-0.077-0.14-0.247-0.14-0.509V9.471c0-0.241,0.046-0.405,0.14-0.493
		c0.094-0.087,0.254-0.131,0.482-0.131h2.958c0.374,0,0.561,0.208,0.561,0.625v6.441h2.241V8.945c0-0.241,0.047-0.405,0.141-0.493
		c0.093-0.087,0.254-0.131,0.482-0.131h3.051c0.229,0,0.385,0.044,0.468,0.131c0.082,0.088,0.124,0.252,0.124,0.493v16.859
		c0,0.242-0.042,0.406-0.124,0.493C274.542,26.385,274.385,26.429,274.157,26.429z"/>
	<path fill="#706F6F" d="M292.806,25.738c-1.12,0-2.148-0.202-3.082-0.608c-0.934-0.405-1.738-0.964-2.413-1.676
		s-1.198-1.556-1.572-2.531c-0.373-0.975-0.561-2.032-0.561-3.171c0-1.073,0.188-2.098,0.561-3.073
		c0.374-0.975,0.897-1.829,1.572-2.563c0.675-0.734,1.479-1.314,2.413-1.742s1.962-0.641,3.082-0.641
		c1.225,0,2.33,0.241,3.316,0.723c0.985,0.482,1.831,1.128,2.537,1.939h5.978V8.945c0-0.241,0.042-0.405,0.125-0.493
		c0.083-0.087,0.238-0.131,0.467-0.131h3.113c0.229,0,0.384,0.044,0.468,0.131c0.082,0.088,0.124,0.252,0.124,0.493v21.033
		c0,0.263-0.042,0.427-0.124,0.493c-0.084,0.066-0.239,0.099-0.468,0.099h-3.113c-0.229,0-0.384-0.033-0.467-0.099
		c-0.083-0.065-0.125-0.229-0.125-0.493v-6.441h-6.32c-0.685,0.702-1.494,1.244-2.428,1.626
		C294.955,25.547,293.927,25.738,292.806,25.738z M292.806,13.743c-0.498,0-0.96,0.104-1.385,0.312
		c-0.426,0.208-0.794,0.493-1.105,0.854c-0.312,0.362-0.556,0.794-0.731,1.298c-0.177,0.504-0.265,1.052-0.265,1.643
		s0.088,1.139,0.265,1.643c0.176,0.504,0.42,0.937,0.731,1.298c0.312,0.361,0.68,0.646,1.105,0.854
		c0.425,0.208,0.887,0.312,1.385,0.312c1.038,0,1.889-0.383,2.554-1.15c0.664-0.767,0.996-1.752,0.996-2.958
		c0-1.205-0.332-2.191-0.996-2.958C294.695,14.126,293.844,13.743,292.806,13.743z M309.401,39.312H292.62
		c-0.436,0-0.794-0.039-1.074-0.115s-0.498-0.203-0.653-0.378c-0.156-0.175-0.265-0.416-0.327-0.723
		c-0.063-0.307-0.094-0.69-0.094-1.15v-7.329c0-0.46,0.207-0.69,0.623-0.69h3.082c0.415,0,0.623,0.23,0.623,0.69v5.456
		c0,0.328,0.166,0.493,0.498,0.493h14.104c0.166,0,0.312,0.038,0.437,0.115c0.124,0.077,0.187,0.235,0.187,0.477v2.563
		c0,0.307-0.063,0.482-0.187,0.526C309.712,39.29,309.567,39.312,309.401,39.312z M304.637,16.043h-4.233
		c0.124,0.57,0.187,1.14,0.187,1.709c0,0.723-0.083,1.435-0.249,2.136h4.296V16.043z"/>
	<path fill="#706F6F" d="M314.913,27.349c-0.395,0.263-0.659,0.395-0.794,0.395c-0.136,0-0.286-0.12-0.452-0.361l-1.525-2.104
		c-0.229-0.307-0.312-0.531-0.249-0.674c0.063-0.142,0.218-0.312,0.467-0.509c1.079-0.854,2.034-1.813,2.865-2.875
		c0.829-1.063,1.52-2.196,2.07-3.401c0.55-1.205,0.965-2.454,1.245-3.747c0.28-1.292,0.42-2.596,0.42-3.911
		c0-0.372,0.047-0.597,0.141-0.673c0.093-0.077,0.285-0.104,0.576-0.083l3.051,0.131c0.229,0.022,0.384,0.071,0.467,0.148
		c0.083,0.077,0.125,0.236,0.125,0.477c0,0.92-0.052,1.813-0.156,2.679c-0.104,0.866-0.249,1.714-0.436,2.547
		c0.249,0.789,0.612,1.561,1.09,2.317s1.001,1.468,1.572,2.136c0.57,0.668,1.162,1.271,1.774,1.808
		c0.612,0.537,1.178,0.981,1.697,1.331c0.166,0.11,0.28,0.208,0.343,0.295c0.062,0.088,0.093,0.165,0.093,0.23
		c-0.021,0.044-0.036,0.088-0.047,0.131c-0.011,0.044-0.026,0.088-0.046,0.131c-0.042,0.066-0.078,0.126-0.109,0.181
		c-0.031,0.055-0.067,0.115-0.109,0.181l-1.245,2.071c-0.166,0.241-0.312,0.367-0.436,0.378c-0.125,0.011-0.332-0.06-0.623-0.214
		c-0.457-0.241-0.944-0.564-1.463-0.969c-0.52-0.405-1.033-0.871-1.541-1.397c-0.51-0.526-1.002-1.095-1.479-1.709
		c-0.478-0.613-0.893-1.249-1.245-1.906c-0.727,1.424-1.594,2.723-2.6,3.894C317.345,25.448,316.199,26.473,314.913,27.349z
		 M336.333,39.312h-16.969c-0.437,0-0.794-0.039-1.074-0.115s-0.498-0.203-0.654-0.378c-0.155-0.175-0.265-0.416-0.326-0.723
		c-0.063-0.307-0.094-0.69-0.094-1.15v-7.329c0-0.46,0.207-0.69,0.623-0.69h3.051c0.436,0,0.654,0.23,0.654,0.69v5.456
		c0,0.328,0.155,0.493,0.467,0.493h14.322c0.165,0,0.315,0.038,0.451,0.115c0.135,0.077,0.202,0.235,0.202,0.477v2.563
		c0,0.307-0.067,0.482-0.202,0.526C336.649,39.29,336.499,39.312,336.333,39.312z M339.571,21.433h-3.86v8.38
		c0,0.242-0.036,0.406-0.109,0.493c-0.072,0.088-0.223,0.131-0.451,0.131h-3.145c-0.229,0-0.39-0.043-0.482-0.131
		c-0.094-0.087-0.141-0.251-0.141-0.493V8.945c0-0.416,0.208-0.625,0.623-0.625h3.145c0.374,0,0.561,0.208,0.561,0.625v8.742h3.86
		c0.166,0,0.312,0.022,0.437,0.066c0.124,0.044,0.187,0.208,0.187,0.493v2.597c0,0.241-0.058,0.4-0.171,0.477
		C339.908,21.396,339.758,21.433,339.571,21.433z"/>
	<path fill="#706F6F" d="M354.858,14.663c-0.271,1.096-0.645,2.213-1.121,3.353c-0.478,1.139-1.059,2.29-1.744,3.451
		c0.395,0.635,0.841,1.249,1.339,1.84c0.498,0.591,1.012,1.156,1.541,1.692c0.529,0.537,1.048,1.035,1.558,1.495
		c0.508,0.46,0.98,0.866,1.416,1.216c0.353,0.285,0.343,0.657-0.031,1.117l-1.463,1.939c-0.167,0.22-0.354,0.296-0.561,0.23
		c-0.208-0.066-0.446-0.197-0.716-0.395c-0.333-0.241-0.728-0.575-1.184-1.002c-0.457-0.427-0.934-0.898-1.432-1.413
		c-0.498-0.515-0.986-1.063-1.464-1.643s-0.913-1.145-1.308-1.693c-1.059,1.38-2.231,2.69-3.519,3.927
		c-1.287,1.238-2.667,2.35-4.141,3.336c-0.187,0.131-0.338,0.187-0.451,0.164c-0.114-0.021-0.255-0.142-0.421-0.361l-1.463-2.07
		c-0.166-0.241-0.224-0.433-0.171-0.575c0.051-0.143,0.171-0.279,0.357-0.411c1.204-0.876,2.346-1.851,3.425-2.925
		c1.079-1.073,2.07-2.202,2.974-3.385s1.691-2.399,2.366-3.648c0.675-1.249,1.209-2.498,1.604-3.747
		c0.125-0.438-0.042-0.657-0.498-0.657h-7.535c-0.29,0-0.462-0.06-0.514-0.181c-0.052-0.12-0.077-0.291-0.077-0.51v-2.366
		c0-0.263,0.047-0.443,0.14-0.542c0.094-0.099,0.254-0.148,0.482-0.148h10.274c0.81,0,1.442,0.186,1.899,0.559
		c0.456,0.373,0.686,0.92,0.686,1.643c0,0.307-0.026,0.603-0.078,0.888S354.919,14.4,354.858,14.663z M367.591,23.898h-3.86v15.315
		c0,0.263-0.036,0.433-0.109,0.51c-0.072,0.076-0.223,0.115-0.451,0.115h-3.145c-0.229,0-0.39-0.039-0.482-0.115
		c-0.094-0.077-0.141-0.247-0.141-0.51V8.945c0-0.241,0.047-0.405,0.141-0.493c0.093-0.087,0.254-0.131,0.482-0.131h3.145
		c0.229,0,0.379,0.044,0.451,0.131c0.073,0.088,0.109,0.252,0.109,0.493v11.207h3.86c0.188,0,0.337,0.028,0.452,0.083
		c0.113,0.055,0.171,0.235,0.171,0.542v2.498c0,0.263-0.058,0.433-0.171,0.51C367.928,23.86,367.779,23.898,367.591,23.898z"/>
</g>
</svg>
