<?xml version="1.0" encoding="utf-8"?>
<!-- Generator: Adobe Illustrator 16.0.0, SVG Export Plug-In . SVG Version: 6.00 Build 0)  -->
<!DOCTYPE svg PUBLIC "-//W3C//DTD SVG 1.1//EN" "http://www.w3.org/Graphics/SVG/1.1/DTD/svg11.dtd">
<svg version="1.1" id="레이어_1" xmlns="http://www.w3.org/2000/svg" xmlns:xlink="http://www.w3.org/1999/xlink" x="0px"
	 y="0px" width="272.818px" height="55.979px" viewBox="0 0 272.818 55.979" enable-background="new 0 0 272.818 55.979"
	 xml:space="preserve">
<g>
	<g>
		<g>
			<path fill="#706F6F" d="M175.323,34.667c-0.065,0-0.105-0.002-0.119-0.007c-0.014-0.005-0.04-0.03-0.077-0.077
				c-0.849-1.063-1.479-2.142-1.89-3.233c-0.411-1.092-0.616-2.222-0.616-3.388c0-1.157,0.205-2.282,0.616-3.374
				c0.41-1.093,1.041-2.175,1.89-3.248c0.037-0.047,0.063-0.072,0.077-0.077c0.014-0.005,0.044-0.007,0.091-0.007h0.392
				c0.056,0,0.084,0.005,0.084,0.014c0,0.01-0.014,0.037-0.042,0.084c-1.465,2.296-2.198,4.499-2.198,6.608
				c0,1.073,0.187,2.155,0.56,3.247c0.373,1.093,0.924,2.213,1.652,3.36c0.047,0.065,0.023,0.098-0.07,0.098H175.323z"/>
			<path fill="#706F6F" d="M180.055,21.535c0.122,0.038,0.178,0.136,0.168,0.294l-0.028,0.406c-0.009,0.056-0.033,0.091-0.07,0.105
				c-0.038,0.014-0.08,0.012-0.126-0.008c-0.103-0.037-0.196-0.063-0.28-0.076c-0.084-0.015-0.182-0.021-0.294-0.021
				c-0.551,0-0.905,0.275-1.064,0.826c-0.065,0.224-0.098,0.719-0.098,1.484v0.672h1.54c0.131,0,0.196,0.065,0.196,0.195v0.42
				c0,0.131-0.065,0.196-0.196,0.196h-1.54v6.566c0,0.13-0.065,0.195-0.196,0.195h-0.546c-0.131,0-0.196-0.065-0.196-0.195v-6.566
				h-1.358c-0.131,0-0.196-0.065-0.196-0.196v-0.42c0-0.13,0.065-0.195,0.196-0.195h1.358v-0.574c0-1.018,0.093-1.75,0.28-2.198
				c0.289-0.672,0.868-1.008,1.736-1.008C179.611,21.438,179.85,21.471,180.055,21.535z"/>
			<path fill="#706F6F" d="M180.853,22.571c0-0.187,0.065-0.348,0.196-0.482c0.131-0.136,0.289-0.203,0.476-0.203
				c0.187,0,0.348,0.067,0.483,0.203c0.135,0.135,0.203,0.296,0.203,0.482s-0.068,0.346-0.203,0.477s-0.296,0.195-0.483,0.195
				c-0.187,0-0.345-0.064-0.476-0.195S180.853,22.758,180.853,22.571z M181.847,32.791h-0.616c-0.131,0-0.196-0.065-0.196-0.195
				v-7.183c0-0.13,0.065-0.195,0.196-0.195h0.616c0.131,0,0.196,0.065,0.196,0.195v7.183
				C182.043,32.726,181.978,32.791,181.847,32.791z"/>
			<path fill="#706F6F" d="M184.549,32.791h-0.616c-0.131,0-0.196-0.065-0.196-0.195V21.857c0-0.131,0.065-0.196,0.196-0.196h0.616
				c0.131,0,0.196,0.065,0.196,0.196v10.738C184.745,32.726,184.68,32.791,184.549,32.791z"/>
			<path fill="#706F6F" d="M186.9,29.277c-0.009,0.467,0.044,0.88,0.161,1.239s0.287,0.66,0.511,0.903
				c0.224,0.242,0.492,0.429,0.805,0.56s0.66,0.196,1.043,0.196c0.374,0,0.723-0.035,1.05-0.105c0.326-0.07,0.63-0.184,0.91-0.343
				c0.121-0.056,0.182-0.023,0.182,0.098v0.63c0,0.084-0.051,0.149-0.154,0.196c-0.308,0.121-0.63,0.212-0.966,0.273
				c-0.336,0.061-0.7,0.091-1.092,0.091c-1.148,0-2.016-0.334-2.604-1.001s-0.882-1.673-0.882-3.018
				c0-1.185,0.294-2.142,0.882-2.869c0.616-0.737,1.395-1.106,2.338-1.106c0.523,0,0.975,0.094,1.358,0.28s0.709,0.467,0.98,0.84
				c0.476,0.663,0.714,1.549,0.714,2.66c0,0.121-0.002,0.215-0.007,0.279c-0.004,0.065-0.021,0.112-0.049,0.141
				c-0.028,0.027-0.077,0.044-0.147,0.049c-0.07,0.005-0.17,0.007-0.301,0.007H186.9z M191.101,28.479
				c0-0.383-0.038-0.724-0.112-1.022c-0.075-0.298-0.191-0.568-0.35-0.812c-0.346-0.551-0.845-0.826-1.498-0.826
				c-0.672,0-1.218,0.28-1.638,0.84c-0.168,0.252-0.308,0.542-0.42,0.868c-0.112,0.327-0.173,0.645-0.182,0.952H191.101z"/>
			<path fill="#706F6F" d="M196.883,32.806c-0.392,0.14-0.78,0.21-1.162,0.21c-0.756,0-1.255-0.248-1.498-0.742
				c-0.159-0.336-0.238-0.929-0.238-1.778v-4.466h-1.316c-0.13,0-0.196-0.065-0.196-0.196v-0.42c0-0.13,0.065-0.195,0.196-0.195
				h1.316v-1.891c0-0.14,0.061-0.21,0.182-0.21h0.588c0.121,0,0.182,0.07,0.182,0.21v1.891h1.554c0.13,0,0.196,0.065,0.196,0.195
				v0.42c0,0.131-0.065,0.196-0.196,0.196h-1.554v4.942c0,0.831,0.336,1.246,1.008,1.246c0.262,0,0.556-0.057,0.882-0.168
				c0.046-0.019,0.091-0.019,0.133,0s0.063,0.056,0.063,0.111l0.028,0.364C197.069,32.656,197.013,32.749,196.883,32.806z"/>
			<path fill="#706F6F" d="M197.092,34.863c-0.112-0.027-0.159-0.098-0.14-0.21l0.042-0.476c0-0.112,0.056-0.146,0.168-0.099
				c0.149,0.057,0.322,0.084,0.518,0.084c0.196,0,0.375-0.03,0.539-0.091c0.163-0.061,0.287-0.143,0.371-0.245
				c0.103-0.131,0.217-0.345,0.343-0.644s0.25-0.64,0.371-1.022c-0.42-1.139-0.836-2.263-1.246-3.374
				c-0.411-1.11-0.826-2.234-1.246-3.374c-0.019-0.046-0.019-0.091,0-0.133c0.019-0.042,0.056-0.063,0.112-0.063h0.658
				c0.13,0,0.224,0.065,0.28,0.195l1.89,5.433c0.345-0.952,0.674-1.859,0.987-2.724c0.313-0.863,0.642-1.766,0.987-2.709
				c0.046-0.13,0.14-0.195,0.28-0.195h0.602c0.056,0,0.093,0.021,0.112,0.063c0.019,0.042,0.019,0.087,0,0.133l-2.912,7.813
				c-0.103,0.271-0.217,0.513-0.343,0.728s-0.254,0.388-0.385,0.519c-0.168,0.158-0.355,0.277-0.56,0.356
				c-0.206,0.079-0.42,0.119-0.644,0.119c-0.14,0-0.266-0.005-0.378-0.014C197.387,34.924,197.251,34.9,197.092,34.863z"/>
			<path fill="#706F6F" d="M203.364,25.413c0-0.13,0.065-0.195,0.196-0.195h0.532c0.13,0,0.196,0.065,0.196,0.195l-0.07,1.051
				c0.187-0.411,0.501-0.742,0.945-0.994s0.959-0.378,1.547-0.378c0.55,0,1.02,0.098,1.407,0.294
				c0.387,0.195,0.705,0.464,0.952,0.805c0.247,0.341,0.429,0.744,0.546,1.211s0.175,0.966,0.175,1.498
				c0,0.579-0.068,1.115-0.203,1.61c-0.135,0.494-0.332,0.924-0.588,1.288c-0.257,0.363-0.577,0.65-0.959,0.86
				c-0.383,0.21-0.826,0.315-1.33,0.315c-0.569,0-1.06-0.11-1.47-0.329c-0.411-0.22-0.723-0.525-0.938-0.917v3.01
				c0,0.131-0.065,0.196-0.196,0.196h-0.532c-0.056,0-0.105-0.019-0.147-0.056c-0.042-0.038-0.063-0.085-0.063-0.141V25.413z
				 M208.769,28.899c0-0.383-0.038-0.754-0.112-1.113c-0.075-0.358-0.201-0.679-0.378-0.959c-0.177-0.279-0.406-0.506-0.686-0.679
				s-0.63-0.259-1.05-0.259c-0.383,0-0.714,0.079-0.994,0.238c-0.28,0.158-0.511,0.375-0.693,0.65
				c-0.182,0.275-0.32,0.595-0.413,0.959s-0.14,0.752-0.14,1.162c0,1.083,0.203,1.901,0.609,2.457
				c0.406,0.556,0.95,0.833,1.631,0.833c0.354,0,0.669-0.077,0.945-0.231c0.275-0.153,0.509-0.375,0.7-0.665
				c0.191-0.289,0.336-0.634,0.434-1.035C208.719,29.856,208.769,29.403,208.769,28.899z"/>
			<path fill="#706F6F" d="M211.792,29.277c-0.009,0.467,0.044,0.88,0.161,1.239s0.287,0.66,0.511,0.903
				c0.224,0.242,0.492,0.429,0.805,0.56s0.66,0.196,1.043,0.196c0.374,0,0.723-0.035,1.05-0.105c0.326-0.07,0.63-0.184,0.91-0.343
				c0.121-0.056,0.182-0.023,0.182,0.098v0.63c0,0.084-0.051,0.149-0.154,0.196c-0.308,0.121-0.63,0.212-0.966,0.273
				c-0.336,0.061-0.7,0.091-1.092,0.091c-1.148,0-2.016-0.334-2.604-1.001s-0.882-1.673-0.882-3.018
				c0-1.185,0.294-2.142,0.882-2.869c0.616-0.737,1.395-1.106,2.338-1.106c0.523,0,0.975,0.094,1.358,0.28s0.709,0.467,0.98,0.84
				c0.476,0.663,0.714,1.549,0.714,2.66c0,0.121-0.002,0.215-0.007,0.279c-0.004,0.065-0.021,0.112-0.049,0.141
				c-0.028,0.027-0.077,0.044-0.147,0.049c-0.07,0.005-0.17,0.007-0.301,0.007H211.792z M215.992,28.479
				c0-0.383-0.038-0.724-0.112-1.022c-0.075-0.298-0.191-0.568-0.35-0.812c-0.346-0.551-0.845-0.826-1.498-0.826
				c-0.672,0-1.218,0.28-1.638,0.84c-0.168,0.252-0.308,0.542-0.42,0.868c-0.112,0.327-0.173,0.645-0.182,0.952H215.992z"/>
			<path fill="#706F6F" d="M217.602,34.667c-0.084,0-0.103-0.032-0.056-0.098c0.728-1.147,1.276-2.268,1.645-3.36
				c0.369-1.092,0.553-2.174,0.553-3.247c0-1.064-0.182-2.145-0.546-3.241c-0.364-1.097-0.91-2.22-1.638-3.367
				c-0.028-0.047-0.042-0.074-0.042-0.084c0-0.009,0.023-0.014,0.07-0.014h0.392c0.047,0,0.077,0.002,0.091,0.007
				c0.014,0.005,0.044,0.03,0.091,0.077c0.849,1.073,1.477,2.155,1.883,3.248c0.406,1.092,0.609,2.217,0.609,3.374
				c0,1.166-0.203,2.296-0.609,3.388c-0.406,1.092-1.034,2.17-1.883,3.233c-0.047,0.047-0.077,0.072-0.091,0.077
				c-0.014,0.005-0.054,0.007-0.119,0.007H217.602z"/>
		</g>
	</g>
	<g>
		<path fill="#706F6F" d="M52.502,30.149c0.404,0.017,0.808,0.025,1.212,0.025s0.8,0,1.188,0V19.817h-2.021
			c-0.084,0-0.177-0.041-0.278-0.126c-0.101-0.084-0.151-0.177-0.151-0.277v-1.566c0-0.102,0.05-0.193,0.151-0.278
			c0.101-0.084,0.193-0.126,0.278-0.126h13.035c0.101,0,0.189,0.038,0.265,0.113c0.076,0.076,0.114,0.173,0.114,0.291v1.591
			c0,0.102-0.038,0.189-0.114,0.266s-0.165,0.113-0.265,0.113h-1.743v9.979c0.455-0.033,0.9-0.071,1.339-0.113
			c0.438-0.042,0.867-0.097,1.288-0.165c0.084-0.017,0.177-0.004,0.278,0.038s0.16,0.105,0.177,0.189l0.227,1.592
			c0.034,0.135,0.013,0.236-0.063,0.303c-0.076,0.067-0.156,0.11-0.24,0.127c-1.01,0.151-2.105,0.282-3.284,0.391
			c-1.179,0.11-2.4,0.194-3.663,0.253c-1.263,0.06-2.552,0.098-3.865,0.114s-2.602,0.008-3.865-0.025
			c-0.101,0-0.186-0.038-0.252-0.114c-0.068-0.075-0.102-0.164-0.102-0.265v-1.617C52.148,30.268,52.267,30.149,52.502,30.149z
			 M61.369,29.998V19.817h-3.663v10.332C58.969,30.116,60.19,30.065,61.369,29.998z M74.946,27.093
			c-0.076,0.067-0.156,0.102-0.24,0.102h-3.436v11.948c0,0.219-0.11,0.328-0.329,0.328h-2.248c-0.219,0-0.328-0.109-0.328-0.328
			V15.827c0-0.219,0.109-0.329,0.328-0.329h2.248c0.219,0,0.329,0.11,0.329,0.329v8.941h3.436c0.084,0,0.164,0.03,0.24,0.089
			c0.076,0.06,0.114,0.131,0.114,0.215v1.793C75.06,26.95,75.022,27.025,74.946,27.093z"/>
		<path fill="#706F6F" d="M88.019,21.688c0,0.791-0.143,1.52-0.43,2.185c-0.286,0.666-0.694,1.242-1.225,1.73
			c-0.531,0.488-1.171,0.871-1.92,1.149c-0.75,0.278-1.579,0.417-2.488,0.417c-0.943,0-1.785-0.139-2.526-0.417
			s-1.368-0.661-1.882-1.149s-0.905-1.064-1.174-1.73c-0.27-0.665-0.404-1.394-0.404-2.185c0-0.792,0.134-1.532,0.404-2.224
			c0.269-0.69,0.661-1.288,1.174-1.793c0.514-0.506,1.141-0.901,1.882-1.188s1.583-0.43,2.526-0.43c0.909,0,1.739,0.144,2.488,0.43
			c0.749,0.286,1.389,0.682,1.92,1.188c0.53,0.505,0.938,1.103,1.225,1.793C87.875,20.155,88.019,20.896,88.019,21.688z
			 M85.442,21.713c0-0.977-0.316-1.777-0.947-2.4s-1.478-0.935-2.539-0.935c-1.027,0-1.853,0.312-2.476,0.935
			s-0.935,1.424-0.935,2.4c0,0.926,0.312,1.696,0.935,2.311c0.623,0.615,1.448,0.922,2.476,0.922c0.521,0,0.998-0.079,1.427-0.239
			s0.795-0.388,1.099-0.683c0.303-0.294,0.539-0.64,0.708-1.035C85.357,22.593,85.442,22.167,85.442,21.713z M95.079,39.307
			c-0.076,0.075-0.148,0.113-0.215,0.113H81.476c-0.657,0-1.107-0.126-1.352-0.379c-0.244-0.252-0.366-0.648-0.366-1.188v-3.081
			c0-0.539,0.118-0.931,0.354-1.175s0.682-0.366,1.339-0.366h9.978c0.135,0,0.219-0.021,0.253-0.063
			c0.033-0.042,0.05-0.139,0.05-0.29v-0.935c0-0.186-0.017-0.295-0.05-0.329c-0.034-0.033-0.126-0.05-0.278-0.05H80.087
			c-0.085,0-0.169-0.029-0.253-0.089c-0.084-0.059-0.126-0.13-0.126-0.215v-1.667c0-0.084,0.042-0.164,0.126-0.24
			c0.084-0.075,0.168-0.113,0.253-0.113h12.756c0.69,0,1.149,0.118,1.377,0.354c0.227,0.236,0.341,0.641,0.341,1.213v3.057
			c0,0.589-0.114,0.993-0.341,1.212c-0.228,0.219-0.687,0.328-1.377,0.328h-9.902c-0.135,0-0.219,0.021-0.253,0.063
			s-0.05,0.13-0.05,0.266v1.061c0,0.151,0.017,0.24,0.05,0.266s0.126,0.037,0.278,0.037h11.873c0.084,0,0.164,0.034,0.24,0.102
			c0.076,0.067,0.113,0.151,0.113,0.253v1.616C95.192,39.15,95.155,39.23,95.079,39.307z M94.561,27.75
			c0,0.219-0.11,0.328-0.329,0.328h-2.248c-0.219,0-0.328-0.117-0.328-0.354V15.827c0-0.219,0.109-0.329,0.328-0.329h2.248
			c0.219,0,0.329,0.11,0.329,0.329V27.75z"/>
		<path fill="#706F6F" d="M103.503,29.038c0.96,0.034,1.954,0.055,2.981,0.063c1.027,0.008,2.063-0.004,3.107-0.038V27.8
			c-1.28-0.168-2.286-0.543-3.019-1.124s-1.099-1.275-1.099-2.084c0-0.471,0.13-0.909,0.391-1.313s0.632-0.758,1.112-1.061
			c0.479-0.304,1.052-0.539,1.718-0.707c0.665-0.169,1.41-0.253,2.235-0.253s1.574,0.084,2.248,0.253
			c0.673,0.168,1.246,0.403,1.718,0.707c0.471,0.303,0.838,0.656,1.099,1.061c0.261,0.404,0.391,0.843,0.391,1.313
			c0,0.775-0.354,1.453-1.061,2.034c-0.708,0.581-1.667,0.964-2.88,1.149v1.187c0.96-0.033,1.89-0.084,2.791-0.151
			s1.772-0.151,2.615-0.253c0.084-0.017,0.172-0.008,0.265,0.025c0.093,0.034,0.147,0.11,0.164,0.228l0.126,1.415
			c0.017,0.118-0.008,0.215-0.076,0.29c-0.067,0.076-0.144,0.122-0.228,0.139c-1.162,0.136-2.387,0.249-3.675,0.342
			c-1.288,0.093-2.568,0.164-3.839,0.214c-1.272,0.051-2.514,0.085-3.726,0.102s-2.333,0.009-3.36-0.025
			c-0.101,0-0.186-0.038-0.252-0.113c-0.067-0.076-0.101-0.164-0.101-0.266v-1.516C103.149,29.156,103.267,29.038,103.503,29.038z
			 M117.283,20.449c-0.076,0.085-0.164,0.126-0.265,0.126h-12.605c-0.084,0-0.168-0.046-0.253-0.139
			c-0.084-0.092-0.126-0.189-0.126-0.29v-1.238c0-0.084,0.046-0.168,0.139-0.252c0.092-0.084,0.181-0.127,0.265-0.127h12.58
			c0.101,0,0.189,0.038,0.265,0.114c0.076,0.075,0.114,0.164,0.114,0.265v1.264C117.396,20.272,117.358,20.365,117.283,20.449z
			 M122.082,39.382c-0.076,0.076-0.156,0.114-0.24,0.114h-2.172c-0.101,0-0.189-0.038-0.265-0.114
			c-0.076-0.075-0.114-0.155-0.114-0.239v-3.865c0-0.168-0.034-0.277-0.101-0.328c-0.067-0.051-0.194-0.076-0.379-0.076H106.56
			c-0.084,0-0.164-0.033-0.24-0.101c-0.076-0.067-0.113-0.144-0.113-0.228v-1.692c0-0.102,0.038-0.177,0.113-0.228
			c0.076-0.051,0.156-0.076,0.24-0.076h13.969c0.64,0,1.078,0.131,1.313,0.392c0.236,0.262,0.354,0.712,0.354,1.352v4.851
			C122.196,39.227,122.158,39.307,122.082,39.382z M114.15,17.52c-0.076,0.084-0.181,0.126-0.315,0.126h-6.214
			c-0.068,0-0.152-0.033-0.252-0.102c-0.102-0.066-0.152-0.159-0.152-0.277v-1.288c0-0.118,0.05-0.211,0.152-0.278
			c0.101-0.067,0.185-0.101,0.252-0.101h6.214c0.117,0,0.218,0.042,0.303,0.126c0.084,0.085,0.126,0.177,0.126,0.278v1.237
			C114.264,17.343,114.226,17.436,114.15,17.52z M110.93,23.229c-0.809,0-1.444,0.135-1.907,0.403
			c-0.463,0.27-0.694,0.59-0.694,0.96c0,0.354,0.231,0.67,0.694,0.947c0.463,0.278,1.099,0.417,1.907,0.417s1.444-0.139,1.907-0.417
			c0.463-0.277,0.694-0.594,0.694-0.947c0-0.37-0.231-0.69-0.694-0.96C112.374,23.363,111.738,23.229,110.93,23.229z M125.72,25.805
			c-0.076,0.067-0.156,0.101-0.24,0.101h-3.309v5.153c0,0.22-0.11,0.329-0.329,0.329h-2.248c-0.219,0-0.329-0.109-0.329-0.329
			V15.827c0-0.219,0.109-0.329,0.329-0.329h2.248c0.219,0,0.329,0.11,0.329,0.329v7.653h3.309c0.084,0,0.164,0.03,0.24,0.089
			c0.076,0.059,0.114,0.131,0.114,0.215v1.793C125.833,25.662,125.796,25.737,125.72,25.805z"/>
		<path fill="#706F6F" d="M127.602,29.089c-0.118,0.05-0.257,0.075-0.417,0.075s-0.291-0.092-0.392-0.277l-0.783-1.264
			c-0.084-0.134-0.105-0.277-0.063-0.429c0.042-0.152,0.147-0.27,0.316-0.354c1.869-0.859,3.499-1.907,4.888-3.146
			c1.39-1.237,2.421-2.556,3.095-3.953c0.084-0.151,0.117-0.286,0.101-0.404c-0.017-0.117-0.161-0.177-0.43-0.177h-6.34
			c-0.118,0-0.207-0.042-0.265-0.126c-0.059-0.084-0.088-0.177-0.088-0.278V17.09c0-0.235,0.126-0.354,0.379-0.354h8.108
			c0.741,0,1.292,0.135,1.655,0.404c0.362,0.27,0.501,0.682,0.417,1.237c-0.034,0.186-0.076,0.379-0.126,0.581
			c-0.051,0.202-0.11,0.379-0.177,0.53c-0.202,0.539-0.468,1.082-0.796,1.63c-0.328,0.547-0.695,1.09-1.099,1.629
			c0.303,0.303,0.64,0.606,1.01,0.909c0.37,0.304,0.749,0.59,1.137,0.859c0.387,0.27,0.771,0.518,1.149,0.745
			s0.736,0.426,1.074,0.594c0.185,0.084,0.303,0.173,0.354,0.265c0.05,0.093,0.017,0.224-0.101,0.392l-0.833,1.415
			c-0.186,0.303-0.438,0.362-0.758,0.177c-0.303-0.135-0.653-0.324-1.048-0.568c-0.396-0.244-0.805-0.521-1.225-0.834
			c-0.421-0.312-0.843-0.64-1.263-0.985c-0.421-0.345-0.808-0.694-1.162-1.048c-0.893,0.876-1.878,1.692-2.956,2.45
			S128.764,28.533,127.602,29.089z M144.779,34.671c0,0.708-0.194,1.36-0.581,1.958c-0.388,0.598-0.918,1.111-1.591,1.541
			c-0.674,0.43-1.478,0.762-2.413,0.998c-0.935,0.235-1.941,0.354-3.019,0.354c-1.162,0-2.207-0.118-3.132-0.354
			c-0.926-0.236-1.714-0.568-2.362-0.998c-0.649-0.43-1.149-0.939-1.503-1.528c-0.354-0.59-0.53-1.246-0.53-1.971
			c0-0.707,0.177-1.355,0.53-1.944c0.354-0.59,0.854-1.1,1.503-1.528c0.648-0.43,1.436-0.762,2.362-0.998
			c0.926-0.235,1.97-0.354,3.132-0.354c1.078,0,2.084,0.118,3.019,0.354c0.935,0.236,1.739,0.564,2.413,0.985
			c0.673,0.421,1.204,0.926,1.591,1.516C144.585,33.29,144.779,33.947,144.779,34.671z M141.798,34.747
			c0-0.421-0.126-0.792-0.379-1.111c-0.252-0.32-0.59-0.59-1.01-0.809c-0.421-0.219-0.91-0.388-1.465-0.505
			c-0.556-0.118-1.146-0.177-1.768-0.177c-1.348,0-2.438,0.223-3.271,0.669s-1.25,1.091-1.25,1.933c0,0.404,0.114,0.758,0.341,1.061
			c0.227,0.304,0.539,0.56,0.935,0.771c0.396,0.211,0.872,0.37,1.427,0.48c0.556,0.109,1.162,0.164,1.819,0.164
			c0.623,0,1.212-0.055,1.768-0.164c0.556-0.11,1.044-0.27,1.465-0.48c0.42-0.211,0.758-0.467,1.01-0.771
			C141.672,35.505,141.798,35.151,141.798,34.747z M148.202,23.91c-0.076,0.067-0.165,0.101-0.265,0.101h-3.41v5.153
			c0,0.085-0.034,0.164-0.102,0.24s-0.143,0.113-0.227,0.113h-2.249c-0.084,0-0.16-0.037-0.227-0.113
			c-0.067-0.076-0.101-0.164-0.101-0.266V15.827c0-0.219,0.109-0.329,0.328-0.329h2.249c0.219,0,0.329,0.11,0.329,0.329v5.759h3.41
			c0.101,0,0.189,0.034,0.265,0.102s0.114,0.143,0.114,0.227v1.769C148.315,23.768,148.277,23.843,148.202,23.91z"/>
		<path fill="#706F6F" d="M149.477,33.383c-0.135,0.085-0.273,0.118-0.417,0.102s-0.257-0.093-0.341-0.228l-0.985-1.289
			c-0.118-0.151-0.139-0.294-0.063-0.429c0.076-0.135,0.164-0.236,0.265-0.304c1.061-0.656,2.071-1.414,3.031-2.273
			c0.96-0.858,1.827-1.764,2.602-2.715c0.774-0.951,1.431-1.92,1.97-2.905c0.539-0.985,0.926-1.933,1.162-2.842
			c0.067-0.286,0.076-0.472,0.025-0.556c-0.05-0.084-0.219-0.127-0.505-0.127h-6.518c-0.118,0-0.206-0.037-0.265-0.113
			s-0.088-0.164-0.088-0.266v-1.692c0-0.101,0.038-0.185,0.114-0.252s0.164-0.102,0.265-0.102h8.235c0.657,0,1.17,0.127,1.541,0.379
			c0.37,0.253,0.556,0.581,0.556,0.985c0,0.219-0.017,0.442-0.05,0.67c-0.034,0.227-0.076,0.434-0.126,0.618
			c-0.236,0.909-0.547,1.823-0.935,2.741c-0.388,0.918-0.868,1.831-1.44,2.74c0.32,0.438,0.69,0.897,1.111,1.377
			c0.421,0.48,0.851,0.943,1.289,1.39c0.438,0.446,0.875,0.858,1.313,1.237c0.438,0.379,0.833,0.695,1.187,0.947
			c0.118,0.085,0.198,0.194,0.24,0.329c0.042,0.135,0.013,0.27-0.088,0.403l-1.086,1.238c-0.219,0.253-0.497,0.27-0.833,0.051
			c-0.303-0.202-0.657-0.48-1.061-0.834s-0.821-0.749-1.25-1.188c-0.429-0.438-0.859-0.896-1.288-1.376
			c-0.429-0.48-0.813-0.939-1.149-1.377C154.175,29.863,152.037,31.75,149.477,33.383z M170.683,27.093
			c-0.076,0.067-0.156,0.102-0.24,0.102h-3.436v11.948c0,0.219-0.11,0.328-0.329,0.328h-2.248c-0.219,0-0.329-0.109-0.329-0.328
			V15.827c0-0.219,0.109-0.329,0.329-0.329h2.248c0.219,0,0.329,0.11,0.329,0.329v8.941h3.436c0.084,0,0.164,0.03,0.24,0.089
			c0.076,0.06,0.114,0.131,0.114,0.215v1.793C170.797,26.95,170.759,27.025,170.683,27.093z"/>
	</g>
	<rect fill="none" width="272.818" height="55.979"/>
</g>
<line fill="none" x1="265.695" y1="-8123.95" x2="265.695" y2="8259.05"/>
</svg>
