<?xml version="1.0" encoding="utf-8"?>
<!-- Generator: Adobe Illustrator 16.0.0, SVG Export Plug-In . SVG Version: 6.00 Build 0)  -->
<!DOCTYPE svg PUBLIC "-//W3C//DTD SVG 1.1//EN" "http://www.w3.org/Graphics/SVG/1.1/DTD/svg11.dtd">
<svg version="1.1" id="레이어_1" xmlns="http://www.w3.org/2000/svg" xmlns:xlink="http://www.w3.org/1999/xlink" x="0px"
	 y="0px" width="272.818px" height="55.979px" viewBox="0 0 272.818 55.979" enable-background="new 0 0 272.818 55.979"
	 xml:space="preserve">
<g>
	<g>
		<g>
			<g>
				<path fill="#706F6F" d="M190.064,34.667c-0.065,0-0.105-0.002-0.119-0.007c-0.014-0.005-0.04-0.03-0.077-0.077
					c-0.849-1.063-1.479-2.142-1.89-3.233c-0.411-1.092-0.616-2.222-0.616-3.388c0-1.157,0.205-2.282,0.616-3.374
					c0.41-1.093,1.041-2.175,1.89-3.248c0.037-0.047,0.063-0.072,0.077-0.077c0.014-0.005,0.044-0.007,0.091-0.007h0.392
					c0.056,0,0.084,0.005,0.084,0.014c0,0.01-0.014,0.037-0.042,0.084c-1.465,2.296-2.198,4.499-2.198,6.608
					c0,1.073,0.187,2.155,0.56,3.247c0.373,1.093,0.924,2.213,1.652,3.36c0.047,0.065,0.023,0.098-0.07,0.098H190.064z"/>
				<path fill="#706F6F" d="M191.422,22.571c0-0.187,0.065-0.348,0.196-0.482c0.131-0.136,0.289-0.203,0.476-0.203
					c0.187,0,0.348,0.067,0.483,0.203c0.135,0.135,0.203,0.296,0.203,0.482s-0.068,0.346-0.203,0.477s-0.296,0.195-0.483,0.195
					c-0.187,0-0.345-0.064-0.476-0.195S191.422,22.758,191.422,22.571z M192.416,32.791H191.8c-0.131,0-0.196-0.065-0.196-0.195
					v-7.183c0-0.13,0.065-0.195,0.196-0.195h0.616c0.131,0,0.196,0.065,0.196,0.195v7.183
					C192.612,32.726,192.547,32.791,192.416,32.791z"/>
				<path fill="#706F6F" d="M200.508,32.596c0,0.13-0.065,0.195-0.196,0.195h-0.56c-0.131,0-0.196-0.065-0.196-0.195v-4.41
					c0-0.858-0.154-1.468-0.462-1.827s-0.742-0.539-1.302-0.539c-0.756,0-1.332,0.21-1.729,0.63s-0.595,1.008-0.595,1.765v4.382
					c0,0.13-0.065,0.195-0.196,0.195h-0.56c-0.131,0-0.196-0.065-0.196-0.195v-5.601c0-0.4-0.002-0.714-0.007-0.938
					c-0.005-0.225-0.017-0.438-0.035-0.645c-0.009-0.064,0.007-0.114,0.049-0.146c0.042-0.033,0.091-0.049,0.147-0.049h0.504
					c0.131,0,0.196,0.065,0.196,0.195v0.771c0.261-0.401,0.576-0.695,0.945-0.882s0.875-0.28,1.519-0.28
					c0.887,0,1.554,0.257,2.002,0.77c0.448,0.514,0.672,1.237,0.672,2.171V32.596z"/>
				<path fill="#706F6F" d="M206.038,32.806c-0.392,0.14-0.78,0.21-1.162,0.21c-0.756,0-1.255-0.248-1.498-0.742
					c-0.159-0.336-0.238-0.929-0.238-1.778v-4.466h-1.316c-0.13,0-0.196-0.065-0.196-0.196v-0.42c0-0.13,0.065-0.195,0.196-0.195
					h1.316v-1.891c0-0.14,0.061-0.21,0.182-0.21h0.588c0.121,0,0.182,0.07,0.182,0.21v1.891h1.554c0.13,0,0.196,0.065,0.196,0.195
					v0.42c0,0.131-0.065,0.196-0.196,0.196h-1.554v4.942c0,0.831,0.336,1.246,1.008,1.246c0.262,0,0.556-0.057,0.882-0.168
					c0.046-0.019,0.091-0.019,0.133,0s0.063,0.056,0.063,0.111l0.028,0.364C206.225,32.656,206.168,32.749,206.038,32.806z"/>
				<path fill="#706F6F" d="M206.906,22.571c0-0.187,0.065-0.348,0.196-0.482c0.131-0.136,0.29-0.203,0.476-0.203
					c0.187,0,0.348,0.067,0.483,0.203c0.136,0.135,0.203,0.296,0.203,0.482s-0.067,0.346-0.203,0.477
					c-0.135,0.131-0.296,0.195-0.483,0.195c-0.187,0-0.345-0.064-0.476-0.195S206.906,22.758,206.906,22.571z M207.9,32.791h-0.616
					c-0.131,0-0.196-0.065-0.196-0.195v-7.183c0-0.13,0.065-0.195,0.196-0.195h0.616c0.13,0,0.196,0.065,0.196,0.195v7.183
					C208.096,32.726,208.03,32.791,207.9,32.791z"/>
				<path fill="#706F6F" d="M213.527,32.806c-0.392,0.14-0.779,0.21-1.162,0.21c-0.756,0-1.255-0.248-1.498-0.742
					c-0.159-0.336-0.238-0.929-0.238-1.778v-4.466h-1.316c-0.131,0-0.196-0.065-0.196-0.196v-0.42c0-0.13,0.065-0.195,0.196-0.195
					h1.316v-1.891c0-0.14,0.061-0.21,0.182-0.21h0.588c0.122,0,0.182,0.07,0.182,0.21v1.891h1.554c0.13,0,0.196,0.065,0.196,0.195
					v0.42c0,0.131-0.065,0.196-0.196,0.196h-1.554v4.942c0,0.831,0.336,1.246,1.008,1.246c0.261,0,0.555-0.057,0.882-0.168
					c0.046-0.019,0.091-0.019,0.133,0s0.063,0.056,0.063,0.111l0.028,0.364C213.714,32.656,213.658,32.749,213.527,32.806z"/>
				<path fill="#706F6F" d="M215.403,32.791h-0.616c-0.131,0-0.196-0.065-0.196-0.195V21.857c0-0.131,0.065-0.196,0.196-0.196h0.616
					c0.131,0,0.196,0.065,0.196,0.196v10.738C215.6,32.726,215.534,32.791,215.403,32.791z"/>
				<path fill="#706F6F" d="M217.965,29.277c-0.009,0.467,0.044,0.88,0.161,1.239s0.287,0.66,0.511,0.903
					c0.224,0.242,0.492,0.429,0.805,0.56c0.313,0.131,0.66,0.196,1.043,0.196c0.373,0,0.723-0.035,1.05-0.105s0.63-0.184,0.91-0.343
					c0.121-0.056,0.182-0.023,0.182,0.098v0.63c0,0.084-0.051,0.149-0.154,0.196c-0.308,0.121-0.63,0.212-0.966,0.273
					c-0.336,0.061-0.7,0.091-1.092,0.091c-1.148,0-2.016-0.334-2.604-1.001s-0.882-1.673-0.882-3.018
					c0-1.185,0.294-2.142,0.882-2.869c0.616-0.737,1.395-1.106,2.338-1.106c0.522,0,0.975,0.094,1.358,0.28s0.709,0.467,0.98,0.84
					c0.476,0.663,0.714,1.549,0.714,2.66c0,0.121-0.002,0.215-0.007,0.279c-0.005,0.065-0.021,0.112-0.049,0.141
					c-0.028,0.027-0.077,0.044-0.147,0.049c-0.07,0.005-0.17,0.007-0.301,0.007H217.965z M222.166,28.479
					c0-0.383-0.038-0.724-0.112-1.022c-0.075-0.298-0.191-0.568-0.35-0.812c-0.345-0.551-0.845-0.826-1.498-0.826
					c-0.672,0-1.218,0.28-1.638,0.84c-0.168,0.252-0.308,0.542-0.42,0.868c-0.112,0.327-0.173,0.645-0.182,0.952H222.166z"/>
				<path fill="#706F6F" d="M223.985,34.667c-0.084,0-0.103-0.032-0.056-0.098c0.728-1.147,1.276-2.268,1.645-3.36
					c0.369-1.092,0.553-2.174,0.553-3.247c0-1.064-0.182-2.145-0.546-3.241c-0.364-1.097-0.91-2.22-1.638-3.367
					c-0.028-0.047-0.042-0.074-0.042-0.084c0-0.009,0.023-0.014,0.07-0.014h0.392c0.047,0,0.077,0.002,0.091,0.007
					c0.014,0.005,0.044,0.03,0.091,0.077c0.849,1.073,1.477,2.155,1.883,3.248c0.406,1.092,0.609,2.217,0.609,3.374
					c0,1.166-0.203,2.296-0.609,3.388c-0.406,1.092-1.034,2.17-1.883,3.233c-0.047,0.047-0.077,0.072-0.091,0.077
					c-0.014,0.005-0.054,0.007-0.119,0.007H223.985z"/>
			</g>
		</g>
		<g>
			<g>
				<path fill="#706F6F" d="M47.071,33.435c-0.101,0.084-0.227,0.126-0.379,0.126c-0.151,0-0.277-0.059-0.379-0.177l-1.035-1.213
					c-0.085-0.117-0.118-0.248-0.102-0.392c0.017-0.143,0.093-0.256,0.228-0.341c1.011-0.707,1.933-1.507,2.766-2.399
					s1.558-1.823,2.172-2.791c0.615-0.969,1.124-1.941,1.528-2.918s0.682-1.903,0.833-2.778c0.051-0.236,0.059-0.4,0.025-0.493
					c-0.034-0.092-0.16-0.139-0.379-0.139h-5.305c-0.084,0-0.152-0.038-0.202-0.113c-0.05-0.076-0.076-0.165-0.076-0.266v-1.617
					c0-0.252,0.101-0.379,0.303-0.379h6.72c0.724,0,1.246,0.118,1.566,0.354c0.32,0.235,0.48,0.572,0.48,1.01
					c0,0.151-0.004,0.325-0.013,0.519c-0.008,0.193-0.029,0.366-0.063,0.518c-0.354,1.903-0.994,3.756-1.92,5.558
					c0.253,0.454,0.551,0.931,0.897,1.427c0.345,0.497,0.707,0.973,1.086,1.428c0.379,0.454,0.75,0.867,1.112,1.237
					c0.362,0.371,0.686,0.657,0.972,0.858c0.186,0.136,0.274,0.266,0.266,0.392c-0.009,0.127-0.072,0.258-0.189,0.392l-0.96,1.188
					c-0.236,0.304-0.522,0.312-0.859,0.025c-0.252-0.186-0.539-0.442-0.859-0.771c-0.32-0.328-0.653-0.69-0.998-1.086
					s-0.682-0.821-1.01-1.276c-0.329-0.454-0.627-0.9-0.897-1.338c-0.707,1.027-1.503,1.995-2.387,2.904
					C49.13,31.792,48.149,32.643,47.071,33.435z M61.647,38.663h-2.046c-0.236,0-0.354-0.118-0.354-0.354v-12.15h-3.006
					c-0.084,0-0.164-0.033-0.24-0.101c-0.076-0.067-0.113-0.144-0.113-0.228v-1.743c0-0.084,0.038-0.155,0.113-0.215
					c0.076-0.059,0.156-0.088,0.24-0.088h3.006v-7.554c0-0.219,0.118-0.328,0.354-0.328h2.046c0.236,0,0.354,0.109,0.354,0.328
					V38.31C62,38.545,61.883,38.663,61.647,38.663z M66.472,39.522h-2.197c-0.219,0-0.329-0.11-0.329-0.329V15.828
					c0-0.219,0.118-0.329,0.354-0.329h2.172c0.219,0,0.329,0.11,0.329,0.329v23.365C66.8,39.412,66.69,39.522,66.472,39.522z"/>
				<path fill="#706F6F" d="M86.364,23.911c-0.328,0.27-0.813,0.404-1.453,0.404h-4.244v2.602h9.523
					c0.084,0,0.168,0.038,0.252,0.114c0.084,0.075,0.126,0.164,0.126,0.265v1.667c0,0.085-0.042,0.169-0.126,0.253
					c-0.084,0.084-0.168,0.126-0.252,0.126H68.214c-0.101,0-0.186-0.037-0.252-0.113c-0.067-0.076-0.101-0.164-0.101-0.266v-1.667
					c0-0.253,0.118-0.379,0.354-0.379h9.549v-2.602h-4.269c-0.775,0-1.293-0.131-1.554-0.392c-0.261-0.261-0.392-0.72-0.392-1.377
					v-4.749c0-0.64,0.164-1.095,0.493-1.364c0.329-0.269,0.812-0.404,1.453-0.404h11.417c0.774,0,1.292,0.127,1.554,0.379
					c0.261,0.253,0.392,0.717,0.392,1.39v4.749C86.857,23.188,86.692,23.642,86.364,23.911z M86.844,39.383
					c-0.076,0.076-0.156,0.114-0.24,0.114h-2.173c-0.101,0-0.189-0.038-0.265-0.114c-0.076-0.075-0.114-0.155-0.114-0.239v-5.103
					c0-0.169-0.034-0.278-0.101-0.329c-0.068-0.05-0.194-0.075-0.379-0.075H71.321c-0.084,0-0.164-0.034-0.24-0.102
					c-0.076-0.066-0.114-0.143-0.114-0.228v-1.793c0-0.102,0.038-0.177,0.114-0.228s0.156-0.076,0.24-0.076h13.969
					c0.64,0,1.078,0.131,1.314,0.392c0.235,0.262,0.354,0.712,0.354,1.352v6.189C86.958,39.228,86.92,39.308,86.844,39.383z
					 M83.952,18.732c0-0.135-0.025-0.223-0.076-0.265c-0.05-0.042-0.143-0.063-0.278-0.063h-8.765c-0.152,0-0.249,0.017-0.291,0.051
					c-0.042,0.033-0.063,0.118-0.063,0.252v2.905c0,0.151,0.021,0.244,0.063,0.278c0.042,0.033,0.139,0.05,0.291,0.05h8.765
					c0.152,0,0.249-0.017,0.291-0.05c0.042-0.034,0.063-0.127,0.063-0.278V18.732z"/>
				<path fill="#706F6F" d="M106.56,38.663h-2.071c-0.236,0-0.354-0.118-0.354-0.354V26.438h-2.299
					c-0.084,1.027-0.282,1.944-0.593,2.753c-0.312,0.809-0.708,1.495-1.188,2.059c-0.48,0.564-1.032,0.994-1.655,1.288
					c-0.623,0.295-1.297,0.442-2.021,0.442c-0.809,0-1.541-0.181-2.198-0.543s-1.217-0.884-1.68-1.566
					c-0.463-0.682-0.821-1.511-1.074-2.488c-0.252-0.977-0.379-2.079-0.379-3.309c0-1.33,0.135-2.492,0.404-3.486
					c0.269-0.993,0.64-1.818,1.111-2.476c0.471-0.656,1.031-1.145,1.68-1.465c0.648-0.319,1.36-0.48,2.135-0.48
					c0.741,0,1.431,0.14,2.071,0.417c0.64,0.278,1.204,0.699,1.692,1.264s0.884,1.275,1.188,2.134
					c0.303,0.859,0.488,1.87,0.556,3.031h2.248v-7.755c0-0.219,0.118-0.328,0.354-0.328h2.071c0.219,0,0.329,0.109,0.329,0.328
					V38.31C106.888,38.545,106.778,38.663,106.56,38.663z M99.108,25.099c0-0.64-0.05-1.28-0.151-1.92s-0.261-1.221-0.48-1.743
					c-0.219-0.521-0.501-0.943-0.846-1.263c-0.345-0.32-0.754-0.48-1.225-0.48c-0.438,0-0.817,0.164-1.137,0.493
					c-0.32,0.328-0.581,0.754-0.783,1.275c-0.202,0.522-0.354,1.103-0.455,1.743c-0.101,0.64-0.151,1.271-0.151,1.895
					c0,0.605,0.051,1.229,0.151,1.869c0.102,0.64,0.253,1.225,0.455,1.756c0.202,0.53,0.463,0.964,0.783,1.301
					c0.319,0.337,0.698,0.505,1.137,0.505c0.471,0,0.875-0.168,1.212-0.505c0.336-0.337,0.615-0.767,0.833-1.288
					c0.219-0.522,0.383-1.104,0.493-1.743C99.053,26.354,99.108,25.722,99.108,25.099z M111.435,39.497h-2.198
					c-0.219,0-0.328-0.11-0.328-0.328V15.828c0-0.219,0.118-0.329,0.354-0.329h2.172c0.219,0,0.329,0.11,0.329,0.329v23.341
					C111.764,39.387,111.654,39.497,111.435,39.497z"/>
				<path fill="#706F6F" d="M115.502,34.142c-0.32,0.253-0.615,0.244-0.884-0.025l-1.187-1.111
					c-0.236-0.235-0.211-0.488,0.076-0.758c1.094-1.011,2.029-2.122,2.804-3.334c0.774-1.213,1.398-2.51,1.87-3.891
					c0.42-1.229,0.711-2.479,0.871-3.751s0.223-2.656,0.189-4.155c0-0.102,0.038-0.189,0.114-0.266
					c0.076-0.075,0.156-0.113,0.24-0.113l2.248,0.075c0.084,0,0.16,0.038,0.227,0.114c0.067,0.075,0.102,0.164,0.102,0.265
					c0,2.071-0.152,3.975-0.455,5.709c0.152,0.809,0.404,1.621,0.758,2.438c0.354,0.817,0.771,1.601,1.25,2.35
					c0.48,0.75,0.998,1.444,1.554,2.084c0.556,0.641,1.111,1.179,1.667,1.617c0.269,0.201,0.286,0.472,0.051,0.808l-1.061,1.289
					c-0.084,0.117-0.198,0.185-0.341,0.201c-0.144,0.018-0.299-0.033-0.468-0.151c-0.421-0.319-0.863-0.724-1.326-1.212
					c-0.463-0.488-0.905-1.015-1.326-1.579s-0.808-1.146-1.162-1.743c-0.354-0.598-0.631-1.175-0.833-1.73
					c-0.303,0.708-0.648,1.39-1.036,2.046c-0.388,0.657-0.796,1.285-1.225,1.883s-0.875,1.145-1.339,1.642
					S115.957,33.771,115.502,34.142z M133.26,39.472h-2.249c-0.219,0-0.328-0.109-0.328-0.328V25.78h-5.204
					c-0.084,0-0.165-0.033-0.24-0.101s-0.114-0.144-0.114-0.228v-1.794c0-0.084,0.038-0.155,0.114-0.215
					c0.076-0.059,0.156-0.088,0.24-0.088h5.204v-7.527c0-0.219,0.109-0.329,0.328-0.329h2.249c0.218,0,0.328,0.11,0.328,0.329
					v23.315C133.588,39.362,133.479,39.472,133.26,39.472z"/>
				<path fill="#706F6F" d="M153.897,20.526c0,0.168-0.042,0.375-0.126,0.619c-0.084,0.244-0.177,0.467-0.278,0.669
					c-0.421,0.893-1.07,1.802-1.945,2.729c0.286,0.235,0.602,0.476,0.947,0.72s0.695,0.476,1.048,0.694s0.703,0.417,1.048,0.594
					s0.669,0.324,0.973,0.442c0.185,0.067,0.291,0.164,0.316,0.29c0.025,0.127-0.004,0.266-0.089,0.417l-0.707,1.188
					c-0.186,0.286-0.446,0.354-0.783,0.202c-0.303-0.118-0.648-0.282-1.036-0.493c-0.387-0.21-0.783-0.445-1.187-0.707
					c-0.404-0.261-0.809-0.534-1.213-0.821c-0.404-0.286-0.766-0.572-1.086-0.858c-0.909,0.741-1.912,1.439-3.006,2.097
					c-1.095,0.656-2.257,1.237-3.486,1.743c-0.084,0.033-0.202,0.042-0.354,0.024c-0.151-0.017-0.27-0.101-0.354-0.252l-0.708-1.313
					c-0.084-0.135-0.093-0.266-0.025-0.392c0.067-0.127,0.168-0.215,0.303-0.266c0.926-0.387,1.814-0.825,2.665-1.313
					s1.625-0.993,2.324-1.516c0.698-0.521,1.305-1.044,1.818-1.566c0.514-0.521,0.888-1.01,1.125-1.465
					c0.067-0.117,0.105-0.215,0.114-0.29c0.008-0.076-0.123-0.114-0.392-0.114h-6.518c-0.101,0-0.181-0.038-0.24-0.113
					c-0.059-0.076-0.088-0.164-0.088-0.266v-1.591c0-0.202,0.126-0.304,0.379-0.304h8.462c0.673,0,1.191,0.089,1.553,0.266
					S153.897,20.071,153.897,20.526z M159.076,34.268c-0.522,0.506-1.221,0.994-2.097,1.466c0.758,0.252,1.596,0.488,2.514,0.707
					c0.917,0.219,1.73,0.404,2.438,0.556c0.337,0.084,0.455,0.27,0.354,0.556l-0.53,1.415c-0.084,0.219-0.295,0.303-0.632,0.252
					c-0.488-0.101-1.027-0.227-1.616-0.379c-0.59-0.151-1.192-0.315-1.807-0.492s-1.229-0.366-1.844-0.568
					c-0.615-0.202-1.2-0.404-1.756-0.606c-1.263,0.505-2.589,0.956-3.979,1.352c-1.389,0.396-2.741,0.703-4.054,0.922
					c-0.186,0.033-0.329,0.029-0.429-0.013c-0.101-0.042-0.186-0.139-0.253-0.29l-0.53-1.39c-0.051-0.135-0.038-0.253,0.038-0.354
					c0.075-0.102,0.172-0.169,0.29-0.202c1.027-0.202,2.042-0.43,3.044-0.682c1.002-0.253,1.954-0.522,2.854-0.809
					s1.73-0.59,2.488-0.909c0.758-0.32,1.415-0.641,1.97-0.96c0.252-0.169,0.379-0.308,0.379-0.417s-0.194-0.164-0.581-0.164h-8.791
					c-0.084,0-0.156-0.029-0.215-0.089c-0.059-0.059-0.088-0.139-0.088-0.24v-1.667c0-0.185,0.101-0.277,0.303-0.277h11.266
					c0.893,0,1.52,0.113,1.882,0.341c0.362,0.228,0.543,0.526,0.543,0.896c0,0.287-0.097,0.61-0.291,0.973
					C159.754,33.557,159.463,33.914,159.076,34.268z M151.637,17.861c-0.076,0.093-0.173,0.139-0.29,0.139h-5.911
					c-0.067,0-0.148-0.033-0.24-0.101c-0.093-0.067-0.139-0.169-0.139-0.304v-1.439c0-0.118,0.046-0.211,0.139-0.278
					c0.092-0.066,0.173-0.101,0.24-0.101h5.911c0.101,0,0.193,0.042,0.277,0.126c0.084,0.085,0.126,0.177,0.126,0.278v1.389
					C151.75,17.672,151.713,17.769,151.637,17.861z M164.09,24.567c-0.076,0.068-0.164,0.102-0.265,0.102h-3.41v4.698
					c0,0.236-0.11,0.354-0.329,0.354h-2.248c-0.219,0-0.329-0.126-0.329-0.379V15.828c0-0.219,0.109-0.329,0.329-0.329h2.248
					c0.219,0,0.329,0.11,0.329,0.329v6.416h3.41c0.101,0,0.189,0.029,0.265,0.088c0.076,0.06,0.114,0.131,0.114,0.215v1.794
					C164.204,24.425,164.166,24.501,164.09,24.567z"/>
				<path fill="#706F6F" d="M177.112,19.288c-0.135,1.634-0.476,3.175-1.023,4.623c-0.547,1.448-1.271,2.796-2.172,4.042
					s-1.966,2.399-3.195,3.46c-1.229,1.062-2.585,2.03-4.067,2.905c-0.135,0.085-0.282,0.114-0.442,0.089s-0.282-0.102-0.366-0.229
					l-0.859-1.246c-0.084-0.125-0.11-0.246-0.076-0.363c0.033-0.118,0.109-0.208,0.228-0.271c2.509-1.51,4.517-3.251,6.024-5.225
					c1.507-1.974,2.488-4.113,2.943-6.421c0.067-0.337,0.05-0.56-0.05-0.669c-0.102-0.109-0.312-0.165-0.632-0.165H166.3
					c-0.236,0-0.354-0.117-0.354-0.354v-1.768c0-0.202,0.118-0.304,0.354-0.304h9.043c0.758,0,1.254,0.156,1.49,0.468
					S177.163,18.648,177.112,19.288z M183.933,39.144c0,0.219-0.11,0.328-0.329,0.328h-2.248c-0.219,0-0.329-0.109-0.329-0.328
					V15.828c0-0.219,0.109-0.329,0.329-0.329h2.248c0.219,0,0.329,0.11,0.329,0.329V39.144z"/>
			</g>
		</g>
	</g>
	<rect fill="none" width="272.818" height="55.979"/>
</g>
<line fill="none" x1="128.578" y1="-8804.399" x2="128.578" y2="7578.601"/>
</svg>
