<?xml version="1.0" encoding="utf-8"?>
<!-- Generator: Adobe Illustrator 16.0.0, SVG Export Plug-In . SVG Version: 6.00 Build 0)  -->
<!DOCTYPE svg PUBLIC "-//W3C//DTD SVG 1.1//EN" "http://www.w3.org/Graphics/SVG/1.1/DTD/svg11.dtd">
<svg version="1.1" id="레이어_1" xmlns="http://www.w3.org/2000/svg" xmlns:xlink="http://www.w3.org/1999/xlink" x="0px"
	 y="0px" width="272.818px" height="55.979px" viewBox="0 0 272.818 55.979" enable-background="new 0 0 272.818 55.979"
	 xml:space="preserve">
<g>
	<g>
		<g>
			<g>
				<path fill="#706F6F" d="M192.177,34.667c-0.065,0-0.104-0.002-0.118-0.007c-0.015-0.005-0.04-0.03-0.077-0.077
					c-0.85-1.063-1.479-2.142-1.891-3.233c-0.41-1.092-0.616-2.222-0.616-3.388c0-1.157,0.206-2.282,0.616-3.374
					c0.411-1.093,1.041-2.175,1.891-3.248c0.037-0.047,0.063-0.072,0.077-0.077c0.014-0.005,0.044-0.007,0.091-0.007h0.392
					c0.057,0,0.084,0.005,0.084,0.014c0,0.01-0.014,0.037-0.042,0.084c-1.465,2.296-2.198,4.499-2.198,6.608
					c0,1.073,0.188,2.155,0.561,3.247c0.373,1.093,0.924,2.213,1.652,3.36c0.046,0.065,0.022,0.098-0.07,0.098H192.177z"/>
				<path fill="#706F6F" d="M193.535,22.571c0-0.187,0.065-0.348,0.196-0.482c0.13-0.136,0.289-0.203,0.476-0.203
					s0.348,0.067,0.483,0.203c0.135,0.135,0.202,0.296,0.202,0.482s-0.067,0.346-0.202,0.477c-0.136,0.131-0.297,0.195-0.483,0.195
					s-0.346-0.064-0.476-0.195C193.601,22.917,193.535,22.758,193.535,22.571z M194.529,32.791h-0.616
					c-0.131,0-0.196-0.065-0.196-0.195v-7.183c0-0.13,0.065-0.195,0.196-0.195h0.616c0.131,0,0.195,0.065,0.195,0.195v7.183
					C194.725,32.726,194.66,32.791,194.529,32.791z"/>
				<path fill="#706F6F" d="M202.621,32.596c0,0.13-0.065,0.195-0.196,0.195h-0.56c-0.131,0-0.196-0.065-0.196-0.195v-4.41
					c0-0.858-0.154-1.468-0.462-1.827c-0.309-0.359-0.742-0.539-1.302-0.539c-0.757,0-1.333,0.21-1.729,0.63
					s-0.595,1.008-0.595,1.765v4.382c0,0.13-0.065,0.195-0.196,0.195h-0.56c-0.131,0-0.196-0.065-0.196-0.195v-5.601
					c0-0.4-0.002-0.714-0.007-0.938c-0.005-0.225-0.017-0.438-0.035-0.645c-0.01-0.064,0.007-0.114,0.049-0.146
					c0.042-0.033,0.091-0.049,0.147-0.049h0.504c0.131,0,0.195,0.065,0.195,0.195v0.771c0.262-0.401,0.576-0.695,0.945-0.882
					s0.875-0.28,1.52-0.28c0.887,0,1.554,0.257,2.002,0.77c0.447,0.514,0.672,1.237,0.672,2.171V32.596z"/>
				<path fill="#706F6F" d="M210.643,32.596c0,0.13-0.065,0.195-0.196,0.195h-0.504c-0.131,0-0.195-0.065-0.195-0.195v-1.162
					c-0.243,0.56-0.567,0.964-0.974,1.211s-0.917,0.371-1.533,0.371c-1.745,0-2.617-0.976-2.617-2.926v-4.677
					c0-0.13,0.064-0.195,0.195-0.195h0.561c0.131,0,0.195,0.065,0.195,0.195v4.425c0,1.586,0.607,2.38,1.82,2.38
					c0.354,0,0.674-0.077,0.959-0.231s0.525-0.364,0.721-0.63c0.196-0.266,0.346-0.576,0.448-0.931s0.149-0.729,0.141-1.12v-3.893
					c0-0.13,0.064-0.195,0.195-0.195h0.561c0.13,0,0.195,0.065,0.195,0.195v5.628c0,0.309,0.003,0.584,0.008,0.826
					C210.626,32.11,210.633,32.353,210.643,32.596z"/>
				<path fill="#706F6F" d="M216.173,26.071c-0.168-0.056-0.393-0.084-0.672-0.084c-0.691,0-1.204,0.341-1.54,1.022
					c-0.262,0.531-0.393,1.213-0.393,2.044v3.542c0,0.13-0.065,0.195-0.195,0.195h-0.547c-0.131,0-0.195-0.065-0.195-0.195v-5.685
					c0-0.336-0.003-0.608-0.008-0.818c-0.004-0.21-0.012-0.437-0.021-0.68c0-0.13,0.065-0.195,0.196-0.195h0.518
					c0.131,0,0.196,0.065,0.196,0.195v1.372c0.457-1.176,1.129-1.764,2.016-1.764c0.215,0,0.43,0.028,0.645,0.084
					c0.056,0.019,0.104,0.049,0.146,0.091s0.063,0.101,0.063,0.175v0.588c0,0.057-0.023,0.094-0.07,0.112
					S216.219,26.09,216.173,26.071z"/>
				<path fill="#706F6F" d="M218.021,32.791h-0.616c-0.131,0-0.196-0.065-0.196-0.195V21.857c0-0.131,0.065-0.196,0.196-0.196h0.616
					c0.131,0,0.196,0.065,0.196,0.196v10.738C218.217,32.726,218.151,32.791,218.021,32.791z"/>
				<path fill="#706F6F" d="M219.462,34.667c-0.084,0-0.103-0.032-0.056-0.098c0.729-1.147,1.276-2.268,1.645-3.36
					c0.369-1.092,0.554-2.174,0.554-3.247c0-1.064-0.183-2.145-0.546-3.241c-0.364-1.097-0.91-2.22-1.639-3.367
					c-0.027-0.047-0.042-0.074-0.042-0.084c0-0.009,0.023-0.014,0.07-0.014h0.392c0.047,0,0.077,0.002,0.092,0.007
					c0.014,0.005,0.044,0.03,0.091,0.077c0.849,1.073,1.477,2.155,1.883,3.248c0.406,1.092,0.609,2.217,0.609,3.374
					c0,1.166-0.203,2.296-0.609,3.388s-1.034,2.17-1.883,3.233c-0.047,0.047-0.077,0.072-0.091,0.077
					c-0.015,0.005-0.054,0.007-0.119,0.007H219.462z"/>
			</g>
		</g>
		<g>
			<g>
				<path fill="#706F6F" d="M63.238,35.707c-0.623,0.488-1.318,0.854-2.084,1.099c-0.767,0.244-1.596,0.366-2.488,0.366
					c-1.752,0-3.268-0.488-4.547-1.465c-0.842-0.64-1.452-1.444-1.831-2.412c-0.379-0.969-0.568-2.085-0.568-3.348V18.05
					c0-0.084,0.028-0.168,0.088-0.253c0.059-0.084,0.13-0.126,0.215-0.126h2.248c0.084,0,0.155,0.034,0.215,0.101
					c0.059,0.067,0.089,0.144,0.089,0.228v11.948c0,1.313,0.345,2.392,1.035,3.233c0.69,0.843,1.709,1.263,3.057,1.263
					c1.381,0,2.412-0.412,3.095-1.237c0.682-0.825,1.022-1.911,1.022-3.259V17.999c0-0.084,0.029-0.16,0.089-0.228
					c0.059-0.066,0.13-0.101,0.215-0.101h2.248c0.084,0,0.155,0.042,0.215,0.126c0.059,0.085,0.088,0.169,0.088,0.253v11.897
					c0,1.247-0.198,2.358-0.593,3.335C64.648,34.259,64.047,35.067,63.238,35.707z"/>
				<path fill="#706F6F" d="M79.178,36.742c-0.186,0-0.316-0.013-0.392-0.037c-0.076-0.025-0.156-0.098-0.24-0.215l-3.865-7.478
					h-2.879v7.401c0,0.219-0.11,0.328-0.329,0.328h-2.248c-0.202,0-0.303-0.109-0.303-0.328V17.999c0-0.084,0.029-0.155,0.088-0.215
					c0.059-0.059,0.131-0.088,0.215-0.088h5.103c1.869,0,3.352,0.454,4.446,1.363c1.095,0.91,1.642,2.324,1.642,4.244
					c0,1.229-0.27,2.27-0.808,3.12c-0.54,0.851-1.28,1.494-2.224,1.933l4.219,8.032c0.135,0.236,0.033,0.354-0.304,0.354H79.178z
					 M71.802,20.349v6.037h2.071c1.111,0,1.995-0.24,2.652-0.72c0.656-0.48,0.984-1.276,0.984-2.388c0-0.96-0.257-1.688-0.77-2.185
					c-0.515-0.497-1.2-0.745-2.06-0.745H71.802z"/>
				<path fill="#706F6F" d="M83.497,36.742c-0.085,0-0.156-0.029-0.215-0.088c-0.06-0.06-0.089-0.131-0.089-0.215v-18.44
					c0-0.084,0.029-0.155,0.089-0.215c0.059-0.059,0.13-0.088,0.215-0.088h2.273c0.084,0,0.155,0.029,0.215,0.088
					c0.059,0.06,0.088,0.131,0.088,0.215V34.09h6.543c0.202,0,0.303,0.11,0.303,0.329v2.021c0,0.084-0.029,0.155-0.088,0.215
					c-0.06,0.059-0.131,0.088-0.215,0.088H83.497z"/>
				<path fill="#706F6F" d="M108.631,38.662h-2.071c-0.235,0-0.354-0.118-0.354-0.354V26.437h-2.299
					c-0.084,1.027-0.282,1.944-0.594,2.753s-0.707,1.495-1.187,2.059c-0.48,0.564-1.032,0.994-1.655,1.288
					c-0.623,0.295-1.297,0.442-2.021,0.442c-0.809,0-1.541-0.181-2.197-0.543c-0.657-0.362-1.217-0.884-1.681-1.566
					c-0.463-0.682-0.82-1.511-1.073-2.488c-0.253-0.977-0.379-2.079-0.379-3.309c0-1.33,0.135-2.492,0.404-3.486
					c0.27-0.993,0.64-1.818,1.111-2.476c0.472-0.656,1.031-1.145,1.68-1.465c0.648-0.319,1.359-0.48,2.135-0.48
					c0.74,0,1.432,0.14,2.071,0.417c0.64,0.278,1.204,0.699,1.692,1.264s0.885,1.275,1.188,2.134
					c0.303,0.859,0.488,1.87,0.556,3.031h2.248v-7.755c0-0.219,0.118-0.328,0.354-0.328h2.071c0.219,0,0.329,0.109,0.329,0.328
					v22.053C108.96,38.544,108.85,38.662,108.631,38.662z M101.18,25.098c0-0.64-0.051-1.28-0.152-1.92
					c-0.101-0.64-0.261-1.221-0.479-1.743c-0.219-0.521-0.501-0.943-0.847-1.263c-0.345-0.32-0.754-0.48-1.225-0.48
					c-0.438,0-0.817,0.164-1.137,0.493c-0.32,0.328-0.581,0.754-0.783,1.275c-0.202,0.522-0.354,1.103-0.455,1.743
					c-0.101,0.64-0.151,1.271-0.151,1.895c0,0.605,0.051,1.229,0.151,1.869c0.102,0.64,0.253,1.225,0.455,1.756
					c0.202,0.53,0.463,0.964,0.783,1.301c0.319,0.337,0.698,0.505,1.137,0.505c0.471,0,0.875-0.168,1.212-0.505
					s0.615-0.767,0.834-1.288c0.219-0.522,0.383-1.104,0.492-1.743S101.18,25.721,101.18,25.098z M113.507,39.496h-2.198
					c-0.219,0-0.328-0.11-0.328-0.328V15.827c0-0.219,0.117-0.329,0.354-0.329h2.173c0.218,0,0.328,0.11,0.328,0.329v23.341
					C113.835,39.386,113.725,39.496,113.507,39.496z"/>
				<path fill="#706F6F" d="M117.573,34.141c-0.32,0.253-0.615,0.244-0.884-0.025l-1.188-1.111
					c-0.236-0.235-0.211-0.488,0.075-0.758c1.095-1.011,2.029-2.122,2.805-3.334c0.774-1.213,1.397-2.51,1.869-3.891
					c0.421-1.229,0.711-2.479,0.871-3.751s0.224-2.656,0.189-4.155c0-0.102,0.038-0.189,0.114-0.266
					c0.075-0.075,0.155-0.113,0.239-0.113l2.249,0.075c0.084,0,0.159,0.038,0.227,0.114c0.067,0.075,0.102,0.164,0.102,0.265
					c0,2.071-0.152,3.975-0.455,5.709c0.151,0.809,0.404,1.621,0.758,2.438c0.354,0.817,0.771,1.601,1.251,2.35
					c0.479,0.75,0.997,1.444,1.553,2.084c0.556,0.641,1.112,1.179,1.668,1.617c0.269,0.201,0.286,0.472,0.05,0.808l-1.061,1.289
					c-0.085,0.117-0.198,0.185-0.341,0.201c-0.144,0.018-0.3-0.033-0.468-0.151c-0.421-0.319-0.863-0.724-1.326-1.212
					s-0.905-1.015-1.326-1.579s-0.809-1.146-1.162-1.743s-0.631-1.175-0.833-1.73c-0.304,0.708-0.648,1.39-1.036,2.046
					c-0.388,0.657-0.796,1.285-1.225,1.883c-0.43,0.598-0.876,1.145-1.339,1.642C118.486,33.337,118.027,33.771,117.573,34.141z
					 M135.331,39.471h-2.248c-0.219,0-0.328-0.109-0.328-0.328V25.779h-5.204c-0.084,0-0.164-0.033-0.239-0.101
					c-0.076-0.067-0.114-0.144-0.114-0.228v-1.794c0-0.084,0.038-0.155,0.114-0.215c0.075-0.059,0.155-0.088,0.239-0.088h5.204
					v-7.527c0-0.219,0.109-0.329,0.328-0.329h2.248c0.219,0,0.329,0.11,0.329,0.329v23.315
					C135.66,39.361,135.55,39.471,135.331,39.471z"/>
				<path fill="#706F6F" d="M155.969,20.525c0,0.168-0.042,0.375-0.126,0.619c-0.085,0.244-0.177,0.467-0.278,0.669
					c-0.421,0.893-1.069,1.802-1.944,2.729c0.286,0.235,0.602,0.476,0.947,0.72c0.345,0.244,0.694,0.476,1.048,0.694
					s0.703,0.417,1.049,0.594c0.345,0.177,0.669,0.324,0.973,0.442c0.185,0.067,0.29,0.164,0.315,0.29
					c0.025,0.127-0.005,0.266-0.089,0.417l-0.707,1.188c-0.186,0.286-0.446,0.354-0.783,0.202c-0.303-0.118-0.648-0.282-1.035-0.493
					c-0.388-0.21-0.783-0.445-1.188-0.707c-0.404-0.261-0.809-0.534-1.213-0.821c-0.404-0.286-0.767-0.572-1.086-0.858
					c-0.909,0.741-1.912,1.439-3.006,2.097c-1.095,0.656-2.257,1.237-3.486,1.743c-0.084,0.033-0.202,0.042-0.354,0.024
					c-0.151-0.017-0.27-0.101-0.354-0.252l-0.707-1.313c-0.085-0.135-0.093-0.266-0.025-0.392c0.066-0.127,0.168-0.215,0.303-0.266
					c0.926-0.387,1.814-0.825,2.665-1.313s1.625-0.993,2.324-1.516c0.698-0.521,1.305-1.044,1.818-1.566
					c0.514-0.521,0.889-1.01,1.124-1.465c0.067-0.117,0.105-0.215,0.114-0.29c0.008-0.076-0.122-0.114-0.392-0.114h-6.518
					c-0.101,0-0.181-0.038-0.24-0.113c-0.059-0.076-0.088-0.164-0.088-0.266v-1.591c0-0.202,0.126-0.304,0.379-0.304h8.462
					c0.674,0,1.191,0.089,1.554,0.266S155.969,20.07,155.969,20.525z M161.147,34.267c-0.522,0.506-1.222,0.994-2.097,1.466
					c0.758,0.252,1.596,0.488,2.514,0.707s1.73,0.404,2.438,0.556c0.337,0.084,0.455,0.27,0.354,0.556l-0.53,1.415
					c-0.085,0.219-0.295,0.303-0.632,0.252c-0.488-0.101-1.027-0.227-1.616-0.379c-0.59-0.151-1.192-0.315-1.807-0.492
					s-1.229-0.366-1.844-0.568c-0.615-0.202-1.2-0.404-1.756-0.606c-1.263,0.505-2.589,0.956-3.979,1.352s-2.74,0.703-4.054,0.922
					c-0.186,0.033-0.329,0.029-0.43-0.013c-0.102-0.042-0.186-0.139-0.253-0.29l-0.53-1.39c-0.051-0.135-0.038-0.253,0.038-0.354
					c0.075-0.102,0.172-0.169,0.29-0.202c1.027-0.202,2.042-0.43,3.044-0.682c1.002-0.253,1.953-0.522,2.854-0.809
					c0.9-0.286,1.73-0.59,2.488-0.909c0.758-0.32,1.414-0.641,1.971-0.96c0.252-0.169,0.379-0.308,0.379-0.417
					s-0.194-0.164-0.581-0.164h-8.791c-0.085,0-0.156-0.029-0.215-0.089c-0.06-0.059-0.088-0.139-0.088-0.24v-1.667
					c0-0.185,0.101-0.277,0.303-0.277h11.267c0.893,0,1.52,0.113,1.882,0.341c0.361,0.228,0.543,0.526,0.543,0.896
					c0,0.287-0.097,0.61-0.291,0.973C161.825,33.556,161.535,33.913,161.147,34.267z M153.708,17.86
					c-0.075,0.093-0.173,0.139-0.29,0.139h-5.911c-0.067,0-0.147-0.033-0.24-0.101s-0.139-0.169-0.139-0.304v-1.439
					c0-0.118,0.046-0.211,0.139-0.278c0.093-0.066,0.173-0.101,0.24-0.101h5.911c0.101,0,0.193,0.042,0.277,0.126
					c0.084,0.085,0.127,0.177,0.127,0.278v1.389C153.822,17.671,153.784,17.768,153.708,17.86z M166.162,24.566
					c-0.076,0.068-0.164,0.102-0.266,0.102h-3.41v4.698c0,0.236-0.109,0.354-0.328,0.354h-2.248c-0.22,0-0.329-0.126-0.329-0.379
					V15.827c0-0.219,0.109-0.329,0.329-0.329h2.248c0.219,0,0.328,0.11,0.328,0.329v6.416h3.41c0.102,0,0.189,0.029,0.266,0.088
					c0.075,0.06,0.113,0.131,0.113,0.215v1.794C166.275,24.424,166.237,24.5,166.162,24.566z"/>
				<path fill="#706F6F" d="M179.184,19.287c-0.136,1.634-0.477,3.175-1.023,4.623c-0.548,1.448-1.271,2.796-2.173,4.042
					c-0.9,1.246-1.966,2.399-3.195,3.46c-1.229,1.062-2.585,2.03-4.066,2.905c-0.136,0.085-0.282,0.114-0.442,0.089
					s-0.282-0.102-0.366-0.229l-0.859-1.246c-0.084-0.125-0.109-0.246-0.075-0.363c0.033-0.118,0.109-0.208,0.228-0.271
					c2.509-1.51,4.517-3.251,6.024-5.225c1.507-1.974,2.488-4.113,2.942-6.421c0.067-0.337,0.051-0.56-0.05-0.669
					c-0.102-0.109-0.313-0.165-0.632-0.165h-7.124c-0.235,0-0.354-0.117-0.354-0.354v-1.768c0-0.202,0.118-0.304,0.354-0.304h9.044
					c0.758,0,1.254,0.156,1.49,0.468C179.141,18.172,179.233,18.647,179.184,19.287z M186.004,39.143
					c0,0.219-0.11,0.328-0.329,0.328h-2.248c-0.219,0-0.328-0.109-0.328-0.328V15.827c0-0.219,0.109-0.329,0.328-0.329h2.248
					c0.219,0,0.329,0.11,0.329,0.329V39.143z"/>
			</g>
		</g>
	</g>
	<rect fill="none" width="272.818" height="55.979"/>
</g>
</svg>
