<?xml version="1.0" encoding="utf-8"?>
<!-- Generator: Adobe Illustrator 16.0.0, SVG Export Plug-In . SVG Version: 6.00 Build 0)  -->
<!DOCTYPE svg PUBLIC "-//W3C//DTD SVG 1.1//EN" "http://www.w3.org/Graphics/SVG/1.1/DTD/svg11.dtd">
<svg version="1.1" id="레이어_1" xmlns="http://www.w3.org/2000/svg" xmlns:xlink="http://www.w3.org/1999/xlink" x="0px"
	 y="0px" width="272.818px" height="55.979px" viewBox="0 0 272.818 55.979" enable-background="new 0 0 272.818 55.979"
	 xml:space="preserve">
<g>
	<g>
		<g>
			<path fill="#706F6F" d="M177.791,34.276c-1.275-1.415-2.367-3.432-2.367-6.065v-0.266c0-2.647,1.092-4.65,2.367-6.065h0.714
				c-1.247,1.457-2.284,3.53-2.284,5.981v0.364c0,2.396,1.037,4.58,2.284,6.051H177.791z"/>
			<path fill="#706F6F" d="M179.329,25.647h1.387l0.49-3.095h0.672l-0.504,3.095h1.891l0.49-3.095h0.645l-0.504,3.095h1.177v0.687
				h-1.289l-0.351,2.214h1.233v0.7h-1.345l-0.518,3.292h-0.659l0.532-3.292h-1.891l-0.518,3.292h-0.659l0.533-3.292h-1.219v-0.7
				h1.331l0.351-2.214h-1.275V25.647z M180.912,28.548h1.877l0.35-2.214h-1.891L180.912,28.548z"/>
			<path fill="#706F6F" d="M185.489,34.276c1.247-1.457,2.283-3.529,2.283-5.981v-0.363c0-2.396-1.037-4.581-2.283-6.052h0.714
				c1.275,1.415,2.368,3.432,2.368,6.065v0.266c0,2.647-1.093,4.65-2.368,6.065H185.489z"/>
		</g>
		<g>
			<g>
				<path fill="#706F6F" d="M96.742,22.837c-0.076,0.075-0.164,0.113-0.265,0.113H85.186c-0.084,0-0.173-0.042-0.265-0.126
					c-0.093-0.084-0.139-0.177-0.139-0.278v-1.541c0-0.084,0.046-0.168,0.139-0.252c0.092-0.085,0.181-0.127,0.265-0.127h11.292
					c0.101,0,0.189,0.038,0.265,0.114c0.076,0.075,0.114,0.164,0.114,0.265v1.566C96.856,22.672,96.818,22.761,96.742,22.837z
					 M91.122,24.238c0.758,0,1.453,0.135,2.084,0.404c0.632,0.27,1.175,0.632,1.629,1.086c0.455,0.455,0.804,0.99,1.048,1.604
					c0.244,0.615,0.366,1.275,0.366,1.982c0,0.708-0.122,1.373-0.366,1.996s-0.594,1.166-1.048,1.629
					c-0.455,0.464-0.998,0.825-1.629,1.087c-0.631,0.261-1.326,0.392-2.084,0.392s-1.452-0.131-2.084-0.392
					c-0.631-0.262-1.171-0.623-1.617-1.087c-0.446-0.463-0.792-1.006-1.036-1.629s-0.366-1.288-0.366-1.996
					c0-0.707,0.122-1.367,0.366-1.982c0.244-0.614,0.589-1.149,1.036-1.604c0.446-0.454,0.985-0.816,1.617-1.086
					C89.669,24.373,90.364,24.238,91.122,24.238z M94.241,19.048c-0.076,0.093-0.173,0.139-0.291,0.139h-6.063
					c-0.067,0-0.147-0.038-0.24-0.114c-0.093-0.075-0.139-0.172-0.139-0.29v-1.541c0-0.117,0.046-0.21,0.139-0.277
					c0.092-0.067,0.172-0.102,0.24-0.102h6.063c0.101,0,0.193,0.042,0.278,0.126c0.084,0.085,0.126,0.177,0.126,0.278v1.49
					C94.355,18.858,94.317,18.955,94.241,19.048z M91.122,26.486c-0.388,0-0.741,0.076-1.061,0.228s-0.589,0.358-0.808,0.619
					c-0.219,0.261-0.388,0.564-0.505,0.909c-0.118,0.346-0.177,0.703-0.177,1.073c0,0.388,0.059,0.754,0.177,1.1
					c0.118,0.345,0.286,0.652,0.505,0.922c0.219,0.27,0.488,0.479,0.808,0.631c0.32,0.152,0.673,0.228,1.061,0.228
					c0.404,0,0.766-0.075,1.086-0.228c0.32-0.151,0.589-0.361,0.808-0.631s0.387-0.577,0.505-0.922
					c0.118-0.346,0.177-0.712,0.177-1.1c0-0.37-0.059-0.728-0.177-1.073c-0.118-0.345-0.287-0.648-0.505-0.909
					s-0.488-0.468-0.808-0.619C91.888,26.563,91.526,26.486,91.122,26.486z M102.918,15.827c0-0.219,0.118-0.329,0.354-0.329h2.172
					c0.219,0,0.329,0.11,0.329,0.329v23.315c0,0.219-0.11,0.328-0.329,0.328h-2.198c-0.219,0-0.328-0.109-0.328-0.328V27.22h-2.147
					v10.963c0,0.235-0.109,0.354-0.328,0.354h-2.071c-0.236,0-0.354-0.118-0.354-0.354V16.281c0-0.219,0.117-0.328,0.354-0.328
					h2.071c0.219,0,0.328,0.109,0.328,0.328v8.513h2.147V15.827z"/>
				<path fill="#706F6F" d="M109.713,33.888c-0.303,0.253-0.598,0.245-0.884-0.024l-1.162-1.112
					c-0.27-0.235-0.244-0.496,0.076-0.783c1.078-0.993,2.008-2.096,2.792-3.309s1.41-2.509,1.882-3.891
					c0.202-0.605,0.375-1.208,0.518-1.806c0.143-0.598,0.261-1.204,0.354-1.818c0.092-0.615,0.155-1.255,0.189-1.92
					c0.034-0.665,0.042-1.368,0.025-2.109c0-0.102,0.038-0.189,0.113-0.266c0.076-0.075,0.156-0.113,0.24-0.113l2.248,0.075
					c0.084,0,0.16,0.038,0.228,0.114c0.067,0.075,0.101,0.164,0.101,0.265c0,1.011-0.038,1.954-0.114,2.829
					c-0.076,0.876-0.181,1.718-0.316,2.526c0.152,0.792,0.408,1.592,0.771,2.399c0.362,0.809,0.783,1.579,1.263,2.312
					s0.998,1.411,1.554,2.034s1.103,1.153,1.642,1.591c0.27,0.202,0.286,0.464,0.051,0.783l-1.061,1.288
					c-0.084,0.118-0.198,0.186-0.341,0.202c-0.143,0.018-0.29-0.033-0.442-0.151c-0.421-0.319-0.859-0.716-1.313-1.188
					c-0.455-0.471-0.897-0.985-1.326-1.541s-0.821-1.124-1.175-1.705c-0.354-0.581-0.64-1.141-0.859-1.68
					c-0.303,0.708-0.648,1.398-1.036,2.071c-0.387,0.674-0.804,1.313-1.25,1.92s-0.905,1.167-1.376,1.68
					C110.631,33.076,110.168,33.518,109.713,33.888z M127.194,39.143c0,0.219-0.118,0.328-0.354,0.328h-2.223
					c-0.084,0-0.164-0.029-0.24-0.089c-0.076-0.059-0.114-0.139-0.114-0.239V15.827c0-0.085,0.038-0.16,0.114-0.228
					s0.156-0.102,0.24-0.102h2.223c0.236,0,0.354,0.11,0.354,0.329V39.143z"/>
				<path fill="#706F6F" d="M141.529,32.271c-0.11,0.067-0.207,0.118-0.291,0.151c-0.489,0.135-1.107,0.253-1.857,0.354
					c-0.75,0.102-1.541,0.186-2.374,0.253c-0.834,0.067-1.664,0.113-2.488,0.139c-0.825,0.025-1.558,0.013-2.198-0.038
					c-1.229-0.084-1.844-0.682-1.844-1.793V19.085c0-0.589,0.122-1.001,0.366-1.237c0.244-0.235,0.686-0.354,1.326-0.354h7.427
					c0.236,0,0.354,0.118,0.354,0.354v1.743c0,0.219-0.118,0.328-0.354,0.328h-5.759c-0.32,0-0.48,0.144-0.48,0.43v3.713
					c0.521,0,1.057,0,1.604,0c0.547,0,1.09-0.004,1.629-0.013c0.539-0.008,1.061-0.021,1.566-0.038
					c0.505-0.017,0.96-0.041,1.364-0.075c0.067,0,0.134,0.017,0.202,0.051c0.067,0.033,0.101,0.093,0.101,0.177l0.025,1.642
					c0,0.135-0.025,0.24-0.076,0.315c-0.05,0.076-0.101,0.114-0.151,0.114c-0.438,0.033-0.918,0.063-1.44,0.088
					s-1.057,0.047-1.604,0.063c-0.547,0.017-1.095,0.025-1.642,0.025s-1.074,0-1.579,0v3.638c0,0.286,0.046,0.467,0.139,0.543
					c0.093,0.075,0.299,0.131,0.619,0.164c0.37,0.034,0.863,0.038,1.478,0.013s1.25-0.067,1.907-0.127
					c0.657-0.059,1.289-0.13,1.895-0.214c0.606-0.084,1.086-0.177,1.44-0.278c0.118-0.033,0.231-0.033,0.341,0
					c0.109,0.034,0.181,0.118,0.214,0.253l0.252,1.516C141.676,32.086,141.638,32.204,141.529,32.271z M147.882,15.827
					c0-0.219,0.118-0.329,0.354-0.329h2.172c0.219,0,0.329,0.11,0.329,0.329v23.315c0,0.219-0.11,0.328-0.329,0.328h-2.197
					c-0.219,0-0.329-0.109-0.329-0.328V27.22h-2.273v10.963c0,0.235-0.11,0.354-0.329,0.354h-2.071
					c-0.236,0-0.354-0.118-0.354-0.354V16.281c0-0.219,0.118-0.328,0.354-0.328h2.071c0.219,0,0.329,0.109,0.329,0.328v8.513h2.273
					V15.827z"/>
				<path fill="#706F6F" d="M174.405,35.101c-0.084,0.084-0.168,0.126-0.252,0.126H152.15c-0.101,0-0.186-0.042-0.252-0.126
					c-0.067-0.084-0.101-0.168-0.101-0.253v-1.667c0-0.101,0.034-0.189,0.101-0.265c0.067-0.076,0.151-0.114,0.252-0.114h15.232
					c0.269-1.516,0.476-3.321,0.619-5.418s0.215-4.341,0.215-6.732c0-0.286-0.034-0.492-0.101-0.619
					c-0.067-0.126-0.244-0.189-0.53-0.189h-12.226c-0.085,0-0.161-0.037-0.228-0.113c-0.067-0.076-0.101-0.155-0.101-0.24v-1.667
					c0-0.084,0.034-0.164,0.101-0.24c0.067-0.075,0.143-0.113,0.228-0.113h14.07c0.741,0,1.216,0.189,1.427,0.568
					c0.21,0.379,0.316,0.88,0.316,1.503c0,2.257-0.063,4.488-0.189,6.694s-0.375,4.396-0.745,6.567h3.916
					c0.084,0,0.168,0.042,0.252,0.126c0.084,0.085,0.126,0.169,0.126,0.253v1.667C174.532,34.933,174.489,35.017,174.405,35.101z"/>
			</g>
		</g>
	</g>
	<rect fill="none" width="272.818" height="55.979"/>
</g>
</svg>
