<?xml version="1.0" encoding="utf-8"?>
<!-- Generator: Adobe Illustrator 16.0.0, SVG Export Plug-In . SVG Version: 6.00 Build 0)  -->
<!DOCTYPE svg PUBLIC "-//W3C//DTD SVG 1.1//EN" "http://www.w3.org/Graphics/SVG/1.1/DTD/svg11.dtd">
<svg version="1.1" id="레이어_1" xmlns="http://www.w3.org/2000/svg" xmlns:xlink="http://www.w3.org/1999/xlink" x="0px"
	 y="0px" width="272.818px" height="55.979px" viewBox="0 0 272.818 55.979" enable-background="new 0 0 272.818 55.979"
	 xml:space="preserve">
<g>
	<g>
		<g>
			<g>
				<path fill="#706F6F" d="M153.007,34.667c-0.065,0-0.105-0.002-0.119-0.007c-0.014-0.005-0.04-0.03-0.077-0.077
					c-0.849-1.063-1.479-2.142-1.89-3.233c-0.411-1.092-0.616-2.222-0.616-3.388c0-1.157,0.205-2.282,0.616-3.374
					c0.41-1.093,1.041-2.175,1.89-3.248c0.037-0.047,0.063-0.072,0.077-0.077c0.014-0.005,0.044-0.007,0.091-0.007h0.392
					c0.056,0,0.084,0.005,0.084,0.014c0,0.01-0.014,0.037-0.042,0.084c-1.465,2.296-2.198,4.499-2.198,6.608
					c0,1.073,0.187,2.155,0.56,3.247c0.373,1.093,0.924,2.213,1.652,3.36c0.047,0.065,0.023,0.098-0.07,0.098H153.007z"/>
				<path fill="#706F6F" d="M160.623,32.596c0,0.13-0.065,0.195-0.196,0.195h-0.546c-0.131,0-0.196-0.065-0.196-0.195v-1.05
					c-0.504,0.951-1.316,1.428-2.436,1.428c-0.999,0-1.778-0.383-2.338-1.148c-0.513-0.709-0.77-1.651-0.77-2.828
					c0-2.622,1.036-3.934,3.108-3.934c0.56,0,1.057,0.112,1.491,0.336s0.749,0.514,0.945,0.868v-4.41
					c0-0.131,0.065-0.196,0.196-0.196h0.546c0.13,0,0.196,0.065,0.196,0.196V32.596z M155.177,28.997
					c0,0.439,0.035,0.838,0.105,1.197s0.18,0.675,0.329,0.945c0.205,0.336,0.455,0.593,0.749,0.77
					c0.294,0.178,0.646,0.267,1.057,0.267c0.374,0,0.703-0.099,0.987-0.294c0.285-0.196,0.522-0.446,0.714-0.749
					c0.191-0.304,0.333-0.645,0.427-1.022c0.093-0.378,0.14-0.749,0.14-1.113c0-0.447-0.049-0.863-0.147-1.246
					c-0.098-0.382-0.243-0.714-0.434-0.993c-0.191-0.28-0.427-0.5-0.707-0.658c-0.28-0.159-0.606-0.238-0.98-0.238
					c-0.793,0-1.395,0.341-1.806,1.022c-0.149,0.271-0.259,0.586-0.329,0.944C155.212,28.188,155.177,28.577,155.177,28.997z"/>
				<path fill="#706F6F" d="M162.876,26.394c-0.047,0.028-0.091,0.035-0.133,0.021c-0.042-0.014-0.063-0.044-0.063-0.091v-0.532
					c0-0.13,0.065-0.229,0.196-0.294c0.327-0.177,0.674-0.301,1.043-0.371c0.369-0.069,0.772-0.104,1.211-0.104
					c0.933,0,1.615,0.222,2.044,0.665s0.644,1.113,0.644,2.009v3.514c0,0.28,0.005,0.53,0.014,0.749
					c0.009,0.22,0.023,0.432,0.042,0.638c0,0.13-0.065,0.195-0.196,0.195h-0.504c-0.131,0-0.196-0.065-0.196-0.195v-1.078
					c-0.196,0.476-0.525,0.845-0.987,1.105c-0.462,0.262-0.964,0.393-1.505,0.393c-0.943,0-1.633-0.275-2.072-0.826
					c-0.149-0.187-0.261-0.403-0.336-0.651c-0.075-0.247-0.112-0.492-0.112-0.734c0-0.569,0.133-1.06,0.399-1.471
					c0.266-0.41,0.674-0.718,1.225-0.924c0.672-0.242,1.703-0.363,3.094-0.363h0.182v-0.421c0-0.588-0.133-1.035-0.399-1.344
					c-0.266-0.308-0.711-0.462-1.337-0.462c-0.42,0-0.817,0.045-1.19,0.133C163.567,26.041,163.212,26.188,162.876,26.394z
					 M166.866,28.844h-0.266c-0.523-0.019-0.987,0.002-1.393,0.063c-0.406,0.061-0.745,0.143-1.015,0.245
					c-0.392,0.14-0.686,0.348-0.882,0.623c-0.196,0.275-0.294,0.604-0.294,0.987c0,0.233,0.037,0.45,0.112,0.65
					c0.075,0.201,0.191,0.357,0.35,0.47c0.28,0.224,0.653,0.336,1.12,0.336c0.326,0,0.627-0.065,0.903-0.196
					c0.275-0.131,0.516-0.317,0.721-0.56c0.205-0.243,0.364-0.544,0.476-0.903c0.112-0.359,0.168-0.772,0.168-1.239V28.844z"/>
				<path fill="#706F6F" d="M173.223,32.806c-0.392,0.14-0.78,0.21-1.162,0.21c-0.756,0-1.255-0.248-1.498-0.742
					c-0.159-0.336-0.238-0.929-0.238-1.778v-4.466h-1.316c-0.13,0-0.196-0.065-0.196-0.196v-0.42c0-0.13,0.065-0.195,0.196-0.195
					h1.316v-1.891c0-0.14,0.061-0.21,0.182-0.21h0.588c0.121,0,0.182,0.07,0.182,0.21v1.891h1.554c0.13,0,0.196,0.065,0.196,0.195
					v0.42c0,0.131-0.065,0.196-0.196,0.196h-1.554v4.942c0,0.831,0.336,1.246,1.008,1.246c0.262,0,0.556-0.057,0.882-0.168
					c0.046-0.019,0.091-0.019,0.133,0s0.063,0.056,0.063,0.111l0.028,0.364C173.409,32.656,173.353,32.749,173.223,32.806z"/>
				<path fill="#706F6F" d="M174.762,29.277c-0.009,0.467,0.044,0.88,0.161,1.239s0.287,0.66,0.511,0.903
					c0.224,0.242,0.492,0.429,0.805,0.56c0.313,0.131,0.66,0.196,1.043,0.196c0.373,0,0.723-0.035,1.05-0.105s0.63-0.184,0.91-0.343
					c0.121-0.056,0.182-0.023,0.182,0.098v0.63c0,0.084-0.051,0.149-0.154,0.196c-0.308,0.121-0.63,0.212-0.966,0.273
					c-0.336,0.061-0.7,0.091-1.092,0.091c-1.148,0-2.016-0.334-2.604-1.001s-0.882-1.673-0.882-3.018
					c0-1.185,0.294-2.142,0.882-2.869c0.616-0.737,1.395-1.106,2.338-1.106c0.522,0,0.975,0.094,1.358,0.28s0.709,0.467,0.98,0.84
					c0.476,0.663,0.714,1.549,0.714,2.66c0,0.121-0.002,0.215-0.007,0.279c-0.005,0.065-0.021,0.112-0.049,0.141
					c-0.028,0.027-0.077,0.044-0.147,0.049c-0.07,0.005-0.17,0.007-0.301,0.007H174.762z M178.962,28.479
					c0-0.383-0.038-0.724-0.112-1.022c-0.075-0.298-0.191-0.568-0.35-0.812c-0.345-0.551-0.845-0.826-1.498-0.826
					c-0.672,0-1.218,0.28-1.638,0.84c-0.168,0.252-0.308,0.542-0.42,0.868c-0.112,0.327-0.173,0.645-0.182,0.952H178.962z"/>
				<path fill="#706F6F" d="M184.982,26.071c-0.168-0.056-0.392-0.084-0.672-0.084c-0.691,0-1.204,0.341-1.54,1.022
					c-0.262,0.531-0.392,1.213-0.392,2.044v3.542c0,0.13-0.065,0.195-0.196,0.195h-0.546c-0.131,0-0.196-0.065-0.196-0.195v-5.685
					c0-0.336-0.002-0.608-0.007-0.818c-0.004-0.21-0.012-0.437-0.021-0.68c0-0.13,0.065-0.195,0.196-0.195h0.518
					c0.131,0,0.196,0.065,0.196,0.195v1.372c0.457-1.176,1.129-1.764,2.016-1.764c0.214,0,0.429,0.028,0.644,0.084
					c0.056,0.019,0.105,0.049,0.147,0.091s0.063,0.101,0.063,0.175v0.588c0,0.057-0.023,0.094-0.07,0.112
					S185.029,26.09,184.982,26.071z"/>
				<path fill="#706F6F" d="M186.34,26.394c-0.047,0.028-0.091,0.035-0.133,0.021c-0.042-0.014-0.063-0.044-0.063-0.091v-0.532
					c0-0.13,0.065-0.229,0.196-0.294c0.327-0.177,0.674-0.301,1.043-0.371c0.369-0.069,0.772-0.104,1.211-0.104
					c0.933,0,1.615,0.222,2.044,0.665s0.644,1.113,0.644,2.009v3.514c0,0.28,0.004,0.53,0.014,0.749
					c0.01,0.22,0.023,0.432,0.042,0.638c0,0.13-0.065,0.195-0.196,0.195h-0.504c-0.131,0-0.196-0.065-0.196-0.195v-1.078
					c-0.196,0.476-0.525,0.845-0.987,1.105c-0.462,0.262-0.964,0.393-1.505,0.393c-0.943,0-1.633-0.275-2.072-0.826
					c-0.149-0.187-0.261-0.403-0.336-0.651c-0.075-0.247-0.112-0.492-0.112-0.734c0-0.569,0.133-1.06,0.399-1.471
					c0.266-0.41,0.674-0.718,1.225-0.924c0.672-0.242,1.703-0.363,3.094-0.363h0.182v-0.421c0-0.588-0.133-1.035-0.399-1.344
					c-0.266-0.308-0.712-0.462-1.337-0.462c-0.42,0-0.817,0.045-1.19,0.133C187.031,26.041,186.676,26.188,186.34,26.394z
					 M190.33,28.844h-0.266c-0.523-0.019-0.987,0.002-1.394,0.063c-0.406,0.061-0.744,0.143-1.015,0.245
					c-0.392,0.14-0.686,0.348-0.882,0.623c-0.196,0.275-0.294,0.604-0.294,0.987c0,0.233,0.037,0.45,0.112,0.65
					c0.075,0.201,0.191,0.357,0.35,0.47c0.28,0.224,0.653,0.336,1.12,0.336c0.327,0,0.628-0.065,0.903-0.196
					c0.275-0.131,0.516-0.317,0.721-0.56c0.206-0.243,0.364-0.544,0.476-0.903c0.112-0.359,0.168-0.772,0.168-1.239V28.844z"/>
				<path fill="#706F6F" d="M199.15,32.596c0,0.13-0.065,0.195-0.196,0.195h-0.56c-0.131,0-0.196-0.065-0.196-0.195v-4.41
					c0-0.858-0.154-1.468-0.462-1.827c-0.308-0.359-0.742-0.539-1.302-0.539c-0.756,0-1.333,0.21-1.729,0.63
					c-0.397,0.42-0.595,1.008-0.595,1.765v4.382c0,0.13-0.065,0.195-0.196,0.195h-0.56c-0.131,0-0.196-0.065-0.196-0.195v-5.601
					c0-0.4-0.002-0.714-0.007-0.938c-0.005-0.225-0.017-0.438-0.035-0.645c-0.01-0.064,0.007-0.114,0.049-0.146
					c0.042-0.033,0.091-0.049,0.147-0.049h0.504c0.131,0,0.196,0.065,0.196,0.195v0.771c0.261-0.401,0.576-0.695,0.945-0.882
					s0.875-0.28,1.519-0.28c0.887,0,1.554,0.257,2.002,0.77c0.448,0.514,0.672,1.237,0.672,2.171V32.596z"/>
				<path fill="#706F6F" d="M201.488,34.625c-0.112-0.027-0.159-0.098-0.14-0.21l0.042-0.615c0-0.122,0.061-0.149,0.182-0.084
					c0.354,0.158,0.695,0.272,1.021,0.343s0.682,0.104,1.064,0.104c0.849,0,1.486-0.259,1.911-0.776
					c0.425-0.519,0.665-1.226,0.721-2.121c-0.215,0.42-0.532,0.737-0.952,0.952c-0.42,0.214-0.887,0.321-1.4,0.321
					c-0.458,0-0.882-0.084-1.274-0.252s-0.733-0.405-1.022-0.714c-0.29-0.308-0.518-0.681-0.686-1.12
					c-0.168-0.438-0.252-0.924-0.252-1.456c0-0.625,0.058-1.183,0.175-1.673s0.301-0.902,0.553-1.238
					c0.252-0.337,0.579-0.593,0.98-0.771c0.401-0.177,0.887-0.266,1.456-0.266c0.494,0,0.931,0.081,1.309,0.245
					c0.378,0.163,0.763,0.454,1.155,0.875l-0.028-0.757c0-0.13,0.065-0.195,0.196-0.195h0.532c0.13,0,0.196,0.065,0.196,0.195v5.601
					c0,0.606-0.077,1.154-0.231,1.645c-0.154,0.49-0.383,0.905-0.686,1.246s-0.679,0.603-1.127,0.784
					c-0.448,0.182-0.961,0.273-1.54,0.273c-0.42,0-0.789-0.026-1.106-0.077C202.221,34.833,201.871,34.747,201.488,34.625z
					 M206.304,28.97c0-0.999-0.205-1.769-0.616-2.311c-0.411-0.541-0.966-0.812-1.666-0.812c-0.756,0-1.326,0.252-1.708,0.756
					c-0.383,0.504-0.574,1.302-0.574,2.394c0,0.401,0.056,0.771,0.168,1.106c0.112,0.336,0.266,0.623,0.462,0.861
					c0.196,0.237,0.429,0.425,0.7,0.56c0.271,0.136,0.565,0.203,0.882,0.203c0.326,0,0.634-0.067,0.924-0.203
					c0.289-0.135,0.539-0.326,0.749-0.574c0.21-0.247,0.375-0.539,0.497-0.875C206.243,29.739,206.304,29.371,206.304,28.97z"/>
				<path fill="#706F6F" d="M209.622,29.277c-0.009,0.467,0.044,0.88,0.161,1.239s0.287,0.66,0.511,0.903
					c0.224,0.242,0.492,0.429,0.805,0.56s0.66,0.196,1.043,0.196c0.373,0,0.724-0.035,1.05-0.105s0.63-0.184,0.91-0.343
					c0.121-0.056,0.182-0.023,0.182,0.098v0.63c0,0.084-0.051,0.149-0.154,0.196c-0.308,0.121-0.63,0.212-0.966,0.273
					c-0.336,0.061-0.7,0.091-1.092,0.091c-1.148,0-2.016-0.334-2.604-1.001s-0.882-1.673-0.882-3.018
					c0-1.185,0.294-2.142,0.882-2.869c0.616-0.737,1.395-1.106,2.338-1.106c0.522,0,0.975,0.094,1.358,0.28s0.709,0.467,0.98,0.84
					c0.476,0.663,0.714,1.549,0.714,2.66c0,0.121-0.002,0.215-0.007,0.279c-0.005,0.065-0.021,0.112-0.049,0.141
					c-0.028,0.027-0.077,0.044-0.147,0.049s-0.17,0.007-0.301,0.007H209.622z M213.822,28.479c0-0.383-0.038-0.724-0.112-1.022
					c-0.075-0.298-0.191-0.568-0.35-0.812c-0.345-0.551-0.845-0.826-1.498-0.826c-0.672,0-1.218,0.28-1.638,0.84
					c-0.168,0.252-0.308,0.542-0.42,0.868c-0.112,0.327-0.173,0.645-0.182,0.952H213.822z"/>
				<path fill="#706F6F" d="M215.642,34.667c-0.084,0-0.103-0.032-0.056-0.098c0.728-1.147,1.276-2.268,1.645-3.36
					c0.369-1.092,0.553-2.174,0.553-3.247c0-1.064-0.182-2.145-0.546-3.241s-0.91-2.22-1.638-3.367
					c-0.028-0.047-0.042-0.074-0.042-0.084c0-0.009,0.023-0.014,0.07-0.014h0.392c0.047,0,0.077,0.002,0.091,0.007
					s0.044,0.03,0.091,0.077c0.849,1.073,1.477,2.155,1.883,3.248c0.406,1.092,0.609,2.217,0.609,3.374
					c0,1.166-0.203,2.296-0.609,3.388c-0.406,1.092-1.034,2.17-1.883,3.233c-0.047,0.047-0.077,0.072-0.091,0.077
					s-0.054,0.007-0.119,0.007H215.642z"/>
			</g>
		</g>
		<g>
			<g>
				<path fill="#706F6F" d="M67.236,19.287c-0.135,1.634-0.476,3.175-1.023,4.623c-0.547,1.448-1.272,2.796-2.172,4.042
					c-0.901,1.246-1.967,2.399-3.195,3.46c-1.229,1.062-2.585,2.03-4.067,2.905c-0.135,0.085-0.282,0.114-0.442,0.089
					c-0.16-0.025-0.282-0.102-0.366-0.229l-0.859-1.246c-0.084-0.125-0.11-0.246-0.076-0.363c0.034-0.118,0.109-0.208,0.228-0.271
					c2.509-1.51,4.518-3.251,6.025-5.225c1.507-1.974,2.488-4.113,2.943-6.421c0.067-0.337,0.05-0.56-0.051-0.669
					s-0.312-0.165-0.631-0.165h-7.124c-0.236,0-0.354-0.117-0.354-0.354v-1.768c0-0.202,0.117-0.304,0.354-0.304h9.043
					c0.758,0,1.254,0.156,1.49,0.468S67.287,18.647,67.236,19.287z M74.057,39.143c0,0.219-0.109,0.328-0.328,0.328H71.48
					c-0.219,0-0.329-0.109-0.329-0.328V15.827c0-0.219,0.109-0.329,0.329-0.329h2.248c0.219,0,0.328,0.11,0.328,0.329V39.143z"/>
				<path fill="#706F6F" d="M78.553,30.301c-0.388,0.151-0.666,0.076-0.833-0.228l-0.708-1.288
					c-0.084-0.135-0.109-0.269-0.076-0.404c0.034-0.134,0.143-0.243,0.329-0.328c2.206-1.011,3.995-2.185,5.368-3.523
					s2.303-2.825,2.792-4.459c0.084-0.269,0.126-0.454,0.126-0.556c0-0.101-0.16-0.151-0.479-0.151h-6.871
					c-0.101,0-0.181-0.038-0.24-0.114c-0.059-0.075-0.088-0.164-0.088-0.265v-1.692c0-0.236,0.117-0.354,0.354-0.354h8.563
					c0.741,0,1.263,0.117,1.566,0.354c0.303,0.235,0.455,0.623,0.455,1.162c0,0.084-0.013,0.193-0.038,0.328
					c-0.025,0.135-0.05,0.273-0.076,0.417c-0.025,0.143-0.05,0.27-0.076,0.379s-0.046,0.189-0.063,0.239
					c-0.708,2.409-1.874,4.472-3.499,6.189C83.432,27.725,81.264,29.156,78.553,30.301z M96.361,38.966
					c-0.084,0.05-0.168,0.075-0.252,0.075H82.771c-0.758,0-1.272-0.135-1.541-0.404c-0.27-0.27-0.404-0.732-0.404-1.389v-5.583
					c0-0.084,0.042-0.164,0.126-0.24c0.084-0.075,0.168-0.113,0.252-0.113h2.147c0.101,0,0.193,0.038,0.278,0.113
					c0.084,0.076,0.126,0.156,0.126,0.24v4.547c0,0.168,0.033,0.278,0.101,0.328c0.067,0.051,0.186,0.076,0.354,0.076h11.898
					c0.084,0,0.168,0.033,0.252,0.101c0.084,0.067,0.126,0.144,0.126,0.228v1.794C96.488,38.839,96.446,38.915,96.361,38.966z
					 M99.178,25.426c-0.076,0.067-0.164,0.101-0.265,0.101h-3.41v6.669c0,0.22-0.118,0.329-0.354,0.329h-2.223
					c-0.084,0-0.165-0.034-0.24-0.102s-0.114-0.143-0.114-0.228V15.827c0-0.085,0.038-0.16,0.114-0.228s0.156-0.102,0.24-0.102
					h2.223c0.235,0,0.354,0.11,0.354,0.329v7.274h3.41c0.101,0,0.189,0.03,0.265,0.089s0.114,0.131,0.114,0.215v1.793
					C99.292,25.283,99.254,25.358,99.178,25.426z"/>
				<path fill="#706F6F" d="M106.44,28.053l-1.011-1.212c-0.101-0.135-0.147-0.27-0.139-0.404c0.008-0.135,0.097-0.244,0.265-0.329
					c1.987-1.094,3.431-2.454,4.333-4.079c0.9-1.625,1.351-3.591,1.351-5.898c0-0.118,0.046-0.211,0.139-0.278
					c0.092-0.066,0.181-0.101,0.265-0.101l2.172,0.101c0.219,0,0.328,0.127,0.328,0.379c0,1.382-0.168,2.703-0.505,3.966
					c0.269,0.59,0.606,1.146,1.01,1.668c0.404,0.521,0.842,1.002,1.314,1.439c0.471,0.438,0.959,0.821,1.465,1.149
					s0.985,0.594,1.44,0.796c0.286,0.118,0.336,0.328,0.151,0.632l-0.859,1.363c-0.168,0.253-0.388,0.32-0.657,0.202
					c-1.027-0.438-1.962-1.035-2.804-1.793c-0.842-0.758-1.583-1.608-2.223-2.552c-1.196,2.139-2.939,3.798-5.229,4.977
					C106.878,28.297,106.608,28.289,106.44,28.053z M125.373,39.307c-0.076,0.075-0.147,0.113-0.215,0.113h-13.641
					c-0.657,0-1.103-0.126-1.339-0.379c-0.236-0.252-0.354-0.648-0.354-1.188v-3.031c0-0.538,0.114-0.926,0.341-1.161
					c0.228-0.236,0.67-0.354,1.326-0.354h10.206c0.135,0,0.219-0.024,0.252-0.075s0.051-0.151,0.051-0.304v-0.858
					c0-0.186-0.025-0.299-0.076-0.341c-0.05-0.042-0.151-0.063-0.303-0.063h-11.494c-0.084,0-0.165-0.029-0.24-0.088
					c-0.076-0.06-0.114-0.131-0.114-0.215v-1.668c0-0.084,0.038-0.164,0.114-0.239c0.075-0.076,0.155-0.114,0.24-0.114h12.984
					c0.69,0,1.149,0.118,1.377,0.354c0.227,0.236,0.341,0.641,0.341,1.213v3.006c0,0.59-0.114,0.994-0.341,1.213
					c-0.228,0.219-0.687,0.328-1.377,0.328h-10.129c-0.135,0-0.219,0.021-0.252,0.063c-0.034,0.042-0.051,0.13-0.051,0.265v1.011
					c0,0.151,0.025,0.24,0.076,0.266c0.051,0.025,0.152,0.037,0.303,0.037h12.075c0.084,0,0.164,0.034,0.24,0.102
					c0.076,0.067,0.114,0.151,0.114,0.253v1.616C125.487,39.15,125.449,39.23,125.373,39.307z M117.101,21.813v-1.718
					c0-0.084,0.038-0.155,0.113-0.215c0.076-0.059,0.164-0.088,0.266-0.088h4.471v-3.966c0-0.219,0.109-0.329,0.329-0.329h2.248
					c0.219,0,0.329,0.11,0.329,0.329v12.023c0,0.085-0.034,0.164-0.101,0.24c-0.068,0.076-0.144,0.113-0.228,0.113h-2.248
					c-0.084,0-0.16-0.037-0.228-0.113s-0.101-0.155-0.101-0.24v-5.734h-4.471c-0.102,0-0.189-0.029-0.266-0.088
					C117.138,21.97,117.101,21.897,117.101,21.813z"/>
				<path fill="#706F6F" d="M129.175,29.505c-0.169-0.008-0.303-0.104-0.404-0.29l-0.758-1.237c-0.084-0.135-0.105-0.278-0.063-0.43
					s0.147-0.261,0.316-0.328c0.943-0.421,1.835-0.914,2.678-1.479c0.842-0.563,1.604-1.166,2.286-1.806s1.276-1.305,1.781-1.996
					c0.505-0.69,0.893-1.38,1.162-2.071c0.067-0.151,0.097-0.286,0.088-0.404c-0.009-0.117-0.148-0.177-0.417-0.177h-6.265
					c-0.101,0-0.186-0.042-0.252-0.126c-0.067-0.084-0.101-0.177-0.101-0.278v-1.667c0-0.101,0.038-0.185,0.114-0.252
					c0.076-0.067,0.164-0.102,0.265-0.102h7.982c0.741,0,1.292,0.135,1.655,0.404c0.362,0.27,0.5,0.682,0.417,1.237
					c-0.034,0.186-0.08,0.379-0.139,0.581s-0.113,0.379-0.164,0.531c-0.219,0.605-0.484,1.199-0.795,1.78
					c-0.312,0.581-0.661,1.149-1.048,1.705c0.303,0.304,0.64,0.606,1.01,0.909c0.37,0.304,0.749,0.594,1.137,0.872
					c0.387,0.277,0.774,0.53,1.162,0.758c0.387,0.228,0.749,0.417,1.086,0.568c0.336,0.168,0.412,0.404,0.227,0.707l-0.783,1.364
					c-0.186,0.286-0.446,0.346-0.783,0.177c-0.32-0.151-0.674-0.354-1.061-0.606c-0.388-0.252-0.788-0.53-1.2-0.833
					c-0.413-0.304-0.825-0.628-1.238-0.973c-0.413-0.346-0.795-0.703-1.149-1.074c-0.875,0.876-1.844,1.692-2.905,2.45
					s-2.207,1.432-3.436,2.021C129.478,29.493,129.343,29.514,129.175,29.505z M146.945,36.642
					c-0.379,0.589-0.909,1.095-1.591,1.516s-1.486,0.745-2.413,0.973s-1.928,0.341-3.006,0.341c-1.162,0-2.206-0.113-3.132-0.341
					s-1.714-0.548-2.362-0.96c-0.648-0.413-1.146-0.914-1.49-1.503c-0.346-0.59-0.518-1.246-0.518-1.971
					c0-0.707,0.172-1.352,0.518-1.933c0.345-0.581,0.842-1.082,1.49-1.503c0.648-0.421,1.436-0.745,2.362-0.973
					c0.926-0.227,1.97-0.341,3.132-0.341c1.078,0,2.08,0.114,3.006,0.341c0.926,0.228,1.73,0.548,2.413,0.96
					c0.682,0.413,1.212,0.909,1.591,1.49s0.568,1.234,0.568,1.958C147.514,35.403,147.324,36.052,146.945,36.642z M144.142,33.674
					c-0.244-0.312-0.577-0.573-0.998-0.783c-0.421-0.211-0.905-0.37-1.452-0.48c-0.548-0.109-1.133-0.164-1.756-0.164
					c-1.348,0-2.438,0.211-3.271,0.632s-1.25,1.053-1.25,1.895c0,0.404,0.114,0.753,0.341,1.048
					c0.228,0.295,0.539,0.543,0.935,0.745s0.872,0.354,1.427,0.455c0.556,0.101,1.162,0.151,1.819,0.151
					c0.623,0,1.208-0.051,1.756-0.151c0.547-0.102,1.031-0.253,1.452-0.455s0.754-0.45,0.998-0.745s0.366-0.644,0.366-1.048
					C144.508,34.352,144.386,33.985,144.142,33.674z M140.112,23.253v-1.768c0-0.084,0.038-0.156,0.114-0.215
					s0.156-0.089,0.24-0.089h3.966v-5.354c0-0.219,0.109-0.329,0.328-0.329h2.249c0.219,0,0.328,0.11,0.328,0.329V29.24
					c0,0.236-0.109,0.354-0.328,0.354h-2.249c-0.219,0-0.328-0.117-0.328-0.354v-5.684h-3.966c-0.084,0-0.164-0.029-0.24-0.089
					C140.15,23.409,140.112,23.338,140.112,23.253z"/>
			</g>
		</g>
	</g>
	<rect fill="none" width="272.818" height="55.979"/>
</g>
</svg>
