<?xml version="1.0" encoding="utf-8"?>
<!-- Generator: Adobe Illustrator 16.0.0, SVG Export Plug-In . SVG Version: 6.00 Build 0)  -->
<!DOCTYPE svg PUBLIC "-//W3C//DTD SVG 1.1//EN" "http://www.w3.org/Graphics/SVG/1.1/DTD/svg11.dtd">
<svg version="1.1" id="레이어_1" xmlns="http://www.w3.org/2000/svg" xmlns:xlink="http://www.w3.org/1999/xlink" x="0px"
	 y="0px" width="272.818px" height="55.979px" viewBox="0 0 272.818 55.979" enable-background="new 0 0 272.818 55.979"
	 xml:space="preserve">
<g>
	<g>
		<g>
			<g>
				<path fill="#706F6F" d="M196.678,34.277c-1.275-1.415-2.367-3.432-2.367-6.065v-0.266c0-2.647,1.092-4.65,2.367-6.065h0.714
					c-1.247,1.457-2.284,3.53-2.284,5.981v0.364c0,2.396,1.037,4.58,2.284,6.051H196.678z"/>
				<path fill="#706F6F" d="M197.796,32.345V31.7c0.588,0.266,1.177,0.49,2.228,0.49c1.316,0,1.807-0.546,1.807-1.316
					c0-0.841-0.378-1.148-1.429-1.443l-0.784-0.238c-1.079-0.294-1.737-0.77-1.737-1.961c0-1.135,0.785-1.933,2.381-1.933
					c0.938,0,1.555,0.224,1.961,0.435v0.644c-0.448-0.21-1.163-0.392-1.919-0.392c-1.121,0-1.681,0.42-1.681,1.19
					c0,0.757,0.336,1.064,1.247,1.331l0.813,0.224c1.331,0.378,1.933,0.813,1.933,2.087c0,1.233-0.84,2.045-2.507,2.045
					C199.127,32.862,198.342,32.639,197.796,32.345z"/>
				<path fill="#706F6F" d="M203.816,22.974h0.812v0.896h-0.812V22.974z M203.83,25.438h0.784v7.313h-0.784V25.438z"/>
				<path fill="#706F6F" d="M206.742,31.224v-5.141h-1.079v-0.645h1.079v-1.723h0.785v1.723h1.989v0.645h-1.989v5.029
					c0,0.742,0.252,1.064,1.163,1.064c0.322,0,0.687-0.057,0.98-0.141v0.532c-0.252,0.126-0.616,0.252-1.177,0.252
					C207.373,32.82,206.742,32.345,206.742,31.224z"/>
				<path fill="#706F6F" d="M210.284,29.179v-0.168c0-2.535,1.457-3.712,3.166-3.712c1.989,0,2.899,1.232,2.899,3.418v0.448h-5.281
					c0,2.115,0.925,3.025,2.774,3.025c0.98,0,1.681-0.225,2.269-0.519v0.603c-0.448,0.28-1.261,0.603-2.381,0.603
					C211.432,32.877,210.284,31.532,210.284,29.179z M211.082,28.534h4.454c0-1.723-0.686-2.591-2.115-2.591
					C212.272,25.943,211.208,26.672,211.082,28.534z"/>
				<path fill="#706F6F" d="M216.766,34.277c1.247-1.457,2.283-3.529,2.283-5.981v-0.363c0-2.396-1.037-4.581-2.283-6.052h0.714
					c1.275,1.415,2.368,3.432,2.368,6.065v0.266c0,2.647-1.093,4.65-2.368,6.065H216.766z"/>
			</g>
		</g>
		<g>
			<g>
				<path fill="#706F6F" d="M55.476,33.888c-0.32,0.253-0.615,0.245-0.884-0.024l-1.188-1.112c-0.236-0.235-0.211-0.496,0.076-0.783
					c1.095-0.993,2.029-2.096,2.804-3.309c0.774-1.213,1.397-2.509,1.869-3.891c0.202-0.605,0.375-1.208,0.518-1.806
					s0.257-1.204,0.341-1.818c0.084-0.615,0.143-1.255,0.177-1.92s0.042-1.368,0.025-2.109c0-0.102,0.038-0.189,0.114-0.266
					c0.076-0.075,0.155-0.113,0.24-0.113l2.249,0.075c0.084,0,0.16,0.038,0.227,0.114c0.067,0.075,0.101,0.164,0.101,0.265
					c0,1.027-0.034,1.983-0.101,2.867c-0.067,0.885-0.177,1.739-0.329,2.564c0.168,0.791,0.43,1.583,0.783,2.374
					c0.354,0.792,0.766,1.554,1.238,2.286c0.471,0.732,0.981,1.406,1.528,2.021c0.547,0.614,1.09,1.141,1.629,1.578
					c0.269,0.202,0.286,0.464,0.05,0.783l-1.061,1.288c-0.084,0.118-0.198,0.186-0.341,0.202c-0.143,0.018-0.299-0.033-0.467-0.151
					c-0.404-0.319-0.833-0.716-1.289-1.188c-0.454-0.471-0.888-0.98-1.301-1.528c-0.413-0.547-0.795-1.111-1.149-1.692
					c-0.354-0.581-0.64-1.141-0.858-1.68c-0.303,0.707-0.649,1.398-1.036,2.071c-0.388,0.674-0.8,1.31-1.237,1.907
					c-0.438,0.598-0.889,1.154-1.352,1.667C56.389,33.076,55.931,33.518,55.476,33.888z M76.051,27.042
					c-0.076,0.068-0.156,0.102-0.24,0.102h-3.436v11.999c0,0.219-0.109,0.328-0.328,0.328h-2.249c-0.219,0-0.328-0.109-0.328-0.328
					V15.827c0-0.219,0.109-0.329,0.328-0.329h2.249c0.219,0,0.328,0.11,0.328,0.329v8.892h3.436c0.084,0,0.164,0.029,0.24,0.088
					c0.076,0.06,0.113,0.131,0.113,0.215v1.769C76.164,26.891,76.126,26.976,76.051,27.042z"/>
				<path fill="#706F6F" d="M83.414,33.661c-0.96,0-1.828-0.202-2.602-0.606s-1.427-0.973-1.958-1.705
					c-0.53-0.732-0.939-1.612-1.225-2.64c-0.287-1.027-0.429-2.156-0.429-3.386c0-1.263,0.143-2.407,0.429-3.435
					c0.286-1.027,0.695-1.898,1.225-2.615c0.531-0.715,1.183-1.271,1.958-1.667c0.774-0.396,1.642-0.594,2.602-0.594
					c0.977,0,1.848,0.198,2.615,0.594c0.766,0.396,1.415,0.952,1.945,1.667c0.531,0.717,0.939,1.588,1.225,2.615
					s0.43,2.172,0.43,3.435c0,1.264-0.144,2.409-0.43,3.436c-0.286,1.027-0.694,1.903-1.225,2.628
					c-0.53,0.724-1.179,1.284-1.945,1.68C85.262,33.463,84.39,33.661,83.414,33.661z M86.773,25.324c0-0.774-0.076-1.511-0.228-2.21
					c-0.151-0.698-0.371-1.31-0.657-1.831c-0.287-0.522-0.636-0.935-1.048-1.238c-0.413-0.303-0.889-0.454-1.427-0.454
					c-0.539,0-1.015,0.151-1.427,0.454c-0.413,0.304-0.762,0.716-1.048,1.238c-0.287,0.521-0.505,1.133-0.657,1.831
					c-0.151,0.699-0.228,1.436-0.228,2.21c0,0.758,0.076,1.487,0.228,2.186c0.151,0.699,0.37,1.313,0.657,1.844
					c0.286,0.53,0.636,0.952,1.048,1.264s0.888,0.467,1.427,0.467c0.539,0,1.015-0.155,1.427-0.467s0.762-0.733,1.048-1.264
					c0.286-0.53,0.505-1.145,0.657-1.844C86.697,26.812,86.773,26.082,86.773,25.324z M95.893,39.143
					c0,0.219-0.11,0.328-0.329,0.328h-2.248c-0.219,0-0.329-0.109-0.329-0.328V15.827c0-0.219,0.109-0.329,0.329-0.329h2.248
					c0.219,0,0.329,0.11,0.329,0.329V39.143z"/>
				<path fill="#706F6F" d="M120.647,32.953c0.084,0.085,0.126,0.177,0.126,0.278v1.591c0,0.085-0.042,0.169-0.126,0.253
					c-0.084,0.085-0.168,0.126-0.252,0.126H98.393c-0.101,0-0.186-0.041-0.252-0.126c-0.068-0.084-0.102-0.168-0.102-0.253v-1.591
					c0-0.27,0.118-0.404,0.354-0.404h22.002C120.479,32.827,120.563,32.869,120.647,32.953z M117.478,29
					c-0.06,0.06-0.131,0.089-0.215,0.089h-14.096c-0.674,0-1.146-0.152-1.415-0.455c-0.27-0.303-0.404-0.749-0.404-1.339v-8.74
					c0-0.64,0.143-1.073,0.429-1.301c0.286-0.228,0.749-0.341,1.389-0.341h13.868c0.236,0,0.354,0.109,0.354,0.328v1.692
					c0,0.236-0.118,0.354-0.354,0.354h-12.327c-0.303,0-0.455,0.144-0.455,0.43v2.097h12.454c0.084,0,0.164,0.034,0.24,0.101
					c0.076,0.068,0.114,0.144,0.114,0.228v1.643c0,0.101-0.038,0.186-0.114,0.252c-0.076,0.067-0.156,0.102-0.24,0.102h-12.454
					v2.146c0,0.186,0.029,0.308,0.088,0.366c0.059,0.06,0.181,0.089,0.366,0.089h12.454c0.135,0,0.236,0.017,0.303,0.051
					c0.067,0.034,0.101,0.118,0.101,0.252v1.668C117.566,28.845,117.536,28.941,117.478,29z"/>
				<path fill="#706F6F" d="M143.104,28.306c-0.084,0.084-0.168,0.126-0.252,0.126h-21.977c-0.101,0-0.186-0.038-0.252-0.113
					c-0.067-0.076-0.101-0.164-0.101-0.266v-1.541c0-0.235,0.118-0.354,0.354-0.354h21.977c0.084,0,0.168,0.038,0.252,0.113
					c0.084,0.076,0.126,0.156,0.126,0.24v1.541C143.23,28.138,143.188,28.222,143.104,28.306z M140.01,39.155
					c-0.076,0.075-0.148,0.113-0.215,0.113h-13.919c-0.656,0-1.103-0.118-1.338-0.354c-0.236-0.236-0.354-0.623-0.354-1.162V35.05
					c0-0.538,0.114-0.926,0.341-1.162c0.227-0.235,0.669-0.354,1.326-0.354h10.609c0.135,0,0.219-0.013,0.252-0.038
					c0.034-0.024,0.051-0.113,0.051-0.265v-0.707c0-0.186-0.017-0.295-0.051-0.329c-0.034-0.033-0.126-0.05-0.278-0.05h-11.948
					c-0.084,0-0.164-0.029-0.24-0.089c-0.076-0.059-0.114-0.13-0.114-0.215v-1.616c0-0.084,0.038-0.16,0.114-0.228
					c0.076-0.067,0.155-0.102,0.24-0.102h13.388c0.69,0,1.149,0.105,1.377,0.316c0.227,0.211,0.341,0.603,0.341,1.175v2.728
					c0,0.59-0.114,0.985-0.341,1.188c-0.228,0.202-0.687,0.303-1.377,0.303h-10.534c-0.135,0-0.219,0.021-0.252,0.063
					c-0.034,0.042-0.051,0.139-0.051,0.29v0.758c0,0.169,0.017,0.266,0.051,0.291c0.033,0.025,0.135,0.038,0.303,0.038h12.378
					c0.084,0,0.164,0.029,0.24,0.088c0.076,0.06,0.113,0.14,0.113,0.24v1.541C140.123,38.999,140.085,39.079,140.01,39.155z
					 M139.858,24.555c-0.076,0.075-0.147,0.113-0.214,0.113h-13.691c-0.657,0-1.104-0.118-1.339-0.354
					c-0.236-0.235-0.354-0.623-0.354-1.162v-2.602c0-0.539,0.113-0.927,0.341-1.162c0.228-0.236,0.669-0.354,1.326-0.354h10.508
					c0.135,0,0.219-0.021,0.253-0.063c0.033-0.042,0.05-0.147,0.05-0.315v-0.758c0-0.152-0.017-0.24-0.05-0.266
					c-0.034-0.025-0.126-0.038-0.278-0.038h-11.696c-0.084,0-0.165-0.029-0.24-0.088c-0.076-0.06-0.114-0.131-0.114-0.215V15.7
					c0-0.084,0.038-0.16,0.114-0.228c0.076-0.066,0.156-0.101,0.24-0.101h13.135c0.69,0,1.149,0.105,1.377,0.315
					c0.228,0.211,0.341,0.603,0.341,1.175v2.754c0,0.589-0.113,0.984-0.341,1.187s-0.687,0.304-1.377,0.304h-10.407
					c-0.151,0-0.244,0.021-0.278,0.063c-0.034,0.043-0.05,0.131-0.05,0.266v0.682c0,0.152,0.017,0.24,0.05,0.266
					s0.134,0.038,0.303,0.038h12.15c0.084,0,0.164,0.029,0.24,0.088c0.076,0.06,0.114,0.14,0.114,0.24v1.566
					C139.972,24.398,139.934,24.479,139.858,24.555z"/>
				<path fill="#706F6F" d="M163.451,21.599c-0.076,0.076-0.164,0.114-0.265,0.114h-13.388c-0.101,0-0.194-0.042-0.278-0.127
					c-0.084-0.084-0.126-0.185-0.126-0.303v-1.49c0-0.084,0.046-0.169,0.139-0.253c0.093-0.084,0.189-0.126,0.291-0.126h13.363
					c0.101,0,0.189,0.037,0.265,0.113s0.114,0.164,0.114,0.266v1.516C163.565,21.426,163.527,21.523,163.451,21.599z
					 M156.694,22.597c0.758,0,1.474,0.118,2.147,0.354c0.674,0.236,1.259,0.556,1.756,0.96c0.497,0.404,0.888,0.88,1.175,1.427
					c0.286,0.548,0.429,1.133,0.429,1.756c0,0.641-0.143,1.234-0.429,1.781c-0.287,0.547-0.678,1.022-1.175,1.427
					c-0.497,0.404-1.082,0.725-1.756,0.96c-0.673,0.236-1.397,0.354-2.172,0.354c-0.758,0-1.465-0.117-2.122-0.354
					c-0.657-0.235-1.234-0.556-1.73-0.96c-0.497-0.404-0.889-0.88-1.175-1.427s-0.429-1.141-0.429-1.781
					c0-0.623,0.143-1.208,0.429-1.756c0.286-0.547,0.678-1.022,1.175-1.427c0.497-0.404,1.078-0.724,1.743-0.96
					C155.225,22.715,155.936,22.597,156.694,22.597z M160.192,18.201c-0.076,0.084-0.181,0.126-0.315,0.126h-6.593
					c-0.067,0-0.147-0.033-0.24-0.101c-0.093-0.067-0.139-0.16-0.139-0.278v-1.49c0-0.135,0.046-0.235,0.139-0.303
					c0.092-0.067,0.172-0.102,0.24-0.102h6.593c0.117,0,0.219,0.043,0.303,0.127c0.084,0.084,0.126,0.186,0.126,0.303v1.439
					C160.306,18.024,160.269,18.117,160.192,18.201z M168.971,39.016c-0.084,0.051-0.168,0.076-0.253,0.076H155.38
					c-0.758,0-1.272-0.135-1.541-0.404c-0.27-0.27-0.404-0.732-0.404-1.39v-3.915c0-0.084,0.042-0.168,0.126-0.253
					c0.084-0.084,0.168-0.126,0.253-0.126h2.147c0.118,0,0.215,0.042,0.291,0.126c0.076,0.085,0.114,0.169,0.114,0.253v2.88
					c0,0.168,0.033,0.277,0.101,0.328c0.067,0.051,0.185,0.076,0.354,0.076h11.897c0.084,0,0.168,0.033,0.253,0.101
					c0.084,0.067,0.126,0.144,0.126,0.228v1.794C169.097,38.89,169.055,38.966,168.971,39.016z M156.694,24.845
					c-0.792,0-1.449,0.219-1.97,0.657c-0.522,0.438-0.783,0.968-0.783,1.591c0,0.641,0.261,1.188,0.783,1.643
					c0.521,0.454,1.179,0.682,1.97,0.682c0.809,0,1.469-0.228,1.983-0.682c0.514-0.455,0.771-1.002,0.771-1.643
					c0-0.623-0.257-1.153-0.771-1.591C158.163,25.063,157.502,24.845,156.694,24.845z M171.787,26.297
					c-0.076,0.06-0.164,0.089-0.265,0.089h-3.41v7.275c0,0.219-0.11,0.328-0.329,0.328h-2.248c-0.219,0-0.328-0.109-0.328-0.328
					V15.827c0-0.219,0.109-0.329,0.328-0.329h2.248c0.219,0,0.329,0.11,0.329,0.329v8.134h3.41c0.101,0,0.189,0.033,0.265,0.101
					c0.076,0.067,0.114,0.144,0.114,0.228v1.793C171.901,26.167,171.863,26.238,171.787,26.297z"/>
				<path fill="#706F6F" d="M173.492,29.505c-0.169-0.008-0.303-0.104-0.404-0.29l-0.758-1.237c-0.084-0.135-0.105-0.278-0.063-0.43
					s0.147-0.261,0.316-0.328c0.943-0.421,1.835-0.914,2.678-1.479c0.842-0.563,1.604-1.166,2.286-1.806s1.276-1.305,1.781-1.996
					c0.505-0.69,0.893-1.38,1.162-2.071c0.067-0.151,0.097-0.286,0.088-0.404c-0.009-0.117-0.148-0.177-0.417-0.177h-6.265
					c-0.101,0-0.186-0.042-0.252-0.126c-0.067-0.084-0.101-0.177-0.101-0.278v-1.667c0-0.101,0.038-0.185,0.114-0.252
					c0.076-0.067,0.164-0.102,0.265-0.102h7.982c0.741,0,1.292,0.135,1.655,0.404c0.362,0.27,0.5,0.682,0.417,1.237
					c-0.034,0.186-0.08,0.379-0.139,0.581s-0.113,0.379-0.164,0.531c-0.219,0.605-0.484,1.199-0.795,1.78
					c-0.312,0.581-0.661,1.149-1.048,1.705c0.303,0.304,0.64,0.606,1.01,0.909c0.37,0.304,0.749,0.594,1.137,0.872
					c0.387,0.277,0.774,0.53,1.162,0.758c0.387,0.228,0.749,0.417,1.086,0.568c0.336,0.168,0.412,0.404,0.227,0.707l-0.783,1.364
					c-0.186,0.286-0.446,0.346-0.783,0.177c-0.32-0.151-0.674-0.354-1.061-0.606c-0.388-0.252-0.788-0.53-1.2-0.833
					c-0.413-0.304-0.825-0.628-1.238-0.973c-0.413-0.346-0.795-0.703-1.149-1.074c-0.875,0.876-1.844,1.692-2.905,2.45
					s-2.207,1.432-3.436,2.021C173.795,29.493,173.66,29.514,173.492,29.505z M191.263,36.642c-0.379,0.589-0.909,1.095-1.591,1.516
					s-1.486,0.745-2.413,0.973s-1.928,0.341-3.006,0.341c-1.162,0-2.206-0.113-3.132-0.341s-1.714-0.548-2.362-0.96
					c-0.648-0.413-1.146-0.914-1.49-1.503c-0.346-0.59-0.518-1.246-0.518-1.971c0-0.707,0.172-1.352,0.518-1.933
					c0.345-0.581,0.842-1.082,1.49-1.503c0.648-0.421,1.436-0.745,2.362-0.973c0.926-0.227,1.97-0.341,3.132-0.341
					c1.078,0,2.08,0.114,3.006,0.341c0.926,0.228,1.73,0.548,2.413,0.96c0.682,0.413,1.212,0.909,1.591,1.49
					s0.568,1.234,0.568,1.958C191.831,35.403,191.642,36.052,191.263,36.642z M188.459,33.674c-0.244-0.312-0.577-0.573-0.998-0.783
					c-0.421-0.211-0.905-0.37-1.452-0.48c-0.548-0.109-1.133-0.164-1.756-0.164c-1.348,0-2.438,0.211-3.271,0.632
					s-1.25,1.053-1.25,1.895c0,0.404,0.114,0.753,0.341,1.048c0.228,0.295,0.539,0.543,0.935,0.745s0.872,0.354,1.427,0.455
					c0.556,0.101,1.162,0.151,1.819,0.151c0.623,0,1.208-0.051,1.756-0.151c0.547-0.102,1.031-0.253,1.452-0.455
					s0.754-0.45,0.998-0.745s0.366-0.644,0.366-1.048C188.825,34.352,188.703,33.985,188.459,33.674z M184.43,23.253v-1.768
					c0-0.084,0.038-0.156,0.114-0.215s0.156-0.089,0.24-0.089h3.966v-5.354c0-0.219,0.109-0.329,0.328-0.329h2.249
					c0.219,0,0.328,0.11,0.328,0.329V29.24c0,0.236-0.109,0.354-0.328,0.354h-2.249c-0.219,0-0.328-0.117-0.328-0.354v-5.684h-3.966
					c-0.084,0-0.164-0.029-0.24-0.089C184.468,23.409,184.43,23.338,184.43,23.253z"/>
			</g>
		</g>
	</g>
	<rect fill="none" width="272.818" height="55.979"/>
</g>
</svg>
