<?xml version="1.0" encoding="utf-8"?>
<!-- Generator: Adobe Illustrator 16.0.0, SVG Export Plug-In . SVG Version: 6.00 Build 0)  -->
<!DOCTYPE svg PUBLIC "-//W3C//DTD SVG 1.1//EN" "http://www.w3.org/Graphics/SVG/1.1/DTD/svg11.dtd">
<svg version="1.1" id="레이어_1" xmlns="http://www.w3.org/2000/svg" xmlns:xlink="http://www.w3.org/1999/xlink" x="0px"
	 y="0px" width="272.818px" height="55.979px" viewBox="0 0 272.818 55.979" enable-background="new 0 0 272.818 55.979"
	 xml:space="preserve">
<g>
	<g>
		<g>
			<g>
				<path fill="#706F6F" d="M148.76,34.666c-0.065,0-0.104-0.002-0.118-0.007c-0.015-0.005-0.04-0.03-0.077-0.077
					c-0.85-1.063-1.479-2.142-1.891-3.233c-0.41-1.092-0.616-2.222-0.616-3.388c0-1.157,0.206-2.282,0.616-3.374
					c0.411-1.093,1.041-2.175,1.891-3.248c0.037-0.047,0.063-0.072,0.077-0.077c0.014-0.005,0.044-0.007,0.091-0.007h0.392
					c0.057,0,0.084,0.005,0.084,0.014c0,0.01-0.014,0.037-0.042,0.084c-1.465,2.296-2.198,4.499-2.198,6.608
					c0,1.073,0.188,2.155,0.561,3.247c0.373,1.093,0.924,2.213,1.652,3.36c0.046,0.065,0.022,0.098-0.07,0.098H148.76z"/>
				<path fill="#706F6F" d="M151.126,32.79h-0.616c-0.131,0-0.195-0.065-0.195-0.195V21.856c0-0.131,0.064-0.196,0.195-0.196h0.616
					c0.131,0,0.196,0.065,0.196,0.196v10.738C151.322,32.725,151.257,32.79,151.126,32.79z"/>
				<path fill="#706F6F" d="M153.016,22.57c0-0.187,0.065-0.348,0.196-0.482c0.131-0.136,0.289-0.203,0.476-0.203
					s0.348,0.067,0.483,0.203c0.135,0.135,0.203,0.296,0.203,0.482s-0.068,0.346-0.203,0.477c-0.136,0.131-0.297,0.195-0.483,0.195
					s-0.345-0.064-0.476-0.195S153.016,22.757,153.016,22.57z M154.01,32.79h-0.616c-0.131,0-0.195-0.065-0.195-0.195v-7.183
					c0-0.13,0.064-0.195,0.195-0.195h0.616c0.131,0,0.196,0.065,0.196,0.195v7.183C154.206,32.725,154.141,32.79,154.01,32.79z"/>
				<path fill="#706F6F" d="M162.102,32.595c0,0.13-0.065,0.195-0.196,0.195h-0.56c-0.131,0-0.196-0.065-0.196-0.195v-4.41
					c0-0.858-0.153-1.468-0.462-1.827c-0.308-0.359-0.742-0.539-1.302-0.539c-0.756,0-1.332,0.21-1.729,0.63
					c-0.397,0.42-0.596,1.008-0.596,1.765v4.382c0,0.13-0.065,0.195-0.195,0.195h-0.561c-0.131,0-0.196-0.065-0.196-0.195v-5.601
					c0-0.4-0.002-0.714-0.007-0.938c-0.005-0.225-0.017-0.438-0.035-0.645c-0.009-0.064,0.008-0.114,0.049-0.146
					c0.043-0.033,0.092-0.049,0.147-0.049h0.504c0.131,0,0.196,0.065,0.196,0.195v0.771c0.261-0.401,0.576-0.695,0.945-0.882
					c0.368-0.187,0.875-0.28,1.519-0.28c0.887,0,1.554,0.257,2.002,0.77c0.448,0.514,0.672,1.237,0.672,2.171V32.595z"/>
				<path fill="#706F6F" d="M166.596,28.591l3.023,4.004c0.028,0.046,0.038,0.091,0.028,0.133s-0.042,0.063-0.098,0.063h-0.603
					c-0.093,0-0.177-0.014-0.252-0.042c-0.074-0.027-0.136-0.079-0.182-0.153l-2.521-3.332l-0.938,1.05v2.282
					c0,0.13-0.065,0.195-0.196,0.195h-0.56c-0.131,0-0.196-0.065-0.196-0.195V21.843c0-0.131,0.065-0.196,0.196-0.196h0.56
					c0.131,0,0.196,0.065,0.196,0.196v7.294l3.191-3.725c0.131-0.13,0.285-0.195,0.463-0.195h0.657c0.057,0,0.094,0.021,0.112,0.063
					s0.005,0.087-0.042,0.133L166.596,28.591z"/>
				<path fill="#706F6F" d="M170.249,34.666c-0.084,0-0.103-0.032-0.056-0.098c0.728-1.147,1.276-2.268,1.646-3.36
					c0.368-1.092,0.553-2.174,0.553-3.247c0-1.064-0.182-2.145-0.546-3.241s-0.91-2.22-1.639-3.367
					c-0.027-0.047-0.042-0.074-0.042-0.084c0-0.009,0.023-0.014,0.07-0.014h0.393c0.046,0,0.076,0.002,0.091,0.007
					c0.014,0.005,0.044,0.03,0.091,0.077c0.849,1.073,1.477,2.155,1.883,3.248c0.406,1.092,0.609,2.217,0.609,3.374
					c0,1.166-0.203,2.296-0.609,3.388s-1.034,2.17-1.883,3.233c-0.047,0.047-0.077,0.072-0.091,0.077
					c-0.015,0.005-0.054,0.007-0.119,0.007H170.249z"/>
			</g>
		</g>
		<g>
			<g>
				<path fill="#706F6F" d="M114.524,27.813c-0.068,0.076-0.144,0.123-0.228,0.14c-0.775,0.151-1.638,0.286-2.59,0.404
					c-0.951,0.117-1.932,0.21-2.942,0.277s-2.021,0.113-3.031,0.139c-1.011,0.025-1.962,0.021-2.854-0.013
					c-0.657-0.033-1.104-0.168-1.339-0.403c-0.236-0.236-0.354-0.623-0.354-1.162v-4.27c0-0.505,0.113-0.867,0.341-1.086
					s0.61-0.328,1.149-0.328h6.012c0.168,0,0.27-0.017,0.304-0.051c0.033-0.034,0.05-0.143,0.05-0.328v-1.945
					c0-0.186-0.017-0.295-0.05-0.328c-0.034-0.034-0.136-0.051-0.304-0.051h-7.048c-0.084,0-0.164-0.034-0.239-0.102
					c-0.076-0.066-0.114-0.143-0.114-0.227v-1.643c0-0.084,0.038-0.155,0.114-0.215c0.075-0.059,0.155-0.088,0.239-0.088h8.589
					c0.657,0,1.104,0.131,1.339,0.392s0.354,0.687,0.354,1.275v3.814c0,0.623-0.13,1.053-0.392,1.288
					c-0.261,0.236-0.661,0.354-1.199,0.354h-5.911c-0.136,0-0.228,0.021-0.278,0.063s-0.075,0.139-0.075,0.29v2.021
					c0,0.286,0.159,0.429,0.479,0.429c0.758,0.018,1.545,0.018,2.362,0c0.816-0.016,1.629-0.054,2.438-0.113
					c0.809-0.059,1.6-0.13,2.374-0.215c0.774-0.084,1.508-0.185,2.198-0.303c0.084-0.017,0.172-0.013,0.265,0.013
					s0.147,0.088,0.164,0.189l0.253,1.541C114.616,27.657,114.591,27.737,114.524,27.813z M119.399,34.975
					c0,0.656-0.169,1.263-0.506,1.818s-0.829,1.027-1.478,1.415c-0.648,0.387-1.439,0.69-2.374,0.909s-2,0.328-3.195,0.328
					c-1.196,0-2.261-0.109-3.195-0.328c-0.936-0.219-1.727-0.522-2.375-0.909c-0.648-0.388-1.146-0.859-1.49-1.415
					c-0.346-0.556-0.518-1.162-0.518-1.818c0-0.657,0.172-1.264,0.518-1.819c0.345-0.556,0.842-1.031,1.49-1.427
					s1.439-0.703,2.375-0.922c0.935-0.219,1.999-0.329,3.195-0.329c1.195,0,2.261,0.11,3.195,0.329s1.726,0.526,2.374,0.922
					s1.141,0.871,1.478,1.427S119.399,34.317,119.399,34.975z M116.368,34.975c0-0.69-0.396-1.229-1.188-1.617
					c-0.792-0.387-1.903-0.581-3.334-0.581c-1.415,0-2.514,0.194-3.297,0.581c-0.783,0.388-1.175,0.927-1.175,1.617
					s0.392,1.229,1.175,1.616s1.882,0.581,3.297,0.581c1.431,0,2.542-0.193,3.334-0.581
					C115.972,36.203,116.368,35.665,116.368,34.975z M118.894,30.099h-2.248c-0.219,0-0.328-0.117-0.328-0.354V15.827
					c0-0.219,0.109-0.329,0.328-0.329h2.248c0.219,0,0.329,0.11,0.329,0.329v13.943C119.223,29.989,119.112,30.099,118.894,30.099z"
					/>
				<path fill="#706F6F" d="M125.462,24.44c1.128,0,2.281-0.004,3.46-0.013c1.179-0.008,2.328-0.017,3.448-0.025
					c1.12-0.008,2.181-0.025,3.184-0.05c1.001-0.025,1.906-0.063,2.715-0.114c0.033-0.74,0.059-1.439,0.076-2.097
					c0.017-0.656,0.025-1.246,0.025-1.768c0-0.27-0.034-0.468-0.102-0.594c-0.067-0.127-0.236-0.189-0.505-0.189H125.26
					c-0.085,0-0.16-0.038-0.228-0.114c-0.067-0.075-0.102-0.155-0.102-0.239v-1.668c0-0.084,0.034-0.164,0.102-0.239
					c0.067-0.076,0.143-0.114,0.228-0.114h14.348c0.37,0,0.67,0.051,0.896,0.151c0.228,0.102,0.404,0.24,0.531,0.417
					c0.126,0.177,0.21,0.396,0.252,0.657s0.071,0.543,0.089,0.846c0.051,1.583-0.018,3.546-0.202,5.886
					c-0.186,2.341-0.464,4.884-0.834,7.629h3.612c0.084,0,0.168,0.042,0.253,0.126c0.084,0.085,0.126,0.169,0.126,0.253v1.667
					c0,0.085-0.042,0.169-0.126,0.253c-0.085,0.084-0.169,0.126-0.253,0.126H121.95c-0.101,0-0.186-0.042-0.252-0.126
					c-0.068-0.084-0.102-0.168-0.102-0.253v-1.667c0-0.101,0.033-0.189,0.102-0.265c0.066-0.076,0.151-0.114,0.252-0.114h15.51
					c0.135-0.707,0.257-1.612,0.367-2.716c0.109-1.103,0.205-2.261,0.29-3.473c-1.785,0.084-3.714,0.143-5.785,0.177
					s-4.361,0.051-6.87,0.051c-0.085,0-0.16-0.038-0.228-0.114s-0.102-0.164-0.102-0.266v-1.667
					C125.133,24.559,125.242,24.44,125.462,24.44z"/>
			</g>
		</g>
	</g>
	<rect fill="none" width="272.818" height="55.979"/>
</g>
</svg>
