<?xml version="1.0" encoding="utf-8"?>
<!-- Generator: Adobe Illustrator 16.0.0, SVG Export Plug-In . SVG Version: 6.00 Build 0)  -->
<!DOCTYPE svg PUBLIC "-//W3C//DTD SVG 1.1//EN" "http://www.w3.org/Graphics/SVG/1.1/DTD/svg11.dtd">
<svg version="1.1" id="레이어_1" xmlns="http://www.w3.org/2000/svg" xmlns:xlink="http://www.w3.org/1999/xlink" x="0px"
	 y="0px" width="272.818px" height="55.979px" viewBox="0 0 272.818 55.979" enable-background="new 0 0 272.818 55.979"
	 xml:space="preserve">
<g>
	<g>
		<g>
			<g>
				<path fill="#706F6F" d="M152.494,34.668c-0.065,0-0.105-0.002-0.119-0.007s-0.04-0.03-0.077-0.077
					c-0.85-1.063-1.479-2.142-1.89-3.233c-0.411-1.092-0.616-2.222-0.616-3.388c0-1.157,0.205-2.282,0.616-3.374
					c0.41-1.093,1.04-2.175,1.89-3.248c0.037-0.047,0.063-0.072,0.077-0.077s0.044-0.007,0.091-0.007h0.393
					c0.056,0,0.084,0.005,0.084,0.014c0,0.01-0.015,0.037-0.042,0.084c-1.466,2.296-2.198,4.499-2.198,6.608
					c0,1.073,0.187,2.155,0.56,3.247c0.373,1.093,0.924,2.213,1.652,3.36c0.047,0.065,0.023,0.098-0.07,0.098H152.494z"/>
				<path fill="#706F6F" d="M160.04,32.597c0,0.13-0.065,0.195-0.196,0.195h-0.56c-0.131,0-0.196-0.065-0.196-0.195v-4.41
					c0-0.858-0.154-1.468-0.462-1.827s-0.742-0.539-1.302-0.539c-0.756,0-1.333,0.21-1.729,0.63S155,27.458,155,28.215v4.382
					c0,0.13-0.065,0.195-0.196,0.195h-0.56c-0.131,0-0.196-0.065-0.196-0.195v-5.601c0-0.4-0.002-0.714-0.007-0.938
					c-0.005-0.225-0.017-0.438-0.035-0.645c-0.01-0.064,0.007-0.114,0.049-0.146c0.042-0.033,0.092-0.049,0.147-0.049h0.504
					c0.131,0,0.196,0.065,0.196,0.195v0.771c0.261-0.401,0.576-0.695,0.944-0.882c0.369-0.187,0.875-0.28,1.52-0.28
					c0.887,0,1.554,0.257,2.002,0.77c0.448,0.514,0.672,1.237,0.672,2.171V32.597z"/>
				<path fill="#706F6F" d="M168.062,32.597c0,0.13-0.065,0.195-0.196,0.195h-0.504c-0.131,0-0.195-0.065-0.195-0.195v-1.162
					c-0.243,0.56-0.567,0.964-0.974,1.211c-0.405,0.247-0.917,0.371-1.532,0.371c-1.746,0-2.618-0.976-2.618-2.926v-4.677
					c0-0.13,0.065-0.195,0.196-0.195h0.56c0.131,0,0.196,0.065,0.196,0.195v4.425c0,1.586,0.606,2.38,1.819,2.38
					c0.354,0,0.675-0.077,0.959-0.231c0.285-0.154,0.525-0.364,0.722-0.63c0.195-0.266,0.345-0.576,0.447-0.931
					s0.149-0.729,0.141-1.12v-3.893c0-0.13,0.064-0.195,0.195-0.195h0.561c0.131,0,0.195,0.065,0.195,0.195v5.628
					c0,0.309,0.003,0.584,0.008,0.826C168.045,32.111,168.053,32.354,168.062,32.597z"/>
				<path fill="#706F6F" d="M170.05,26.996c0-0.392-0.005-0.702-0.015-0.931c-0.009-0.229-0.023-0.445-0.041-0.651
					c0-0.13,0.064-0.195,0.195-0.195h0.519c0.13,0,0.195,0.065,0.195,0.195v0.757c0.215-0.346,0.504-0.619,0.868-0.819
					c0.364-0.201,0.813-0.301,1.344-0.301c0.561,0,1.051,0.138,1.471,0.413s0.676,0.679,0.77,1.211
					c0.196-0.532,0.512-0.936,0.945-1.211s0.936-0.413,1.505-0.413c0.364,0,0.693,0.065,0.987,0.195
					c0.294,0.131,0.546,0.311,0.756,0.539c0.21,0.229,0.371,0.497,0.482,0.806c0.112,0.308,0.168,0.635,0.168,0.979v5.026
					c0,0.13-0.064,0.195-0.195,0.195h-0.532c-0.131,0-0.196-0.061-0.196-0.182v-4.844c0-1.278-0.537-1.918-1.609-1.918
					c-0.327,0-0.619,0.072-0.875,0.217c-0.257,0.145-0.477,0.343-0.658,0.595s-0.317,0.546-0.406,0.882
					c-0.089,0.337-0.128,0.691-0.119,1.064v3.99c0,0.13-0.065,0.195-0.195,0.195h-0.561c-0.131,0-0.196-0.065-0.196-0.195v-4.83
					c0-1.278-0.541-1.918-1.624-1.918c-0.635,0-1.134,0.205-1.498,0.616c-0.363,0.41-0.546,0.951-0.546,1.624v4.508
					c0,0.13-0.065,0.195-0.195,0.195h-0.546c-0.131,0-0.196-0.065-0.196-0.195V26.996z"/>
				<path fill="#706F6F" d="M185.813,26.072c-0.168-0.056-0.392-0.084-0.672-0.084c-0.69,0-1.204,0.341-1.54,1.022
					c-0.262,0.531-0.393,1.213-0.393,2.044v3.542c0,0.13-0.064,0.195-0.195,0.195h-0.546c-0.131,0-0.196-0.065-0.196-0.195v-5.685
					c0-0.336-0.002-0.608-0.007-0.818s-0.012-0.437-0.021-0.68c0-0.13,0.065-0.195,0.196-0.195h0.518
					c0.131,0,0.196,0.065,0.196,0.195v1.372c0.457-1.176,1.129-1.764,2.017-1.764c0.214,0,0.429,0.028,0.644,0.084
					c0.056,0.019,0.104,0.049,0.147,0.091c0.041,0.042,0.063,0.101,0.063,0.175v0.588c0,0.057-0.023,0.094-0.07,0.112
					S185.86,26.091,185.813,26.072z"/>
				<path fill="#706F6F" d="M187.172,26.395c-0.047,0.028-0.092,0.035-0.134,0.021c-0.042-0.014-0.063-0.044-0.063-0.091v-0.532
					c0-0.13,0.065-0.229,0.196-0.294c0.326-0.177,0.674-0.301,1.043-0.371c0.368-0.069,0.771-0.104,1.211-0.104
					c0.933,0,1.614,0.222,2.044,0.665c0.429,0.443,0.644,1.113,0.644,2.009v3.514c0,0.28,0.005,0.53,0.014,0.749
					c0.01,0.22,0.023,0.432,0.042,0.638c0,0.13-0.065,0.195-0.195,0.195h-0.504c-0.131,0-0.196-0.065-0.196-0.195v-1.078
					c-0.196,0.476-0.525,0.845-0.987,1.105c-0.462,0.262-0.964,0.393-1.505,0.393c-0.942,0-1.633-0.275-2.072-0.826
					c-0.149-0.187-0.261-0.403-0.336-0.651c-0.074-0.247-0.111-0.492-0.111-0.734c0-0.569,0.133-1.06,0.398-1.471
					c0.267-0.41,0.675-0.718,1.226-0.924c0.672-0.242,1.703-0.363,3.094-0.363h0.182v-0.421c0-0.588-0.133-1.035-0.398-1.344
					c-0.267-0.308-0.712-0.462-1.337-0.462c-0.42,0-0.817,0.045-1.19,0.133C187.862,26.042,187.508,26.189,187.172,26.395z
					 M191.161,28.845h-0.266c-0.522-0.019-0.987,0.002-1.394,0.063c-0.405,0.061-0.744,0.143-1.015,0.245
					c-0.392,0.14-0.686,0.348-0.882,0.623s-0.294,0.604-0.294,0.987c0,0.233,0.037,0.45,0.112,0.65
					c0.074,0.201,0.19,0.357,0.35,0.47c0.28,0.224,0.653,0.336,1.12,0.336c0.326,0,0.628-0.065,0.903-0.196
					c0.274-0.131,0.516-0.317,0.721-0.56c0.205-0.243,0.363-0.544,0.476-0.903s0.168-0.772,0.168-1.239V28.845z"/>
				<path fill="#706F6F" d="M199.981,32.597c0,0.13-0.065,0.195-0.196,0.195h-0.56c-0.131,0-0.196-0.065-0.196-0.195v-4.41
					c0-0.858-0.154-1.468-0.462-1.827s-0.742-0.539-1.302-0.539c-0.756,0-1.333,0.21-1.729,0.63s-0.595,1.008-0.595,1.765v4.382
					c0,0.13-0.065,0.195-0.196,0.195h-0.56c-0.131,0-0.196-0.065-0.196-0.195v-5.601c0-0.4-0.003-0.714-0.007-0.938
					c-0.005-0.225-0.017-0.438-0.035-0.645c-0.01-0.064,0.007-0.114,0.049-0.146c0.042-0.033,0.091-0.049,0.147-0.049h0.504
					c0.13,0,0.196,0.065,0.196,0.195v0.771c0.261-0.401,0.576-0.695,0.944-0.882c0.369-0.187,0.875-0.28,1.52-0.28
					c0.886,0,1.554,0.257,2.002,0.77c0.447,0.514,0.672,1.237,0.672,2.171V32.597z"/>
				<path fill="#706F6F" d="M202.319,34.626c-0.112-0.027-0.159-0.098-0.14-0.21l0.041-0.615c0-0.122,0.061-0.149,0.183-0.084
					c0.354,0.158,0.695,0.272,1.021,0.343c0.327,0.07,0.682,0.104,1.064,0.104c0.849,0,1.486-0.259,1.911-0.776
					c0.424-0.519,0.665-1.226,0.721-2.121c-0.215,0.42-0.532,0.737-0.952,0.952c-0.42,0.214-0.887,0.321-1.399,0.321
					c-0.458,0-0.883-0.084-1.274-0.252s-0.732-0.405-1.022-0.714c-0.289-0.308-0.518-0.681-0.686-1.12
					c-0.168-0.438-0.252-0.924-0.252-1.456c0-0.625,0.059-1.183,0.175-1.673c0.117-0.49,0.301-0.902,0.554-1.238
					c0.252-0.337,0.578-0.593,0.979-0.771c0.401-0.177,0.887-0.266,1.456-0.266c0.494,0,0.931,0.081,1.309,0.245
					c0.378,0.163,0.764,0.454,1.155,0.875l-0.028-0.757c0-0.13,0.065-0.195,0.196-0.195h0.532c0.131,0,0.196,0.065,0.196,0.195
					v5.601c0,0.606-0.077,1.154-0.231,1.645s-0.383,0.905-0.686,1.246c-0.304,0.341-0.68,0.603-1.127,0.784
					c-0.448,0.182-0.962,0.273-1.541,0.273c-0.42,0-0.788-0.026-1.105-0.077C203.052,34.834,202.702,34.748,202.319,34.626z
					 M207.135,28.971c0-0.999-0.205-1.769-0.615-2.311c-0.411-0.541-0.967-0.812-1.666-0.812c-0.756,0-1.326,0.252-1.708,0.756
					c-0.383,0.504-0.574,1.302-0.574,2.394c0,0.401,0.056,0.771,0.168,1.106s0.266,0.623,0.462,0.861
					c0.196,0.237,0.43,0.425,0.7,0.56c0.271,0.136,0.564,0.203,0.882,0.203c0.326,0,0.635-0.067,0.924-0.203
					c0.289-0.135,0.539-0.326,0.749-0.574c0.21-0.247,0.376-0.539,0.497-0.875S207.135,29.372,207.135,28.971z"/>
				<path fill="#706F6F" d="M210.453,29.278c-0.01,0.467,0.044,0.88,0.161,1.239c0.116,0.359,0.286,0.66,0.511,0.903
					c0.224,0.242,0.492,0.429,0.805,0.56s0.66,0.196,1.043,0.196c0.373,0,0.724-0.035,1.051-0.105
					c0.326-0.07,0.63-0.184,0.909-0.343c0.121-0.056,0.183-0.023,0.183,0.098v0.63c0,0.084-0.052,0.149-0.154,0.196
					c-0.308,0.121-0.63,0.212-0.966,0.273c-0.336,0.061-0.7,0.091-1.092,0.091c-1.148,0-2.017-0.334-2.604-1.001
					s-0.882-1.673-0.882-3.018c0-1.185,0.294-2.142,0.882-2.869c0.616-0.737,1.396-1.106,2.338-1.106
					c0.522,0,0.976,0.094,1.358,0.28s0.709,0.467,0.979,0.84c0.477,0.663,0.715,1.549,0.715,2.66c0,0.121-0.003,0.215-0.008,0.279
					c-0.005,0.065-0.021,0.112-0.049,0.141c-0.027,0.027-0.077,0.044-0.146,0.049c-0.07,0.005-0.171,0.007-0.302,0.007H210.453z
					 M214.653,28.48c0-0.383-0.038-0.724-0.112-1.022c-0.075-0.298-0.191-0.568-0.35-0.812c-0.346-0.551-0.846-0.826-1.498-0.826
					c-0.673,0-1.219,0.28-1.639,0.84c-0.168,0.252-0.308,0.542-0.42,0.868c-0.111,0.327-0.173,0.645-0.182,0.952H214.653z"/>
				<path fill="#706F6F" d="M216.473,34.668c-0.084,0-0.103-0.032-0.056-0.098c0.728-1.147,1.276-2.268,1.645-3.36
					c0.369-1.092,0.554-2.174,0.554-3.247c0-1.064-0.183-2.145-0.546-3.241c-0.364-1.097-0.91-2.22-1.639-3.367
					c-0.027-0.047-0.042-0.074-0.042-0.084c0-0.009,0.023-0.014,0.07-0.014h0.392c0.047,0,0.077,0.002,0.091,0.007
					c0.015,0.005,0.045,0.03,0.092,0.077c0.849,1.073,1.477,2.155,1.883,3.248c0.406,1.092,0.609,2.217,0.609,3.374
					c0,1.166-0.203,2.296-0.609,3.388s-1.034,2.17-1.883,3.233c-0.047,0.047-0.077,0.072-0.092,0.077
					c-0.014,0.005-0.053,0.007-0.118,0.007H216.473z"/>
			</g>
		</g>
		<g>
			<g>
				<path fill="#706F6F" d="M56.074,39.497c-0.186,0.033-0.316,0.021-0.393-0.038c-0.075-0.06-0.139-0.156-0.189-0.29l-0.605-1.491
					c-0.051-0.101-0.051-0.197,0-0.29s0.126-0.156,0.227-0.189c1.027-0.27,1.987-0.59,2.88-0.96c0.893-0.371,1.676-0.809,2.35-1.313
					c0.673-0.505,1.221-1.086,1.642-1.743c0.421-0.656,0.674-1.397,0.758-2.223v-0.025v-2.147h-9.498
					c-0.101,0-0.186-0.042-0.252-0.126c-0.067-0.084-0.102-0.168-0.102-0.253V26.74c0-0.101,0.034-0.189,0.102-0.266
					c0.066-0.075,0.151-0.113,0.252-0.113h22.002c0.085,0,0.169,0.042,0.253,0.126c0.084,0.085,0.126,0.169,0.126,0.253v1.667
					c0,0.085-0.042,0.169-0.126,0.253s-0.168,0.126-0.253,0.126h-9.599v2.097v0.202c-0.017,0.135-0.034,0.266-0.051,0.392
					s-0.042,0.257-0.075,0.392c0.252,0.59,0.644,1.162,1.174,1.718c0.531,0.556,1.154,1.065,1.87,1.528
					c0.715,0.463,1.494,0.862,2.336,1.2c0.843,0.336,1.685,0.589,2.526,0.758c0.084,0.017,0.151,0.075,0.202,0.177
					c0.051,0.101,0.051,0.202,0,0.303l-0.632,1.566c-0.05,0.117-0.113,0.197-0.189,0.24c-0.075,0.041-0.198,0.046-0.366,0.013
					c-0.842-0.118-1.671-0.329-2.488-0.632c-0.816-0.304-1.587-0.661-2.312-1.074c-0.724-0.412-1.381-0.871-1.97-1.376
					c-0.59-0.506-1.062-1.011-1.415-1.516c-0.842,1.179-1.979,2.181-3.41,3.006S57.825,39.177,56.074,39.497z M56.301,24.846
					c-0.37,0.085-0.598,0.034-0.682-0.151l-0.682-1.617c-0.034-0.084-0.034-0.177,0-0.277c0.033-0.102,0.108-0.168,0.227-0.202
					c1.195-0.32,2.248-0.678,3.158-1.073c0.909-0.396,1.68-0.851,2.311-1.364c0.632-0.514,1.125-1.104,1.479-1.769
					s0.572-1.427,0.656-2.286c0.033-0.27,0.193-0.404,0.48-0.404l1.995,0.076c0.235,0,0.354,0.118,0.354,0.354
					c-0.017,0.168-0.029,0.333-0.038,0.492c-0.008,0.16-0.029,0.316-0.063,0.468c0.27,0.64,0.678,1.237,1.225,1.793
					s1.175,1.062,1.883,1.516c0.707,0.455,1.473,0.855,2.298,1.2c0.825,0.346,1.65,0.619,2.476,0.821
					c0.102,0.034,0.173,0.097,0.215,0.189s0.047,0.181,0.013,0.265l-0.758,1.566c-0.084,0.219-0.277,0.304-0.581,0.253
					c-0.69-0.118-1.414-0.32-2.172-0.606s-1.499-0.636-2.224-1.048c-0.724-0.413-1.394-0.876-2.008-1.39
					c-0.615-0.514-1.124-1.065-1.528-1.654c-0.774,1.161-1.856,2.151-3.246,2.968C59.698,23.781,58.103,24.408,56.301,24.846z"/>
				<path fill="#706F6F" d="M77.141,33.384c-0.135,0.085-0.273,0.118-0.417,0.102c-0.143-0.017-0.257-0.093-0.341-0.228
					l-0.985-1.289c-0.118-0.151-0.139-0.294-0.063-0.429c0.075-0.135,0.164-0.236,0.265-0.304c1.062-0.656,2.071-1.414,3.031-2.273
					c0.96-0.858,1.827-1.764,2.603-2.715c0.774-0.951,1.431-1.92,1.97-2.905s0.926-1.933,1.162-2.842
					c0.067-0.286,0.076-0.472,0.025-0.556s-0.219-0.127-0.505-0.127h-6.518c-0.118,0-0.206-0.037-0.266-0.113
					c-0.059-0.076-0.088-0.164-0.088-0.266v-1.692c0-0.101,0.038-0.185,0.113-0.252c0.076-0.067,0.164-0.102,0.266-0.102h8.235
					c0.656,0,1.17,0.127,1.54,0.379c0.37,0.253,0.556,0.581,0.556,0.985c0,0.219-0.017,0.442-0.05,0.67
					c-0.034,0.227-0.076,0.434-0.127,0.618c-0.235,0.909-0.547,1.823-0.935,2.741s-0.867,1.831-1.439,2.74
					c0.319,0.438,0.69,0.897,1.111,1.377c0.421,0.48,0.851,0.943,1.288,1.39c0.438,0.446,0.876,0.858,1.313,1.237
					s0.834,0.695,1.188,0.947c0.117,0.085,0.197,0.194,0.24,0.329c0.042,0.135,0.013,0.27-0.089,0.403l-1.086,1.238
					c-0.219,0.253-0.497,0.27-0.834,0.051c-0.303-0.202-0.656-0.48-1.061-0.834s-0.821-0.749-1.251-1.188
					c-0.429-0.438-0.858-0.896-1.288-1.376c-0.429-0.48-0.813-0.939-1.149-1.377C81.839,29.864,79.7,31.751,77.141,33.384z
					 M98.348,27.094c-0.076,0.067-0.156,0.102-0.24,0.102h-3.436v11.948c0,0.219-0.109,0.328-0.328,0.328h-2.249
					c-0.219,0-0.328-0.109-0.328-0.328V15.828c0-0.219,0.109-0.329,0.328-0.329h2.249c0.219,0,0.328,0.11,0.328,0.329v8.941h3.436
					c0.084,0,0.164,0.03,0.24,0.089c0.075,0.06,0.113,0.131,0.113,0.215v1.793C98.461,26.951,98.423,27.026,98.348,27.094z"/>
				<path fill="#706F6F" d="M116.434,27.334c-0.278,0.277-0.779,0.417-1.503,0.417h-7.301c-0.741,0-1.246-0.127-1.516-0.379
					c-0.27-0.253-0.404-0.716-0.404-1.39V16.61c0-0.084,0.034-0.159,0.102-0.227s0.143-0.102,0.228-0.102h2.197
					c0.084,0,0.164,0.034,0.24,0.102c0.075,0.067,0.113,0.143,0.113,0.227v3.436h5.355v-3.46c0-0.085,0.038-0.165,0.113-0.24
					c0.076-0.076,0.156-0.114,0.24-0.114h2.197c0.085,0,0.165,0.038,0.24,0.114c0.076,0.075,0.114,0.155,0.114,0.24v4.345h4.269
					v-5.103c0-0.085,0.042-0.16,0.127-0.228c0.084-0.067,0.168-0.102,0.252-0.102h2.248c0.186,0,0.278,0.11,0.278,0.329v12.883
					c0,0.235-0.11,0.354-0.328,0.354h-2.249c-0.219,0-0.328-0.109-0.328-0.328v-5.381h-4.269v2.703
					C116.851,26.631,116.711,27.056,116.434,27.334z M113.945,22.396h-5.355v2.551c0,0.304,0.151,0.455,0.455,0.455h4.445
					c0.304,0,0.455-0.151,0.455-0.455V22.396z M123.582,38.688c-0.277,0.27-0.736,0.404-1.377,0.404h-11.266
					c-0.758,0-1.271-0.135-1.541-0.404s-0.404-0.732-0.404-1.39v-5.152c0-0.641,0.143-1.104,0.43-1.39
					c0.286-0.286,0.749-0.43,1.389-0.43h11.267c0.758,0,1.267,0.139,1.528,0.417c0.261,0.277,0.392,0.754,0.392,1.427v5.153
					C123.999,37.964,123.86,38.419,123.582,38.688z M121.119,32.979c0-0.135-0.021-0.223-0.063-0.265
					c-0.043-0.042-0.131-0.063-0.266-0.063h-8.563c-0.135,0-0.224,0.017-0.266,0.051c-0.042,0.033-0.063,0.117-0.063,0.252v3.486
					c0,0.151,0.021,0.244,0.063,0.277c0.042,0.034,0.131,0.051,0.266,0.051h8.563c0.135,0,0.223-0.017,0.266-0.051
					c0.041-0.033,0.063-0.126,0.063-0.277V32.979z"/>
				<path fill="#706F6F" d="M126.879,28.686c1.195,0.034,2.458,0.046,3.789,0.038c1.33-0.009,2.656-0.038,3.979-0.089
					c1.321-0.051,2.605-0.122,3.852-0.215c1.246-0.092,2.392-0.215,3.436-0.366c0.084-0.017,0.181-0.008,0.291,0.025
					c0.109,0.034,0.172,0.118,0.189,0.253l0.151,1.616c0.017,0.135-0.013,0.236-0.089,0.304c-0.075,0.067-0.155,0.109-0.239,0.126
					c-0.859,0.135-1.836,0.253-2.931,0.354s-2.257,0.186-3.486,0.253v7.3c0,0.118-0.037,0.215-0.113,0.291
					c-0.076,0.075-0.164,0.113-0.266,0.113h-2.071c-0.27,0-0.404-0.135-0.404-0.404v-7.199c-1.061,0.034-2.113,0.06-3.157,0.076
					s-2.021,0.017-2.93,0c-0.118,0-0.211-0.038-0.278-0.114c-0.067-0.075-0.101-0.164-0.101-0.265v-1.743
					C126.5,28.804,126.626,28.686,126.879,28.686z M134.179,16.661c0.893,0,1.714,0.122,2.463,0.366s1.394,0.586,1.933,1.023
					s0.96,0.956,1.263,1.554c0.304,0.598,0.455,1.259,0.455,1.982c0,0.741-0.151,1.415-0.455,2.021
					c-0.303,0.605-0.724,1.128-1.263,1.565c-0.539,0.438-1.184,0.779-1.933,1.023s-1.57,0.366-2.463,0.366s-1.709-0.122-2.45-0.366
					s-1.386-0.585-1.933-1.023c-0.548-0.438-0.973-0.96-1.275-1.565c-0.304-0.606-0.455-1.28-0.455-2.021
					c0-0.724,0.151-1.385,0.455-1.982c0.303-0.598,0.728-1.116,1.275-1.554c0.547-0.438,1.191-0.779,1.933-1.023
					S133.286,16.661,134.179,16.661z M134.179,19.036c-0.421,0-0.829,0.063-1.226,0.189c-0.396,0.126-0.745,0.303-1.048,0.53
					s-0.548,0.501-0.732,0.82c-0.186,0.32-0.278,0.674-0.278,1.062c0,0.404,0.093,0.767,0.278,1.086
					c0.185,0.32,0.43,0.599,0.732,0.834s0.652,0.417,1.048,0.543c0.396,0.126,0.805,0.189,1.226,0.189
					c0.455,0,0.884-0.063,1.288-0.189s0.758-0.308,1.062-0.543c0.303-0.235,0.543-0.514,0.72-0.834
					c0.177-0.319,0.266-0.682,0.266-1.086c0-0.388-0.089-0.741-0.266-1.062c-0.177-0.319-0.417-0.593-0.72-0.82
					c-0.304-0.228-0.657-0.404-1.062-0.53C135.063,19.099,134.634,19.036,134.179,19.036z M146.506,39.144
					c0,0.219-0.118,0.328-0.354,0.328h-2.223c-0.085,0-0.164-0.029-0.24-0.089c-0.076-0.059-0.113-0.139-0.113-0.239V15.828
					c0-0.085,0.037-0.16,0.113-0.228s0.155-0.102,0.24-0.102h2.223c0.235,0,0.354,0.11,0.354,0.329V39.144z"/>
			</g>
		</g>
	</g>
	<rect fill="none" width="272.818" height="55.979"/>
</g>
</svg>
