<?xml version="1.0" encoding="utf-8"?>
<!-- Generator: Adobe Illustrator 16.0.0, SVG Export Plug-In . SVG Version: 6.00 Build 0)  -->
<!DOCTYPE svg PUBLIC "-//W3C//DTD SVG 1.1//EN" "http://www.w3.org/Graphics/SVG/1.1/DTD/svg11.dtd">
<svg version="1.1" id="레이어_1" xmlns="http://www.w3.org/2000/svg" xmlns:xlink="http://www.w3.org/1999/xlink" x="0px"
	 y="0px" width="181.619px" height="20.949px" viewBox="0 0 181.619 20.949" enable-background="new 0 0 181.619 20.949"
	 xml:space="preserve">
<g>
	<path fill="#706F6F" d="M2.294,17.51c-0.15,0-0.257-0.028-0.317-0.082c-0.062-0.055-0.093-0.164-0.093-0.328V2.15
		c0-0.273,0.137-0.41,0.41-0.41H4.26c0.272,0,0.409,0.137,0.409,0.41V8.13h5.632V2.15c0-0.273,0.136-0.41,0.409-0.41h1.966
		c0.273,0,0.41,0.137,0.41,0.41V17.1c0,0.164-0.031,0.273-0.093,0.328c-0.062,0.054-0.167,0.082-0.317,0.082H10.71
		c-0.15,0-0.256-0.028-0.317-0.082c-0.062-0.055-0.092-0.164-0.092-0.328v-6.389H4.669V17.1c0,0.164-0.03,0.273-0.092,0.328
		C4.516,17.481,4.409,17.51,4.26,17.51H2.294z"/>
	<path fill="#706F6F" d="M16.443,4.28c-0.45,0-0.826-0.157-1.126-0.472c-0.301-0.313-0.45-0.695-0.45-1.146
		c0-0.45,0.146-0.836,0.439-1.156c0.294-0.321,0.673-0.482,1.137-0.482s0.847,0.161,1.146,0.482c0.301,0.32,0.451,0.706,0.451,1.156
		c0,0.451-0.15,0.833-0.451,1.146C17.29,4.123,16.907,4.28,16.443,4.28z M15.399,17.51c-0.123,0-0.209-0.028-0.256-0.082
		c-0.049-0.055-0.072-0.164-0.072-0.328V6.43c0-0.163,0.021-0.272,0.062-0.327c0.041-0.054,0.13-0.081,0.267-0.081h2.027
		c0.136,0,0.229,0.027,0.276,0.081c0.048,0.055,0.071,0.164,0.071,0.327V17.1c0,0.164-0.023,0.273-0.071,0.328
		c-0.048,0.054-0.141,0.082-0.276,0.082H15.399z"/>
	<path fill="#706F6F" d="M24.512,17.079c-0.355,0.272-0.758,0.464-1.208,0.573s-0.929,0.171-1.434,0.185
		c-0.26,0-0.539-0.018-0.84-0.052c-0.3-0.033-0.587-0.074-0.86-0.123c-0.272-0.047-0.525-0.105-0.757-0.174
		c-0.232-0.068-0.41-0.129-0.533-0.184c-0.15-0.068-0.249-0.127-0.297-0.174c-0.048-0.049-0.064-0.147-0.051-0.297l0.164-1.496
		c0.013-0.163,0.047-0.266,0.103-0.307c0.054-0.041,0.156-0.033,0.307,0.021c0.423,0.15,0.863,0.28,1.321,0.39
		c0.457,0.109,0.932,0.163,1.423,0.163s0.854-0.122,1.085-0.368c0.232-0.246,0.349-0.553,0.349-0.922c0-0.26-0.12-0.516-0.358-0.768
		c-0.239-0.253-0.522-0.488-0.85-0.707c-0.328-0.218-0.663-0.42-1.004-0.604c-0.341-0.185-0.614-0.338-0.819-0.461
		c-0.45-0.273-0.829-0.625-1.136-1.055c-0.308-0.43-0.461-0.932-0.461-1.506c0-0.613,0.105-1.143,0.317-1.586
		c0.211-0.443,0.491-0.81,0.84-1.096c0.348-0.287,0.75-0.498,1.208-0.635c0.457-0.137,0.925-0.205,1.402-0.205
		c0.246,0,0.509,0.018,0.788,0.051c0.28,0.035,0.546,0.079,0.799,0.133c0.253,0.055,0.488,0.117,0.707,0.185
		c0.218,0.069,0.389,0.13,0.512,0.185c0.137,0.068,0.215,0.13,0.235,0.184c0.021,0.055,0.023,0.137,0.011,0.246L25.29,8.232
		c-0.027,0.164-0.075,0.256-0.144,0.276s-0.178-0.003-0.327-0.071c-0.71-0.342-1.468-0.498-2.273-0.471
		c-0.438,0.014-0.755,0.119-0.952,0.316c-0.198,0.199-0.297,0.475-0.297,0.83c0,0.15,0.089,0.334,0.266,0.553
		c0.178,0.219,0.492,0.451,0.942,0.696c0.423,0.232,0.806,0.454,1.146,0.665c0.342,0.213,0.601,0.379,0.778,0.502
		c0.491,0.383,0.863,0.766,1.116,1.146c0.253,0.383,0.379,0.895,0.379,1.536c0,0.601-0.116,1.144-0.348,1.628
		C25.345,16.324,24.989,16.738,24.512,17.079z"/>
	<path fill="#706F6F" d="M32.642,17.365c-0.272,0.123-0.601,0.229-0.982,0.318c-0.383,0.088-0.819,0.125-1.311,0.112
		c-0.506-0.014-0.963-0.14-1.372-0.379c-0.41-0.239-0.71-0.529-0.901-0.87c-0.191-0.396-0.307-0.844-0.348-1.342
		s-0.062-1.143-0.062-1.936V8.438h-1.454c-0.26,0-0.39-0.137-0.39-0.41V6.328c0-0.273,0.13-0.41,0.39-0.41h1.454V3.195
		c0-0.273,0.136-0.41,0.409-0.41h1.884c0.26,0,0.39,0.137,0.39,0.41v2.723h1.74c0.164,0,0.27,0.031,0.317,0.093
		s0.072,0.167,0.072,0.317v1.699c0,0.15-0.024,0.256-0.072,0.318c-0.048,0.061-0.153,0.092-0.317,0.092h-1.74v4.587
		c0,0.491,0,0.891,0,1.198c0,0.307,0.014,0.508,0.041,0.604c0.054,0.26,0.17,0.424,0.348,0.492s0.369,0.088,0.573,0.061
		c0.205-0.027,0.403-0.074,0.594-0.143c0.191-0.068,0.342-0.13,0.451-0.185c0.109-0.054,0.19-0.058,0.245-0.011
		c0.055,0.049,0.089,0.147,0.103,0.297l0.185,1.537c0.014,0.122,0.007,0.221-0.021,0.297C32.84,17.246,32.765,17.311,32.642,17.365z
		"/>
	<path fill="#706F6F" d="M42.287,15.912c-0.506,0.641-1.109,1.123-1.813,1.443s-1.485,0.481-2.345,0.481
		c-0.901,0-1.689-0.164-2.365-0.491c-0.676-0.328-1.243-0.769-1.7-1.321s-0.802-1.198-1.034-1.935
		c-0.232-0.738-0.348-1.516-0.348-2.335s0.112-1.598,0.338-2.335c0.225-0.736,0.566-1.382,1.023-1.936
		c0.457-0.553,1.027-0.989,1.71-1.311c0.683-0.32,1.475-0.48,2.376-0.48c0.9,0,1.692,0.164,2.375,0.491s1.253,0.769,1.71,1.321
		s0.802,1.194,1.034,1.925s0.349,1.505,0.349,2.324c0,0.806-0.113,1.566-0.338,2.283C43.034,14.755,42.71,15.379,42.287,15.912z
		 M38.13,8.09c-0.451,0-0.847,0.105-1.188,0.316c-0.341,0.212-0.624,0.488-0.85,0.83c-0.225,0.341-0.396,0.73-0.512,1.167
		s-0.174,0.888-0.174,1.352s0.058,0.915,0.174,1.352s0.287,0.829,0.512,1.177c0.226,0.349,0.509,0.629,0.85,0.84
		c0.342,0.213,0.737,0.318,1.188,0.318c0.464,0,0.866-0.105,1.208-0.318c0.341-0.211,0.625-0.491,0.85-0.84
		c0.226-0.348,0.393-0.74,0.502-1.177s0.164-0.888,0.164-1.352c0-0.45-0.055-0.894-0.164-1.331s-0.276-0.83-0.502-1.178
		c-0.225-0.348-0.509-0.628-0.85-0.84C38.996,8.195,38.594,8.09,38.13,8.09z"/>
	<path fill="#706F6F" d="M50.294,8.498c-0.26-0.108-0.499-0.174-0.717-0.193c-0.219-0.021-0.41-0.004-0.574,0.051
		c-0.327,0.109-0.59,0.287-0.788,0.532s-0.348,0.532-0.45,0.86s-0.168,0.669-0.194,1.023c-0.028,0.355-0.041,0.697-0.041,1.024
		v5.283c0,0.163-0.024,0.276-0.072,0.338s-0.146,0.093-0.297,0.093h-1.966c-0.15,0-0.246-0.028-0.286-0.082
		c-0.041-0.055-0.062-0.178-0.062-0.369V8.949c0-0.438-0.008-0.895-0.021-1.372C44.813,7.1,44.806,6.703,44.806,6.39
		c0-0.178,0.027-0.294,0.082-0.349c0.054-0.055,0.156-0.082,0.307-0.082h1.966c0.205,0,0.308,0.109,0.308,0.328v0.781
		c0.177-0.26,0.402-0.514,0.676-0.76c0.272-0.246,0.56-0.396,0.859-0.451c0.287-0.055,0.57-0.072,0.851-0.052
		C50.133,5.826,50.348,5.891,50.498,6c0.068,0.055,0.113,0.106,0.134,0.154s0.03,0.126,0.03,0.235v1.781
		c0,0.15-0.027,0.26-0.082,0.327C50.525,8.567,50.43,8.567,50.294,8.498z"/>
	<path fill="#706F6F" d="M55.146,17.939c-0.355,1.01-0.799,1.736-1.331,2.181c-0.532,0.443-1.167,0.665-1.904,0.665
		c-0.15,0-0.369-0.01-0.655-0.03c-0.287-0.021-0.567-0.085-0.84-0.194c-0.15-0.068-0.249-0.127-0.297-0.174
		c-0.048-0.049-0.065-0.147-0.052-0.297l0.144-1.68c0.014-0.123,0.055-0.194,0.123-0.215s0.157-0.01,0.267,0.031
		c0.19,0.067,0.385,0.119,0.583,0.152c0.198,0.035,0.399,0.045,0.604,0.031c0.109-0.014,0.211-0.041,0.307-0.082
		s0.178-0.123,0.246-0.246c0.15-0.314,0.29-0.621,0.42-0.921c0.13-0.301,0.256-0.649,0.379-1.044L49.74,6.451
		c-0.068-0.205-0.075-0.334-0.021-0.39c0.055-0.054,0.164-0.081,0.327-0.081h1.946c0.122,0,0.208,0.017,0.256,0.051
		c0.047,0.034,0.092,0.126,0.133,0.276l2.027,6.513l2.027-6.513c0.041-0.15,0.085-0.242,0.133-0.276s0.134-0.051,0.256-0.051h1.986
		c0.191,0,0.304,0.033,0.338,0.102s0.018,0.198-0.051,0.389L55.146,17.939z"/>
	<path fill="#706F6F" d="M74.479,14.294c-0.109,0.137-0.232,0.185-0.369,0.144s-0.293-0.123-0.471-0.246
		c-0.232-0.164-0.502-0.382-0.809-0.655c-0.308-0.272-0.628-0.576-0.963-0.911c-0.335-0.334-0.665-0.686-0.993-1.055
		c-0.327-0.369-0.621-0.73-0.881-1.086c-0.696,0.834-1.461,1.625-2.293,2.376c-0.833,0.751-1.721,1.434-2.662,2.048
		c-0.123,0.082-0.223,0.116-0.297,0.103c-0.075-0.013-0.168-0.089-0.276-0.226l-0.963-1.289c-0.109-0.15-0.146-0.27-0.112-0.359
		c0.033-0.088,0.112-0.174,0.235-0.256c0.791-0.546,1.542-1.153,2.253-1.822c0.709-0.669,1.361-1.372,1.955-2.109
		s1.116-1.495,1.566-2.273c0.451-0.777,0.799-1.557,1.045-2.334c0.082-0.273-0.021-0.41-0.308-0.41h-4.976
		c-0.191,0-0.305-0.037-0.338-0.112c-0.034-0.075-0.052-0.181-0.052-0.317V2.027c0-0.164,0.031-0.276,0.093-0.338
		c0.061-0.061,0.167-0.092,0.317-0.092h6.758c0.532,0,0.952,0.116,1.259,0.348c0.308,0.232,0.461,0.574,0.461,1.024
		c0,0.191-0.018,0.376-0.051,0.553c-0.034,0.178-0.072,0.349-0.113,0.512c-0.354,1.421-1.01,2.867-1.966,4.342
		c0.26,0.409,0.557,0.806,0.891,1.188c0.335,0.382,0.68,0.744,1.034,1.085c0.355,0.342,0.707,0.659,1.055,0.953
		c0.349,0.293,0.666,0.557,0.952,0.788c0.232,0.177,0.226,0.409-0.021,0.696L74.479,14.294z M79.803,19.721h-2.089
		c-0.15,0-0.253-0.023-0.308-0.072c-0.055-0.047-0.081-0.152-0.081-0.316V9.052H74.13c-0.137,0-0.238-0.024-0.307-0.071
		c-0.068-0.049-0.103-0.146-0.103-0.297V7.105c0-0.149,0.034-0.252,0.103-0.307s0.17-0.082,0.307-0.082h3.195V0.471
		c0-0.149,0.026-0.252,0.081-0.307s0.157-0.082,0.308-0.082h2.089c0.15,0,0.249,0.027,0.297,0.082s0.071,0.157,0.071,0.307v18.861
		c0,0.164-0.023,0.27-0.071,0.316C80.052,19.697,79.953,19.721,79.803,19.721z"/>
	<path fill="#706F6F" d="M83.447,11.57c-0.231,0.109-0.393,0.144-0.48,0.103c-0.089-0.041-0.168-0.123-0.235-0.245l-0.778-1.414
		c-0.137-0.245-0.048-0.437,0.266-0.572c0.696-0.328,1.365-0.711,2.007-1.147s1.226-0.888,1.751-1.352s0.983-0.935,1.372-1.413
		c0.39-0.478,0.687-0.922,0.891-1.331c0.109-0.231,0.157-0.396,0.144-0.491s-0.137-0.144-0.368-0.144h-4.669
		c-0.178,0-0.284-0.038-0.317-0.112c-0.034-0.075-0.052-0.182-0.052-0.318V1.639c0-0.287,0.13-0.43,0.39-0.43h6.921
		c0.806,0,1.301,0.201,1.485,0.604c0.184,0.402,0.153,0.945-0.093,1.628c-0.354,0.983-0.88,1.945-1.576,2.888
		c0.546,0.465,1.119,0.877,1.72,1.238c0.601,0.362,1.14,0.659,1.618,0.891c0.231,0.123,0.279,0.295,0.144,0.513l-0.983,1.556
		c-0.123,0.205-0.308,0.24-0.553,0.104c-0.205-0.096-0.447-0.229-0.728-0.4c-0.279-0.17-0.576-0.361-0.891-0.572
		c-0.314-0.212-0.642-0.443-0.982-0.697c-0.342-0.252-0.663-0.515-0.963-0.788c-0.696,0.683-1.468,1.314-2.314,1.895
		S84.417,11.147,83.447,11.57z M91.168,19.885c-0.888,0-1.707-0.103-2.457-0.307c-0.751-0.205-1.403-0.488-1.956-0.851
		s-0.986-0.788-1.3-1.28c-0.314-0.491-0.472-1.031-0.472-1.617c0-0.56,0.157-1.082,0.472-1.566c0.313-0.484,0.747-0.908,1.3-1.27
		s1.205-0.646,1.956-0.85c0.75-0.205,1.569-0.309,2.457-0.309c0.847,0,1.648,0.1,2.406,0.298s1.423,0.478,1.997,0.839
		c0.573,0.362,1.026,0.785,1.361,1.27c0.334,0.485,0.502,1.014,0.502,1.588c0,0.586-0.168,1.126-0.502,1.617
		c-0.335,0.492-0.788,0.918-1.361,1.28c-0.574,0.362-1.239,0.646-1.997,0.851C92.816,19.782,92.015,19.885,91.168,19.885z
		 M91.168,14.068c-1.023,0-1.826,0.185-2.406,0.553c-0.58,0.369-0.87,0.793-0.87,1.27c0,0.465,0.29,0.871,0.87,1.219
		c0.58,0.349,1.383,0.522,2.406,0.522c0.478,0,0.922-0.048,1.331-0.144c0.41-0.096,0.761-0.222,1.055-0.379
		c0.294-0.156,0.525-0.341,0.696-0.553c0.171-0.211,0.256-0.434,0.256-0.666c0-0.231-0.085-0.457-0.256-0.676
		c-0.171-0.217-0.406-0.412-0.706-0.583c-0.301-0.171-0.655-0.308-1.065-0.409C92.069,14.12,91.632,14.068,91.168,14.068z
		 M99.769,7.127h-2.539v3.788c0,0.245-0.123,0.368-0.368,0.368h-2.068c-0.273,0-0.41-0.129-0.41-0.389V0.471
		c0-0.149,0.031-0.252,0.093-0.307s0.167-0.082,0.317-0.082h2.068c0.149,0,0.249,0.027,0.297,0.082s0.071,0.157,0.071,0.307v4.321
		h2.539c0.123,0,0.222,0.018,0.297,0.052c0.075,0.033,0.113,0.14,0.113,0.316v1.557C100.179,6.99,100.042,7.127,99.769,7.127z"/>
	<path fill="#706F6F" d="M120.655,19.557c-0.081,0.205-0.286,0.267-0.614,0.185c-0.56-0.123-1.14-0.294-1.74-0.512
		c-0.601-0.219-1.185-0.488-1.751-0.81c-0.566-0.32-1.1-0.682-1.598-1.085s-0.925-0.85-1.279-1.341
		c-0.683,0.928-1.577,1.72-2.683,2.375c-1.106,0.655-2.39,1.174-3.851,1.557c-0.191,0.055-0.317,0.068-0.379,0.041
		c-0.061-0.027-0.112-0.096-0.153-0.205l-0.696-1.68c-0.096-0.219,0.007-0.368,0.308-0.45c1.829-0.532,3.256-1.222,4.279-2.068
		c1.024-0.847,1.598-1.911,1.721-3.194V11.1h-7.413c-0.164,0-0.273-0.031-0.328-0.092c-0.055-0.063-0.082-0.168-0.082-0.318V9.215
		c0-0.163,0.021-0.275,0.062-0.338c0.041-0.061,0.157-0.092,0.349-0.092h17.57c0.286,0,0.43,0.144,0.43,0.43v1.475
		c0,0.164-0.041,0.273-0.123,0.328c-0.081,0.055-0.184,0.082-0.307,0.082h-7.393v1.208c0.014,0.041,0.017,0.082,0.01,0.123
		s-0.01,0.096-0.01,0.163c-0.027,0.123-0.048,0.246-0.062,0.369s-0.034,0.239-0.062,0.348c0.218,0.561,0.556,1.065,1.014,1.516
		c0.457,0.451,0.973,0.844,1.546,1.178c0.573,0.335,1.181,0.614,1.822,0.84c0.642,0.225,1.25,0.398,1.823,0.521
		c0.19,0.041,0.297,0.1,0.317,0.175s0.003,0.181-0.052,0.317L120.655,19.557z M107.201,7.781c-0.204,0.041-0.345,0.035-0.42-0.02
		s-0.146-0.164-0.215-0.328l-0.614-1.352c-0.041-0.109-0.044-0.208-0.01-0.297c0.033-0.088,0.126-0.153,0.276-0.194
		c1.856-0.532,3.279-1.194,4.27-1.986c0.989-0.792,1.56-1.836,1.71-3.134c0.014-0.19,0.048-0.307,0.103-0.348
		c0.054-0.041,0.177-0.055,0.368-0.041l1.782,0.082c0.19,0.014,0.317,0.048,0.379,0.103c0.061,0.055,0.085,0.163,0.071,0.327
		c0,0.287-0.021,0.553-0.062,0.799c0.246,0.492,0.591,0.945,1.034,1.361c0.443,0.417,0.945,0.796,1.505,1.137
		c0.56,0.342,1.15,0.639,1.771,0.891c0.621,0.254,1.232,0.455,1.833,0.604c0.191,0.041,0.29,0.112,0.297,0.216
		c0.007,0.102-0.024,0.234-0.092,0.398l-0.655,1.373c-0.069,0.109-0.127,0.181-0.175,0.215c-0.048,0.033-0.167,0.037-0.358,0.01
		c-0.505-0.082-1.048-0.229-1.628-0.44s-1.153-0.468-1.72-0.768s-1.103-0.648-1.607-1.044c-0.506-0.396-0.942-0.82-1.311-1.271
		c-0.669,0.901-1.567,1.666-2.693,2.294S108.635,7.469,107.201,7.781z"/>
	<path fill="#706F6F" d="M132.554,4.034c-0.178,0.683-0.424,1.38-0.737,2.089c-0.314,0.71-0.696,1.427-1.146,2.15
		c0.259,0.396,0.553,0.778,0.88,1.146c0.328,0.369,0.666,0.721,1.014,1.055c0.349,0.335,0.689,0.646,1.024,0.932
		c0.334,0.287,0.645,0.54,0.932,0.758c0.231,0.178,0.226,0.41-0.021,0.696l-0.963,1.208c-0.109,0.137-0.232,0.185-0.368,0.144
		c-0.137-0.04-0.294-0.122-0.471-0.245c-0.219-0.15-0.479-0.359-0.778-0.625c-0.301-0.266-0.614-0.56-0.942-0.881
		c-0.327-0.32-0.648-0.662-0.962-1.023c-0.314-0.361-0.602-0.713-0.86-1.055c-0.696,0.859-1.468,1.676-2.314,2.447
		s-1.754,1.464-2.724,2.078c-0.123,0.082-0.222,0.116-0.297,0.103c-0.075-0.013-0.167-0.089-0.276-0.226l-0.963-1.289
		c-0.109-0.15-0.146-0.27-0.112-0.359c0.034-0.088,0.112-0.174,0.235-0.256c0.792-0.546,1.543-1.153,2.253-1.822
		s1.361-1.372,1.956-2.109c0.594-0.737,1.112-1.495,1.556-2.273c0.443-0.777,0.796-1.557,1.055-2.334
		c0.082-0.273-0.027-0.41-0.327-0.41h-4.956c-0.191,0-0.304-0.037-0.338-0.112s-0.051-0.181-0.051-0.317V2.027
		c0-0.164,0.03-0.276,0.092-0.338c0.062-0.061,0.167-0.092,0.317-0.092h6.758c0.532,0,0.949,0.116,1.249,0.348
		c0.301,0.232,0.451,0.574,0.451,1.024c0,0.191-0.018,0.376-0.052,0.553C132.632,3.7,132.595,3.871,132.554,4.034z M140.929,9.789
		h-2.539v9.543c0,0.164-0.023,0.27-0.071,0.316c-0.048,0.049-0.147,0.072-0.297,0.072h-2.068c-0.15,0-0.256-0.023-0.317-0.072
		c-0.062-0.047-0.093-0.152-0.093-0.316V0.471c0-0.149,0.031-0.252,0.093-0.307s0.167-0.082,0.317-0.082h2.068
		c0.149,0,0.249,0.027,0.297,0.082s0.071,0.157,0.071,0.307v6.983h2.539c0.123,0,0.222,0.018,0.297,0.052
		c0.075,0.033,0.113,0.146,0.113,0.338V9.4c0,0.163-0.038,0.27-0.113,0.316C141.15,9.766,141.052,9.789,140.929,9.789z"/>
	<path fill="#706F6F" d="M148.076,10.26c-0.273,0.15-0.454,0.229-0.543,0.235s-0.181-0.064-0.276-0.215l-0.942-1.27
		c-0.15-0.205-0.212-0.349-0.184-0.431c0.026-0.082,0.136-0.184,0.327-0.307c1.42-0.928,2.488-1.996,3.205-3.205
		c0.717-1.208,1.075-2.658,1.075-4.352c0-0.232,0.03-0.371,0.092-0.42c0.062-0.047,0.188-0.064,0.379-0.051l1.925,0.082
		c0.15,0.014,0.253,0.045,0.308,0.092c0.054,0.048,0.082,0.146,0.082,0.297c0,0.547-0.034,1.072-0.103,1.577
		s-0.164,0.997-0.287,1.474c0.205,0.451,0.468,0.885,0.789,1.301c0.32,0.417,0.665,0.799,1.034,1.146
		c0.368,0.349,0.743,0.666,1.126,0.953c0.382,0.286,0.737,0.519,1.064,0.695c0.191,0.109,0.283,0.216,0.276,0.318
		c-0.007,0.102-0.064,0.235-0.174,0.398l-0.758,1.229c-0.109,0.164-0.204,0.254-0.286,0.268s-0.219-0.035-0.41-0.145
		c-0.286-0.136-0.601-0.32-0.941-0.553c-0.342-0.231-0.687-0.494-1.034-0.788c-0.349-0.294-0.683-0.614-1.004-0.962
		c-0.32-0.349-0.611-0.714-0.87-1.096c-0.464,0.764-1.021,1.457-1.669,2.078S148.895,9.782,148.076,10.26z M162.227,19.823h-11.018
		c-0.301,0-0.543-0.024-0.727-0.071c-0.185-0.049-0.328-0.123-0.431-0.226s-0.171-0.239-0.204-0.409
		c-0.034-0.172-0.052-0.379-0.052-0.625v-2.744c0-0.26,0.018-0.471,0.052-0.635c0.033-0.164,0.102-0.297,0.204-0.399
		s0.242-0.175,0.42-0.215c0.178-0.041,0.416-0.062,0.717-0.062h7.925c0.137,0,0.205-0.075,0.205-0.226v-0.553
		c0-0.163-0.075-0.245-0.226-0.245h-8.928c-0.15,0-0.257-0.027-0.317-0.082c-0.062-0.055-0.093-0.164-0.093-0.328v-1.413
		c0-0.259,0.137-0.39,0.41-0.39h10.464c0.314,0,0.566,0.024,0.758,0.072s0.341,0.123,0.45,0.225c0.109,0.104,0.181,0.236,0.216,0.4
		c0.033,0.164,0.051,0.368,0.051,0.613v2.725c0,0.273-0.018,0.494-0.051,0.665c-0.035,0.171-0.103,0.304-0.205,0.399
		s-0.246,0.16-0.431,0.195c-0.184,0.033-0.433,0.051-0.747,0.051h-7.843c-0.15,0-0.226,0.068-0.226,0.205v0.635
		c0,0.149,0.082,0.225,0.246,0.225h9.358c0.149,0,0.256,0.021,0.317,0.062s0.092,0.15,0.092,0.327v1.414
		C162.615,19.687,162.485,19.823,162.227,19.823z M156.104,5.55c-0.123,0-0.219-0.027-0.287-0.082
		c-0.068-0.054-0.103-0.157-0.103-0.308V3.646c0-0.191,0.038-0.304,0.113-0.338c0.074-0.034,0.167-0.052,0.276-0.052h3.215V0.471
		c0-0.177,0.041-0.286,0.123-0.327s0.185-0.062,0.307-0.062h2.027c0.178,0,0.283,0.037,0.317,0.113
		c0.034,0.074,0.052,0.167,0.052,0.275v9.338c0,0.26-0.13,0.39-0.39,0.39h-2.047c-0.26,0-0.39-0.122-0.39-0.368V5.55H156.104z"/>
	<path fill="#706F6F" d="M165.974,11.877c-0.232,0.109-0.393,0.145-0.481,0.104s-0.167-0.123-0.235-0.246l-0.859-1.413
		c-0.15-0.218-0.062-0.409,0.266-0.573c0.669-0.369,1.317-0.789,1.945-1.26s1.205-0.955,1.73-1.453
		c0.525-0.499,0.983-0.997,1.372-1.496c0.39-0.498,0.687-0.959,0.891-1.382c0.109-0.231,0.157-0.396,0.144-0.491
		s-0.13-0.144-0.348-0.144h-4.506c-0.191,0-0.304-0.038-0.338-0.112c-0.034-0.075-0.051-0.182-0.051-0.318V1.598
		c0-0.287,0.136-0.43,0.409-0.43h6.737c0.819,0,1.317,0.197,1.495,0.594c0.178,0.396,0.15,0.941-0.082,1.638
		c-0.368,1.052-0.915,2.082-1.638,3.093c0.532,0.519,1.112,0.982,1.74,1.393c0.628,0.409,1.181,0.75,1.659,1.023
		c0.204,0.123,0.245,0.287,0.122,0.492l-0.941,1.515c-0.068,0.109-0.141,0.171-0.215,0.185c-0.075,0.014-0.188-0.014-0.338-0.082
		c-0.205-0.109-0.451-0.252-0.737-0.43c-0.287-0.178-0.594-0.387-0.922-0.625c-0.327-0.238-0.659-0.494-0.993-0.768
		c-0.335-0.273-0.652-0.553-0.952-0.84c-0.683,0.683-1.431,1.32-2.242,1.914C167.793,10.863,166.916,11.4,165.974,11.877z
		 M174.227,19.885c-0.888,0-1.707-0.1-2.457-0.297c-0.751-0.198-1.403-0.475-1.956-0.83c-0.553-0.354-0.986-0.777-1.301-1.27
		c-0.313-0.491-0.471-1.031-0.471-1.617c0-0.546,0.157-1.062,0.471-1.547c0.314-0.484,0.748-0.904,1.301-1.259
		s1.205-0.635,1.956-0.84c0.75-0.204,1.569-0.308,2.457-0.308c0.847,0,1.648,0.1,2.406,0.297c0.758,0.199,1.423,0.472,1.996,0.82
		c0.574,0.348,1.031,0.764,1.372,1.248c0.342,0.485,0.513,1.014,0.513,1.588c0,0.586-0.171,1.126-0.513,1.617
		c-0.341,0.492-0.798,0.915-1.372,1.27c-0.573,0.355-1.238,0.632-1.996,0.83C175.875,19.785,175.073,19.885,174.227,19.885z
		 M174.227,14.15c-1.023,0-1.826,0.178-2.406,0.533c-0.58,0.354-0.87,0.771-0.87,1.248c0,0.465,0.29,0.863,0.87,1.199
		c0.58,0.334,1.383,0.501,2.406,0.501c0.478,0,0.922-0.044,1.331-0.133s0.765-0.212,1.064-0.368
		c0.301-0.158,0.536-0.338,0.707-0.543s0.256-0.424,0.256-0.656c0-0.231-0.085-0.457-0.256-0.676
		c-0.171-0.218-0.406-0.408-0.707-0.572c-0.3-0.164-0.655-0.294-1.064-0.39C175.148,14.199,174.704,14.15,174.227,14.15z
		 M174.841,7.045c-0.273,0-0.409-0.137-0.409-0.41V5.119c0-0.19,0.037-0.303,0.112-0.338c0.075-0.033,0.174-0.051,0.297-0.051h2.703
		v-4.26c0-0.177,0.041-0.286,0.123-0.327s0.185-0.062,0.307-0.062h2.027c0.178,0,0.283,0.037,0.317,0.113
		c0.034,0.074,0.052,0.167,0.052,0.275v10.608c0,0.259-0.13,0.39-0.39,0.39h-2.047c-0.26,0-0.39-0.123-0.39-0.369V7.045H174.841z"/>
</g>
</svg>
