<?xml version="1.0" encoding="utf-8"?>
<!-- Generator: Adobe Illustrator 16.0.0, SVG Export Plug-In . SVG Version: 6.00 Build 0)  -->
<!DOCTYPE svg PUBLIC "-//W3C//DTD SVG 1.1//EN" "http://www.w3.org/Graphics/SVG/1.1/DTD/svg11.dtd">
<svg version="1.1" id="레이어_1" xmlns="http://www.w3.org/2000/svg" xmlns:xlink="http://www.w3.org/1999/xlink" x="0px"
	 y="0px" width="72.901px" height="20.95px" viewBox="0 0 72.901 20.95" enable-background="new 0 0 72.901 20.95"
	 xml:space="preserve">
<g>
	<path fill="#706F6F" d="M6.369,10.895c-0.737,0-1.413-0.126-2.027-0.379c-0.615-0.253-1.144-0.597-1.588-1.034
		C2.311,9.045,1.966,8.522,1.72,7.915C1.475,7.308,1.352,6.655,1.352,5.96c0-0.67,0.123-1.305,0.368-1.905
		c0.246-0.601,0.591-1.126,1.034-1.577c0.444-0.45,0.973-0.809,1.588-1.074c0.614-0.267,1.29-0.4,2.027-0.4
		c0.642,0,1.242,0.1,1.802,0.298S9.226,1.771,9.655,2.12c0.431,0.348,0.792,0.758,1.086,1.229c0.293,0.471,0.501,0.973,0.624,1.505
		h2.785V0.472c0-0.26,0.123-0.39,0.369-0.39h2.067c0.26,0,0.39,0.13,0.39,0.39v13.126c0,0.15-0.027,0.253-0.082,0.308
		s-0.157,0.082-0.308,0.082H14.52c-0.15,0-0.25-0.027-0.298-0.082s-0.071-0.157-0.071-0.308v-6.39h-2.806
		c-0.137,0.547-0.352,1.045-0.645,1.496c-0.294,0.449-0.655,0.839-1.086,1.166c-0.43,0.328-0.921,0.581-1.475,0.758
		C7.587,10.806,6.996,10.895,6.369,10.895z M6.369,3.502c-0.67,0-1.219,0.235-1.648,0.706C4.29,4.68,4.075,5.284,4.075,6.021
		c0,0.737,0.215,1.342,0.646,1.813C5.15,8.304,5.699,8.54,6.369,8.54c0.682,0,1.242-0.239,1.679-0.717
		c0.437-0.479,0.655-1.078,0.655-1.803c0-0.736-0.219-1.341-0.655-1.813C7.611,3.737,7.051,3.502,6.369,3.502z M17.283,19.394H6.246
		c-0.287,0-0.522-0.024-0.707-0.072c-0.184-0.048-0.327-0.127-0.43-0.235c-0.103-0.109-0.174-0.259-0.215-0.45
		s-0.062-0.43-0.062-0.717v-4.566c0-0.287,0.136-0.431,0.409-0.431H7.27c0.273,0,0.41,0.144,0.41,0.431v3.398
		c0,0.205,0.108,0.308,0.327,0.308h9.276c0.109,0,0.205,0.023,0.287,0.071s0.123,0.146,0.123,0.297v1.598
		c0,0.191-0.041,0.301-0.123,0.328S17.393,19.394,17.283,19.394z"/>
	<path fill="#706F6F" d="M24.737,15.093c-0.777,0-1.481-0.178-2.109-0.533c-0.628-0.354-1.164-0.839-1.607-1.453
		c-0.443-0.615-0.785-1.342-1.023-2.182c-0.239-0.839-0.358-1.743-0.358-2.713c0-1.01,0.119-1.938,0.358-2.785
		c0.238-0.846,0.58-1.576,1.023-2.191C21.464,2.622,22,2.14,22.628,1.792s1.332-0.521,2.109-0.521c0.71,0,1.358,0.14,1.946,0.419
		c0.586,0.28,1.095,0.669,1.525,1.167c0.43,0.499,0.781,1.1,1.055,1.803c0.272,0.703,0.457,1.478,0.553,2.324h2.683V0.472
		c0-0.15,0.023-0.253,0.071-0.308c0.048-0.054,0.146-0.082,0.297-0.082h2.068c0.15,0,0.253,0.028,0.308,0.082
		c0.055,0.055,0.082,0.157,0.082,0.308v18.859c0,0.164-0.027,0.27-0.082,0.318c-0.055,0.047-0.157,0.071-0.308,0.071h-2.068
		c-0.15,0-0.249-0.024-0.297-0.071c-0.048-0.049-0.071-0.154-0.071-0.318V9.317h-2.662c-0.082,0.86-0.26,1.643-0.532,2.346
		c-0.273,0.703-0.629,1.311-1.065,1.822s-0.952,0.908-1.546,1.188S25.447,15.093,24.737,15.093z M24.737,3.706
		c-0.341,0-0.651,0.113-0.932,0.338c-0.279,0.227-0.521,0.54-0.727,0.943c-0.205,0.402-0.365,0.877-0.481,1.422
		c-0.116,0.547-0.174,1.147-0.174,1.803c0,0.629,0.058,1.212,0.174,1.751c0.116,0.54,0.276,1.011,0.481,1.413
		s0.447,0.717,0.727,0.941c0.28,0.226,0.591,0.338,0.932,0.338c0.355,0,0.68-0.115,0.973-0.348c0.294-0.232,0.546-0.546,0.758-0.941
		c0.212-0.396,0.376-0.867,0.492-1.414c0.115-0.545,0.174-1.126,0.174-1.74c0-0.655-0.059-1.256-0.174-1.803
		c-0.116-0.545-0.28-1.02-0.492-1.422c-0.212-0.403-0.464-0.717-0.758-0.943C25.417,3.819,25.093,3.706,24.737,3.706z"/>
	<path fill="#706F6F" d="M39.359,10.26c-0.273,0.15-0.454,0.229-0.543,0.235c-0.089,0.008-0.181-0.064-0.276-0.215l-0.942-1.27
		c-0.15-0.205-0.212-0.348-0.184-0.43c0.026-0.082,0.136-0.185,0.327-0.308c1.42-0.929,2.488-1.997,3.205-3.205
		s1.075-2.658,1.075-4.352c0-0.231,0.03-0.372,0.092-0.419c0.062-0.049,0.188-0.065,0.379-0.052l1.925,0.081
		c0.15,0.015,0.253,0.045,0.308,0.093c0.054,0.048,0.082,0.147,0.082,0.297c0,0.546-0.034,1.072-0.103,1.577
		S44.54,3.29,44.417,3.769c0.205,0.45,0.468,0.884,0.789,1.3c0.32,0.417,0.665,0.799,1.034,1.147
		c0.368,0.348,0.743,0.665,1.126,0.951c0.382,0.287,0.737,0.52,1.064,0.697c0.191,0.109,0.283,0.215,0.276,0.316
		c-0.007,0.104-0.064,0.236-0.174,0.4L47.775,9.81c-0.109,0.164-0.204,0.252-0.286,0.266s-0.219-0.033-0.41-0.143
		c-0.286-0.137-0.601-0.321-0.941-0.553c-0.342-0.232-0.687-0.495-1.034-0.789c-0.349-0.293-0.683-0.614-1.004-0.963
		c-0.32-0.348-0.611-0.713-0.87-1.096c-0.464,0.766-1.021,1.458-1.669,2.079C40.912,9.233,40.178,9.782,39.359,10.26z M53.51,19.823
		H42.492c-0.301,0-0.543-0.023-0.727-0.072c-0.185-0.047-0.328-0.123-0.431-0.225c-0.103-0.103-0.171-0.239-0.204-0.41
		c-0.034-0.17-0.052-0.379-0.052-0.624v-2.744c0-0.259,0.018-0.472,0.052-0.635c0.033-0.164,0.102-0.297,0.204-0.399
		s0.242-0.174,0.42-0.215s0.416-0.062,0.717-0.062h7.925c0.137,0,0.205-0.075,0.205-0.226v-0.553c0-0.164-0.075-0.246-0.226-0.246
		h-8.928c-0.15,0-0.257-0.027-0.317-0.082c-0.062-0.054-0.093-0.164-0.093-0.327v-1.413c0-0.26,0.137-0.389,0.41-0.389h10.464
		c0.314,0,0.566,0.023,0.758,0.071s0.341,0.123,0.45,0.226c0.109,0.102,0.181,0.235,0.216,0.398
		c0.033,0.164,0.051,0.369,0.051,0.615v2.723c0,0.273-0.018,0.496-0.051,0.666c-0.035,0.171-0.103,0.305-0.205,0.399
		c-0.103,0.096-0.246,0.161-0.431,0.194c-0.184,0.034-0.433,0.052-0.747,0.052H44.11c-0.15,0-0.226,0.067-0.226,0.204v0.635
		c0,0.15,0.082,0.226,0.246,0.226h9.358c0.149,0,0.256,0.021,0.317,0.062s0.092,0.15,0.092,0.328v1.412
		C53.898,19.687,53.769,19.823,53.51,19.823z M47.387,5.55c-0.123,0-0.219-0.027-0.287-0.082s-0.103-0.156-0.103-0.307V3.646
		c0-0.191,0.038-0.304,0.113-0.338c0.074-0.034,0.167-0.051,0.276-0.051h3.215V0.472c0-0.178,0.041-0.287,0.123-0.328
		s0.185-0.062,0.307-0.062h2.027c0.178,0,0.283,0.038,0.317,0.112c0.034,0.076,0.052,0.168,0.052,0.277V9.81
		c0,0.26-0.13,0.389-0.39,0.389h-2.047c-0.26,0-0.39-0.123-0.39-0.369V5.55H47.387z"/>
	<path fill="#706F6F" d="M57.256,11.878c-0.232,0.109-0.393,0.143-0.481,0.102s-0.167-0.123-0.235-0.245l-0.859-1.413
		c-0.15-0.219-0.062-0.41,0.266-0.573c0.669-0.368,1.317-0.788,1.945-1.26c0.628-0.471,1.205-0.955,1.73-1.454
		c0.525-0.498,0.983-0.996,1.372-1.494c0.39-0.498,0.687-0.959,0.891-1.383c0.109-0.232,0.157-0.396,0.144-0.491
		s-0.13-0.144-0.348-0.144h-4.506c-0.191,0-0.304-0.037-0.338-0.113c-0.034-0.074-0.051-0.18-0.051-0.316V1.598
		c0-0.286,0.136-0.431,0.409-0.431h6.737c0.819,0,1.317,0.199,1.495,0.594c0.178,0.396,0.15,0.942-0.082,1.639
		c-0.368,1.052-0.915,2.082-1.638,3.092c0.532,0.52,1.112,0.983,1.74,1.393c0.628,0.41,1.181,0.752,1.659,1.024
		c0.204,0.123,0.245,0.286,0.122,0.491l-0.941,1.516c-0.068,0.109-0.141,0.171-0.215,0.185c-0.075,0.014-0.188-0.014-0.338-0.082
		c-0.205-0.109-0.451-0.253-0.737-0.431c-0.287-0.177-0.594-0.385-0.922-0.624c-0.327-0.239-0.659-0.495-0.993-0.769
		c-0.335-0.272-0.652-0.553-0.952-0.839c-0.683,0.683-1.431,1.321-2.242,1.915C59.075,10.864,58.198,11.399,57.256,11.878z
		 M65.509,19.885c-0.888,0-1.707-0.099-2.457-0.297c-0.751-0.198-1.403-0.475-1.956-0.829c-0.553-0.355-0.986-0.779-1.301-1.27
		c-0.313-0.492-0.471-1.031-0.471-1.618c0-0.546,0.157-1.062,0.471-1.546c0.314-0.484,0.748-0.904,1.301-1.26
		s1.205-0.635,1.956-0.84c0.75-0.205,1.569-0.307,2.457-0.307c0.847,0,1.648,0.099,2.406,0.297c0.758,0.197,1.423,0.471,1.996,0.818
		c0.574,0.349,1.031,0.766,1.372,1.25c0.342,0.484,0.513,1.014,0.513,1.587c0,0.587-0.171,1.126-0.513,1.618
		c-0.341,0.49-0.798,0.914-1.372,1.27c-0.573,0.354-1.238,0.631-1.996,0.829S66.355,19.885,65.509,19.885z M65.509,14.151
		c-1.023,0-1.826,0.177-2.406,0.531c-0.58,0.355-0.87,0.771-0.87,1.25c0,0.464,0.29,0.863,0.87,1.197
		c0.58,0.335,1.383,0.502,2.406,0.502c0.478,0,0.922-0.045,1.331-0.133c0.409-0.089,0.765-0.212,1.064-0.369
		c0.301-0.156,0.536-0.338,0.707-0.543c0.171-0.204,0.256-0.422,0.256-0.654s-0.085-0.457-0.256-0.676s-0.406-0.41-0.707-0.574
		c-0.3-0.163-0.655-0.293-1.064-0.389S65.986,14.151,65.509,14.151z M66.123,7.045c-0.273,0-0.409-0.137-0.409-0.409V5.12
		c0-0.191,0.037-0.305,0.112-0.338C65.901,4.748,66,4.73,66.123,4.73h2.703V0.472c0-0.178,0.041-0.287,0.123-0.328
		s0.185-0.062,0.307-0.062h2.027c0.178,0,0.283,0.038,0.317,0.112c0.034,0.076,0.052,0.168,0.052,0.277v10.607
		c0,0.26-0.13,0.389-0.39,0.389h-2.047c-0.26,0-0.39-0.123-0.39-0.368V7.045H66.123z"/>
</g>
</svg>
