<?xml version="1.0" encoding="utf-8"?>
<!-- Generator: Adobe Illustrator 16.0.0, SVG Export Plug-In . SVG Version: 6.00 Build 0)  -->
<!DOCTYPE svg PUBLIC "-//W3C//DTD SVG 1.1//EN" "http://www.w3.org/Graphics/SVG/1.1/DTD/svg11.dtd">
<svg version="1.1" id="레이어_1" xmlns="http://www.w3.org/2000/svg" xmlns:xlink="http://www.w3.org/1999/xlink" x="0px"
	 y="0px" width="100.547px" height="20.949px" viewBox="0 0 100.547 20.949" enable-background="new 0 0 100.547 20.949"
	 xml:space="preserve">
<g>
	<path fill="#706F6F" d="M2.724,11.591c-0.15,0.055-0.276,0.093-0.379,0.112c-0.103,0.021-0.188-0.044-0.256-0.194L1.352,9.912
		C1.283,9.775,1.26,9.673,1.28,9.604S1.406,9.469,1.598,9.4c1.774-0.766,3.188-1.604,4.238-2.52
		c1.052-0.914,1.755-1.959,2.109-3.133C8,3.598,8.014,3.484,7.986,3.41c-0.027-0.075-0.15-0.113-0.368-0.113H2.437
		c-0.177,0-0.286-0.041-0.327-0.123S2.048,2.99,2.048,2.867V1.393c0-0.15,0.027-0.256,0.082-0.317s0.164-0.092,0.327-0.092h7.024
		c0.628,0,1.055,0.105,1.28,0.317C10.986,1.512,11.1,1.877,11.1,2.396c0,0.832-0.191,1.686-0.574,2.56
		c-0.382,0.874-0.932,1.72-1.648,2.539S7.283,9.079,6.246,9.789C5.208,10.499,4.034,11.1,2.724,11.591z M15.42,19.414H6.185
		c-0.342,0-0.614-0.021-0.819-0.063S5,19.232,4.884,19.117C4.768,19,4.689,18.848,4.648,18.656s-0.062-0.438-0.062-0.738v-4.422
		c0-0.602,0.103-1.004,0.308-1.209c0.204-0.205,0.594-0.307,1.167-0.307h9.256c0.342,0,0.618,0.023,0.83,0.071
		c0.211,0.048,0.375,0.13,0.491,0.245c0.116,0.117,0.194,0.273,0.235,0.472s0.062,0.447,0.062,0.747v4.424
		c0,0.3-0.024,0.545-0.071,0.736c-0.049,0.191-0.13,0.342-0.246,0.451s-0.273,0.184-0.471,0.225
		C15.949,19.393,15.707,19.414,15.42,19.414z M14.089,14.539c0-0.163-0.082-0.245-0.245-0.245H7.68
		c-0.178,0-0.267,0.089-0.267,0.267v2.293c0,0.164,0.089,0.246,0.267,0.246h6.144c0.108,0,0.181-0.01,0.215-0.031
		c0.033-0.02,0.051-0.099,0.051-0.234V14.539z M11.141,7.332c-0.26,0-0.39-0.137-0.39-0.41V5.406c0-0.178,0.037-0.287,0.112-0.328
		c0.075-0.04,0.167-0.061,0.277-0.061h3.01V0.471c0-0.177,0.041-0.286,0.123-0.327s0.185-0.062,0.307-0.062h2.027
		c0.178,0,0.283,0.037,0.317,0.113c0.034,0.074,0.052,0.167,0.052,0.275v10.014c0,0.26-0.13,0.39-0.39,0.39H14.54
		c-0.26,0-0.39-0.122-0.39-0.368V7.332H11.141z"/>
	<path fill="#706F6F" d="M20.458,11.201c-0.191,0.123-0.321,0.164-0.39,0.123s-0.15-0.115-0.245-0.225L18.84,9.932
		c-0.109-0.136-0.191-0.256-0.246-0.357c-0.055-0.104,0.014-0.229,0.205-0.379c0.737-0.533,1.354-1.109,1.854-1.73
		c0.498-0.621,0.901-1.27,1.208-1.945c0.308-0.676,0.529-1.375,0.666-2.1c0.136-0.723,0.204-1.453,0.204-2.191
		c0-0.19,0.027-0.313,0.082-0.368s0.178-0.075,0.369-0.062l1.904,0.103c0.15,0.014,0.256,0.048,0.317,0.103s0.092,0.156,0.092,0.307
		c0,0.588-0.034,1.15-0.103,1.689s-0.163,1.063-0.286,1.566c0.368,0.86,0.832,1.588,1.393,2.182c0.56,0.594,1.16,1.123,1.802,1.587
		c0.15,0.109,0.222,0.204,0.215,0.286s-0.051,0.178-0.133,0.287l-0.922,1.393c-0.109,0.15-0.215,0.225-0.317,0.225
		s-0.229-0.047-0.379-0.143c-0.204-0.123-0.43-0.279-0.676-0.471c-0.245-0.191-0.498-0.41-0.757-0.656
		c-0.26-0.245-0.516-0.512-0.769-0.799c-0.253-0.286-0.475-0.58-0.665-0.88C23.038,9.079,21.892,10.287,20.458,11.201z
		 M35.652,19.68h-2.027c-0.286,0-0.43-0.137-0.43-0.41v-4.259c0-0.204-0.103-0.308-0.308-0.308h-9.829
		c-0.109,0-0.202-0.02-0.276-0.061c-0.075-0.041-0.113-0.137-0.113-0.287v-1.598c0-0.191,0.038-0.303,0.113-0.338
		c0.074-0.033,0.167-0.051,0.276-0.051h11.529c0.3,0,0.546,0.023,0.737,0.072c0.19,0.047,0.338,0.133,0.44,0.256
		c0.102,0.123,0.174,0.283,0.215,0.48c0.041,0.198,0.062,0.44,0.062,0.727v5.365C36.042,19.543,35.912,19.68,35.652,19.68z
		 M35.673,11.365h-2.027c-0.15,0-0.253-0.027-0.307-0.082c-0.055-0.054-0.082-0.156-0.082-0.307v-3.85h-1.475v3.706
		c0,0.164-0.024,0.271-0.071,0.317c-0.049,0.049-0.147,0.072-0.297,0.072h-1.946c-0.15,0-0.256-0.023-0.317-0.072
		c-0.062-0.047-0.092-0.153-0.092-0.317V0.799c0-0.15,0.03-0.252,0.092-0.307s0.167-0.082,0.317-0.082h1.946
		c0.245,0,0.368,0.129,0.368,0.389v4.014h1.475V0.471c0-0.149,0.03-0.252,0.092-0.307s0.167-0.082,0.317-0.082h2.007
		c0.15,0,0.253,0.027,0.308,0.082c0.054,0.055,0.082,0.157,0.082,0.307v10.506c0,0.15-0.028,0.253-0.082,0.307
		C35.926,11.338,35.823,11.365,35.673,11.365z"/>
	<path fill="#706F6F" d="M59.551,12.615h-7.372v6.553c0,0.273-0.137,0.41-0.41,0.41h-2.027c-0.272,0-0.409-0.137-0.409-0.41v-6.553
		H41.96c-0.178,0-0.29-0.041-0.338-0.123s-0.072-0.197-0.072-0.348V10.73c0-0.15,0.024-0.262,0.072-0.338
		c0.048-0.074,0.16-0.112,0.338-0.112h17.591c0.286,0,0.43,0.15,0.43,0.45v1.414C59.98,12.458,59.837,12.615,59.551,12.615z
		 M44.253,9.031c-0.191,0.055-0.32,0.062-0.389,0.021c-0.041-0.027-0.079-0.071-0.112-0.134c-0.034-0.061-0.065-0.112-0.093-0.152
		L42.901,7.27c-0.109-0.231-0.021-0.396,0.267-0.491c1.979-0.655,3.471-1.522,4.475-2.601C48.646,3.1,49.229,1.85,49.394,0.43
		c0.027-0.19,0.064-0.307,0.112-0.348s0.167-0.055,0.358-0.041l1.863,0.082c0.314,0.014,0.464,0.157,0.451,0.43
		c-0.014,0.178-0.027,0.349-0.041,0.512c-0.014,0.164-0.034,0.328-0.062,0.492c0.231,0.52,0.563,1.021,0.993,1.505
		c0.43,0.485,0.925,0.936,1.484,1.352c0.56,0.417,1.171,0.785,1.833,1.106c0.662,0.32,1.342,0.583,2.037,0.788
		c0.191,0.055,0.29,0.13,0.298,0.226c0.006,0.096-0.024,0.225-0.093,0.389l-0.676,1.434c-0.027,0.027-0.051,0.068-0.071,0.123
		s-0.045,0.096-0.072,0.123c-0.027,0.014-0.064,0.023-0.112,0.03s-0.119-0.003-0.215-0.03c-0.573-0.109-1.171-0.294-1.792-0.553
		c-0.621-0.26-1.226-0.574-1.813-0.943c-0.587-0.368-1.137-0.777-1.648-1.229c-0.512-0.45-0.952-0.921-1.32-1.412
		c-0.71,1.092-1.646,2.02-2.806,2.785C46.942,8.014,45.659,8.607,44.253,9.031z"/>
	<path fill="#706F6F" d="M69.052,5.488h-8.376c-0.301,0-0.45-0.143-0.45-0.43V3.768c0-0.286,0.149-0.43,0.45-0.43h8.376
		c0.286,0,0.43,0.144,0.43,0.43v1.311C69.481,5.352,69.338,5.488,69.052,5.488z M65.059,12.451c-0.614,0-1.171-0.089-1.669-0.267
		c-0.499-0.177-0.922-0.413-1.271-0.706c-0.348-0.293-0.617-0.635-0.809-1.023c-0.191-0.39-0.286-0.796-0.286-1.219
		c0-0.424,0.095-0.826,0.286-1.209c0.191-0.382,0.464-0.72,0.819-1.014c0.354-0.293,0.781-0.529,1.28-0.706
		c0.498-0.177,1.054-0.267,1.669-0.267c0.614,0,1.174,0.086,1.679,0.256c0.505,0.172,0.936,0.4,1.29,0.687
		c0.355,0.286,0.628,0.621,0.819,1.003c0.191,0.383,0.287,0.785,0.287,1.209c0,0.437-0.096,0.85-0.287,1.238
		s-0.464,0.734-0.819,1.035c-0.354,0.3-0.785,0.539-1.29,0.716C66.253,12.362,65.686,12.451,65.059,12.451z M67.372,2.643h-4.628
		c-0.123,0-0.229-0.024-0.317-0.072s-0.133-0.167-0.133-0.358V0.901c0-0.177,0.044-0.294,0.133-0.349s0.194-0.082,0.317-0.082h4.628
		c0.287,0,0.431,0.15,0.431,0.451v1.27C67.803,2.492,67.659,2.643,67.372,2.643z M65.079,8.13c-0.492,0-0.847,0.123-1.065,0.368
		c-0.219,0.246-0.327,0.492-0.327,0.738c0,0.26,0.108,0.512,0.327,0.758c0.219,0.245,0.573,0.368,1.065,0.368
		c0.491,0,0.85-0.123,1.075-0.368c0.225-0.246,0.338-0.498,0.338-0.758s-0.113-0.509-0.338-0.748
		C65.929,8.25,65.57,8.13,65.079,8.13z M70.607,19.823c-1.051,0-1.993-0.085-2.825-0.256c-0.833-0.171-1.54-0.417-2.12-0.737
		c-0.58-0.321-1.027-0.703-1.341-1.146c-0.314-0.444-0.472-0.945-0.472-1.506c0-0.532,0.157-1.02,0.472-1.464
		c0.313-0.443,0.761-0.822,1.341-1.137c0.58-0.313,1.287-0.56,2.12-0.737c0.832-0.178,1.774-0.266,2.825-0.266
		c0.983,0,1.888,0.085,2.714,0.256c0.826,0.17,1.539,0.412,2.14,0.727s1.072,0.693,1.413,1.137s0.512,0.939,0.512,1.484
		c0,0.561-0.171,1.062-0.512,1.506c-0.341,0.443-0.813,0.825-1.413,1.146c-0.601,0.32-1.313,0.566-2.14,0.737
		S71.591,19.823,70.607,19.823z M70.607,14.766c-1.242,0-2.184,0.143-2.825,0.43c-0.643,0.287-0.963,0.635-0.963,1.044
		c0,0.396,0.324,0.728,0.973,0.993c0.648,0.267,1.587,0.399,2.815,0.399c0.505,0,0.99-0.021,1.454-0.062s0.87-0.112,1.219-0.215
		c0.348-0.103,0.625-0.246,0.829-0.43c0.205-0.185,0.308-0.414,0.308-0.687c0-0.409-0.345-0.757-1.034-1.044
		S71.768,14.766,70.607,14.766z M76.833,12.226h-2.027c-0.26,0-0.389-0.136-0.389-0.409V7.68h-1.434v3.543
		c0,0.164-0.024,0.27-0.071,0.316c-0.049,0.049-0.147,0.072-0.298,0.072h-1.945c-0.15,0-0.256-0.018-0.317-0.051
		c-0.062-0.034-0.092-0.146-0.092-0.338V0.799c0-0.15,0.03-0.249,0.092-0.297s0.167-0.072,0.317-0.072h1.945
		c0.246,0,0.369,0.123,0.369,0.369v4.587h1.434V0.471c0-0.149,0.03-0.252,0.092-0.307s0.167-0.082,0.317-0.082h2.007
		c0.15,0,0.253,0.027,0.308,0.082c0.054,0.055,0.082,0.157,0.082,0.307v11.346c0,0.15-0.028,0.256-0.082,0.317
		C77.086,12.195,76.983,12.226,76.833,12.226z"/>
	<path fill="#706F6F" d="M90.779,6.778c-1.502,0.082-2.949,0.123-4.342,0.123V8.13c0,0.15,0.023,0.246,0.071,0.287
		c0.048,0.04,0.154,0.068,0.317,0.081c0.765,0.028,1.557,0.008,2.376-0.061s1.59-0.178,2.313-0.328
		c0.178-0.027,0.297-0.03,0.358-0.01c0.062,0.02,0.106,0.105,0.134,0.256l0.245,1.352c0.027,0.15,0.018,0.256-0.03,0.317
		s-0.147,0.106-0.297,0.133c-0.479,0.123-1.004,0.222-1.577,0.298c-0.573,0.074-1.153,0.136-1.74,0.184
		c-0.588,0.048-1.164,0.078-1.73,0.092c-0.567,0.014-1.082,0.008-1.546-0.02c-0.574-0.027-1.001-0.164-1.28-0.41
		c-0.28-0.246-0.42-0.648-0.42-1.208V2.15c0-0.273,0.021-0.494,0.062-0.666c0.041-0.17,0.112-0.303,0.215-0.398
		s0.246-0.16,0.431-0.195c0.184-0.033,0.419-0.051,0.706-0.051h5.734c0.272,0,0.409,0.116,0.409,0.348v1.598
		c0,0.232-0.137,0.348-0.409,0.348h-4.056c-0.136,0-0.218,0.038-0.245,0.113s-0.041,0.153-0.041,0.235v1.208
		c0.724,0,1.434-0.003,2.13-0.01s1.393-0.031,2.089-0.072c0.108-0.014,0.211-0.003,0.307,0.031s0.144,0.119,0.144,0.256l0.041,1.434
		c0,0.15-0.024,0.26-0.071,0.328C91.027,6.725,90.929,6.766,90.779,6.778z M98.581,19.373H88.506c-0.328,0-0.594-0.021-0.799-0.063
		s-0.365-0.111-0.481-0.215c-0.116-0.102-0.198-0.248-0.245-0.439c-0.049-0.191-0.072-0.444-0.072-0.758v-5.652
		c0-0.246,0.13-0.369,0.39-0.369h2.027c0.149,0,0.259,0.024,0.327,0.072s0.103,0.146,0.103,0.297v1.29h7.557v-1.372
		c0-0.259,0.13-0.389,0.389-0.389h2.089c0.123,0,0.215,0.027,0.276,0.082s0.093,0.156,0.093,0.307v5.795
		c0,0.533-0.1,0.902-0.297,1.106C99.663,19.27,99.236,19.373,98.581,19.373z M97.312,15.789h-7.557v1.086
		c0,0.122,0.068,0.184,0.205,0.184h7.146c0.137,0,0.205-0.062,0.205-0.184V15.789z M99.769,10.711h-2.027
		c-0.15,0-0.253-0.027-0.307-0.082c-0.055-0.055-0.082-0.157-0.082-0.308V6.922h-1.475v3.154c0,0.163-0.024,0.266-0.071,0.307
		c-0.049,0.041-0.147,0.062-0.297,0.062h-1.946c-0.15,0-0.256-0.014-0.317-0.041s-0.092-0.136-0.092-0.327V0.819
		c0-0.164,0.03-0.272,0.092-0.327s0.167-0.082,0.317-0.082h1.946c0.245,0,0.368,0.137,0.368,0.409v3.81h1.475V0.471
		c0-0.259,0.136-0.389,0.409-0.389h2.007c0.15,0,0.253,0.027,0.308,0.082c0.054,0.055,0.082,0.157,0.082,0.307v9.851
		c0,0.15-0.028,0.253-0.082,0.308C100.021,10.684,99.919,10.711,99.769,10.711z"/>
</g>
</svg>
