<?xml version="1.0" encoding="utf-8"?>
<!-- Generator: Adobe Illustrator 16.0.0, SVG Export Plug-In . SVG Version: 6.00 Build 0)  -->
<!DOCTYPE svg PUBLIC "-//W3C//DTD SVG 1.1//EN" "http://www.w3.org/Graphics/SVG/1.1/DTD/svg11.dtd">
<svg version="1.1" id="레이어_1" xmlns="http://www.w3.org/2000/svg" xmlns:xlink="http://www.w3.org/1999/xlink" x="0px"
	 y="0px" width="68.316px" height="42.146px" viewBox="0 0 68.316 42.146" enable-background="new 0 0 68.316 42.146"
	 xml:space="preserve">
<g>
	<g>
		<path fill="none" stroke="#4285F4" stroke-width="0.5" stroke-miterlimit="10" stroke-dasharray="1.9837,1.9837" d="M0.25,36.896
			c0,2.75,2.25,5,5,5h57.816c2.75,0,5-2.25,5-5V5.25c0-2.75-2.25-5-5-5H5.25c-2.75,0-5,2.25-5,5V36.896z"/>
	</g>
	<g>
		<g>
			<path fill="#4285F4" d="M21.083,24.524c-0.086,0.057-0.178,0.079-0.275,0.068c-0.098-0.012-0.173-0.063-0.227-0.154l-0.633-0.885
				c-0.075-0.102-0.089-0.199-0.04-0.289c0.048-0.092,0.105-0.159,0.17-0.205c0.681-0.442,1.329-0.953,1.945-1.531
				c0.616-0.58,1.173-1.187,1.67-1.822c0.497-0.635,0.919-1.285,1.265-1.949s0.595-1.303,0.746-1.915
				c0.043-0.192,0.049-0.317,0.017-0.374c-0.033-0.057-0.141-0.086-0.324-0.086h-4.184c-0.064,0-0.119-0.025-0.162-0.076
				s-0.064-0.111-0.064-0.18v-1.141c0-0.067,0.024-0.124,0.072-0.17c0.049-0.045,0.105-0.068,0.171-0.068h5.285
				c0.422,0,0.751,0.086,0.989,0.256c0.237,0.17,0.356,0.392,0.356,0.664c0,0.147-0.011,0.298-0.032,0.451s-0.049,0.293-0.081,0.417
				c-0.151,0.612-0.359,1.229-0.624,1.847c-0.266,0.619-0.587,1.246-0.965,1.882c0.205,0.295,0.445,0.606,0.722,0.937
				c0.275,0.329,0.56,0.649,0.851,0.961c0.292,0.313,0.581,0.602,0.868,0.869c0.286,0.267,0.548,0.484,0.786,0.655
				c0.075,0.067,0.127,0.145,0.154,0.229c0.026,0.086,0.008,0.174-0.058,0.264l-0.696,0.834c-0.141,0.171-0.319,0.182-0.535,0.035
				c-0.206-0.137-0.443-0.33-0.714-0.58c-0.271-0.249-0.549-0.527-0.835-0.834s-0.567-0.623-0.843-0.953
				c-0.275-0.328-0.521-0.646-0.738-0.953c-0.54,0.715-1.148,1.391-1.823,2.025C22.621,23.39,21.882,23.979,21.083,24.524z
				 M32.805,28.627h-1.443c-0.141,0-0.21-0.074-0.21-0.222v-8.836H28.25c-0.055,0-0.104-0.02-0.146-0.059
				c-0.043-0.04-0.064-0.088-0.064-0.145V18.14c0-0.057,0.021-0.104,0.064-0.145c0.043-0.039,0.092-0.06,0.146-0.06h2.902v-5.243
				c0-0.147,0.069-0.222,0.21-0.222h1.443c0.141,0,0.211,0.074,0.211,0.222v15.713C33.016,28.553,32.946,28.627,32.805,28.627z"/>
			<path fill="#4285F4" d="M35.804,21.63c-0.075,0.034-0.165,0.051-0.268,0.051s-0.187-0.063-0.251-0.188l-0.503-0.851
				c-0.054-0.091-0.067-0.188-0.04-0.29c0.026-0.102,0.094-0.181,0.202-0.238c1.2-0.578,2.246-1.285,3.138-2.119
				s1.554-1.723,1.986-2.664c0.054-0.102,0.075-0.193,0.064-0.272s-0.103-0.119-0.275-0.119h-4.07c-0.075,0-0.132-0.028-0.17-0.085
				s-0.057-0.119-0.057-0.188v-1.123c0-0.159,0.081-0.238,0.243-0.238h5.205c0.475,0,0.829,0.09,1.062,0.271s0.321,0.46,0.268,0.834
				c-0.021,0.125-0.049,0.256-0.081,0.393c-0.032,0.136-0.07,0.255-0.113,0.357c-0.13,0.363-0.3,0.729-0.511,1.098
				s-0.446,0.734-0.705,1.098c0.194,0.205,0.41,0.409,0.648,0.613c0.237,0.204,0.48,0.397,0.729,0.578
				c0.248,0.182,0.494,0.35,0.737,0.503s0.473,0.286,0.689,0.399c0.118,0.058,0.194,0.117,0.227,0.18s0.011,0.15-0.064,0.264
				l-0.535,0.953c-0.119,0.205-0.281,0.244-0.486,0.119c-0.194-0.091-0.419-0.219-0.673-0.383s-0.517-0.352-0.786-0.563
				c-0.271-0.209-0.541-0.431-0.812-0.664c-0.27-0.232-0.519-0.467-0.745-0.705c-0.573,0.59-1.206,1.141-1.897,1.65
				C37.269,20.813,36.55,21.255,35.804,21.63z M46.83,25.392c0,0.478-0.124,0.917-0.373,1.32c-0.249,0.402-0.589,0.748-1.021,1.038
				s-0.948,0.514-1.548,0.673c-0.601,0.158-1.246,0.238-1.938,0.238c-0.746,0-1.417-0.08-2.011-0.238
				c-0.595-0.159-1.101-0.383-1.517-0.673s-0.737-0.633-0.964-1.03c-0.228-0.396-0.341-0.84-0.341-1.328
				c0-0.477,0.113-0.912,0.341-1.311c0.227-0.396,0.548-0.74,0.964-1.029s0.922-0.514,1.517-0.673
				c0.594-0.159,1.265-0.238,2.011-0.238c0.691,0,1.337,0.079,1.938,0.238c0.6,0.159,1.115,0.38,1.548,0.664
				s0.772,0.624,1.021,1.021S46.83,24.904,46.83,25.392z M44.917,25.443c0-0.284-0.081-0.533-0.243-0.749
				c-0.162-0.215-0.379-0.397-0.648-0.545c-0.271-0.147-0.584-0.261-0.94-0.34c-0.357-0.08-0.735-0.119-1.135-0.119
				c-0.865,0-1.565,0.15-2.101,0.451c-0.534,0.301-0.802,0.734-0.802,1.302c0,0.272,0.072,0.511,0.219,0.715
				c0.146,0.204,0.346,0.378,0.6,0.52s0.56,0.249,0.916,0.323s0.746,0.111,1.168,0.111c0.399,0,0.777-0.037,1.135-0.111
				c0.356-0.074,0.67-0.182,0.94-0.323c0.27-0.142,0.486-0.315,0.648-0.52S44.917,25.716,44.917,25.443z M49.027,18.14
				c-0.049,0.046-0.105,0.068-0.171,0.068h-2.188v3.473c0,0.057-0.021,0.111-0.065,0.162c-0.043,0.051-0.092,0.076-0.146,0.076
				h-1.443c-0.054,0-0.103-0.025-0.146-0.076s-0.064-0.111-0.064-0.179v-8.972c0-0.147,0.069-0.222,0.21-0.222h1.443
				c0.141,0,0.211,0.074,0.211,0.222v3.881h2.188c0.065,0,0.122,0.023,0.171,0.068c0.048,0.046,0.072,0.097,0.072,0.153v1.192
				C49.099,18.044,49.075,18.095,49.027,18.14z"/>
		</g>
	</g>
</g>
</svg>
