<?xml version="1.0" encoding="utf-8"?>
<!-- Generator: Adobe Illustrator 16.0.0, SVG Export Plug-In . SVG Version: 6.00 Build 0)  -->
<!DOCTYPE svg PUBLIC "-//W3C//DTD SVG 1.1//EN" "http://www.w3.org/Graphics/SVG/1.1/DTD/svg11.dtd">
<svg version="1.1" xmlns="http://www.w3.org/2000/svg" xmlns:xlink="http://www.w3.org/1999/xlink" x="0px" y="0px"
	 width="146.198px" height="106.203px" viewBox="0 0 146.198 106.203" enable-background="new 0 0 146.198 106.203"
	 xml:space="preserve">
<g id="Layer_1">
	<g>
		
			<rect x="0.125" y="0.125" fill="#EDEDED" stroke="#D4D4D4" stroke-width="0.25" stroke-miterlimit="10" width="145.948" height="105.953"/>
		<g>
			<path fill="#6F6F6F" d="M54.544,71.436v17.804h-3.056v-7.602h-3.156v7.602h-3.031V71.436h3.031v7.425h3.156v-7.425H54.544z"/>
			<path fill="#6F6F6F" d="M56.037,74.163v-2.979h2.98v2.979H56.037z M56.037,89.239V75.198h2.955v14.041H56.037z"/>
			<path fill="#6F6F6F" d="M60.432,86.613h3.031c0.883,0,1.439-0.329,1.439-1.137c0-0.833-0.279-1.162-1.34-1.742l-0.656-0.379
				c-1.641-0.909-2.701-2.021-2.701-4.066c0-2.398,1.389-3.863,4.293-3.863h2.475v2.601h-2.475c-0.885,0-1.414,0.404-1.414,1.213
				c0,0.682,0.252,1.263,1.439,1.944l0.504,0.277c2.021,1.188,2.729,2.046,2.729,3.99c0,2.576-1.465,3.788-3.939,3.788h-3.385
				V86.613z"/>
			<path fill="#6F6F6F" d="M68.262,75.628h1.465v-4.142h2.955v4.142h1.768v2.575h-1.768v6.44c0,1.464,0.58,1.868,1.643,1.868h0.605
				v2.728h-0.834c-3.055,0-4.369-1.263-4.369-4.369v-6.667h-1.465V75.628z"/>
			<path fill="#6F6F6F" d="M75.715,79.542c0-2.828,1.717-4.495,4.469-4.495s4.47,1.667,4.47,4.495v5.656
				c0,2.829-1.718,4.471-4.47,4.471s-4.469-1.642-4.469-4.471V79.542z M78.568,85.274c0,1.212,0.758,1.793,1.615,1.793
				c0.859,0,1.592-0.581,1.592-1.793v-5.809c0-1.237-0.732-1.817-1.592-1.817c-0.857,0-1.615,0.58-1.615,1.817V85.274z"/>
			<path fill="#6F6F6F" d="M91.449,77.875h-1.161c-1.061,0-1.414,0.43-1.414,1.844v9.521h-2.879v-9.697
				c0-3.106,0.959-4.318,4.015-4.318h1.439V77.875z"/>
			<path fill="#6F6F6F" d="M101.3,75.451v14.47c0,2.525-1.666,3.89-3.939,3.89h-3.712v-2.652h3.308c1.061,0,1.465-0.454,1.465-1.465
				v-1.11c-0.505,0.277-1.061,0.429-1.616,0.429c-2.651,0-4.217-1.465-4.217-4.47v-9.091h2.904v9.192
				c0,1.212,0.682,1.691,1.54,1.691s1.363-0.479,1.363-1.691v-9.192H101.3z"/>
		</g>
		<g>
			<defs>
				<circle id="SVGID_1_" cx="73.3" cy="39.677" r="23.999"/>
			</defs>
			<clipPath id="SVGID_2_">
				<use xlink:href="#SVGID_1_"  overflow="visible"/>
			</clipPath>
			<circle clip-path="url(#SVGID_2_)" fill="#B0B0B0" cx="73.3" cy="39.677" r="23.999"/>
			<g clip-path="url(#SVGID_2_)">
				<path fill="#FFFFFF" stroke="#6F6F6F" stroke-width="1.0358" stroke-miterlimit="10" d="M89.692,88.24
					c0,2.329-1.888,4.218-4.218,4.218H37.896c-2.33,0-4.219-1.889-4.219-4.218V36.446c0-2.329,1.889-4.218,4.219-4.218h47.578
					c2.33,0,4.218,1.889,4.218,4.218V88.24z"/>
				
					<path fill="none" stroke="#6F6F6F" stroke-width="0.4143" stroke-linecap="round" stroke-linejoin="round" stroke-miterlimit="10" d="
					M87.676,86.373c0,2.162-1.753,3.915-3.914,3.915h-44.15c-2.162,0-3.915-1.752-3.915-3.915V38.313
					c0-2.162,1.753-3.915,3.915-3.915h44.15c2.161,0,3.914,1.752,3.914,3.915V86.373z"/>
				<g>
					<path fill="#FFFFFF" d="M68.029,44.67c-0.66,0-1.293-0.181-1.829-0.523c-1.616-1.034-2.091-3.188-1.059-4.802l6.074-9.516
						c0.23-0.354,0.615-0.564,1.031-0.564c0.232,0,0.46,0.066,0.656,0.192c0.274,0.176,0.465,0.447,0.535,0.765
						c0.071,0.319,0.014,0.646-0.163,0.921l-6.073,9.516c-0.149,0.233-0.199,0.51-0.14,0.781s0.221,0.5,0.452,0.648
						c0.154,0.099,0.34,0.151,0.536,0.151c0.368,0,0.711-0.178,0.894-0.464l8.508-13.322c0.978-1.531,0.527-3.572-1.004-4.55
						c-0.5-0.319-1.094-0.487-1.717-0.487c-1.158,0-2.242,0.571-2.828,1.491l-4.409,6.957h-2.93l5.278-8.271
						c1.027-1.608,2.908-2.608,4.909-2.608c1.089,0,2.129,0.298,3.01,0.86c2.665,1.702,3.449,5.256,1.749,7.921l-8.508,13.32
						C70.382,44.063,69.242,44.67,68.029,44.67L68.029,44.67z"/>
					<path fill="#6F6F6F" d="M74.753,21.503c0.951,0,1.903,0.25,2.729,0.779c2.426,1.549,3.139,4.782,1.592,7.207l-8.508,13.32
						c-0.55,0.863-1.542,1.344-2.537,1.344c-0.54,0-1.081-0.142-1.551-0.441c-1.373-0.878-1.779-2.712-0.9-4.087l5.285-8.279
						l0.789-1.238c0.137-0.209,0.363-0.324,0.595-0.324c0.129,0,0.26,0.036,0.378,0.111c0.326,0.209,0.424,0.644,0.215,0.969
						l-0.309,0.482l-5.766,9.035c-0.463,0.722-0.25,1.686,0.471,2.145c0.247,0.158,0.53,0.232,0.814,0.232
						c0.521,0,1.042-0.251,1.33-0.704l8.508-13.321c1.131-1.771,0.611-4.133-1.162-5.265c-0.604-0.386-1.3-0.568-1.995-0.568
						c-1.279,0-2.557,0.618-3.265,1.73l-4.258,6.717H65.51l4.77-7.474C71.251,22.35,73.002,21.503,74.753,21.503 M74.753,20.467
						c-2.177,0-4.226,1.091-5.347,2.847l-4.77,7.474l-1.017,1.593h1.89h1.699h0.569l0.306-0.481l4.258-6.717
						c0.49-0.77,1.406-1.249,2.39-1.249c0.524,0,1.021,0.14,1.438,0.406c1.291,0.824,1.67,2.544,0.847,3.835l-8.508,13.321
						c-0.086,0.135-0.27,0.226-0.457,0.226c-0.067,0-0.167-0.012-0.257-0.069c-0.156-0.1-0.208-0.246-0.225-0.324
						c-0.018-0.078-0.032-0.233,0.068-0.389l5.767-9.037l0.308-0.48c0.251-0.391,0.334-0.857,0.232-1.312
						c-0.101-0.452-0.371-0.838-0.761-1.088c-0.282-0.18-0.604-0.274-0.937-0.274c-0.592,0-1.139,0.297-1.463,0.794l-0.794,1.247
						l-5.285,8.278c-1.186,1.854-0.641,4.33,1.216,5.517c0.621,0.396,1.35,0.604,2.108,0.604c1.388,0,2.695-0.699,3.411-1.824
						l8.507-13.318c1.854-2.907,0.999-6.781-1.907-8.637C77.077,20.793,75.939,20.467,74.753,20.467L74.753,20.467z"/>
				</g>
			</g>
			<g clip-path="url(#SVGID_2_)">
				
					<line fill="none" stroke="#6F6F6F" stroke-width="0.4143" stroke-linecap="round" stroke-linejoin="round" stroke-miterlimit="10" x1="83.1" y1="47.761" x2="42.787" y2="47.761"/>
				
					<line fill="none" stroke="#6F6F6F" stroke-width="0.4143" stroke-linecap="round" stroke-linejoin="round" stroke-miterlimit="10" x1="83.1" y1="51.282" x2="42.787" y2="51.282"/>
				
					<line fill="none" stroke="#6F6F6F" stroke-width="0.4143" stroke-linecap="round" stroke-linejoin="round" stroke-miterlimit="10" x1="83.1" y1="54.802" x2="42.787" y2="54.802"/>
				
					<line fill="none" stroke="#6F6F6F" stroke-width="0.4143" stroke-linecap="round" stroke-linejoin="round" stroke-miterlimit="10" x1="83.1" y1="58.323" x2="42.787" y2="58.323"/>
				
					<line fill="none" stroke="#6F6F6F" stroke-width="0.4143" stroke-linecap="round" stroke-linejoin="round" stroke-miterlimit="10" x1="83.1" y1="61.843" x2="42.787" y2="61.843"/>
				
					<line fill="none" stroke="#6F6F6F" stroke-width="0.4143" stroke-linecap="round" stroke-linejoin="round" stroke-miterlimit="10" x1="83.1" y1="65.364" x2="42.787" y2="65.364"/>
			</g>
		</g>
	</g>
</g>
<g id="Isolation_Mode">
</g>
</svg>
