<?xml version="1.0" encoding="utf-8"?>
<!-- Generator: Adobe Illustrator 16.0.0, SVG Export Plug-In . SVG Version: 6.00 Build 0)  -->
<!DOCTYPE svg PUBLIC "-//W3C//DTD SVG 1.1//EN" "http://www.w3.org/Graphics/SVG/1.1/DTD/svg11.dtd">
<svg version="1.1" xmlns="http://www.w3.org/2000/svg" xmlns:xlink="http://www.w3.org/1999/xlink" x="0px" y="0px"
	 width="146.199px" height="106.203px" viewBox="0 0 146.199 106.203" enable-background="new 0 0 146.199 106.203"
	 xml:space="preserve">
<g id="Layer_1">
	<g>
		
			<rect x="0.125" y="0.125" fill="#C6EAE8" stroke="#D4D4D4" stroke-width="0.25" stroke-miterlimit="10" width="145.949" height="105.953"/>
		<g>
			<path fill="#6F6F6F" d="M49.38,89.239V71.436h3.03v17.804H49.38z"/>
			<path fill="#6F6F6F" d="M65.493,89.239V79.34c0-1.086-0.581-1.616-1.415-1.616c-0.883,0-1.389,0.581-1.389,1.642v9.874h-2.954
				v-9.874c0-1.061-0.505-1.642-1.364-1.642c-0.833,0-1.363,0.53-1.363,1.616v9.899h-2.955v-10c0-2.829,1.516-4.293,4.243-4.192
				c1.465,0.051,2.374,0.809,2.828,1.591c0.479-0.782,1.439-1.54,2.93-1.591c2.728-0.101,4.343,1.363,4.343,4.192v10H65.493z"/>
			<path fill="#6F6F6F" d="M70.674,75.426h3.561c2.576,0,3.662,1.288,3.662,3.813v6.667c0,2.575-1.565,3.712-4.191,3.712
				c-2.627,0-4.143-1.137-4.143-3.712V83.76c0-2.652,1.364-3.562,3.713-3.562h1.742v-1.01c0-0.809-0.328-1.137-1.137-1.137h-3.207
				V75.426z M75.018,85.83v-3.132h-1.439c-0.58,0-1.161,0.228-1.161,1.162v1.844c0,0.959,0.53,1.288,1.288,1.288
				C74.412,86.992,75.018,86.815,75.018,85.83z"/>
			<path fill="#6F6F6F" d="M79.288,79.416c0-2.829,1.642-4.369,4.444-4.369c2.854,0,4.47,1.54,4.47,4.369v10.505
				c0,2.677-1.465,3.89-3.839,3.89h-3.459v-2.652h3.005c1.061,0,1.339-0.379,1.339-1.465v-1.085
				c-0.43,0.378-1.137,0.682-1.945,0.682c-2.5,0-4.015-1.541-4.015-4.369V79.416z M85.248,79.391c0-1.212-0.581-1.718-1.516-1.718
				c-0.909,0-1.49,0.506-1.49,1.718v5.354c0,1.237,0.43,1.919,1.49,1.919c0.884,0,1.465-0.556,1.516-1.515V79.391z"/>
			<path fill="#6F6F6F" d="M97.473,89.239h-3.939c-2.02,0-3.965-0.581-3.965-4.091v-5.707c0-2.854,1.439-4.395,4.269-4.395
				c2.803,0,4.242,1.516,4.242,4.395v1.742c0,3.232-1.616,3.637-3.863,3.637h-1.692v0.378c0,1.39,0.556,1.415,1.439,1.415h3.51
				V89.239z M93.761,82.32c1.011,0,1.364-0.354,1.364-1.439v-1.566c0-1.161-0.354-1.642-1.288-1.642s-1.313,0.48-1.313,1.692v2.955
				H93.761z"/>
		</g>
		<g>
			<defs>
				<circle id="SVGID_9_" cx="73.729" cy="39.677" r="24"/>
			</defs>
			<clipPath id="SVGID_2_">
				<use xlink:href="#SVGID_9_"  overflow="visible"/>
			</clipPath>
			<circle clip-path="url(#SVGID_2_)" fill="#79ADAD" cx="73.729" cy="39.677" r="24"/>
			<g clip-path="url(#SVGID_2_)">
				<g>
					<path fill="#FFFFFF" stroke="#6F6F6F" stroke-width="1.0358" stroke-miterlimit="10" d="M81.137,65.549
						c0,1.788-1.448,3.238-3.236,3.238H41.392c-1.789,0-3.239-1.45-3.239-3.238V25.801c0-1.788,1.45-3.237,3.239-3.237H77.9
						c1.788,0,3.236,1.449,3.236,3.237V65.549z"/>
					
						<path fill="none" stroke="#6F6F6F" stroke-width="0.4143" stroke-linecap="round" stroke-linejoin="round" stroke-miterlimit="10" d="
						M79.319,63.869c0,1.637-1.328,2.965-2.963,2.965H42.933c-1.637,0-2.964-1.328-2.964-2.965V27.481
						c0-1.638,1.327-2.964,2.964-2.964h33.424c1.635,0,2.963,1.327,2.963,2.964V63.869z"/>
				</g>
				<g>
					<defs>
						<path id="SVGID_11_" d="M79.316,63.869c0,1.637-1.328,2.965-2.963,2.965H42.93c-1.637,0-2.964-1.328-2.964-2.965V27.481
							c0-1.638,1.327-2.964,2.964-2.964h33.424c1.635,0,2.963,1.327,2.963,2.964V63.869z"/>
					</defs>
					<clipPath id="SVGID_4_">
						<use xlink:href="#SVGID_11_"  overflow="visible"/>
					</clipPath>
					<g clip-path="url(#SVGID_4_)">
						<g>
							<path fill="#6F6F6F" d="M57.395,41.541c0,2.406-1.949,4.356-4.356,4.356l0,0c-2.405,0-4.356-1.951-4.356-4.356v-2.837
								c0-2.406,1.951-4.356,4.356-4.356l0,0c2.407,0,4.356,1.95,4.356,4.356V41.541z"/>
							<path fill="#6F6F6F" d="M66.108,65.657c0,7.218-5.852,13.069-13.07,13.069l0,0c-7.218,0-13.069-5.851-13.069-13.069v-8.51
								c0-7.219,5.852-13.069,13.069-13.069l0,0c7.219,0,13.07,5.851,13.07,13.069V65.657z"/>
						</g>
						<g>
							<path fill="#6F6F6F" d="M71.378,33.32c0,2.406-1.95,4.356-4.356,4.356l0,0c-2.406,0-4.356-1.95-4.356-4.356v-2.837
								c0-2.406,1.95-4.356,4.356-4.356l0,0c2.406,0,4.356,1.95,4.356,4.356V33.32z"/>
							<path fill="#6F6F6F" d="M81.134,70.5c0,7.218-9.406,0.167-14.112,0.167l0,0c-4.706,0-8.52-5.851-8.52-13.069v-8.51
								c0-7.219,3.813-13.07,8.52-13.07l0,0c4.706,0,12.295,6.252,12.295,13.471L81.134,70.5z"/>
						</g>
					</g>
				</g>
			</g>
			<g clip-path="url(#SVGID_2_)">
				<path fill="#FFFFFF" stroke="#6F6F6F" stroke-width="1.0358" stroke-miterlimit="10" d="M81.714,45.724
					c-2.888,3.334-7.934,3.693-11.269,0.803c-3.335-2.892-3.694-7.938-0.801-11.271c2.891-3.334,7.936-3.693,11.271-0.802
					C84.247,37.345,84.609,42.392,81.714,45.724z"/>
				<circle fill="#6F6F6F" cx="75.681" cy="40.491" r="4.92"/>
				<g>
					<path fill="#FFFFFF" stroke="#6F6F6F" stroke-width="1.0358" stroke-miterlimit="10" d="M90.075,52.972
						c-0.887,1.019-2.431,1.129-3.45,0.246l-4.662-4.045c-1.02-0.884-1.13-2.428-0.249-3.448l0,0
						c0.887-1.019,2.431-1.128,3.449-0.245l4.668,4.046C90.849,50.41,90.959,51.951,90.075,52.972L90.075,52.972z"/>
					
						<line fill="none" stroke="#6F6F6F" stroke-width="0.4143" stroke-linecap="round" stroke-linejoin="round" stroke-miterlimit="10" x1="84.962" y1="45.306" x2="81.761" y2="48.996"/>
				</g>
				
					<path fill="none" stroke="#6F6F6F" stroke-width="0.4143" stroke-linecap="round" stroke-linejoin="round" stroke-miterlimit="10" d="
					M70.563,42.353c0.699,1.916,2.45,3.354,4.61,3.557c0.831,0.078,1.636-0.036,2.37-0.304"/>
				<path fill="#FFFFFF" d="M74.19,36.708c1.421-0.532,3.085-0.243,4.249,0.881c0.445,0.434,0.772,0.943,0.976,1.488"/>
			</g>
		</g>
	</g>
</g>
<g id="Isolation_Mode">
</g>
</svg>
