<?xml version="1.0" encoding="utf-8"?>
<!-- Generator: Adobe Illustrator 16.0.0, SVG Export Plug-In . SVG Version: 6.00 Build 0)  -->
<!DOCTYPE svg PUBLIC "-//W3C//DTD SVG 1.1//EN" "http://www.w3.org/Graphics/SVG/1.1/DTD/svg11.dtd">
<svg version="1.1" xmlns="http://www.w3.org/2000/svg" xmlns:xlink="http://www.w3.org/1999/xlink" x="0px" y="0px" width="146.2px"
	 height="106.203px" viewBox="0 0 146.2 106.203" enable-background="new 0 0 146.2 106.203" xml:space="preserve">
<g id="Layer_1">
	<g>
		
			<rect x="0.125" y="0.125" fill="#EDEDED" stroke="#D4D4D4" stroke-width="0.25" stroke-miterlimit="10" width="145.95" height="105.953"/>
		<g>
			<path fill="#6F6F6F" d="M48.204,86.486h2.273c1.465,0,1.895-0.782,1.92-1.944c0.025-1.086-0.203-1.97-1.289-2.651l-0.782-0.479
				c-1.743-1.086-2.879-2.652-2.879-5.48c0-3.131,2.146-4.521,4.874-4.495h2.172v2.753h-2.172c-0.984,0-1.844,0.605-1.844,1.818
				c0,1.363,0.354,2.045,1.844,3.056l0.858,0.58c1.894,1.288,2.349,2.778,2.323,4.748c-0.025,2.955-1.262,4.874-4.849,4.874h-2.45
				V86.486z"/>
			<path fill="#6F6F6F" d="M64.445,89.239h-3.939c-2.021,0-3.965-0.581-3.965-4.091v-5.707c0-2.854,1.439-4.395,4.269-4.395
				c2.803,0,4.242,1.516,4.242,4.395v1.742c0,3.232-1.617,3.637-3.864,3.637h-1.692v0.378c0,1.39,0.557,1.415,1.439,1.415h3.511
				V89.239z M60.733,82.32c1.01,0,1.363-0.354,1.363-1.439v-1.566c0-1.161-0.354-1.642-1.287-1.642c-0.936,0-1.314,0.48-1.314,1.692
				v2.955H60.733z"/>
			<path fill="#6F6F6F" d="M67.075,75.426h3.561c2.575,0,3.661,1.288,3.661,3.813v6.667c0,2.575-1.565,3.712-4.192,3.712
				c-2.626,0-4.141-1.137-4.141-3.712V83.76c0-2.652,1.363-3.562,3.711-3.562h1.743v-1.01c0-0.809-0.328-1.137-1.136-1.137h-3.207
				V75.426z M71.418,85.83v-3.132h-1.439c-0.581,0-1.161,0.228-1.161,1.162v1.844c0,0.959,0.529,1.288,1.287,1.288
				C70.812,86.992,71.418,86.815,71.418,85.83z"/>
			<path fill="#6F6F6F" d="M81.144,77.875h-1.162c-1.061,0-1.414,0.43-1.414,1.844v9.521h-2.879v-9.697
				c0-3.106,0.959-4.318,4.016-4.318h1.439V77.875z"/>
			<path fill="#6F6F6F" d="M88.671,89.239h-2.904c-2.728,0-4.142-1.414-4.142-4.369v-5.051c0-2.954,1.414-4.394,4.142-4.394h2.702
				v2.728h-2.551c-0.858,0-1.339,0.556-1.339,1.818v4.798c0,1.212,0.304,1.742,1.465,1.742h2.627V89.239z"/>
			<path fill="#6F6F6F" d="M92.765,75.729c0.555-0.404,1.262-0.682,2.171-0.682c2.298,0,3.788,1.389,3.788,3.99v10.202h-2.955V79.87
				c0-1.187-0.479-1.944-1.564-1.944c-0.657,0-1.213,0.354-1.439,0.935v10.379H89.81V71.436h2.955V75.729z"/>
		</g>
		<g>
			<circle fill="#B0B0B0" cx="73.1" cy="39.677" r="23.999"/>
			<g>
				<defs>
					<circle id="SVGID_15_" cx="73.1" cy="39.678" r="24"/>
				</defs>
				<clipPath id="SVGID_2_">
					<use xlink:href="#SVGID_15_"  overflow="visible"/>
				</clipPath>
				<g clip-path="url(#SVGID_2_)">
					<path fill="#FFFFFF" stroke="#6F6F6F" stroke-width="1.0358" stroke-miterlimit="10" d="M79.988,46.912
						c-5.611,5.737-14.808,5.84-20.546,0.229c-5.734-5.61-5.838-14.808-0.227-20.545c5.607-5.737,14.808-5.838,20.543-0.229
						C85.495,31.978,85.599,41.176,79.988,46.912z"/>
					<circle fill="#6F6F6F" cx="69.6" cy="36.755" r="8.945"/>
					<g>
						<path fill="#FFFFFF" stroke="#6F6F6F" stroke-width="1.0358" stroke-miterlimit="10" d="M94.368,60.975
							c-1.716,1.754-4.529,1.786-6.283,0.07l-8.027-7.85c-1.754-1.715-1.785-4.529-0.069-6.284l0,0
							c1.716-1.754,4.528-1.784,6.282-0.069l8.027,7.85C96.051,56.408,96.082,59.221,94.368,60.975L94.368,60.975z"/>
						
							<line fill="none" stroke="#6F6F6F" stroke-width="0.4143" stroke-linecap="round" stroke-linejoin="round" stroke-miterlimit="10" x1="85.923" y1="46.503" x2="79.709" y2="52.855"/>
						
							<line fill="none" stroke="#6F6F6F" stroke-width="0.4143" stroke-linecap="round" stroke-linejoin="round" stroke-miterlimit="10" x1="86.903" y1="47.608" x2="80.692" y2="53.961"/>
					</g>
					
						<path fill="none" stroke="#6F6F6F" stroke-width="0.4143" stroke-linecap="round" stroke-linejoin="round" stroke-miterlimit="10" d="
						M60.114,39.58c1.058,3.55,4.076,6.355,7.98,6.957c1.498,0.232,2.971,0.113,4.334-0.293"/>
					<path fill="#FFFFFF" d="M66.935,29.859c2.589-0.955,5.609-0.411,7.713,1.647c0.809,0.789,1.396,1.72,1.762,2.713"/>
				</g>
			</g>
		</g>
	</g>
</g>
<g id="Isolation_Mode">
</g>
</svg>
