<?xml version="1.0" encoding="utf-8"?>
<!-- Generator: Adobe Illustrator 16.0.0, SVG Export Plug-In . SVG Version: 6.00 Build 0)  -->
<!DOCTYPE svg PUBLIC "-//W3C//DTD SVG 1.1//EN" "http://www.w3.org/Graphics/SVG/1.1/DTD/svg11.dtd">
<svg version="1.1" xmlns="http://www.w3.org/2000/svg" xmlns:xlink="http://www.w3.org/1999/xlink" x="0px" y="0px"
	 width="146.201px" height="106.203px" viewBox="0 0 146.201 106.203" enable-background="new 0 0 146.201 106.203"
	 xml:space="preserve">
<g id="Layer_1">
	<g>
		
			<rect x="0.125" y="0.125" fill="#BCCFEC" stroke="#D4D4D4" stroke-width="0.25" stroke-miterlimit="10" width="145.951" height="105.953"/>
		<g>
			<path fill="#6F6F6F" d="M45.605,86.486h2.272c1.465,0,1.894-0.782,1.919-1.944c0.025-1.086-0.201-1.97-1.287-2.651l-0.783-0.479
				c-1.742-1.086-2.879-2.652-2.879-5.48c0-3.131,2.146-4.521,4.874-4.495h2.172v2.753h-2.172c-0.985,0-1.844,0.605-1.844,1.818
				c0,1.363,0.354,2.045,1.844,3.056l0.858,0.58c1.895,1.288,2.349,2.778,2.323,4.748c-0.025,2.955-1.263,4.874-4.849,4.874h-2.449
				V86.486z"/>
			<path fill="#6F6F6F" d="M61.846,89.239h-3.939c-2.021,0-3.965-0.581-3.965-4.091v-5.707c0-2.854,1.439-4.395,4.268-4.395
				c2.804,0,4.242,1.516,4.242,4.395v1.742c0,3.232-1.615,3.637-3.863,3.637h-1.691v0.378c0,1.39,0.555,1.415,1.439,1.415h3.51
				V89.239z M58.134,82.32c1.01,0,1.363-0.354,1.363-1.439v-1.566c0-1.161-0.354-1.642-1.288-1.642c-0.934,0-1.313,0.48-1.313,1.692
				v2.955H58.134z"/>
			<path fill="#6F6F6F" d="M63.161,75.628h1.465v-4.142h2.954v4.142h1.769v2.575H67.58v6.44c0,1.464,0.582,1.868,1.643,1.868h0.605
				v2.728h-0.833c-3.056,0-4.369-1.263-4.369-4.369v-6.667h-1.465V75.628z"/>
			<path fill="#6F6F6F" d="M70.36,75.628h1.465v-4.142h2.954v4.142h1.769v2.575h-1.769v6.44c0,1.464,0.582,1.868,1.643,1.868h0.605
				v2.728h-0.833c-3.056,0-4.369-1.263-4.369-4.369v-6.667H70.36V75.628z"/>
			<path fill="#6F6F6F" d="M78.241,74.163v-2.979h2.98v2.979H78.241z M78.241,89.239V75.198h2.955v14.041H78.241z"/>
			<path fill="#6F6F6F" d="M88.192,89.239v-9.773c0-1.237-0.53-1.742-1.39-1.742c-0.833,0-1.363,0.505-1.363,1.742v9.773h-2.955
				v-9.975c0-2.854,1.516-4.218,4.243-4.218c2.753,0,4.394,1.363,4.394,4.218v9.975H88.192z"/>
			<path fill="#6F6F6F" d="M92.412,79.416c0-2.829,1.642-4.369,4.445-4.369c2.854,0,4.47,1.54,4.47,4.369v10.505
				c0,2.677-1.465,3.89-3.839,3.89h-3.46v-2.652h3.005c1.062,0,1.339-0.379,1.339-1.465v-1.085
				c-0.429,0.378-1.136,0.682-1.944,0.682c-2.5,0-4.016-1.541-4.016-4.369V79.416z M98.372,79.391c0-1.212-0.581-1.718-1.515-1.718
				c-0.91,0-1.49,0.506-1.49,1.718v5.354c0,1.237,0.43,1.919,1.49,1.919c0.884,0,1.465-0.556,1.515-1.515V79.391z"/>
		</g>
		<g>
			<circle fill="#7598F1" cx="73.087" cy="39.677" r="24"/>
			<g>
				<g>
					<path fill="#FFFFFF" d="M70.943,57.329c-0.636,0-1.153-0.518-1.153-1.154l-0.163-3.585c-1.129-0.301-2.213-0.749-3.23-1.337
						l-2.665,2.435c-0.203,0.202-0.493,0.321-0.799,0.321c-0.307,0-0.596-0.12-0.814-0.336l-3.028-3.03
						c-0.218-0.216-0.338-0.506-0.338-0.814c0-0.307,0.12-0.596,0.337-0.815l2.421-2.65c-0.586-1.011-1.035-2.094-1.339-3.23
						c0,0-3.608-0.163-3.608-0.163c-0.612,0-1.128-0.518-1.128-1.153v-4.284c0-0.636,0.517-1.153,1.153-1.153l3.584-0.162
						c0.303-1.133,0.752-2.216,1.339-3.229l-2.435-2.669c-0.201-0.199-0.321-0.488-0.321-0.795c0-0.308,0.12-0.598,0.338-0.816
						l3.027-3.029c0.219-0.218,0.508-0.338,0.816-0.338s0.598,0.12,0.816,0.338l2.648,2.418c1.012-0.585,2.095-1.033,3.229-1.336
						l0.168-3.608c-0.001-0.612,0.514-1.129,1.147-1.129h4.286c0.636,0,1.153,0.517,1.153,1.153l0.162,3.584
						c1.137,0.304,2.221,0.753,3.231,1.338l2.665-2.434c0.198-0.202,0.488-0.324,0.798-0.324s0.601,0.122,0.818,0.342l3.027,3.025
						c0.217,0.218,0.337,0.507,0.337,0.816c0,0.309-0.12,0.599-0.337,0.816l-2.421,2.648c0.588,1.016,1.038,2.099,1.339,3.231
						c0,0,3.607,0.162,3.608,0.162c0.612,0,1.128,0.517,1.128,1.152v4.283c0,0.638-0.517,1.157-1.153,1.157l-3.584,0.161
						c-0.303,1.134-0.752,2.218-1.339,3.231l2.437,2.664c0.203,0.203,0.323,0.493,0.322,0.801c0,0.307-0.121,0.596-0.339,0.813
						l-3.028,3.027c-0.215,0.218-0.505,0.339-0.815,0.339s-0.6-0.122-0.817-0.341l-2.648-2.416
						c-1.009,0.585-2.092,1.034-3.229,1.338l-0.165,3.606c0.001,0.613-0.516,1.13-1.15,1.13H70.943z M73.088,33.768
						c-3.258,0-5.909,2.651-5.909,5.91c0,3.259,2.65,5.911,5.909,5.911c3.259,0,5.911-2.651,5.911-5.911
						C78.999,36.418,76.347,33.768,73.088,33.768z"/>
					<path fill="#6F6F6F" d="M75.23,22.543c0.351,0,0.635,0.283,0.635,0.635l0.18,3.992c1.361,0.322,2.64,0.856,3.796,1.573
						l2.949-2.694c0.124-0.125,0.287-0.188,0.449-0.188c0.163,0,0.326,0.063,0.45,0.188l3.029,3.027
						c0.247,0.248,0.247,0.652,0,0.899l-2.698,2.95c0.716,1.156,1.253,2.434,1.573,3.796l3.992,0.18
						c0.351,0,0.635,0.284,0.635,0.634v4.283c0,0.352-0.284,0.639-0.635,0.639l-3.992,0.179c-0.322,1.361-0.857,2.639-1.573,3.796
						l2.696,2.948c0.249,0.25,0.249,0.65,0,0.898l-3.029,3.028c-0.124,0.125-0.286,0.188-0.449,0.188s-0.325-0.063-0.449-0.188
						l-2.952-2.694c-1.155,0.717-2.432,1.25-3.793,1.572l-0.183,3.991c0,0.35-0.283,0.636-0.633,0.636h-4.286
						c-0.35,0-0.635-0.286-0.635-0.636l-0.181-3.994c-1.361-0.319-2.637-0.855-3.795-1.57l-2.949,2.695
						c-0.125,0.124-0.288,0.186-0.45,0.186s-0.325-0.062-0.449-0.186l-3.027-3.029c-0.249-0.247-0.249-0.647,0-0.898l2.696-2.951
						c-0.716-1.155-1.251-2.433-1.573-3.794l-3.992-0.181c-0.349,0-0.635-0.285-0.635-0.636v-4.284c0-0.35,0.286-0.635,0.635-0.635
						l3.992-0.18c0.322-1.363,0.857-2.638,1.573-3.793l-2.694-2.954c-0.248-0.247-0.248-0.647,0-0.895l3.027-3.03
						c0.125-0.125,0.288-0.187,0.45-0.187s0.325,0.062,0.449,0.187l2.95,2.694c1.155-0.714,2.432-1.248,3.793-1.57l0.186-3.992
						c0-0.352,0.282-0.635,0.63-0.635H75.23 M73.088,46.106c3.549,0,6.429-2.881,6.429-6.429c0-3.549-2.88-6.428-6.429-6.428
						c-3.551,0-6.427,2.879-6.427,6.428C66.661,43.225,69.537,46.106,73.088,46.106 M75.23,21.508h-4.286
						c-0.918,0-1.666,0.75-1.666,1.67l-0.149,3.187c-0.923,0.274-1.812,0.642-2.656,1.099l-2.39-2.183
						c-0.281-0.283-0.701-0.458-1.147-0.458c-0.446,0-0.866,0.174-1.182,0.489l-3.029,3.031c-0.315,0.314-0.489,0.735-0.489,1.182
						c0,0.436,0.167,0.846,0.47,1.158l2.169,2.378c-0.458,0.844-0.827,1.733-1.101,2.656l-3.234,0.146c-0.001,0-0.001,0-0.002,0
						c-0.874,0-1.622,0.749-1.622,1.67v4.284c0,0.922,0.75,1.671,1.67,1.671l3.188,0.145c0.274,0.924,0.643,1.813,1.101,2.657
						l-2.184,2.39c-0.285,0.286-0.458,0.705-0.458,1.149c0,0.447,0.175,0.868,0.493,1.183l3.024,3.026
						c0.318,0.316,0.737,0.489,1.182,0.489c0.444,0,0.863-0.172,1.179-0.485l2.358-2.154c0.847,0.459,1.736,0.828,2.656,1.1
						l0.146,3.235c-0.001,0.875,0.749,1.625,1.669,1.625h4.286c0.92,0,1.668-0.75,1.668-1.671l0.147-3.186
						c0.925-0.275,1.814-0.643,2.656-1.101l2.376,2.168c0.313,0.305,0.724,0.472,1.162,0.472c0.449,0,0.87-0.176,1.186-0.495
						l3.025-3.023c0.315-0.313,0.489-0.733,0.49-1.178c0-0.447-0.173-0.867-0.49-1.184l-2.152-2.355
						c0.458-0.845,0.827-1.734,1.101-2.657l3.234-0.145c0,0,0.001,0,0.002,0c0.874,0,1.622-0.75,1.622-1.673v-4.283
						c0-0.921-0.75-1.67-1.67-1.67l-3.187-0.145c-0.273-0.922-0.642-1.812-1.102-2.658l2.185-2.389
						c0.283-0.281,0.457-0.701,0.457-1.148c0-0.446-0.173-0.866-0.488-1.181l-3.03-3.028c-0.312-0.315-0.733-0.492-1.182-0.492
						c-0.438,0-0.851,0.168-1.164,0.474l-2.373,2.168c-0.843-0.458-1.733-0.826-2.658-1.101L76.9,23.132
						C76.901,22.257,76.151,21.508,75.23,21.508L75.23,21.508z M73.088,45.07c-2.973,0-5.391-2.419-5.391-5.393
						c0-2.973,2.418-5.392,5.391-5.392c2.974,0,5.393,2.419,5.393,5.392C78.481,42.651,76.062,45.07,73.088,45.07L73.088,45.07z"/>
				</g>
				
					<path fill="none" stroke="#6F6F6F" stroke-width="0.4143" stroke-linecap="round" stroke-linejoin="round" stroke-miterlimit="10" d="
					M72.491,47.677c-4.089,0-7.404-3.315-7.404-7.405"/>
				
					<path fill="none" stroke="#6F6F6F" stroke-width="0.4143" stroke-linecap="round" stroke-linejoin="round" stroke-miterlimit="10" d="
					M73.086,47.083c-4.089,0-7.404-3.314-7.404-7.405"/>
			</g>
		</g>
	</g>
</g>
<g id="Isolation_Mode">
</g>
</svg>
