<?xml version="1.0" encoding="utf-8"?>
<!-- Generator: Adobe Illustrator 16.0.0, SVG Export Plug-In . SVG Version: 6.00 Build 0)  -->
<!DOCTYPE svg PUBLIC "-//W3C//DTD SVG 1.1//EN" "http://www.w3.org/Graphics/SVG/1.1/DTD/svg11.dtd">
<svg version="1.1" id="레이어_1" xmlns="http://www.w3.org/2000/svg" xmlns:xlink="http://www.w3.org/1999/xlink" x="0px"
	 y="0px" width="108.842px" height="29.301px" viewBox="0 0 108.842 29.301" enable-background="new 0 0 108.842 29.301"
	 xml:space="preserve">
<g id="Isolation_Mode_1_">
	<g>
		<path fill="#F1CC6E" d="M108.841,25.75c0,1.963-1.589,3.551-3.546,3.551H3.546C1.587,29.301,0,27.713,0,25.75V3.548
			C0,1.587,1.587,0,3.546,0h101.749c1.959,0,3.547,1.587,3.547,3.548L108.841,25.75L108.841,25.75z"/>
		<path fill="#F9EDBD" d="M105.295,0H3.546C1.587,0,0,1.587,0,3.548v1.576c0-1.961,1.587-3.548,3.546-3.548h101.749
			c1.959,0,3.547,1.587,3.547,3.548V3.548C108.841,1.587,107.252,0,105.295,0z"/>
		<path fill="#D89C5B" d="M105.295,27.724H3.546C1.587,27.724,0,26.136,0,24.176v1.574c0,1.963,1.587,3.551,3.546,3.551h101.749
			c1.959,0,3.547-1.588,3.547-3.551v-1.574C108.841,26.136,107.252,27.724,105.295,27.724z"/>
	</g>
	<g>
		<g>
			<path fill="#FFFFFF" d="M7.143,8.056h2.059v4.731h4.89V8.056h2.059v11.46h-2.059v-5.109h-4.89v5.109H7.143V8.056z"/>
			<path fill="#FFFFFF" d="M18.649,7.741h1.966v1.745h-1.966V7.741z M18.665,10.916H20.6v8.599h-1.935V10.916z"/>
			<path fill="#FFFFFF" d="M22.438,19.073V17.66c0.706,0.284,1.352,0.534,2.548,0.534c1.207,0,1.711-0.394,1.711-1.039
				c0-0.61-0.329-0.91-1.272-1.113l-0.803-0.174c-1.319-0.282-2.184-0.944-2.184-2.483c0-1.588,1.006-2.611,3.19-2.611
				c1.162,0,1.902,0.222,2.467,0.474v1.446c-0.503-0.205-1.334-0.456-2.31-0.456c-1.006,0-1.54,0.331-1.54,0.99
				c0,0.613,0.345,0.835,1.163,1.021l0.817,0.188c1.682,0.396,2.343,1.055,2.343,2.547c0,1.793-1.196,2.673-3.302,2.673
				C24.151,19.655,23.145,19.452,22.438,19.073z"/>
			<path fill="#FFFFFF" d="M30.849,17.394v-4.985h-1.196v-1.492h1.196V8.889h1.901v2.027h2.043v1.492H32.75v4.718
				c0,0.724,0.268,0.989,1.163,0.989c0.329,0,0.692-0.046,0.991-0.125v1.272c-0.348,0.175-0.802,0.362-1.604,0.362
				C31.806,19.625,30.849,19.028,30.849,17.394z"/>
			<path fill="#FFFFFF" d="M36.179,15.396v-0.267c0-2.767,1.664-4.37,4.087-4.37c2.577,0,4.069,1.573,4.069,4.307v0.237
				c0,2.781-1.681,4.369-4.087,4.369C37.624,19.672,36.179,18.084,36.179,15.396z M42.324,15.476v-0.425
				c0-2.232-0.928-2.829-2.091-2.829c-1.321,0-2.091,0.911-2.091,2.767v0.407c0,2.217,0.942,2.83,2.137,2.83
				C41.569,18.226,42.324,17.33,42.324,15.476z"/>
			<path fill="#FFFFFF" d="M46.098,10.916h1.854v0.989h0.078c0.473-0.611,1.353-1.067,2.248-1.067c0.234,0,0.456,0.016,0.533,0.062
				v1.699c-0.203-0.03-0.5-0.048-0.689-0.048c-0.771,0-1.541,0.221-2.092,0.566v6.398h-1.933V10.916z"/>
			<path fill="#FFFFFF" d="M52.133,21.716v-1.289c0.221,0.046,0.535,0.078,0.849,0.078c0.787,0,1.29-0.204,1.604-1.021l0.234-0.6
				l-3.254-7.969h2.043l2.17,5.58h0.063l2.012-5.58h1.855l-3.315,8.835c-0.583,1.649-1.415,2.247-3.004,2.247
				C52.95,21.999,52.387,21.874,52.133,21.716z"/>
			<path fill="#FFFFFF" d="M65.196,13.967v-0.408c0-4.137,2.404-5.691,5.378-5.691c1.271,0,2.183,0.219,2.875,0.596v1.604
				c-0.881-0.346-1.667-0.534-2.72-0.534c-1.995,0-3.316,1.086-3.316,3.804v0.582c0,2.626,0.927,4.118,3.332,4.118
				c1.306,0,2.139-0.331,2.83-0.629v1.588c-0.787,0.424-1.839,0.707-3.207,0.707C67.178,19.704,65.196,17.832,65.196,13.967z"/>
			<path fill="#FFFFFF" d="M75.399,7.301h1.934v12.214h-1.934V7.301z"/>
			<path fill="#FFFFFF" d="M79.172,15.319v-0.222c0-2.893,1.746-4.324,3.945-4.324c2.531,0,3.632,1.432,3.632,4.167v0.801h-5.612
				c0.125,1.793,1.037,2.422,2.674,2.422c1.1,0,1.9-0.253,2.655-0.629v1.336c-0.582,0.377-1.587,0.802-3.034,0.802
				C80.57,19.672,79.172,18.054,79.172,15.319z M81.137,14.423h3.662c0-1.619-0.597-2.233-1.729-2.233
				C82.19,12.189,81.279,12.662,81.137,14.423z"/>
			<path fill="#FFFFFF" d="M88.037,17.236c0-1.589,1.055-2.326,2.768-2.578l2.028-0.234v-0.662c0-1.163-0.519-1.429-1.98-1.429
				c-0.834,0-1.571,0.125-2.09,0.235v-1.32c0.802-0.314,1.728-0.474,2.844-0.474c1.996,0,3.143,0.771,3.143,2.563v6.178h-1.587
				l-0.158-0.691h-0.092c-0.41,0.486-1.103,0.848-2.217,0.848C89.137,19.672,88.037,18.885,88.037,17.236z M92.833,17.801V15.68
				l-1.588,0.157c-0.865,0.078-1.306,0.425-1.306,1.289c0,0.832,0.55,1.194,1.336,1.194C91.89,18.32,92.52,18.1,92.833,17.801z"/>
			<path fill="#FFFFFF" d="M96.983,10.916h1.854v0.989h0.078c0.473-0.611,1.353-1.067,2.248-1.067c0.236,0,0.456,0.016,0.535,0.062
				v1.699c-0.204-0.03-0.502-0.048-0.691-0.048c-0.77,0-1.541,0.221-2.092,0.566v6.398h-1.933V10.916z"/>
		</g>
	</g>
</g>
</svg>
