<?xml version="1.0" encoding="utf-8"?>
<!-- Generator: Adobe Illustrator 16.0.0, SVG Export Plug-In . SVG Version: 6.00 Build 0)  -->
<!DOCTYPE svg PUBLIC "-//W3C//DTD SVG 1.1//EN" "http://www.w3.org/Graphics/SVG/1.1/DTD/svg11.dtd">
<svg version="1.1" xmlns="http://www.w3.org/2000/svg" xmlns:xlink="http://www.w3.org/1999/xlink" x="0px" y="0px" width="22px"
	 height="22.001px" viewBox="0 0 22 22.001" enable-background="new 0 0 22 22.001" xml:space="preserve">
<g id="Layer_1">
	<g>
		<g>
			<path fill="#F1CC6E" d="M22,19.337c0,1.472-1.193,2.664-2.664,2.664H2.664C1.192,22.001,0,20.809,0,19.337V2.664
				C0,1.192,1.192,0,2.664,0h16.673C20.807,0,22,1.192,22,2.664V19.337z"/>
			<path fill="#FAF0C2" d="M19.336,0H2.664C1.192,0,0,1.192,0,2.664v1.183c0-1.47,1.192-2.663,2.664-2.663h16.673
				C20.807,1.185,22,2.377,22,3.847V2.664C22,1.192,20.807,0,19.336,0z"/>
			<path fill="#E8A35C" d="M19.336,20.816H2.664C1.192,20.816,0,19.624,0,18.152v1.185c0,1.472,1.192,2.664,2.664,2.664h16.673
				c1.471,0,2.664-1.192,2.664-2.664v-1.185C22,19.624,20.807,20.816,19.336,20.816z"/>
		</g>
		<path fill="#FFFFFF" stroke="#6F6F6F" stroke-width="0.5977" stroke-miterlimit="10" d="M12.899,11l3.692-3.692
			c0.525-0.524,0.525-1.375,0-1.9s-1.375-0.524-1.9,0L11,9.101L7.309,5.409c-0.525-0.525-1.375-0.525-1.9,0
			c-0.525,0.524-0.525,1.375,0,1.9L9.1,11l-3.691,3.691c-0.525,0.525-0.525,1.376,0,1.901c0.524,0.524,1.375,0.524,1.9-0.001
			L11,12.9l3.692,3.692c0.525,0.524,1.375,0.524,1.9,0c0.525-0.524,0.525-1.375,0-1.9L12.899,11z"/>
	</g>
</g>
<g id="Isolation_Mode">
</g>
</svg>
