<?xml version="1.0" encoding="utf-8"?>
<!-- Generator: Adobe Illustrator 16.0.0, SVG Export Plug-In . SVG Version: 6.00 Build 0)  -->
<!DOCTYPE svg PUBLIC "-//W3C//DTD SVG 1.1//EN" "http://www.w3.org/Graphics/SVG/1.1/DTD/svg11.dtd">
<svg version="1.1" xmlns="http://www.w3.org/2000/svg" xmlns:xlink="http://www.w3.org/1999/xlink" x="0px" y="0px"
	 width="185.734px" height="50px" viewBox="0 0 185.734 50" enable-background="new 0 0 185.734 50" xml:space="preserve">
<g id="Layer_1">
</g>
<g id="Isolation_Mode">
	<g>
		<path fill="#F1CC6E" d="M185.734,43.944c0,3.347-2.71,6.056-6.052,6.056H6.052C2.71,50,0,47.291,0,43.944V6.053
			C0,2.709,2.71,0,6.052,0h173.631c3.342,0,6.052,2.709,6.052,6.053V43.944z"/>
		<path fill="#F9EDBD" d="M179.683,0H6.052C2.71,0,0,2.709,0,6.053v2.691C0,5.398,2.71,2.69,6.052,2.69h173.631
			c3.342,0,6.052,2.708,6.052,6.054V6.053C185.734,2.709,183.024,0,179.683,0z"/>
		<path fill="#D89C5B" d="M179.683,47.31H6.052C2.71,47.31,0,44.602,0,41.256v2.688C0,47.291,2.71,50,6.052,50h173.631
			c3.342,0,6.052-2.709,6.052-6.056v-2.688C185.734,44.602,183.024,47.31,179.683,47.31z"/>
	</g>
	<g>
		<g>
			<path fill="#FFFFFF" d="M12.188,13.747h3.515v8.075h8.343v-8.075h3.514v19.556h-3.514v-8.718h-8.343v8.718h-3.515V13.747z"/>
			<path fill="#FFFFFF" d="M31.825,13.21h3.353v2.978h-3.353V13.21z M31.852,18.629h3.3v14.673h-3.3V18.629z"/>
			<path fill="#FFFFFF" d="M38.29,32.551v-2.414c1.207,0.482,2.307,0.912,4.346,0.912c2.065,0,2.924-0.671,2.924-1.771
				c0-1.046-0.563-1.556-2.173-1.904l-1.368-0.296c-2.254-0.482-3.729-1.609-3.729-4.238c0-2.709,1.717-4.452,5.445-4.452
				c1.985,0,3.246,0.375,4.211,0.805v2.468c-0.858-0.349-2.279-0.778-3.942-0.778c-1.717,0-2.629,0.563-2.629,1.69
				c0,1.046,0.59,1.422,1.984,1.743l1.396,0.322c2.87,0.671,3.997,1.797,3.997,4.346c0,3.058-2.039,4.56-5.634,4.56
				C41.214,33.543,39.497,33.195,38.29,32.551z"/>
			<path fill="#FFFFFF" d="M52.642,29.681v-8.504h-2.039v-2.548h2.039v-3.461h3.245v3.461h3.487v2.548h-3.487v8.048
				c0,1.234,0.456,1.689,1.985,1.689c0.563,0,1.181-0.08,1.69-0.214v2.173c-0.591,0.295-1.368,0.617-2.736,0.617
				C54.277,33.491,52.642,32.471,52.642,29.681z"/>
			<path fill="#FFFFFF" d="M61.736,26.274v-0.456c0-4.721,2.843-7.457,6.975-7.457c4.398,0,6.947,2.683,6.947,7.351v0.402
				c0,4.748-2.87,7.457-6.975,7.457C64.204,33.571,61.736,30.862,61.736,26.274z M72.225,26.409v-0.725
				c0-3.809-1.583-4.828-3.567-4.828c-2.254,0-3.568,1.556-3.568,4.721v0.697c0,3.783,1.609,4.829,3.648,4.829
				C70.937,31.103,72.225,29.574,72.225,26.409z"/>
			<path fill="#FFFFFF" d="M78.664,18.629h3.165v1.689h0.134c0.805-1.046,2.308-1.824,3.836-1.824c0.402,0,0.778,0.027,0.912,0.107
				V21.5c-0.349-0.054-0.858-0.08-1.18-0.08c-1.314,0-2.629,0.375-3.568,0.965v10.918h-3.299V18.629z"/>
			<path fill="#FFFFFF" d="M88.965,37.058v-2.2c0.375,0.081,0.912,0.135,1.448,0.135c1.342,0,2.2-0.349,2.736-1.744l0.402-1.02
				l-5.553-13.6h3.487l3.702,9.522h0.106l3.434-9.522h3.166l-5.66,15.075c-0.993,2.816-2.414,3.836-5.124,3.836
				C90.359,37.541,89.394,37.327,88.965,37.058z"/>
			<path fill="#FFFFFF" d="M111.257,23.833v-0.697c0-7.056,4.104-9.711,9.174-9.711c2.173,0,3.729,0.375,4.909,1.02v2.735
				c-1.502-0.59-2.844-0.911-4.641-0.911c-3.407,0-5.66,1.851-5.66,6.491v0.992c0,4.48,1.583,7.028,5.687,7.028
				c2.227,0,3.648-0.563,4.829-1.073v2.71c-1.342,0.724-3.139,1.207-5.473,1.207C114.637,33.625,111.257,30.432,111.257,23.833z"/>
			<path fill="#FFFFFF" d="M128.667,12.459h3.3v20.843h-3.3V12.459z"/>
			<path fill="#FFFFFF" d="M135.106,26.14v-0.376c0-4.936,2.978-7.376,6.732-7.376c4.319,0,6.197,2.44,6.197,7.108v1.368h-9.577
				c0.215,3.058,1.771,4.131,4.561,4.131c1.878,0,3.246-0.43,4.533-1.073v2.28c-0.992,0.644-2.709,1.368-5.177,1.368
				C137.493,33.571,135.106,30.808,135.106,26.14z M138.459,24.611h6.25c0-2.763-1.019-3.809-2.95-3.809
				C140.257,20.802,138.701,21.607,138.459,24.611z"/>
			<path fill="#FFFFFF" d="M150.235,29.413c0-2.709,1.798-3.97,4.722-4.399l3.46-0.402v-1.126c0-1.985-0.885-2.441-3.38-2.441
				c-1.422,0-2.683,0.215-3.567,0.402v-2.253c1.368-0.537,2.95-0.805,4.855-0.805c3.406,0,5.364,1.314,5.364,4.372v10.542h-2.709
				l-0.269-1.18h-0.16c-0.698,0.831-1.878,1.448-3.783,1.448C152.113,33.571,150.235,32.229,150.235,29.413z M158.417,30.378v-3.621
				l-2.709,0.269c-1.476,0.134-2.227,0.724-2.227,2.199c0,1.422,0.938,2.039,2.28,2.039
				C156.808,31.264,157.881,30.888,158.417,30.378z"/>
			<path fill="#FFFFFF" d="M165.5,18.629h3.165v1.689h0.134c0.805-1.046,2.308-1.824,3.836-1.824c0.402,0,0.778,0.027,0.912,0.107
				V21.5c-0.349-0.054-0.858-0.08-1.18-0.08c-1.314,0-2.629,0.375-3.568,0.965v10.918H165.5V18.629z"/>
		</g>
	</g>
</g>
</svg>
