<?xml version="1.0" encoding="utf-8"?>
<!-- Generator: Adobe Illustrator 16.0.0, SVG Export Plug-In . SVG Version: 6.00 Build 0)  -->
<!DOCTYPE svg PUBLIC "-//W3C//DTD SVG 1.1//EN" "http://www.w3.org/Graphics/SVG/1.1/DTD/svg11.dtd">
<svg version="1.1" xmlns="http://www.w3.org/2000/svg" xmlns:xlink="http://www.w3.org/1999/xlink" x="0px" y="0px" width="30px"
	 height="29.998px" viewBox="0 0 30 29.998" enable-background="new 0 0 30 29.998" xml:space="preserve">
<g id="Layer_1">
</g>
<g id="Isolation_Mode">
	<g>
		<circle fill="#5163C9" cx="14.999" cy="14.999" r="14.999"/>
		<g>
			
				<path fill="#FFFFFF" stroke="#6F6F6F" stroke-width="1.1978" stroke-linecap="round" stroke-linejoin="round" stroke-miterlimit="10" d="
				M21.479,16.337c0,3.572-2.904,6.478-6.479,6.478s-6.475-2.905-6.475-6.478c0-3.571,2.902-6.475,6.475-6.475l1.721,0.021
				c-0.002,0.064-0.002,0.132-0.002,0.195c-0.004,0.531-0.01,1.032-0.01,1.486c-0.012,1.057-0.016,1.854-0.02,2.081
				c-0.006,0.86,1.068,0.417,1.48,0.012l4.645-4.576c0.232-0.225,0.332-0.534,0.305-0.831l0.006-0.008l-0.006-0.007
				c-0.023-0.23-0.117-0.455-0.293-0.633l-4.57-4.646c-0.408-0.414-1.475-0.899-1.48-0.013c0,0.223-0.008,0.955-0.016,1.94
				c-0.004,0.473-0.008,1.002-0.014,1.563c0,0.06,0,0.117,0,0.178H15c-5.363,0-9.715,4.35-9.715,9.713
				c0,5.368,4.352,9.716,9.715,9.716c5.365,0,9.715-4.348,9.715-9.716c0,0-0.049-0.26-0.324-0.26s-2.359,0-2.623,0
				S21.479,16.337,21.479,16.337z"/>
			
				<line fill="#FFFFFF" stroke="#6F6F6F" stroke-width="0.2005" stroke-linecap="round" stroke-linejoin="round" stroke-miterlimit="10" x1="22.123" y1="8.218" x2="17.982" y2="4.009"/>
		</g>
	</g>
</g>
</svg>
