<?xml version="1.0" encoding="utf-8"?>
<!-- Generator: Adobe Illustrator 16.0.0, SVG Export Plug-In . SVG Version: 6.00 Build 0)  -->
<!DOCTYPE svg PUBLIC "-//W3C//DTD SVG 1.1//EN" "http://www.w3.org/Graphics/SVG/1.1/DTD/svg11.dtd">
<svg version="1.1" xmlns="http://www.w3.org/2000/svg" xmlns:xlink="http://www.w3.org/1999/xlink" x="0px" y="0px" width="30px"
	 height="29.998px" viewBox="0 0 30 29.998" enable-background="new 0 0 30 29.998" xml:space="preserve">
<g id="Layer_1">
</g>
<g id="Isolation_Mode">
	<g>
		<path fill="#5163C9" d="M14.998,0C6.716,0,0,6.716,0,14.999c0,8.284,6.716,14.999,14.998,14.999
			C23.284,29.998,30,23.283,30,14.999C30,6.716,23.284,0,14.998,0z"/>
		<g>
			<g>
				<path fill="#FFFFFF" stroke="#6F6F6F" stroke-width="1.1155" stroke-miterlimit="10" d="M14.871,26.796
					c1.252,0,2.092-0.837,2.092-2.091s-0.84-2.091-2.092-2.091c-1.256,0-2.09,0.837-2.09,2.091S13.615,26.796,14.871,26.796z"/>
				<path fill="#FFFFFF" stroke="#6F6F6F" stroke-width="1.1155" stroke-miterlimit="10" d="M20.326,4.901
					c-0.637-0.551-1.381-0.971-2.23-1.262c-0.852-0.289-1.773-0.438-2.766-0.438c-1.186,0-2.258,0.192-3.219,0.567
					c-0.957,0.378-1.777,0.913-2.457,1.601c-0.678,0.69-1.197,1.52-1.551,2.489c-0.355,0.97-0.48,2.536-0.48,2.536
					c-0.029,0.382,0.262,0.695,0.646,0.695c0,0,1.957,0,2.223,0c0.264,0,0.699-0.16,0.807-0.907c0.15-1.044,0.41-1.916,0.908-2.599
					c0.635-0.871,1.625-1.309,2.961-1.309c0.275,0,0.604,0.063,0.967,0.192c0.367,0.131,0.713,0.335,1.035,0.615
					s0.598,0.651,0.826,1.112c0.227,0.465,0.34,1.02,0.34,1.668c0,0.54-0.072,1.002-0.211,1.387
					c-0.141,0.392-0.336,0.741-0.586,1.053c-0.246,0.313-0.523,0.599-0.836,0.856c-0.314,0.258-0.645,0.54-0.99,0.842
					c-0.43,0.37-0.803,0.737-1.115,1.114c-0.311,0.377-0.576,0.813-0.789,1.309c-0.219,0.496-0.373,1.072-0.471,1.729
					c-0.1,0.658-0.127,1.709-0.127,1.709c-0.012,0.386,0.297,0.7,0.678,0.7c0,0,1.846,0,2.133,0c0.285,0,0.633-0.15,0.689-0.784
					c0.037-0.445,0.092-0.843,0.182-1.188c0.139-0.538,0.342-1.011,0.6-1.406c0.258-0.397,0.559-0.76,0.904-1.083
					c0.344-0.321,0.723-0.657,1.133-1.001c0.344-0.303,0.689-0.609,1.033-0.921c0.344-0.313,0.652-0.671,0.922-1.067
					c0.268-0.402,0.484-0.875,0.646-1.424c0.16-0.553,0.242-1.204,0.248-1.953c0-1.036-0.182-1.96-0.549-2.781
					C21.461,6.136,20.961,5.45,20.326,4.901z"/>
			</g>
			<g>
				
					<path fill="none" stroke="#6F6F6F" stroke-width="0.2694" stroke-linecap="round" stroke-linejoin="round" stroke-miterlimit="10" d="
					M17.252,5.985c0.26,0.094,0.52,0.26,0.773,0.501c0.256,0.241,0.492,0.58,0.707,1.009c0.217,0.432,0.371,0.962,0.463,1.597
					c0.074,0.526,0.092,0.984,0.053,1.375c-0.039,0.396-0.121,0.754-0.242,1.083c-0.121,0.328-0.264,0.635-0.436,0.918"/>
			</g>
		</g>
	</g>
</g>
</svg>
