<?xml version="1.0" encoding="utf-8"?>
<!-- Generator: Adobe Illustrator 16.0.0, SVG Export Plug-In . SVG Version: 6.00 Build 0)  -->
<!DOCTYPE svg PUBLIC "-//W3C//DTD SVG 1.1//EN" "http://www.w3.org/Graphics/SVG/1.1/DTD/svg11.dtd">
<svg version="1.1" id="레이어_1" xmlns="http://www.w3.org/2000/svg" xmlns:xlink="http://www.w3.org/1999/xlink" x="0px"
	 y="0px" width="65.75px" height="31.949px" viewBox="0 0 65.75 31.949" enable-background="new 0 0 65.75 31.949"
	 xml:space="preserve">
<g id="Isolation_Mode_1_">
	<g>
		<g>
			<path fill="#7596EF" d="M65.75,28.079c0,2.14-1.732,3.87-3.869,3.87H3.867c-2.135,0-3.867-1.73-3.867-3.87V3.867
				C0,1.73,1.732,0,3.867,0h58.014c2.138,0,3.869,1.73,3.869,3.867L65.75,28.079L65.75,28.079z"/>
			<path fill="#BACDEA" d="M61.881,0H3.867C1.732,0,0,1.73,0,3.867v1.72c0-2.138,1.732-3.868,3.867-3.868h58.014
				c2.138,0,3.869,1.73,3.869,3.868v-1.72C65.75,1.73,64.019,0,61.881,0z"/>
			<path fill="#5659BF" d="M61.881,30.23H3.867C1.732,30.23,0,28.5,0,26.363v1.717c0,2.139,1.732,3.869,3.867,3.869h58.014
				c2.138,0,3.869-1.73,3.869-3.87v-1.716C65.75,28.5,64.019,30.23,61.881,30.23z"/>
		</g>
		<g>
			<g>
				<path fill="#FFFFFF" d="M12.21,21.237v-1.765c1.012,0.445,2.194,0.771,3.565,0.771c1.68,0,2.383-0.703,2.383-1.817
					c0-1.045-0.446-1.456-1.817-1.868l-1.183-0.325c-1.766-0.498-2.845-1.44-2.845-3.566c0-2.107,1.371-3.548,4.182-3.548
					c1.646,0,2.537,0.309,3.239,0.668v1.766c-0.788-0.343-1.816-0.635-3.188-0.635c-1.32,0-2.058,0.549-2.058,1.56
					c0,0.978,0.378,1.406,1.611,1.749l1.166,0.359c1.971,0.565,3.153,1.389,3.153,3.616c0,2.366-1.439,3.841-4.457,3.841
					C14.318,22.044,13.067,21.7,12.21,21.237z"/>
				<path fill="#FFFFFF" d="M26.009,9.324h2.297l4.44,12.496h-2.314L29.3,18.649h-4.646l-1.13,3.171h-2.074L26.009,9.324z
					 M25.187,16.97h3.548l-1.748-4.988h-0.052L25.187,16.97z"/>
				<path fill="#FFFFFF" d="M32.387,9.324h2.348l3.291,9.668h0.052l3.257-9.668h2.108L39.021,21.82H36.81L32.387,9.324z"/>
				<path fill="#FFFFFF" d="M45.243,9.324h7.816v1.766h-5.571v3.429h4.319v1.748h-4.319v3.788h5.674v1.766h-7.919V9.324z"/>
			</g>
		</g>
	</g>
</g>
</svg>
