<?xml version="1.0" encoding="utf-8"?>
<!-- Generator: Adobe Illustrator 16.0.0, SVG Export Plug-In . SVG Version: 6.00 Build 0)  -->
<!DOCTYPE svg PUBLIC "-//W3C//DTD SVG 1.1//EN" "http://www.w3.org/Graphics/SVG/1.1/DTD/svg11.dtd">
<svg version="1.1" xmlns="http://www.w3.org/2000/svg" xmlns:xlink="http://www.w3.org/1999/xlink" x="0px" y="0px" width="60px"
	 height="60px" viewBox="0 0 60 60" enable-background="new 0 0 60 60" xml:space="preserve">
<g id="Layer_1">
</g>
<g id="Isolation_Mode">
	<g>
		<rect fill="none" width="60" height="60"/>
		<g>
			<path fill="#FFFFFF" stroke="#6F6F6F" stroke-width="1.059" stroke-miterlimit="10" d="M33.613,33.613
				c-4.118,4.693-11.305,5.197-16.053,1.129c-4.746-4.069-5.259-11.172-1.142-15.863c4.118-4.694,11.304-5.197,16.05-1.129
				C37.219,21.818,37.73,28.922,33.613,33.613z"/>
			<path fill="#6F6F6F" d="M30.31,30.783c-2.534,2.889-6.961,3.2-9.885,0.693c-2.923-2.505-3.238-6.878-0.702-9.767
				c2.534-2.89,6.959-3.201,9.885-0.694C32.529,23.521,32.844,27.894,30.31,30.783z"/>
			<g>
				<path fill="#FFFFFF" stroke="#6F6F6F" stroke-width="1.059" stroke-miterlimit="10" d="M45.515,43.815
					c-1.261,1.434-3.458,1.587-4.91,0.345l-6.644-5.694c-1.45-1.244-1.606-3.417-0.348-4.853l0,0
					c1.258-1.435,3.456-1.589,4.908-0.344l6.643,5.691C46.615,40.206,46.772,42.378,45.515,43.815L45.515,43.815z"/>
				
					<line fill="none" stroke="#6F6F6F" stroke-width="0.4236" stroke-linecap="round" stroke-linejoin="round" stroke-miterlimit="10" x1="38.232" y1="33.021" x2="33.674" y2="38.218"/>
				
					<line fill="none" stroke="#6F6F6F" stroke-width="0.4236" stroke-linecap="round" stroke-linejoin="round" stroke-miterlimit="10" x1="39.051" y1="33.832" x2="34.492" y2="39.027"/>
			</g>
			
				<path fill="none" stroke="#6F6F6F" stroke-width="0.4236" stroke-linecap="round" stroke-linejoin="round" stroke-miterlimit="10" d="
				M17.73,28.868c0.994,2.696,3.485,4.722,6.565,5.006c1.184,0.109,2.328-0.05,3.374-0.428"/>
			<path fill="#FFFFFF" d="M22.608,21.042c1.979-0.857,4.366-0.578,6.107,0.915c0.669,0.572,1.172,1.266,1.505,2.015"/>
		</g>
	</g>
</g>
</svg>
