<?xml version="1.0" encoding="utf-8"?>
<!-- Generator: Adobe Illustrator 16.0.0, SVG Export Plug-In . SVG Version: 6.00 Build 0)  -->
<!DOCTYPE svg PUBLIC "-//W3C//DTD SVG 1.1//EN" "http://www.w3.org/Graphics/SVG/1.1/DTD/svg11.dtd">
<svg version="1.1" xmlns="http://www.w3.org/2000/svg" xmlns:xlink="http://www.w3.org/1999/xlink" x="0px" y="0px"
	 width="189.543px" height="189.544px" viewBox="0 0 189.543 189.544" enable-background="new 0 0 189.543 189.544"
	 xml:space="preserve">
<g id="Layer_1">
</g>
<g id="Isolation_Mode">
	<g>
		<g>
			<path fill="#79ADAD" d="M189.543,166.598c0,12.673-10.273,22.946-22.945,22.946H22.945C10.273,189.544,0,179.271,0,166.598
				V22.946C0,10.273,10.273,0,22.945,0h143.652c12.672,0,22.945,10.273,22.945,22.946V166.598z"/>
			<path fill="#AAD4C7" d="M166.598,0H22.945C10.273,0,0,10.273,0,22.946v10.199c0-12.673,10.273-22.946,22.945-22.946h143.652
				c12.672,0,22.945,10.273,22.945,22.946V22.946C189.543,10.273,179.27,0,166.598,0z"/>
			<path fill="#6E9397" d="M166.598,179.345H22.945C10.273,179.345,0,169.071,0,156.398v10.199
				c0,12.673,10.273,22.946,22.945,22.946h143.652c12.672,0,22.945-10.273,22.945-22.946v-10.199
				C189.543,169.071,179.27,179.345,166.598,179.345z"/>
		</g>
		<g>
			<g>
				<g>
					<path fill="#FFFFFF" stroke="#6F6F6F" stroke-width="2.6233" stroke-miterlimit="10" d="M128.662,125.823
						c0,2.795-2.264,5.061-5.059,5.061H66.559c-2.793,0-5.061-2.266-5.061-5.061V63.718c0-2.792,2.268-5.058,5.061-5.058h57.045
						c2.795,0,5.059,2.266,5.059,5.058V125.823z"/>
					
						<path fill="none" stroke="#6F6F6F" stroke-width="1.0493" stroke-linecap="round" stroke-linejoin="round" stroke-miterlimit="10" d="
						M125.822,123.196c0,2.558-2.074,4.635-4.631,4.635H68.969c-2.557,0-4.631-2.077-4.631-4.635V66.342
						c0-2.557,2.074-4.63,4.631-4.63h52.223c2.557,0,4.631,2.073,4.631,4.63V123.196z"/>
				</g>
				<g>
					<defs>
						<path id="SVGID_19_" d="M125.818,123.196c0,2.558-2.076,4.635-4.631,4.635H68.963c-2.557,0-4.629-2.077-4.629-4.635V66.342
							c0-2.557,2.072-4.63,4.629-4.63h52.225c2.555,0,4.631,2.073,4.631,4.63V123.196z"/>
					</defs>
					<clipPath id="SVGID_2_">
						<use xlink:href="#SVGID_19_"  overflow="visible"/>
					</clipPath>
					<g clip-path="url(#SVGID_2_)">
						<g>
							<path fill="#6F6F6F" d="M91.566,88.057c0,3.759-3.047,6.807-6.807,6.807l0,0c-3.76,0-6.807-3.048-6.807-6.807v-4.433
								c0-3.76,3.047-6.807,6.807-6.807l0,0c3.76,0,6.807,3.047,6.807,6.807V88.057z"/>
							<path fill="#6F6F6F" d="M105.18,125.991c0,11.279-9.143,20.42-20.42,20.42l0,0c-11.279,0-20.422-9.141-20.422-20.42v-13.297
								c0-11.279,9.143-20.42,20.422-20.42l0,0c11.277,0,20.42,9.141,20.42,20.42V125.991z"/>
						</g>
						<g>
							<path fill="#6F6F6F" d="M113.414,75.465c0,3.759-3.049,6.807-6.807,6.807l0,0c-3.76,0-6.807-3.048-6.807-6.807v-4.433
								c0-3.76,3.047-6.807,6.807-6.807l0,0c3.758,0,6.807,3.047,6.807,6.807V75.465z"/>
							<path fill="#6F6F6F" d="M128.658,133.56c0,11.279-14.697,0.263-22.051,0.263l0,0c-7.354,0-13.313-9.142-13.313-20.421
								v-13.297c0-11.278,5.959-20.42,13.313-20.42l0,0c7.354,0,19.211,15.363,19.211,26.642L128.658,133.56z"/>
						</g>
					</g>
				</g>
			</g>
			<path fill="#FFFFFF" stroke="#6F6F6F" stroke-width="2.6233" stroke-miterlimit="10" d="M132.201,50.731H37.35
				c-2.209,0-4,1.791-4,4s1.791,4,4,4h90.852v95.667c0,2.209,1.791,4,4,4s4-1.791,4-4V54.731
				C136.201,52.522,134.41,50.731,132.201,50.731z"/>
			<path fill="#FFFFFF" stroke="#6F6F6F" stroke-width="2.6233" stroke-miterlimit="10" d="M57.342,138.884h94.852
				c2.209,0,4-1.791,4-4s-1.791-4-4-4H61.342V35.217c0-2.209-1.791-4-4-4s-4,1.791-4,4v99.667
				C53.342,137.093,55.133,138.884,57.342,138.884z"/>
		</g>
	</g>
</g>
</svg>
