<?xml version="1.0" encoding="utf-8"?>
<!-- Generator: Adobe Illustrator 16.0.0, SVG Export Plug-In . SVG Version: 6.00 Build 0)  -->
<!DOCTYPE svg PUBLIC "-//W3C//DTD SVG 1.1//EN" "http://www.w3.org/Graphics/SVG/1.1/DTD/svg11.dtd">
<svg version="1.1" id="레이어_1" xmlns="http://www.w3.org/2000/svg" xmlns:xlink="http://www.w3.org/1999/xlink" x="0px"
	 y="0px" width="369.653px" height="46.035px" viewBox="0 0 369.653 46.035" enable-background="new 0 0 369.653 46.035"
	 xml:space="preserve">
<g>
	<g>
		<path fill="#79ADAD" d="M14.578,9.495v28.08c0,0.358-0.064,0.6-0.192,0.72c-0.129,0.12-0.336,0.18-0.62,0.18h-4.19
			c-0.285,0-0.492-0.06-0.62-0.18s-0.192-0.359-0.192-0.72V9.495H1.197c-0.314,0-0.534-0.06-0.663-0.18
			C0.406,9.195,0.342,8.971,0.342,8.64V4.725c0-0.6,0.285-0.899,0.855-0.899H22.23c0.369,0,0.604,0.067,0.705,0.202
			c0.1,0.135,0.149,0.368,0.149,0.697V8.64c0,0.331-0.05,0.556-0.149,0.676c-0.101,0.12-0.336,0.18-0.705,0.18L14.578,9.495
			L14.578,9.495z"/>
		<path fill="#79ADAD" d="M26.334,9.405c-0.94,0-1.725-0.345-2.352-1.035c-0.627-0.689-0.94-1.53-0.94-2.521
			c0-0.989,0.306-1.837,0.919-2.542c0.612-0.705,1.403-1.058,2.373-1.058c0.969,0,1.767,0.353,2.394,1.058s0.94,1.553,0.94,2.542
			c0,0.99-0.313,1.831-0.94,2.521C28.101,9.061,27.303,9.405,26.334,9.405z M24.153,38.475c-0.256,0-0.435-0.06-0.534-0.18
			c-0.101-0.12-0.149-0.359-0.149-0.72V14.13c0-0.359,0.043-0.6,0.128-0.72c0.086-0.12,0.271-0.181,0.556-0.181h4.232
			c0.284,0,0.477,0.061,0.577,0.181s0.149,0.36,0.149,0.72v23.445c0,0.358-0.05,0.6-0.149,0.72c-0.101,0.12-0.293,0.18-0.577,0.18
			H24.153z"/>
		<path fill="#79ADAD" d="M42.707,39.555c-0.884,0-1.789-0.21-2.715-0.63c-0.927-0.42-1.731-1.065-2.415-1.935v7.693
			c0,0.33-0.051,0.563-0.149,0.698c-0.101,0.136-0.321,0.202-0.663,0.202h-3.976c-0.314,0-0.528-0.066-0.642-0.202
			c-0.114-0.136-0.171-0.368-0.171-0.698v-30.51c0-0.42,0.078-0.697,0.235-0.832c0.156-0.135,0.392-0.203,0.705-0.203h3.848
			c0.342,0,0.577,0.053,0.705,0.158c0.129,0.105,0.192,0.322,0.192,0.652v1.755c0.257-0.36,0.584-0.712,0.983-1.058
			c0.399-0.345,0.841-0.645,1.325-0.9c0.484-0.254,1.005-0.457,1.561-0.607c0.556-0.149,1.104-0.225,1.646-0.225
			c1.454,0,2.758,0.314,3.912,0.945c1.154,0.63,2.145,1.529,2.971,2.699c0.826,1.17,1.461,2.581,1.902,4.23
			c0.442,1.65,0.663,3.51,0.663,5.58c0,1.95-0.229,3.733-0.685,5.354c-0.456,1.619-1.111,3.008-1.966,4.162s-1.896,2.055-3.121,2.7
			C45.628,39.232,44.246,39.555,42.707,39.555z M42.194,18.405c-0.599,0-1.176,0.157-1.731,0.473
			c-0.556,0.314-1.048,0.795-1.476,1.439c-0.427,0.646-0.776,1.463-1.047,2.453c-0.271,0.989-0.406,2.16-0.406,3.51
			c0,1.409,0.121,2.608,0.363,3.6s0.57,1.8,0.983,2.431s0.904,1.088,1.475,1.373c0.571,0.284,1.183,0.428,1.839,0.428
			c1.425,0,2.571-0.631,3.441-1.891c0.868-1.261,1.304-3.24,1.304-5.939c0-2.82-0.442-4.838-1.325-6.053
			C44.73,19.013,43.59,18.405,42.194,18.405z"/>
		<path fill="#79ADAD" d="M66.519,37.53c-0.742,0.6-1.582,1.02-2.522,1.26c-0.94,0.239-1.938,0.375-2.993,0.405
			c-0.541,0-1.126-0.038-1.752-0.112c-0.628-0.076-1.227-0.166-1.796-0.271c-0.57-0.105-1.098-0.232-1.582-0.383
			c-0.484-0.152-0.854-0.285-1.111-0.404c-0.313-0.151-0.521-0.278-0.62-0.383c-0.1-0.105-0.135-0.324-0.106-0.652l0.342-3.285
			c0.028-0.36,0.1-0.585,0.214-0.675c0.113-0.091,0.327-0.075,0.642,0.045c0.883,0.33,1.802,0.614,2.757,0.854
			c0.955,0.24,1.945,0.359,2.972,0.359c1.025,0,1.78-0.27,2.266-0.811c0.484-0.539,0.727-1.215,0.727-2.024
			c0-0.569-0.25-1.132-0.748-1.688c-0.499-0.555-1.09-1.072-1.774-1.553c-0.684-0.479-1.383-0.923-2.095-1.327
			c-0.713-0.405-1.282-0.741-1.71-1.013c-0.94-0.6-1.731-1.372-2.372-2.316c-0.642-0.946-0.962-2.049-0.962-3.309
			c0-1.35,0.22-2.513,0.662-3.487c0.441-0.975,1.026-1.777,1.753-2.408c0.727-0.63,1.567-1.094,2.522-1.395
			c0.954-0.3,1.93-0.45,2.928-0.45c0.514,0,1.062,0.038,1.646,0.112c0.584,0.076,1.14,0.174,1.667,0.293
			c0.527,0.12,1.019,0.255,1.475,0.405c0.456,0.15,0.813,0.285,1.069,0.404c0.284,0.151,0.448,0.286,0.491,0.405
			c0.043,0.12,0.05,0.301,0.021,0.54l-0.385,3.42c-0.058,0.36-0.157,0.563-0.299,0.607c-0.144,0.045-0.371-0.007-0.685-0.157
			c-1.482-0.75-3.063-1.095-4.745-1.035c-0.912,0.03-1.575,0.263-1.988,0.697c-0.413,0.436-0.619,1.043-0.619,1.823
			c0,0.33,0.185,0.735,0.556,1.215c0.37,0.479,1.025,0.989,1.966,1.53c0.884,0.51,1.682,0.997,2.395,1.461
			c0.712,0.467,1.254,0.834,1.624,1.104c1.026,0.84,1.803,1.682,2.33,2.52c0.527,0.842,0.791,1.967,0.791,3.375
			c0,1.321-0.242,2.515-0.727,3.578C68.256,35.873,67.516,36.78,66.519,37.53z"/>
		<path fill="#79ADAD" d="M92.81,6.3c0,0.301-0.064,0.473-0.192,0.518s-0.307,0.008-0.534-0.112c-0.399-0.18-0.77-0.3-1.112-0.36
			c-0.342-0.06-0.741-0.06-1.196,0c-0.742,0.12-1.24,0.69-1.496,1.71c-0.058,0.241-0.101,0.601-0.129,1.08
			c-0.028,0.48-0.043,1.021-0.043,1.62v2.25H91.7c0.342,0,0.563,0.067,0.662,0.203c0.1,0.135,0.149,0.367,0.149,0.697v3.734
			c0,0.331-0.05,0.563-0.149,0.698c-0.1,0.135-0.32,0.202-0.662,0.202h-3.592v19.035c0,0.358-0.063,0.6-0.192,0.72
			c-0.128,0.12-0.335,0.18-0.619,0.18h-3.976c-0.314,0-0.528-0.06-0.642-0.18c-0.114-0.12-0.171-0.359-0.171-0.72V18.54h-2.993
			c-0.541,0-0.812-0.3-0.812-0.9v-3.734c0-0.6,0.271-0.9,0.812-0.9h2.993V11.07c0-1.261,0.092-2.505,0.277-3.735
			c0.186-1.229,0.527-2.317,1.026-3.263c0.498-0.944,1.183-1.694,2.052-2.25c0.869-0.555,1.988-0.862,3.356-0.922
			c0.569-0.03,1.196,0,1.881,0.09c0.684,0.09,1.182,0.21,1.496,0.359c0.199,0.091,0.327,0.188,0.385,0.293
			c0.057,0.105,0.07,0.277,0.043,0.518L92.81,6.3z"/>
		<path fill="#79ADAD" d="M112.815,34.965c-1.055,1.41-2.315,2.469-3.783,3.174c-1.469,0.703-3.1,1.057-4.896,1.057
			c-1.881,0-3.526-0.359-4.938-1.079c-1.41-0.72-2.594-1.688-3.548-2.902c-0.955-1.216-1.675-2.633-2.159-4.253
			c-0.484-1.62-0.727-3.33-0.727-5.13s0.235-3.51,0.705-5.13c0.471-1.62,1.183-3.038,2.138-4.253
			c0.955-1.215,2.145-2.175,3.569-2.88c1.425-0.704,3.078-1.058,4.959-1.058c1.882,0,3.534,0.36,4.959,1.08
			c1.425,0.72,2.615,1.688,3.57,2.902c0.954,1.216,1.674,2.626,2.158,4.23c0.484,1.605,0.728,3.307,0.728,5.107
			c0,1.771-0.235,3.442-0.706,5.019C114.376,32.423,113.698,33.795,112.815,34.965z M104.137,17.775
			c-0.94,0-1.767,0.232-2.479,0.697c-0.712,0.466-1.304,1.073-1.773,1.822c-0.471,0.75-0.827,1.605-1.069,2.565
			c-0.242,0.959-0.363,1.95-0.363,2.97s0.121,2.01,0.363,2.97c0.242,0.961,0.599,1.822,1.069,2.588
			c0.47,0.766,1.062,1.381,1.773,1.846c0.713,0.466,1.539,0.697,2.479,0.697c0.969,0,1.81-0.231,2.522-0.697
			c0.712-0.465,1.304-1.08,1.774-1.846c0.47-0.766,0.819-1.627,1.047-2.588c0.229-0.96,0.343-1.949,0.343-2.97
			c0-0.99-0.114-1.965-0.343-2.925c-0.228-0.96-0.577-1.822-1.047-2.588c-0.471-0.765-1.063-1.379-1.774-1.845
			C105.946,18.008,105.105,17.775,104.137,17.775z"/>
		<path fill="#79ADAD" d="M129.316,18.675c-0.542-0.239-1.041-0.383-1.496-0.428c-0.456-0.045-0.855-0.007-1.197,0.113
			c-0.684,0.24-1.233,0.63-1.646,1.17c-0.414,0.54-0.728,1.17-0.94,1.89c-0.214,0.72-0.35,1.471-0.406,2.25
			c-0.058,0.78-0.086,1.53-0.086,2.25v11.61c0,0.358-0.05,0.606-0.149,0.741c-0.101,0.136-0.307,0.203-0.62,0.203h-4.104
			c-0.314,0-0.514-0.061-0.599-0.181c-0.086-0.12-0.128-0.39-0.128-0.81v-17.82c0-0.96-0.016-1.965-0.043-3.015
			c-0.029-1.05-0.043-1.92-0.043-2.61c0-0.39,0.057-0.645,0.171-0.765c0.113-0.12,0.327-0.181,0.642-0.181h4.104
			c0.428,0,0.642,0.24,0.642,0.722v1.714c0.37-0.57,0.84-1.127,1.41-1.668c0.57-0.541,1.169-0.871,1.796-0.992
			c0.599-0.119,1.189-0.157,1.774-0.112c0.584,0.045,1.032,0.188,1.347,0.427c0.142,0.121,0.234,0.233,0.277,0.338
			s0.064,0.277,0.064,0.518v3.915c0,0.33-0.058,0.57-0.171,0.72C129.801,18.825,129.601,18.825,129.316,18.675z"/>
		<path fill="#79ADAD" d="M140.772,38.475c-0.313,0-0.534-0.06-0.662-0.18c-0.129-0.12-0.192-0.359-0.192-0.72V4.725
			c0-0.6,0.284-0.899,0.854-0.899h4.104c0.569,0,0.854,0.3,0.854,0.899v32.851c0,0.359-0.063,0.6-0.192,0.72
			c-0.128,0.12-0.349,0.181-0.662,0.181h-4.104V38.475z"/>
		<path fill="#79ADAD" d="M176.041,38.475c-0.313,0-0.541-0.066-0.684-0.201s-0.214-0.383-0.214-0.742V22.41
			c0-1.2-0.313-2.167-0.94-2.902c-0.627-0.735-1.411-1.103-2.352-1.103c-0.712,0-1.354,0.173-1.924,0.518
			c-0.57,0.345-1.055,0.817-1.453,1.417c-0.399,0.601-0.705,1.29-0.919,2.07c-0.214,0.78-0.32,1.591-0.32,2.43v12.735
			c0,0.6-0.271,0.899-0.813,0.899h-4.019c-0.314,0-0.542-0.067-0.685-0.203c-0.143-0.135-0.213-0.383-0.213-0.742V22.41
			c0-1.41-0.265-2.431-0.791-3.061c-0.528-0.63-1.29-0.944-2.287-0.944c-1.368,0-2.452,0.487-3.249,1.462
			c-0.799,0.976-1.197,2.138-1.197,3.487v14.221c0,0.358-0.058,0.6-0.171,0.72c-0.114,0.12-0.328,0.18-0.642,0.18h-3.976
			c-0.342,0-0.57-0.074-0.684-0.225c-0.114-0.15-0.171-0.391-0.171-0.72V19.935c0-1.14,0-2.272,0-3.397s-0.029-1.986-0.086-2.587
			c-0.058-0.33-0.021-0.563,0.106-0.697c0.129-0.136,0.406-0.203,0.834-0.203h3.976c0.313,0,0.514,0.03,0.599,0.09
			c0.086,0.061,0.128,0.226,0.128,0.495v1.845c0.627-0.689,1.39-1.297,2.287-1.822c0.898-0.524,1.803-0.787,2.715-0.787
			c1.368,0,2.657,0.375,3.869,1.125c1.211,0.75,2.145,1.755,2.8,3.015c0.37-0.569,0.798-1.109,1.283-1.62
			c0.483-0.51,1.004-0.959,1.56-1.35c0.556-0.39,1.154-0.705,1.796-0.945c0.642-0.239,1.304-0.359,1.988-0.359
			c1.282,0,2.45,0.195,3.505,0.585c1.055,0.39,1.959,0.96,2.715,1.71c0.755,0.75,1.339,1.673,1.753,2.768
			c0.412,1.095,0.62,2.348,0.62,3.757v16.021c0,0.358-0.064,0.601-0.192,0.72c-0.129,0.12-0.35,0.18-0.663,0.18h-3.889V38.475z"/>
		<path fill="#79ADAD" d="M197.842,38.564c-0.256,0-0.42-0.029-0.49-0.09s-0.107-0.24-0.107-0.541V36
			c-0.483,0.811-1.274,1.5-2.371,2.07c-1.099,0.568-2.188,0.854-3.271,0.854c-1.169,0-2.295-0.173-3.377-0.518
			c-1.084-0.346-1.975-0.885-2.672-1.62c-0.699-0.735-1.247-1.62-1.646-2.654c-0.399-1.034-0.599-2.212-0.599-3.532
			c0-1.561,0.356-2.971,1.069-4.229c0.712-1.261,1.661-2.242,2.843-2.947s2.586-1.215,4.211-1.53
			c1.624-0.315,3.42-0.412,5.387-0.293c-0.172-2.369-1.142-3.674-2.907-3.915c-0.57-0.06-1.146-0.045-1.73,0.045
			c-0.585,0.091-1.154,0.233-1.71,0.428c-0.556,0.195-1.091,0.421-1.604,0.676c-0.513,0.255-0.969,0.517-1.367,0.787
			c-0.599,0.42-1.025,0.63-1.283,0.63c-0.256,0-0.385-0.3-0.385-0.9v-3.734c0-0.39,0.035-0.667,0.107-0.833
			c0.07-0.164,0.277-0.337,0.619-0.518c0.855-0.449,1.859-0.869,3.016-1.26c1.153-0.39,2.514-0.585,4.081-0.585
			c2.907,0,5.08,0.78,6.521,2.34c1.438,1.562,2.158,3.976,2.158,7.245v10.26c0,0.392,0,0.818,0,1.283s0.008,0.938,0.021,1.417
			s0.027,0.938,0.042,1.373s0.036,0.816,0.063,1.147c0.058,0.6,0.029,0.93-0.086,0.988c-0.112,0.062-0.313,0.092-0.598,0.092h-3.934
			V38.564z M197.245,26.146c-1.625,0.028-2.965,0.156-4.02,0.381c-1.055,0.227-1.902,0.533-2.543,0.924
			c-0.643,0.39-1.076,0.854-1.305,1.395c-0.229,0.54-0.342,1.141-0.342,1.801c0,0.961,0.271,1.703,0.813,2.228
			c0.541,0.524,1.297,0.788,2.266,0.788c1.539,0,2.771-0.592,3.698-1.777C196.738,30.698,197.215,28.785,197.245,26.146z"/>
		<path fill="#79ADAD" d="M214.602,46.035c-1.141,0-2.303-0.128-3.484-0.383c-1.182-0.256-2.314-0.594-3.397-1.014
			c-0.285-0.119-0.464-0.246-0.534-0.382s-0.094-0.368-0.064-0.698l0.258-3.914c0.027-0.359,0.1-0.601,0.213-0.721
			c0.113-0.119,0.414-0.061,0.898,0.18c0.854,0.451,1.838,0.826,2.949,1.125c1.111,0.301,2.251,0.42,3.42,0.36
			c1.596-0.062,2.907-0.601,3.934-1.62c1.025-1.02,1.609-2.475,1.752-4.365c-0.74,0.9-1.652,1.562-2.735,1.98
			s-2.08,0.614-2.992,0.585c-1.481-0.03-2.821-0.345-4.019-0.944c-1.197-0.601-2.217-1.433-3.057-2.498
			c-0.842-1.063-1.49-2.316-1.945-3.758c-0.457-1.439-0.685-3.015-0.685-4.725c0-3.93,0.849-7.013,2.544-9.248
			c1.695-2.234,4.098-3.352,7.203-3.352c0.541,0,1.098,0.074,1.667,0.225c0.57,0.151,1.111,0.345,1.625,0.585
			c0.513,0.24,0.981,0.518,1.41,0.832c0.429,0.315,0.755,0.638,0.983,0.968v-1.71c0-0.51,0.228-0.765,0.684-0.765h3.934
			c0.313,0,0.521,0.067,0.621,0.202c0.1,0.135,0.148,0.398,0.148,0.788V32.13c0,4.47-1.005,7.904-3.014,10.306
			C220.907,44.835,218.135,46.035,214.602,46.035z M215.713,18.09c-1.426,0-2.58,0.525-3.463,1.575
			c-0.883,1.051-1.326,2.88-1.326,5.49c0,1.02,0.137,1.942,0.406,2.768c0.271,0.826,0.621,1.522,1.049,2.093
			c0.428,0.569,0.918,1.006,1.475,1.305c0.557,0.301,1.118,0.451,1.688,0.451c1.369,0,2.508-0.594,3.42-1.778
			s1.369-2.813,1.369-4.882c0-2.189-0.449-3.907-1.348-5.152C218.086,18.713,216.997,18.09,215.713,18.09z"/>
		<path fill="#79ADAD" d="M248.245,26.729c-0.027,0.36-0.105,0.64-0.234,0.834s-0.363,0.291-0.705,0.291h-13.381
			c0.199,2.012,0.806,3.496,1.816,4.455c1.012,0.961,2.217,1.472,3.612,1.53c1.312,0.062,2.458-0.073,3.44-0.405
			c0.983-0.328,1.932-0.793,2.844-1.395c0.398-0.27,0.669-0.346,0.813-0.225c0.143,0.119,0.215,0.435,0.215,0.943v3.375
			c0,0.33-0.037,0.555-0.107,0.676c-0.071,0.119-0.234,0.284-0.491,0.494c-0.827,0.602-1.875,1.051-3.144,1.352
			c-1.269,0.299-2.516,0.449-3.739,0.449c-3.42,0-6.121-1.154-8.103-3.465c-1.979-2.311-2.971-5.596-2.971-9.854
			c0-1.591,0.199-3.18,0.6-4.771c0.397-1.59,1.039-3.021,1.924-4.297c0.883-1.275,1.966-2.311,3.248-3.105
			c1.283-0.794,2.808-1.192,4.574-1.192c1.795,0,3.313,0.346,4.553,1.035c1.24,0.69,2.252,1.62,3.035,2.79s1.348,2.527,1.688,4.072
			c0.343,1.546,0.513,3.188,0.513,4.928V26.729z M238.584,17.64c-0.6,0-1.154,0.15-1.668,0.45c-0.514,0.301-0.961,0.69-1.347,1.17
			c-0.385,0.48-0.721,1.035-1.005,1.665c-0.285,0.63-0.471,1.29-0.557,1.98h8.679c0-0.6-0.093-1.215-0.276-1.846
			c-0.187-0.63-0.443-1.192-0.771-1.688c-0.328-0.494-0.748-0.906-1.261-1.237C239.866,17.806,239.268,17.64,238.584,17.64z"/>
		<path fill="#79ADAD" d="M270.945,37.53c-0.741,0.6-1.582,1.02-2.522,1.26c-0.939,0.239-1.938,0.375-2.992,0.405
			c-0.541,0-1.126-0.038-1.752-0.112c-0.629-0.076-1.227-0.166-1.797-0.271c-0.569-0.105-1.098-0.232-1.582-0.383
			c-0.483-0.152-0.854-0.285-1.11-0.404c-0.313-0.151-0.521-0.278-0.62-0.383c-0.1-0.105-0.135-0.324-0.105-0.652l0.342-3.285
			c0.027-0.36,0.1-0.585,0.214-0.675c0.112-0.091,0.327-0.075,0.642,0.045c0.883,0.33,1.803,0.614,2.758,0.854
			s1.944,0.359,2.972,0.359c1.024,0,1.78-0.27,2.266-0.811c0.484-0.539,0.728-1.215,0.728-2.024c0-0.569-0.25-1.132-0.748-1.688
			c-0.5-0.555-1.09-1.072-1.774-1.553c-0.685-0.479-1.383-0.923-2.095-1.327c-0.713-0.405-1.282-0.741-1.71-1.013
			c-0.94-0.6-1.731-1.372-2.372-2.316c-0.643-0.946-0.962-2.049-0.962-3.309c0-1.35,0.22-2.513,0.661-3.487
			c0.441-0.975,1.027-1.777,1.754-2.408c0.727-0.63,1.566-1.094,2.521-1.395c0.954-0.3,1.93-0.45,2.928-0.45
			c0.515,0,1.063,0.038,1.646,0.112c0.584,0.076,1.141,0.174,1.667,0.293c0.526,0.12,1.019,0.255,1.476,0.405
			c0.455,0.15,0.813,0.285,1.068,0.404c0.284,0.151,0.448,0.286,0.491,0.405c0.043,0.12,0.05,0.301,0.021,0.54l-0.385,3.42
			c-0.059,0.36-0.156,0.563-0.299,0.607c-0.145,0.045-0.371-0.007-0.686-0.157c-1.481-0.75-3.063-1.095-4.744-1.035
			c-0.912,0.03-1.575,0.263-1.988,0.697c-0.413,0.436-0.619,1.043-0.619,1.823c0,0.33,0.186,0.735,0.557,1.215
			c0.369,0.479,1.024,0.989,1.965,1.53c0.885,0.51,1.683,0.997,2.396,1.461c0.712,0.467,1.254,0.834,1.624,1.104
			c1.025,0.84,1.803,1.682,2.33,2.52c0.527,0.842,0.791,1.967,0.791,3.375c0,1.321-0.242,2.515-0.727,3.578
			C272.683,35.873,271.942,36.78,270.945,37.53z"/>
		<path fill="#79ADAD" d="M294.584,26.729c-0.027,0.36-0.105,0.64-0.233,0.834c-0.129,0.194-0.364,0.291-0.706,0.291h-13.381
			c0.199,2.012,0.806,3.496,1.816,4.455c1.012,0.961,2.217,1.472,3.612,1.53c1.312,0.062,2.458-0.073,3.44-0.405
			c0.984-0.328,1.932-0.793,2.844-1.395c0.398-0.27,0.669-0.346,0.813-0.225c0.143,0.119,0.215,0.435,0.215,0.943v3.375
			c0,0.33-0.037,0.555-0.107,0.676c-0.07,0.119-0.234,0.284-0.491,0.494c-0.827,0.602-1.875,1.051-3.144,1.352
			c-1.268,0.299-2.516,0.449-3.739,0.449c-3.42,0-6.121-1.154-8.103-3.465c-1.979-2.311-2.971-5.596-2.971-9.854
			c0-1.591,0.199-3.18,0.6-4.771c0.397-1.59,1.039-3.021,1.924-4.297c0.883-1.275,1.966-2.311,3.249-3.105
			c1.282-0.794,2.807-1.192,4.573-1.192c1.795,0,3.313,0.346,4.554,1.035c1.239,0.69,2.251,1.62,3.034,2.79s1.348,2.527,1.688,4.072
			c0.343,1.546,0.513,3.188,0.513,4.928V26.729L294.584,26.729z M284.924,17.64c-0.6,0-1.154,0.15-1.668,0.45
			c-0.514,0.301-0.961,0.69-1.346,1.17c-0.386,0.48-0.722,1.035-1.006,1.665c-0.285,0.63-0.471,1.29-0.556,1.98h8.678
			c0-0.6-0.093-1.215-0.276-1.846c-0.187-0.63-0.442-1.192-0.771-1.688c-0.328-0.494-0.748-0.906-1.261-1.237
			C286.206,17.806,285.607,17.64,284.924,17.64z"/>
		<path fill="#79ADAD" d="M309.633,38.564c-0.256,0-0.42-0.029-0.49-0.09s-0.107-0.24-0.107-0.541V36
			c-0.484,0.811-1.275,1.5-2.371,2.07c-1.098,0.568-2.189,0.854-3.271,0.854c-1.17,0-2.295-0.173-3.377-0.518
			c-1.084-0.346-1.975-0.885-2.672-1.62c-0.699-0.735-1.247-1.62-1.646-2.654c-0.398-1.034-0.599-2.212-0.599-3.532
			c0-1.561,0.356-2.971,1.069-4.229c0.711-1.261,1.66-2.242,2.842-2.947c1.184-0.705,2.586-1.215,4.211-1.53s3.42-0.412,5.389-0.293
			c-0.174-2.369-1.143-3.674-2.908-3.915c-0.57-0.06-1.146-0.045-1.73,0.045c-0.586,0.091-1.154,0.233-1.711,0.428
			c-0.555,0.195-1.09,0.421-1.604,0.676s-0.969,0.517-1.367,0.787c-0.598,0.42-1.025,0.63-1.283,0.63c-0.256,0-0.385-0.3-0.385-0.9
			v-3.734c0-0.39,0.035-0.667,0.107-0.833c0.07-0.164,0.277-0.337,0.619-0.518c0.855-0.449,1.859-0.869,3.016-1.26
			c1.152-0.39,2.514-0.585,4.082-0.585c2.906,0,5.08,0.78,6.52,2.34c1.438,1.562,2.158,3.976,2.158,7.245v10.26
			c0,0.392,0,0.818,0,1.283s0.008,0.938,0.021,1.417s0.027,0.938,0.041,1.373c0.016,0.435,0.037,0.816,0.064,1.147
			c0.057,0.6,0.029,0.93-0.086,0.988c-0.113,0.062-0.313,0.092-0.598,0.092h-3.934V38.564z M309.036,26.146
			c-1.625,0.028-2.965,0.156-4.02,0.381c-1.055,0.227-1.902,0.533-2.543,0.924c-0.643,0.39-1.076,0.854-1.305,1.395
			c-0.229,0.54-0.342,1.141-0.342,1.801c0,0.961,0.27,1.703,0.813,2.228c0.541,0.524,1.297,0.788,2.266,0.788
			c1.539,0,2.771-0.592,3.697-1.777C308.53,30.698,309.006,28.785,309.036,26.146z"/>
		<path fill="#79ADAD" d="M329.299,18.675c-0.543-0.239-1.041-0.383-1.496-0.428c-0.457-0.045-0.855-0.007-1.197,0.113
			c-0.684,0.24-1.232,0.63-1.646,1.17c-0.414,0.54-0.727,1.17-0.939,1.89c-0.215,0.72-0.35,1.471-0.406,2.25
			c-0.059,0.78-0.086,1.53-0.086,2.25v11.61c0,0.358-0.049,0.606-0.148,0.741c-0.102,0.136-0.307,0.203-0.621,0.203h-4.104
			c-0.314,0-0.514-0.061-0.6-0.181s-0.127-0.39-0.127-0.81v-17.82c0-0.96-0.016-1.965-0.043-3.015
			c-0.029-1.05-0.043-1.92-0.043-2.61c0-0.39,0.057-0.645,0.17-0.765s0.328-0.181,0.643-0.181h4.104c0.43,0,0.643,0.24,0.643,0.722
			v1.714c0.371-0.57,0.84-1.127,1.41-1.668s1.17-0.871,1.797-0.992c0.598-0.119,1.188-0.157,1.773-0.112
			c0.584,0.045,1.031,0.188,1.348,0.427c0.141,0.121,0.232,0.233,0.275,0.338s0.064,0.277,0.064,0.518v3.915
			c0,0.33-0.059,0.57-0.17,0.72C329.784,18.825,329.583,18.825,329.299,18.675z"/>
		<path fill="#79ADAD" d="M346.954,38.295c-0.314,0.148-0.705,0.285-1.176,0.405c-0.471,0.118-0.982,0.217-1.539,0.292
			c-0.557,0.074-1.133,0.119-1.73,0.136c-0.6,0.015-1.17-0.008-1.711-0.067c-1.795-0.15-3.385-0.586-4.766-1.306
			c-1.383-0.72-2.545-1.657-3.484-2.813c-0.939-1.154-1.652-2.512-2.139-4.071c-0.484-1.56-0.727-3.255-0.727-5.085
			c0-1.92,0.283-3.69,0.854-5.311c0.57-1.621,1.375-3.015,2.416-4.185s2.295-2.077,3.762-2.723c1.469-0.645,3.102-0.968,4.896-0.968
			c0.826,0,1.73,0.061,2.715,0.181c0.982,0.12,1.887,0.33,2.715,0.63c0.256,0.09,0.406,0.195,0.449,0.314
			c0.041,0.12,0.049,0.346,0.02,0.676l-0.428,3.465c-0.057,0.359-0.148,0.601-0.277,0.72c-0.129,0.12-0.406,0.105-0.834-0.045
			c-0.598-0.24-1.324-0.412-2.18-0.518c-0.855-0.104-1.611-0.142-2.266-0.112c-1.969,0.061-3.484,0.803-4.555,2.228
			c-1.068,1.425-1.604,3.308-1.604,5.647c0,2.25,0.506,4.065,1.518,5.444c1.014,1.381,2.432,2.176,4.254,2.386
			c0.912,0.149,1.816,0.173,2.715,0.067c0.898-0.104,1.689-0.277,2.373-0.519c0.455-0.149,0.732-0.188,0.834-0.112
			c0.1,0.075,0.162,0.277,0.191,0.607l0.258,3.465c0.027,0.359,0.006,0.607-0.064,0.742
			C347.374,38.003,347.209,38.145,346.954,38.295z"/>
		<path fill="#79ADAD" d="M363.754,38.475c-0.313,0-0.535-0.06-0.662-0.179c-0.129-0.12-0.191-0.36-0.191-0.719V23.298
			c0-3.802-1.068-5.703-3.207-5.703c-1.197,0-2.182,0.248-2.949,0.741c-0.771,0.494-1.326,1.175-1.668,2.043v17.198
			c0,0.358-0.07,0.599-0.213,0.719c-0.145,0.119-0.357,0.179-0.643,0.179h-3.934c-0.313,0-0.527-0.06-0.641-0.18
			c-0.115-0.12-0.172-0.359-0.172-0.72V2.25c0-0.6,0.271-0.9,0.813-0.9h3.934c0.57,0,0.855,0.302,0.855,0.903v12.188
			c0.74-0.659,1.553-1.19,2.436-1.595c0.885-0.404,1.727-0.606,2.523-0.606c2.877,0,5.008,0.884,6.391,2.65
			c1.383,1.767,2.074,4.552,2.074,8.355v14.33c0,0.358-0.064,0.6-0.191,0.72c-0.131,0.119-0.338,0.18-0.621,0.18H363.754
			L363.754,38.475z"/>
	</g>
</g>
</svg>
