<?xml version="1.0" encoding="utf-8"?>
<!-- Generator: Adobe Illustrator 16.0.0, SVG Export Plug-In . SVG Version: 6.00 Build 0)  -->
<!DOCTYPE svg PUBLIC "-//W3C//DTD SVG 1.1//EN" "http://www.w3.org/Graphics/SVG/1.1/DTD/svg11.dtd">
<svg version="1.1" id="레이어_1" xmlns="http://www.w3.org/2000/svg" xmlns:xlink="http://www.w3.org/1999/xlink" x="0px"
	 y="0px" width="553.677px" height="162.03px" viewBox="0 0 553.677 162.03" enable-background="new 0 0 553.677 162.03"
	 xml:space="preserve">
<rect x="0.5" y="0.5" fill="none" width="552.677" height="161.03"/>
<g>
	<path fill="#79ADAD" d="M86.379,108.005v-0.651c0-6.69,3.712-9.215,8.283-9.215c1.894,0,3.333,0.39,4.444,1.015v2.03
		c-1.515-0.573-2.828-0.963-4.621-0.963c-3.208,0-5.556,1.926-5.556,6.742v1.015c0,4.582,1.641,7.289,5.682,7.289
		c2.172,0,3.561-0.625,4.697-1.171v2.057c-1.263,0.755-2.955,1.197-5.025,1.197C89.46,117.35,86.379,114.305,86.379,108.005z"/>
	<path fill="#79ADAD" d="M101.656,97.228h2.298v19.81h-2.298V97.228z"/>
	<path fill="#79ADAD" d="M107.211,98.113h2.349v2.447h-2.349V98.113z M107.237,103.293h2.298v13.744h-2.298V103.293z"/>
	<path fill="#79ADAD" d="M111.908,110.478v-0.469c0-4.842,2.829-7.002,6.338-7.002c1.743,0,2.753,0.364,3.637,0.911v1.979
		c-1.187-0.521-2.021-0.859-3.788-0.859c-2.374,0-3.813,1.64-3.813,4.634v0.729c0,3.436,1.389,4.894,4.091,4.894
		c1.793,0,3.005-0.625,3.687-0.963v1.874c-0.884,0.599-2.096,1.094-3.939,1.094C114.333,117.298,111.908,115.085,111.908,110.478z"
		/>
	<path fill="#79ADAD" d="M124.104,97.228h2.298v19.81h-2.298V97.228z M126.604,109.931l5.152-6.638h2.475l-5.228,6.481l5.631,7.263
		h-2.626L126.604,109.931z"/>
	<path fill="#79ADAD" d="M143.649,113.81v-8.564h-1.894v-1.952h1.894v-3.28h2.273v3.28h3.358v1.952h-3.358v8.226
		c0,1.301,0.429,1.796,1.944,1.796c0.53,0,1.162-0.078,1.692-0.208v1.588c-0.556,0.26-1.111,0.546-2.298,0.546
		C145.114,117.194,143.649,116.257,143.649,113.81z"/>
	<path fill="#79ADAD" d="M151.68,97.228h2.298v7.185h0.126c1.086-0.781,2.752-1.406,4.394-1.406c2.626,0,3.864,1.146,3.864,3.801
		v10.23h-2.273v-9.735c0-1.588-0.505-2.239-2.601-2.239c-1.187,0-2.551,0.442-3.51,0.911v11.063h-2.298V97.228z"/>
	<path fill="#79ADAD" d="M164.583,110.374v-0.416c0-4.79,2.778-6.951,5.884-6.951c3.662,0,5.404,2.187,5.404,6.508v1.328h-8.914
		c0.151,3.28,1.717,4.425,4.369,4.425c1.793,0,2.929-0.39,4.142-1.041v1.744c-0.783,0.599-2.298,1.328-4.521,1.328
		C166.729,117.298,164.583,114.617,164.583,110.374z M166.957,108.942h6.49c0-2.889-1.061-4.035-3.081-4.035
		C168.876,104.907,167.159,105.766,166.957,108.942z"/>
	<path fill="#79ADAD" d="M184.734,116.647V97.228h2.298v6.898h0.126c1.01-0.651,2.222-1.12,4.015-1.12
		c2.5,0,5.177,1.588,5.177,6.716v0.39c0,4.582-2.298,7.263-6.692,7.263C188.118,117.376,185.87,117.09,184.734,116.647z
		 M194.002,110.478v-0.599c0-3.645-1.238-4.842-3.915-4.842c-1.237,0-2.45,0.495-3.056,0.755v9.163
		c0.556,0.208,1.439,0.442,2.778,0.442C192.007,115.398,194.002,114.331,194.002,110.478z"/>
	<path fill="#79ADAD" d="M198.647,113.263v-9.97h2.272v9.579c0,1.692,0.556,2.395,2.475,2.395c1.389,0,2.5-0.495,3.459-0.989
		v-10.985h2.298v13.744h-1.945l-0.252-1.171h-0.126c-1.111,0.807-2.475,1.432-4.091,1.432
		C200.087,117.298,198.647,115.918,198.647,113.263z"/>
	<path fill="#79ADAD" d="M212.99,113.81v-8.564h-1.894v-1.952h1.894v-3.28h2.273v3.28h3.358v1.952h-3.358v8.226
		c0,1.301,0.429,1.796,1.944,1.796c0.53,0,1.162-0.078,1.692-0.208v1.588c-0.556,0.26-1.111,0.546-2.298,0.546
		C214.455,117.194,212.99,116.257,212.99,113.81z"/>
	<path fill="#79ADAD" d="M221.475,113.81v-8.564h-1.894v-1.952h1.894v-3.28h2.273v3.28h3.358v1.952h-3.358v8.226
		c0,1.301,0.429,1.796,1.944,1.796c0.53,0,1.162-0.078,1.692-0.208v1.588c-0.556,0.26-1.111,0.546-2.298,0.546
		C222.939,117.194,221.475,116.257,221.475,113.81z"/>
	<path fill="#79ADAD" d="M228.671,110.452v-0.468c0-4.321,2.45-6.977,6.111-6.977c3.813,0,6.086,2.577,6.086,6.898v0.442
		c0,4.321-2.45,6.951-6.111,6.951C230.919,117.298,228.671,114.747,228.671,110.452z M238.495,110.608v-0.755
		c0-3.722-1.692-4.92-3.763-4.92c-2.349,0-3.687,1.744-3.687,4.816v0.755c0,3.723,1.692,4.868,3.763,4.868
		C237.131,115.372,238.495,113.68,238.495,110.608z"/>
	<path fill="#79ADAD" d="M243.166,103.293h2.172v1.171h0.151c1.111-0.807,2.854-1.458,4.495-1.458c2.626,0,3.864,1.146,3.864,3.801
		v10.23h-2.273v-9.735c0-1.588-0.505-2.239-2.601-2.239c-1.187,0-2.551,0.442-3.51,0.911v11.063h-2.298V103.293z"/>
	<path fill="#79ADAD" d="M256.65,115.189h2.702l-1.667,5.597h-1.97L256.65,115.189z"/>
	<path fill="#79ADAD" d="M268.669,113.394c0-2.395,1.515-3.67,4.041-4.009l3.536-0.443v-1.275c0-2.108-0.884-2.603-3.283-2.603
		c-1.313,0-2.374,0.208-3.182,0.39v-1.692c1.212-0.468,2.475-0.755,4.091-0.755c2.955,0,4.647,1.302,4.647,4.061v9.97h-1.844
		l-0.227-1.145h-0.152c-0.656,0.781-1.717,1.406-3.485,1.406C270.412,117.298,268.669,116.049,268.669,113.394z M276.246,114.539
		v-3.8l-2.955,0.313c-1.515,0.156-2.248,0.781-2.248,2.291c0,1.432,0.934,2.135,2.349,2.135
		C274.554,115.476,275.665,115.085,276.246,114.539z"/>
	<path fill="#79ADAD" d="M281.573,103.293h2.172v1.171h0.151c1.111-0.807,2.854-1.458,4.495-1.458c2.626,0,3.864,1.146,3.864,3.801
		v10.23h-2.273v-9.735c0-1.588-0.505-2.239-2.601-2.239c-1.187,0-2.551,0.442-3.51,0.911v11.063h-2.298V103.293z"/>
	<path fill="#79ADAD" d="M294.552,110.608v-0.39c0-5.024,2.5-7.211,5.935-7.211c1.616,0,2.702,0.442,3.409,0.859v-6.638h2.273v19.81
		h-1.919l-0.227-1.093h-0.126c-0.783,0.807-2.071,1.354-3.838,1.354C297.482,117.298,294.552,115.658,294.552,110.608z
		 M303.896,114.278v-8.434c-0.581-0.469-1.793-0.807-3.131-0.807c-2.424,0-3.838,1.276-3.838,4.868v0.599
		c0,3.723,1.565,4.868,3.864,4.868C302.28,115.372,303.315,114.747,303.896,114.278z"/>
	<path fill="#79ADAD" d="M316.572,113.81v-8.564h-1.894v-1.952h1.894v-3.28h2.273v3.28h3.358v1.952h-3.358v8.226
		c0,1.301,0.429,1.796,1.944,1.796c0.53,0,1.162-0.078,1.692-0.208v1.588c-0.556,0.26-1.111,0.546-2.298,0.546
		C318.037,117.194,316.572,116.257,316.572,113.81z"/>
	<path fill="#79ADAD" d="M324.602,97.228h2.298v7.185h0.126c1.086-0.781,2.752-1.406,4.394-1.406c2.626,0,3.864,1.146,3.864,3.801
		v10.23h-2.273v-9.735c0-1.588-0.505-2.239-2.601-2.239c-1.187,0-2.551,0.442-3.51,0.911v11.063h-2.298V97.228z"/>
	<path fill="#79ADAD" d="M337.505,110.374v-0.416c0-4.79,2.778-6.951,5.884-6.951c3.662,0,5.404,2.187,5.404,6.508v1.328h-8.914
		c0.151,3.28,1.717,4.425,4.369,4.425c1.793,0,2.929-0.39,4.142-1.041v1.744c-0.783,0.599-2.298,1.328-4.521,1.328
		C339.652,117.298,337.505,114.617,337.505,110.374z M339.879,108.942h6.49c0-2.889-1.061-4.035-3.081-4.035
		C341.798,104.907,340.081,105.766,339.879,108.942z"/>
	<path fill="#79ADAD" d="M351.091,103.293h2.172v1.171h0.151c1.111-0.807,2.854-1.458,4.495-1.458c2.626,0,3.864,1.146,3.864,3.801
		v10.23H359.5v-9.735c0-1.588-0.505-2.239-2.601-2.239c-1.187,0-2.551,0.442-3.51,0.911v11.063h-2.298V103.293z"/>
	<path fill="#79ADAD" d="M368.034,120.682v-1.614c0.48,0.078,0.985,0.156,1.439,0.156c1.237,0,1.995-0.625,1.995-2.057v-13.875
		h2.298v14.005c0,2.212-1.111,3.853-3.712,3.853C369.12,121.151,368.564,120.995,368.034,120.682z M371.443,98.113h2.349v2.447
		h-2.349V98.113z"/>
	<path fill="#79ADAD" d="M376.898,113.263v-9.97h2.272v9.579c0,1.692,0.556,2.395,2.475,2.395c1.389,0,2.5-0.495,3.459-0.989
		v-10.985h2.298v13.744h-1.945l-0.252-1.171h-0.126c-1.111,0.807-2.475,1.432-4.091,1.432
		C378.337,117.298,376.898,115.918,376.898,113.263z"/>
	<path fill="#79ADAD" d="M389.65,116.309v-1.875c1.136,0.469,2.096,0.859,3.99,0.859c1.995,0,2.854-0.703,2.854-1.9
		c0-1.12-0.555-1.692-2.197-2.135l-1.263-0.364c-1.919-0.521-3.333-1.432-3.333-3.827c0-2.421,1.49-4.061,4.672-4.061
		c1.793,0,2.904,0.417,3.662,0.807v1.9c-0.682-0.313-2.071-0.703-3.561-0.703c-1.717,0-2.601,0.599-2.601,1.822
		c0,1.119,0.581,1.562,1.944,1.952l1.263,0.339c2.601,0.729,3.662,1.614,3.662,4.061c0,2.708-1.869,4.087-4.772,4.087
		C392.251,117.272,390.761,116.96,389.65,116.309z"/>
	<path fill="#79ADAD" d="M401.72,113.81v-8.564h-1.894v-1.952h1.894v-3.28h2.273v3.28h3.358v1.952h-3.358v8.226
		c0,1.301,0.429,1.796,1.944,1.796c0.53,0,1.162-0.078,1.692-0.208v1.588c-0.556,0.26-1.111,0.546-2.298,0.546
		C403.185,117.194,401.72,116.257,401.72,113.81z"/>
	<path fill="#79ADAD" d="M415.558,110.608v-0.39c0-5.024,2.5-7.211,5.935-7.211c1.616,0,2.702,0.442,3.409,0.859v-6.638h2.273v19.81
		h-1.919l-0.227-1.093h-0.126c-0.783,0.807-2.071,1.354-3.838,1.354C418.488,117.298,415.558,115.658,415.558,110.608z
		 M424.902,114.278v-8.434c-0.581-0.469-1.793-0.807-3.131-0.807c-2.424,0-3.838,1.276-3.838,4.868v0.599
		c0,3.723,1.565,4.868,3.864,4.868C423.286,115.372,424.321,114.747,424.902,114.278z"/>
	<path fill="#79ADAD" d="M430.305,103.293h2.172v1.51h0.151c0.732-0.911,2.172-1.692,3.611-1.692c0.328,0,0.707,0.052,0.833,0.13
		v2.083c-0.354-0.052-0.783-0.078-1.01-0.078c-1.263,0-2.525,0.417-3.46,1.067v10.725h-2.298V103.293z"/>
	<path fill="#79ADAD" d="M437.83,113.394c0-2.395,1.515-3.67,4.041-4.009l3.536-0.443v-1.275c0-2.108-0.884-2.603-3.283-2.603
		c-1.313,0-2.374,0.208-3.182,0.39v-1.692c1.212-0.468,2.475-0.755,4.091-0.755c2.955,0,4.647,1.302,4.647,4.061v9.97h-1.844
		l-0.227-1.145h-0.152c-0.656,0.781-1.717,1.406-3.485,1.406C439.573,117.298,437.83,116.049,437.83,113.394z M445.406,114.539v-3.8
		l-2.955,0.313c-1.515,0.156-2.248,0.781-2.248,2.291c0,1.432,0.934,2.135,2.349,2.135
		C443.714,115.476,444.825,115.085,445.406,114.539z"/>
	<path fill="#79ADAD" d="M449.27,118.131c0-1.458,1.136-2.343,2.5-2.786v-0.13c-0.783-0.313-1.338-0.703-1.338-1.666
		c0-0.859,0.455-1.692,1.515-2.473c-1.01-0.677-1.642-1.77-1.642-3.332v-0.286c0-2.812,2.122-4.452,5.076-4.452
		c0.682,0,1.338,0.078,1.944,0.26h4.545v1.77h-2.272c0.555,0.599,0.833,1.38,0.833,2.317v0.287c0,2.941-2.248,4.321-5.076,4.321
		c-0.808,0-1.541-0.13-2.222-0.338c-0.329,0.286-0.556,0.625-0.556,1.041c0,0.703,0.404,0.885,1.263,0.885h3.662
		c2.45,0,4.243,0.833,4.243,3.488c0,2.473-1.869,4.087-6.44,4.087C451.264,121.125,449.27,120.188,449.27,118.131z M459.345,117.402
		c0-1.093-0.555-1.64-2.272-1.64h-3.763c-0.909,0.338-1.616,0.937-1.616,2.031c0,1.25,1.061,1.458,3.561,1.458
		C458.285,119.25,459.345,118.782,459.345,117.402z M458.159,107.745v-0.417c0-1.744-1.111-2.551-2.803-2.551
		c-1.768,0-2.778,0.938-2.778,2.499v0.417c0,1.718,1.086,2.499,2.778,2.499C457.123,110.191,458.159,109.411,458.159,107.745z"/>
	<path fill="#79ADAD" d="M464.042,97.54h2.601l-0.303,15.099h-2.021L464.042,97.54z M464.067,114.825h2.601v2.707h-2.601V114.825z"
		/>
</g>
<g>
	<g>
		<path fill="#706F6F" d="M24.918,55.75l-5.985-11.115h1.844l5.076,9.423h0.051l5.025-9.423h1.717L26.66,55.75v7.445h-1.742V55.75z"
			/>
		<path fill="#706F6F" d="M31.533,56.608v-0.39c0-4.425,2.475-6.924,5.959-6.924c3.637,0,5.96,2.421,5.96,6.846v0.364
			c0,4.399-2.475,6.924-5.985,6.924C33.831,63.429,31.533,61.008,31.533,56.608z M41.71,56.661v-0.573
			c0-3.957-1.843-5.362-4.242-5.362c-2.551,0-4.192,1.874-4.192,5.311v0.625c0,3.905,1.844,5.336,4.243,5.336
			C40.043,61.997,41.71,60.175,41.71,56.661z"/>
		<path fill="#706F6F" d="M45.7,59.524v-9.996h1.692v9.762c0,1.9,0.758,2.629,2.803,2.629c1.439,0,2.803-0.495,3.99-1.197V49.528
			h1.667v13.667h-1.465l-0.151-1.249H54.16c-1.338,0.885-2.854,1.483-4.445,1.483C47.165,63.429,45.7,62.153,45.7,59.524z"/>
		<path fill="#706F6F" d="M64.487,56.583v-0.364c0-4.842,2.702-6.924,6.111-6.924c1.717,0,2.727,0.312,3.662,0.911v1.458
			c-1.137-0.546-2.045-0.859-3.763-0.859c-2.525,0-4.268,1.692-4.268,5.154v0.599c0,3.566,1.465,5.362,4.47,5.362
			c1.844,0,3.005-0.573,3.712-0.989v1.406c-0.858,0.573-1.995,1.093-3.889,1.093C66.684,63.429,64.487,61.034,64.487,56.583z"/>
		<path fill="#706F6F" d="M75.698,59.654c0-2.369,1.414-3.618,3.965-3.931l3.763-0.442v-1.614c0-2.239-0.959-2.863-3.333-2.863
			c-1.313,0-2.374,0.234-3.283,0.468v-1.25c1.162-0.468,2.424-0.729,3.914-0.729c2.828,0,4.394,1.197,4.394,3.957v9.944h-1.364
			l-0.177-1.197h-0.101c-0.656,0.729-1.843,1.432-3.712,1.432C77.39,63.429,75.698,62.101,75.698,59.654z M83.426,60.956v-4.374
			l-3.308,0.391c-1.818,0.208-2.677,0.963-2.677,2.629c0,1.588,1.061,2.447,2.753,2.447C81.582,62.049,82.794,61.555,83.426,60.956z
			"/>
		<path fill="#706F6F" d="M88.248,49.554h1.616v1.223h0.101c1.313-0.885,3.081-1.483,4.748-1.483c2.525,0,3.813,1.067,3.813,3.67
			v10.23h-1.692v-9.84c0-1.822-0.707-2.551-2.854-2.551c-1.364,0-2.854,0.468-4.041,1.146v11.245h-1.692V49.554z"/>
		<path fill="#706F6F" d="M108.803,51.012h-2.045v-1.458h2.045v-2.057c0-2.994,1.667-4.269,4.066-4.269
			c1.036,0,1.743,0.182,2.248,0.417v1.275c-0.429-0.104-1.035-0.26-1.944-0.26c-1.667,0-2.702,0.833-2.702,2.968v1.926h3.182v1.458
			h-3.182v12.183h-1.667V51.012z"/>
		<path fill="#706F6F" d="M115.697,44.791h1.742v1.9h-1.742V44.791z M115.722,49.554h1.692v13.64h-1.692V49.554z"/>
		<path fill="#706F6F" d="M120.646,49.554h1.616v1.223h0.101c1.313-0.885,3.081-1.483,4.748-1.483c2.525,0,3.813,1.067,3.813,3.67
			v10.23h-1.692v-9.84c0-1.822-0.707-2.551-2.854-2.551c-1.364,0-2.854,0.468-4.041,1.146v11.245h-1.692V49.554z"/>
		<path fill="#706F6F" d="M133.247,56.687v-0.338c0-4.92,2.45-7.054,5.859-7.054c1.717,0,2.878,0.495,3.611,1.015v-6.924h1.692
			v19.81h-1.414l-0.151-1.171h-0.126c-0.884,0.833-2.146,1.406-4.015,1.406C135.974,63.429,133.247,61.737,133.247,56.687z
			 M142.716,60.722v-8.955c-0.656-0.546-1.944-0.963-3.358-0.963c-2.677,0-4.369,1.432-4.369,5.336v0.495
			c0,4.009,1.717,5.388,4.192,5.388C140.848,62.023,142.009,61.373,142.716,60.722z"/>
		<path fill="#706F6F" d="M153.902,49.528h1.616v1.588h0.101c0.783-0.885,2.248-1.744,3.813-1.744c0.303,0,0.631,0.026,0.808,0.078
			v1.588c-0.328-0.052-0.707-0.078-0.934-0.078c-1.414,0-2.778,0.599-3.712,1.379v10.855h-1.692V49.528z"/>
		<path fill="#706F6F" d="M161.326,56.53v-0.338c0-4.764,2.677-6.898,5.757-6.898c3.611,0,5.278,2.238,5.278,6.377v0.989h-9.293
			c0.051,3.749,1.667,5.258,4.773,5.258c1.768,0,3.005-0.417,4.116-0.989v1.328c-0.808,0.547-2.298,1.171-4.369,1.171
			C163.421,63.429,161.326,60.878,161.326,56.53z M163.093,55.281h7.5c0-3.124-1.162-4.556-3.561-4.556
			C165.139,50.726,163.295,51.897,163.093,55.281z"/>
		<path fill="#706F6F" d="M174.734,43.385h1.692v19.81h-1.692V43.385z"/>
		<path fill="#706F6F" d="M178.774,59.654c0-2.369,1.414-3.618,3.965-3.931l3.763-0.442v-1.614c0-2.239-0.959-2.863-3.333-2.863
			c-1.313,0-2.374,0.234-3.283,0.468v-1.25c1.162-0.468,2.424-0.729,3.914-0.729c2.828,0,4.394,1.197,4.394,3.957v9.944h-1.364
			l-0.177-1.197h-0.101c-0.656,0.729-1.843,1.432-3.712,1.432C180.466,63.429,178.774,62.101,178.774,59.654z M186.502,60.956
			v-4.374l-3.308,0.391c-1.818,0.208-2.677,0.963-2.677,2.629c0,1.588,1.061,2.447,2.753,2.447
			C184.658,62.049,185.871,61.555,186.502,60.956z"/>
		<path fill="#706F6F" d="M192.107,60.253v-9.241h-1.944v-1.458h1.944V46.3h1.692v3.254h3.51v1.458h-3.51v8.981
			c0,1.354,0.43,1.926,2.021,1.926c0.581,0,1.237-0.104,1.743-0.26v1.171c-0.48,0.26-1.086,0.521-2.172,0.521
			C193.345,63.351,192.107,62.466,192.107,60.253z"/>
		<path fill="#706F6F" d="M198.875,56.53v-0.338c0-4.764,2.677-6.898,5.757-6.898c3.611,0,5.278,2.238,5.278,6.377v0.989h-9.293
			c0.051,3.749,1.667,5.258,4.773,5.258c1.768,0,3.005-0.417,4.116-0.989v1.328c-0.808,0.547-2.298,1.171-4.369,1.171
			C200.97,63.429,198.875,60.878,198.875,56.53z M200.642,55.281h7.5c0-3.124-1.162-4.556-3.561-4.556
			C202.688,50.726,200.844,51.897,200.642,55.281z"/>
		<path fill="#706F6F" d="M211.45,56.687v-0.338c0-4.92,2.45-7.054,5.859-7.054c1.717,0,2.878,0.495,3.611,1.015v-6.924h1.692v19.81
			h-1.414l-0.151-1.171h-0.126c-0.884,0.833-2.146,1.406-4.015,1.406C214.177,63.429,211.45,61.737,211.45,56.687z M220.919,60.722
			v-8.955c-0.656-0.546-1.944-0.963-3.358-0.963c-2.677,0-4.369,1.432-4.369,5.336v0.495c0,4.009,1.717,5.388,4.192,5.388
			C219.051,62.023,220.212,61.373,220.919,60.722z"/>
		<path fill="#706F6F" d="M232.13,44.791h1.742v1.9h-1.742V44.791z M232.155,49.554h1.692v13.64h-1.692V49.554z"/>
		<path fill="#706F6F" d="M237.08,49.554h1.616v1.223h0.101c1.288-0.859,2.803-1.483,4.293-1.483c1.515,0,2.576,0.495,3.131,1.536
			h0.126c1.565-1.015,3.131-1.536,4.621-1.536c2.273,0,3.637,1.067,3.637,3.67v10.23h-1.667v-9.84c0-1.822-0.783-2.551-2.601-2.551
			c-1.136,0-2.374,0.39-3.737,1.146c0.05,0.338,0.101,0.65,0.101,1.015v10.23h-1.717v-9.84c0-1.822-0.707-2.551-2.525-2.551
			c-1.237,0-2.5,0.442-3.687,1.146v11.245h-1.692V49.554z"/>
		<path fill="#706F6F" d="M256.826,59.654c0-2.369,1.414-3.618,3.965-3.931l3.763-0.442v-1.614c0-2.239-0.959-2.863-3.333-2.863
			c-1.313,0-2.374,0.234-3.283,0.468v-1.25c1.162-0.468,2.424-0.729,3.914-0.729c2.828,0,4.394,1.197,4.394,3.957v9.944h-1.364
			l-0.177-1.197h-0.101c-0.656,0.729-1.843,1.432-3.712,1.432C258.518,63.429,256.826,62.101,256.826,59.654z M264.554,60.956
			v-4.374l-3.308,0.391c-1.818,0.208-2.677,0.963-2.677,2.629c0,1.588,1.061,2.447,2.753,2.447
			C262.71,62.049,263.922,61.555,264.554,60.956z"/>
		<path fill="#706F6F" d="M267.912,64.105c0-1.51,1.136-2.343,2.576-2.863v-0.104c-0.732-0.208-1.364-0.807-1.364-1.692
			c0-0.859,0.505-1.51,1.439-2.265c-1.01-0.703-1.667-1.822-1.667-3.384v-0.182c0-2.76,2.096-4.374,4.95-4.374
			c0.631,0,1.212,0.078,1.793,0.234h4.444v1.328h-2.576c0.758,0.651,1.162,1.562,1.162,2.759v0.156c0,2.889-2.121,4.347-4.849,4.347
			c-0.884,0-1.667-0.156-2.374-0.417c-0.379,0.338-0.708,0.703-0.708,1.197c0,0.781,0.48,1.146,1.415,1.146h3.737
			c2.374,0,4.142,0.729,4.142,3.228c0,2.291-1.818,4.139-6.263,4.139C269.705,67.359,267.912,66.084,267.912,64.105z
			 M278.266,63.481c0-1.51-0.833-1.875-2.626-1.875h-3.889c-1.162,0.391-2.045,0.989-2.045,2.265c0,1.354,1.086,2.083,4.015,2.083
			C277.053,65.954,278.266,64.991,278.266,63.481z M276.978,53.797v-0.26c0-2.005-1.263-2.942-3.157-2.942
			c-1.97,0-3.207,1.067-3.207,2.89v0.26c0,1.979,1.288,2.968,3.207,2.968C275.791,56.713,276.978,55.724,276.978,53.797z"/>
		<path fill="#706F6F" d="M280.941,56.53v-0.338c0-4.764,2.677-6.898,5.758-6.898c3.611,0,5.278,2.238,5.278,6.377v0.989h-9.293
			c0.051,3.749,1.667,5.258,4.773,5.258c1.768,0,3.005-0.417,4.116-0.989v1.328c-0.808,0.547-2.298,1.171-4.369,1.171
			C283.037,63.429,280.941,60.878,280.941,56.53z M282.709,55.281h7.5c0-3.124-1.162-4.556-3.561-4.556
			C284.754,50.726,282.911,51.897,282.709,55.281z"/>
		<path fill="#706F6F" d="M293.39,62.439v-1.405c1.086,0.494,2.096,0.885,4.015,0.885c2.248,0,3.106-0.911,3.106-2.265
			c0-1.432-0.657-2.004-2.45-2.525l-1.364-0.417c-1.97-0.521-3.207-1.432-3.207-3.697c0-2.187,1.439-3.722,4.419-3.722
			c1.717,0,2.828,0.417,3.561,0.807v1.432c-0.757-0.39-2.071-0.755-3.485-0.755c-1.919,0-2.879,0.755-2.879,2.109
			c0,1.301,0.606,1.848,2.146,2.317l1.414,0.39c2.45,0.703,3.536,1.536,3.536,3.931c0,2.421-1.642,3.879-4.596,3.879
			C295.84,63.403,294.4,63.012,293.39,62.439z"/>
		<path fill="#706F6F" d="M311.698,51.012h-2.046v-1.458h2.046v-2.057c0-2.994,1.667-4.269,4.065-4.269
			c1.036,0,1.743,0.182,2.248,0.417v1.275c-0.429-0.104-1.035-0.26-1.944-0.26c-1.667,0-2.702,0.833-2.702,2.968v1.926h3.182v1.458
			h-3.182v12.183h-1.667V51.012z"/>
		<path fill="#706F6F" d="M318.566,49.528h1.616v1.588h0.101c0.783-0.885,2.248-1.744,3.813-1.744c0.303,0,0.631,0.026,0.808,0.078
			v1.588c-0.328-0.052-0.707-0.078-0.934-0.078c-1.414,0-2.778,0.599-3.712,1.379v10.855h-1.692V49.528z"/>
		<path fill="#706F6F" d="M325.99,56.608v-0.39c0-4.425,2.475-6.924,5.959-6.924c3.637,0,5.96,2.421,5.96,6.846v0.364
			c0,4.399-2.475,6.924-5.985,6.924C328.288,63.429,325.99,61.008,325.99,56.608z M336.167,56.661v-0.573
			c0-3.957-1.843-5.362-4.242-5.362c-2.551,0-4.192,1.874-4.192,5.311v0.625c0,3.905,1.844,5.336,4.243,5.336
			C334.5,61.997,336.167,60.175,336.167,56.661z"/>
		<path fill="#706F6F" d="M340.232,49.554h1.616v1.223h0.101c1.288-0.859,2.803-1.483,4.293-1.483c1.515,0,2.576,0.495,3.131,1.536
			h0.126c1.565-1.015,3.131-1.536,4.621-1.536c2.273,0,3.637,1.067,3.637,3.67v10.23h-1.667v-9.84c0-1.822-0.783-2.551-2.601-2.551
			c-1.136,0-2.374,0.39-3.737,1.146c0.05,0.338,0.101,0.65,0.101,1.015v10.23h-1.717v-9.84c0-1.822-0.707-2.551-2.525-2.551
			c-1.237,0-2.5,0.442-3.687,1.146v11.245h-1.692V49.554z"/>
		<path fill="#706F6F" d="M366.292,59.654c0-2.369,1.414-3.618,3.965-3.931l3.763-0.442v-1.614c0-2.239-0.959-2.863-3.333-2.863
			c-1.313,0-2.374,0.234-3.283,0.468v-1.25c1.162-0.468,2.424-0.729,3.914-0.729c2.828,0,4.394,1.197,4.394,3.957v9.944h-1.364
			l-0.177-1.197h-0.101c-0.656,0.729-1.843,1.432-3.712,1.432C367.983,63.429,366.292,62.101,366.292,59.654z M374.019,60.956
			v-4.374l-3.308,0.391c-1.818,0.208-2.677,0.963-2.677,2.629c0,1.588,1.061,2.447,2.752,2.447
			C372.175,62.049,373.388,61.555,374.019,60.956z"/>
		<path fill="#706F6F" d="M378.841,49.528h1.616v1.588h0.101c0.783-0.885,2.248-1.744,3.813-1.744c0.303,0,0.631,0.026,0.808,0.078
			v1.588c-0.328-0.052-0.707-0.078-0.934-0.078c-1.414,0-2.778,0.599-3.712,1.379v10.855h-1.692V49.528z"/>
		<path fill="#706F6F" d="M386.265,56.608v-0.39c0-4.425,2.475-6.924,5.959-6.924c3.637,0,5.96,2.421,5.96,6.846v0.364
			c0,4.399-2.475,6.924-5.985,6.924C388.563,63.429,386.265,61.008,386.265,56.608z M396.442,56.661v-0.573
			c0-3.957-1.843-5.362-4.242-5.362c-2.551,0-4.192,1.874-4.192,5.311v0.625c0,3.905,1.844,5.336,4.243,5.336
			C394.775,61.997,396.442,60.175,396.442,56.661z"/>
		<path fill="#706F6F" d="M400.431,59.524v-9.996h1.692v9.762c0,1.9,0.758,2.629,2.803,2.629c1.439,0,2.803-0.495,3.99-1.197V49.528
			h1.667v13.667h-1.465l-0.151-1.249h-0.076c-1.338,0.885-2.854,1.483-4.445,1.483C401.896,63.429,400.431,62.153,400.431,59.524z"
			/>
		<path fill="#706F6F" d="M413.764,49.554h1.616v1.223h0.101c1.313-0.885,3.081-1.483,4.748-1.483c2.525,0,3.813,1.067,3.813,3.67
			v10.23h-1.692v-9.84c0-1.822-0.707-2.551-2.854-2.551c-1.364,0-2.854,0.468-4.041,1.146v11.245h-1.692V49.554z"/>
		<path fill="#706F6F" d="M426.365,56.687v-0.338c0-4.92,2.45-7.054,5.859-7.054c1.717,0,2.878,0.495,3.611,1.015v-6.924h1.692
			v19.81h-1.414l-0.151-1.171h-0.126c-0.884,0.833-2.146,1.406-4.015,1.406C429.092,63.429,426.365,61.737,426.365,56.687z
			 M435.834,60.722v-8.955c-0.656-0.546-1.944-0.963-3.358-0.963c-2.677,0-4.369,1.432-4.369,5.336v0.495
			c0,4.009,1.717,5.388,4.192,5.388C433.966,62.023,435.127,61.373,435.834,60.722z"/>
		<path fill="#706F6F" d="M447.803,60.253v-9.241h-1.944v-1.458h1.944V46.3h1.692v3.254h3.51v1.458h-3.51v8.981
			c0,1.354,0.43,1.926,2.021,1.926c0.581,0,1.237-0.104,1.743-0.26v1.171c-0.48,0.26-1.086,0.521-2.172,0.521
			C449.041,63.351,447.803,62.466,447.803,60.253z"/>
		<path fill="#706F6F" d="M455.429,43.385h1.692v7.367h0.101c1.288-0.885,3.005-1.432,4.672-1.432c2.525,0,3.813,1.067,3.813,3.67
			v10.204h-1.692v-9.84c0-1.822-0.707-2.551-2.854-2.551c-1.364,0-2.854,0.495-4.041,1.171v11.219h-1.692V43.385z"/>
		<path fill="#706F6F" d="M467.954,56.53v-0.338c0-4.764,2.677-6.898,5.758-6.898c3.611,0,5.278,2.238,5.278,6.377v0.989h-9.293
			c0.051,3.749,1.667,5.258,4.773,5.258c1.768,0,3.005-0.417,4.116-0.989v1.328c-0.808,0.547-2.298,1.171-4.369,1.171
			C470.05,63.429,467.954,60.878,467.954,56.53z M469.722,55.281h7.5c0-3.124-1.162-4.556-3.561-4.556
			C471.767,50.726,469.924,51.897,469.722,55.281z"/>
		<path fill="#706F6F" d="M486.438,49.528h1.793l2.98,11.376h0.076l3.359-11.376h1.49l3.359,11.376h0.101l2.955-11.376h1.642
			l-3.813,13.667h-1.743l-3.257-10.985h-0.051l-3.333,10.985h-1.742L486.438,49.528z"/>
		<path fill="#706F6F" d="M505.327,56.53v-0.338c0-4.764,2.677-6.898,5.757-6.898c3.611,0,5.278,2.238,5.278,6.377v0.989h-9.293
			c0.051,3.749,1.667,5.258,4.773,5.258c1.768,0,3.005-0.417,4.116-0.989v1.328c-0.808,0.547-2.298,1.171-4.369,1.171
			C507.422,63.429,505.327,60.878,505.327,56.53z M507.094,55.281h7.5c0-3.124-1.162-4.556-3.561-4.556
			C509.14,50.726,507.296,51.897,507.094,55.281z"/>
		<path fill="#706F6F" d="M518.685,62.7V43.385h1.667v7.132h0.126c1.036-0.651,2.323-1.223,4.217-1.223
			c2.677,0,5.177,1.562,5.177,6.768V56.4c0,4.582-2.323,7.106-6.49,7.106C521.766,63.507,519.796,63.221,518.685,62.7z
			 M528.104,56.661v-0.495c0-4.113-1.414-5.362-4.142-5.362c-1.515,0-2.854,0.599-3.611,1.015v9.658
			c0.707,0.286,1.692,0.546,3.131,0.546C526.059,62.023,528.104,60.669,528.104,56.661z"/>
		<path fill="#706F6F" d="M531.461,61.424h2.222v2.343h-2.222V61.424z"/>
	</g>
</g>
</svg>
