<?xml version="1.0" encoding="utf-8"?>
<!-- Generator: Adobe Illustrator 16.0.0, SVG Export Plug-In . SVG Version: 6.00 Build 0)  -->
<!DOCTYPE svg PUBLIC "-//W3C//DTD SVG 1.1//EN" "http://www.w3.org/Graphics/SVG/1.1/DTD/svg11.dtd">
<svg version="1.1" id="레이어_1" xmlns="http://www.w3.org/2000/svg" xmlns:xlink="http://www.w3.org/1999/xlink" x="0px"
	 y="0px" width="202.301px" height="20px" viewBox="0 0 202.301 20" enable-background="new 0 0 202.301 20" xml:space="preserve">
<g>
	<path fill="#6F6F6F" d="M4.849,11.159L0.252,2.237h2.27l3.49,6.861H6.07l3.413-6.861h2.075l-4.577,8.922V16.8H4.849V11.159z"/>
	<path fill="#6F6F6F" d="M10.65,11.619v-0.36c0-3.461,1.978-5.521,4.906-5.521c3.064,0,4.849,2.02,4.849,5.461v0.3
		c0,3.461-1.998,5.501-4.868,5.501C12.435,17,10.65,15,10.65,11.619z M18.291,11.719v-0.58c0-2.86-1.241-3.721-2.773-3.721
		c-1.765,0-2.773,1.261-2.773,3.641v0.58c0,2.881,1.261,3.722,2.832,3.722C17.283,15.36,18.291,14.1,18.291,11.719z"/>
	<path fill="#6F6F6F" d="M21.863,13.84V5.958h2.036v7.501c0,1.28,0.427,1.781,1.842,1.781c1.028,0,1.862-0.36,2.58-0.7V5.958h2.017
		V16.8h-1.726l-0.214-0.92h-0.097c-0.873,0.641-1.92,1.12-3.239,1.12C23.007,17,21.863,15.94,21.863,13.84z"/>
	<path fill="#6F6F6F" d="M36.725,11.639v-0.359c0-3.801,2.211-5.541,5.062-5.541c1.377,0,2.191,0.279,2.89,0.699v1.721
		c-0.931-0.4-1.571-0.66-2.909-0.66c-1.804,0-2.929,1.221-2.929,3.501v0.56c0,2.601,1.067,3.722,3.143,3.722
		c1.338,0,2.269-0.461,2.812-0.721v1.58C44.094,16.62,43.124,17,41.67,17C38.645,17,36.725,15.24,36.725,11.639z"/>
	<path fill="#6F6F6F" d="M45.474,13.92c0-1.94,1.241-2.901,3.277-3.181l2.657-0.32v-0.94c0-1.601-0.679-1.96-2.521-1.96
		c-1.027,0-1.9,0.16-2.541,0.3v-1.46c0.97-0.4,2.037-0.62,3.336-0.62c2.386,0,3.763,1.02,3.763,3.22V16.8h-1.668L51.582,15.9h-0.116
		c-0.504,0.64-1.357,1.1-2.734,1.1C46.831,17,45.474,16.02,45.474,13.92z M51.408,14.76v-2.881L49.217,12.1
		c-1.125,0.14-1.668,0.6-1.668,1.74c0,1.1,0.679,1.62,1.726,1.62C50.147,15.46,50.981,15.16,51.408,14.76z"/>
	<path fill="#6F6F6F" d="M55.502,5.958h1.959v0.94h0.097c0.873-0.641,2.23-1.16,3.511-1.16c2.056,0,3.045,0.88,3.045,2.98V16.8
		h-2.037V9.219c0-1.2-0.349-1.681-1.92-1.681c-0.892,0-1.9,0.32-2.618,0.681V16.8h-2.036V5.958z"/>
	<path fill="#6F6F6F" d="M70.402,16.22v-1.58c0.872,0.34,1.648,0.681,3.142,0.681c1.513,0,2.172-0.541,2.172-1.44
		c0-0.841-0.407-1.24-1.668-1.541L73.06,12.06c-1.552-0.381-2.638-1.161-2.638-3.081c0-1.94,1.202-3.24,3.762-3.24
		c1.436,0,2.328,0.319,2.948,0.64v1.62c-0.563-0.24-1.629-0.54-2.793-0.54c-1.318,0-1.978,0.42-1.978,1.341
		c0,0.84,0.426,1.16,1.474,1.46l0.989,0.24c2.056,0.52,2.89,1.28,2.89,3.221c0,2.16-1.493,3.261-3.879,3.261
		C72.478,16.98,71.256,16.74,70.402,16.22z"/>
	<path fill="#6F6F6F" d="M78.589,11.519v-0.279c0-3.741,2.172-5.501,4.712-5.501c2.968,0,4.345,1.78,4.345,5.2v1.021h-6.963
		c0.136,2.48,1.319,3.321,3.375,3.321c1.396,0,2.288-0.341,3.258-0.801v1.48C86.656,16.44,85.454,17,83.689,17
		C80.295,17,78.589,14.92,78.589,11.519z M80.683,10.419h4.849c0-2.181-0.795-3.021-2.308-3.021
		C82.099,7.398,80.838,7.998,80.683,10.419z"/>
	<path fill="#6F6F6F" d="M88.521,11.519v-0.279c0-3.741,2.172-5.501,4.712-5.501c2.968,0,4.345,1.78,4.345,5.2v1.021h-6.963
		c0.136,2.48,1.319,3.321,3.375,3.321c1.396,0,2.288-0.341,3.258-0.801v1.48C96.589,16.44,95.387,17,93.622,17
		C90.228,17,88.521,14.92,88.521,11.519z M90.615,10.419h4.849c0-2.181-0.795-3.021-2.308-3.021
		C92.031,7.398,90.771,7.998,90.615,10.419z"/>
	<path fill="#6F6F6F" d="M103.361,19.681v-1.46c0.252,0.08,0.641,0.12,1.009,0.12c0.989,0,1.726-0.08,2.036-0.921l0.446-1.2
		l-4.015-10.262h2.172l2.852,7.602h0.058l2.638-7.602h1.979l-4.229,11.763c-0.717,2.04-1.668,2.26-3.529,2.26
		C104.273,19.98,103.652,19.841,103.361,19.681z"/>
	<path fill="#6F6F6F" d="M112.984,11.619v-0.36c0-3.461,1.978-5.521,4.906-5.521c3.064,0,4.849,2.02,4.849,5.461v0.3
		c0,3.461-1.998,5.501-4.868,5.501C114.769,17,112.984,15,112.984,11.619z M120.625,11.719v-0.58c0-2.86-1.241-3.721-2.773-3.721
		c-1.765,0-2.773,1.261-2.773,3.641v0.58c0,2.881,1.261,3.722,2.832,3.722C119.617,15.36,120.625,14.1,120.625,11.719z"/>
	<path fill="#6F6F6F" d="M124.197,13.84V5.958h2.036v7.501c0,1.28,0.427,1.781,1.842,1.781c1.028,0,1.862-0.36,2.58-0.7V5.958h2.017
		V16.8h-1.726l-0.214-0.92h-0.097c-0.873,0.641-1.92,1.12-3.239,1.12C125.341,17,124.197,15.94,124.197,13.84z"/>
	<path fill="#6F6F6F" d="M134.828,5.958h1.959v1.22h0.097c0.602-0.74,1.688-1.36,2.813-1.36c0.252,0,0.563,0.04,0.659,0.101v1.86
		c-0.252-0.04-0.62-0.061-0.814-0.061c-0.989,0-1.959,0.301-2.677,0.78V16.8h-2.036V5.958z"/>
	<path fill="#6F6F6F" d="M146.391,1.276h2.036v5.582h0.098c0.853-0.62,2.152-1.12,3.433-1.12c2.056,0,3.045,0.88,3.045,2.98V16.8
		h-2.037V9.219c0-1.2-0.349-1.681-1.92-1.681c-0.892,0-1.9,0.32-2.618,0.681V16.8h-2.036V1.276z"/>
	<path fill="#6F6F6F" d="M157.118,1.897h2.075v2.04h-2.075V1.897z M157.138,5.958h2.036V16.8h-2.036V5.958z"/>
	<path fill="#6F6F6F" d="M160.746,16.22v-1.58c0.872,0.34,1.648,0.681,3.142,0.681c1.513,0,2.172-0.541,2.172-1.44
		c0-0.841-0.407-1.24-1.668-1.541l-0.988-0.279c-1.552-0.381-2.638-1.161-2.638-3.081c0-1.94,1.202-3.24,3.762-3.24
		c1.436,0,2.328,0.319,2.948,0.64v1.62c-0.563-0.24-1.629-0.54-2.793-0.54c-1.318,0-1.978,0.42-1.978,1.341
		c0,0.84,0.426,1.16,1.474,1.46l0.989,0.24c2.056,0.52,2.89,1.28,2.89,3.221c0,2.16-1.493,3.261-3.879,3.261
		C162.821,16.98,161.6,16.74,160.746,16.22z"/>
	<path fill="#6F6F6F" d="M170.136,14.199V7.639h-1.493V5.958h1.493V3.397h2.036v2.561h2.541v1.681h-2.541v6.261
		c0,0.98,0.311,1.341,1.455,1.341c0.427,0,0.892-0.061,1.299-0.141v1.4c-0.446,0.2-0.911,0.42-1.881,0.42
		C171.299,16.92,170.136,16.18,170.136,14.199z"/>
	<path fill="#6F6F6F" d="M175.704,11.619v-0.36c0-3.461,1.978-5.521,4.906-5.521c3.064,0,4.849,2.02,4.849,5.461v0.3
		c0,3.461-1.998,5.501-4.868,5.501C177.488,17,175.704,15,175.704,11.619z M183.345,11.719v-0.58c0-2.86-1.241-3.721-2.773-3.721
		c-1.765,0-2.773,1.261-2.773,3.641v0.58c0,2.881,1.261,3.722,2.832,3.722C182.337,15.36,183.345,14.1,183.345,11.719z"/>
	<path fill="#6F6F6F" d="M186.975,5.958h1.959v1.22h0.097c0.602-0.74,1.688-1.36,2.813-1.36c0.252,0,0.563,0.04,0.659,0.101v1.86
		c-0.252-0.04-0.62-0.061-0.814-0.061c-0.989,0-1.959,0.301-2.677,0.78V16.8h-2.036V5.958z"/>
	<path fill="#6F6F6F" d="M193.124,19.681v-1.46c0.252,0.08,0.641,0.12,1.009,0.12c0.989,0,1.726-0.08,2.036-0.921l0.446-1.2
		l-4.015-10.262h2.172l2.852,7.602h0.058l2.638-7.602h1.979l-4.229,11.763c-0.717,2.04-1.668,2.26-3.529,2.26
		C194.036,19.98,193.415,19.841,193.124,19.681z"/>
</g>
</svg>
