<?xml version="1.0" encoding="utf-8"?>
<!-- Generator: Adobe Illustrator 16.0.0, SVG Export Plug-In . SVG Version: 6.00 Build 0)  -->
<!DOCTYPE svg PUBLIC "-//W3C//DTD SVG 1.1//EN" "http://www.w3.org/Graphics/SVG/1.1/DTD/svg11.dtd">
<svg version="1.1" xmlns="http://www.w3.org/2000/svg" xmlns:xlink="http://www.w3.org/1999/xlink" x="0px" y="0px" width="72px"
	 height="72px" viewBox="0 0 72 72" enable-background="new 0 0 72 72" xml:space="preserve">
<g id="Layer_1">
	<g>
		<g>
			<path fill="#C65959" d="M23.238,25.441c4.387-5.06,11.163-6.805,17.195-5.042l27.176-1.639c-2.003-3.671-4.678-7.056-8.023-9.956
				C44.564-4.223,21.827-2.606,8.801,12.417c-3.646,4.206-6.146,9.018-7.522,14.05l19.89,17.694
				C18.005,38.268,18.595,30.794,23.238,25.441z"/>
			<path fill="#79ADAD" d="M24.903,48.854c-1.572-1.362-2.807-2.962-3.735-4.692L1.278,26.467
				C-2.267,39.41,1.598,53.824,12.413,63.205c4.363,3.782,9.377,6.323,14.614,7.666l19.266-21.737
				C40.155,54.18,31.107,54.234,24.903,48.854z"/>
			<path fill="#F1CC6E" d="M67.609,18.76l-27.176,1.639c2.224,0.649,4.351,1.759,6.216,3.377c6.924,6.005,7.67,16.487,1.666,23.412
				c-0.625,0.721-1.31,1.36-2.021,1.946L27.027,70.871c12.796,3.282,26.927-0.62,36.172-11.28
				C73.325,47.915,74.599,31.577,67.609,18.76z"/>
		</g>
		<g>
			<circle fill="#FFFFFF" stroke="#6F6F6F" stroke-width="1.5538" stroke-miterlimit="10" cx="35.776" cy="36.31" r="16.596"/>
			<g>
				<path fill="#7598F1" d="M35.771,45.754c-2.27,0-4.465-0.82-6.182-2.31c-3.934-3.411-4.359-9.386-0.948-13.319
					c1.794-2.07,4.396-3.257,7.138-3.257c2.27,0,4.464,0.82,6.181,2.309c1.907,1.652,3.055,3.948,3.233,6.464
					s-0.633,4.951-2.286,6.857C41.113,44.567,38.512,45.754,35.771,45.754z"/>
				<path fill="#6F6F6F" d="M35.78,27.646L35.78,27.646c2.082,0,4.096,0.752,5.672,2.119c1.749,1.517,2.803,3.624,2.967,5.932
					s-0.581,4.543-2.098,6.293c-1.646,1.899-4.034,2.988-6.55,2.988c-2.083,0-4.097-0.752-5.672-2.12
					c-3.61-3.13-4-8.614-0.87-12.223C30.875,28.735,33.263,27.646,35.78,27.646 M35.779,26.092c-2.86,0-5.704,1.194-7.725,3.525
					c-3.697,4.264-3.237,10.717,1.026,14.415c1.934,1.678,4.317,2.5,6.69,2.5c2.86,0,5.704-1.194,7.724-3.524
					c3.698-4.265,3.241-10.719-1.025-14.417C40.536,26.914,38.152,26.092,35.779,26.092L35.779,26.092z"/>
			</g>
			<g>
				<path fill="#FFFFFF" stroke="#6F6F6F" stroke-width="1.5538" stroke-miterlimit="10" d="M61.711,60.116
					c-1.485,1.713-4.08,1.898-5.794,0.412l-7.842-6.8c-1.712-1.485-1.897-4.081-0.412-5.795l0,0
					c1.487-1.713,4.081-1.897,5.794-0.412l7.842,6.8C63.014,55.808,63.198,58.401,61.711,60.116L61.711,60.116z"/>
				
					<line fill="none" stroke="#6F6F6F" stroke-width="0.6215" stroke-linecap="round" stroke-linejoin="round" stroke-miterlimit="10" x1="53.116" y1="47.227" x2="47.737" y2="53.432"/>
				
					<line fill="none" stroke="#6F6F6F" stroke-width="0.6215" stroke-linecap="round" stroke-linejoin="round" stroke-miterlimit="10" x1="54.083" y1="48.193" x2="48.703" y2="54.398"/>
			</g>
			
				<path fill="none" stroke="#6F6F6F" stroke-width="0.6215" stroke-linecap="round" stroke-linejoin="round" stroke-miterlimit="10" d="
				M25.151,40.181c1.447,3.977,5.083,6.968,9.575,7.388c1.726,0.162,3.396-0.074,4.922-0.631"/>
			<path fill="#FFFFFF" d="M32.249,28.818c2.886-1.266,6.368-0.852,8.907,1.351c0.976,0.845,1.709,1.867,2.194,2.974"/>
		</g>
	</g>
</g>
<g id="Isolation_Mode">
</g>
</svg>
