<?xml version="1.0" encoding="utf-8"?>
<!-- Generator: Adobe Illustrator 16.0.0, SVG Export Plug-In . SVG Version: 6.00 Build 0)  -->
<!DOCTYPE svg PUBLIC "-//W3C//DTD SVG 1.1//EN" "http://www.w3.org/Graphics/SVG/1.1/DTD/svg11.dtd">
<svg version="1.1" xmlns="http://www.w3.org/2000/svg" xmlns:xlink="http://www.w3.org/1999/xlink" x="0px" y="0px" width="600px"
	 height="600px" viewBox="0 0 600 600" enable-background="new 0 0 600 600" xml:space="preserve">
<g id="Layer_1">
	<g>
		<g>
			<path fill="#C65959" d="M193.65,212.009c36.562-42.168,93.023-56.706,143.295-42.02l226.467-13.661
				c-16.688-30.596-38.979-58.797-66.861-82.968C371.372-35.196,181.893-21.718,73.341,103.467
				C42.956,138.515,22.13,178.62,10.654,220.554L176.4,368.006C150.043,318.893,154.963,256.618,193.65,212.009z"/>
			<path fill="#79ADAD" d="M207.53,407.109c-13.099-11.353-23.39-24.684-31.129-39.103L10.654,220.554
				c-29.542,107.86,2.662,227.979,92.792,306.148c36.354,31.521,78.142,52.69,121.785,63.884l160.545-181.145
				C334.625,451.498,259.229,451.95,207.53,407.109z"/>
			<path fill="#F1CC6E" d="M563.412,156.329l-226.467,13.661c18.531,5.408,36.257,14.661,51.797,28.139
				c57.707,50.042,63.921,137.393,13.881,195.1c-5.213,6.006-10.915,11.331-16.847,16.213L225.231,590.586
				c106.635,27.348,224.392-5.164,301.436-94.002C611.047,399.283,621.656,263.138,563.412,156.329z"/>
		</g>
		<g>
			<path fill="#FFFFFF" stroke="#6F6F6F" stroke-width="12.9479" stroke-miterlimit="10" d="M402.624,393.193
				c-50.053,57.72-137.387,63.933-195.105,13.887c-57.695-50.043-63.921-137.399-13.868-195.108
				c50.027-57.714,137.386-63.916,195.081-13.873C446.449,248.139,452.651,335.49,402.624,393.193z"/>
			<g>
				<path fill="#7598F1" d="M298.093,381.282c-18.915,0-37.21-6.835-51.516-19.246c-32.775-28.427-36.317-78.218-7.897-110.992
					c14.954-17.25,36.634-27.143,59.483-27.143c18.912,0,37.204,6.833,51.509,19.241c32.781,28.419,36.322,78.218,7.896,111.009
					C342.616,371.393,320.938,381.282,298.093,381.282z"/>
				<path fill="#6F6F6F" d="M298.164,217.427v12.948c17.353,0,34.139,6.271,47.269,17.66c30.083,26.08,33.332,71.782,7.244,101.875
					c-13.722,15.824-33.617,24.899-54.583,24.899c-17.356,0-34.145-6.273-47.274-17.664c-30.078-26.088-33.329-71.782-7.246-101.861
					c13.723-15.83,33.62-24.909,54.59-24.909L298.164,217.427 M298.163,217.427c-23.832,0-47.535,9.951-64.374,29.375
					c-30.813,35.534-26.98,89.31,8.546,120.124c16.112,13.978,35.98,20.83,55.758,20.83c23.83,0,47.528-9.948,64.366-29.364
					c30.813-35.543,27.004-89.321-8.545-120.141C337.804,224.278,317.939,217.427,298.163,217.427L298.163,217.427z"/>
			</g>
			<g>
				<path fill="#FFFFFF" stroke="#6F6F6F" stroke-width="12.9479" stroke-miterlimit="10" d="M514.264,500.961
					c-12.378,14.277-33.999,15.816-48.282,3.436l-65.349-56.67c-14.271-12.379-15.809-34.006-3.43-48.295l0,0
					c12.392-14.273,34.011-15.811,48.283-3.431l65.348,56.672C525.116,465.061,526.654,486.676,514.264,500.961L514.264,500.961z"/>
				
					<line fill="none" stroke="#6F6F6F" stroke-width="5.1792" stroke-linecap="round" stroke-linejoin="round" stroke-miterlimit="10" x1="442.641" y1="393.552" x2="397.813" y2="445.267"/>
				
					<line fill="none" stroke="#6F6F6F" stroke-width="5.1792" stroke-linecap="round" stroke-linejoin="round" stroke-miterlimit="10" x1="450.697" y1="401.603" x2="405.859" y2="453.316"/>
			</g>
			
				<path fill="none" stroke="#6F6F6F" stroke-width="5.1792" stroke-linecap="round" stroke-linejoin="round" stroke-miterlimit="10" d="
				M209.593,334.836c12.061,33.14,42.361,58.07,79.79,61.567c14.381,1.349,28.297-0.618,41.019-5.257"/>
			<path fill="#FFFFFF" d="M268.74,240.15c24.049-10.549,53.067-7.101,74.224,11.255c8.131,7.039,14.247,15.555,18.288,24.784"/>
		</g>
	</g>
</g>
<g id="Isolation_Mode">
</g>
</svg>
