<?xml version="1.0" encoding="utf-8"?>
<!-- Generator: Adobe Illustrator 16.0.0, SVG Export Plug-In . SVG Version: 6.00 Build 0)  -->
<!DOCTYPE svg PUBLIC "-//W3C//DTD SVG 1.1//EN" "http://www.w3.org/Graphics/SVG/1.1/DTD/svg11.dtd">
<svg version="1.1" xmlns="http://www.w3.org/2000/svg" xmlns:xlink="http://www.w3.org/1999/xlink" x="0px" y="0px" width="30px"
	 height="30px" viewBox="0 0 30 30" enable-background="new 0 0 30 30" xml:space="preserve">
<g id="Layer_1">
	<g>
		<g>
			<path fill="#C65959" d="M9.682,10.601c1.829-2.109,4.651-2.835,7.165-2.102L28.17,7.816c-0.834-1.53-1.949-2.94-3.343-4.148
				C18.568-1.76,9.095-1.086,3.667,5.173c-1.52,1.752-2.561,3.757-3.135,5.854L8.82,18.4C7.502,15.944,7.748,12.831,9.682,10.601z"
				/>
			<path fill="#79ADAD" d="M10.376,20.355C9.722,19.788,9.207,19.121,8.82,18.4l-8.288-7.372c-1.477,5.393,0.133,11.398,4.64,15.307
				c1.817,1.576,3.907,2.635,6.09,3.194l8.027-9.057C16.73,22.575,12.961,22.597,10.376,20.355z"/>
			<path fill="#F1CC6E" d="M28.17,7.816L16.847,8.499c0.926,0.271,1.813,0.733,2.589,1.407c2.886,2.502,3.196,6.87,0.694,9.755
				c-0.26,0.3-0.546,0.566-0.842,0.811l-8.027,9.057c5.332,1.368,11.219-0.257,15.071-4.699
				C30.552,19.964,31.083,13.156,28.17,7.816z"/>
		</g>
		<g>
			<circle fill="#FFFFFF" stroke="#6F6F6F" stroke-width="0.6474" stroke-miterlimit="10" cx="14.906" cy="15.129" r="6.915"/>
			<g>
				<path fill="#7598F1" d="M14.904,19.063c-0.946,0-1.86-0.342-2.576-0.962c-1.639-1.421-1.815-3.91-0.395-5.549
					c0.748-0.862,1.832-1.357,2.975-1.357c0.946,0,1.86,0.341,2.575,0.961c1.639,1.421,1.815,3.911,0.394,5.55
					C17.13,18.569,16.046,19.063,14.904,19.063z"/>
				<path fill="#6F6F6F" d="M14.909,11.519L14.909,11.519c0.868,0,1.707,0.313,2.362,0.883c1.504,1.304,1.667,3.589,0.362,5.094
					c-0.686,0.791-1.681,1.245-2.729,1.245c-0.868,0-1.707-0.313-2.363-0.883c-0.729-0.632-1.167-1.509-1.236-2.471
					c-0.068-0.962,0.242-1.893,0.874-2.622C12.864,11.973,13.859,11.519,14.909,11.519 M14.908,10.872
					c-1.191,0-2.377,0.498-3.219,1.469c-1.541,1.776-1.349,4.465,0.427,6.005c0.806,0.699,1.799,1.042,2.788,1.042
					c1.192,0,2.376-0.498,3.218-1.468c1.541-1.777,1.351-4.465-0.427-6.007C16.89,11.214,15.897,10.871,14.908,10.872L14.908,10.872
					z"/>
			</g>
			<g>
				<path fill="#FFFFFF" stroke="#6F6F6F" stroke-width="0.6474" stroke-miterlimit="10" d="M25.713,25.048
					c-0.619,0.713-1.699,0.791-2.415,0.171l-3.267-2.833c-0.714-0.619-0.791-1.701-0.172-2.415l0,0
					c0.62-0.714,1.701-0.791,2.415-0.172l3.267,2.834C26.255,23.252,26.333,24.334,25.713,25.048L25.713,25.048z"/>
				
					<line fill="none" stroke="#6F6F6F" stroke-width="0.259" stroke-linecap="round" stroke-linejoin="round" stroke-miterlimit="10" x1="22.132" y1="19.677" x2="19.891" y2="22.263"/>
				
					<line fill="none" stroke="#6F6F6F" stroke-width="0.259" stroke-linecap="round" stroke-linejoin="round" stroke-miterlimit="10" x1="22.534" y1="20.08" x2="20.293" y2="22.665"/>
			</g>
			
				<path fill="none" stroke="#6F6F6F" stroke-width="0.259" stroke-linecap="round" stroke-linejoin="round" stroke-miterlimit="10" d="
				M10.479,16.741c0.603,1.657,2.118,2.904,3.989,3.079c0.719,0.067,1.415-0.031,2.052-0.263"/>
			<path fill="#FFFFFF" d="M13.437,12.007c1.203-0.527,2.653-0.355,3.711,0.563c0.406,0.352,0.712,0.778,0.915,1.239"/>
		</g>
	</g>
</g>
<g id="Isolation_Mode">
</g>
</svg>
