<?xml version="1.0" encoding="utf-8"?>
<!-- Generator: Adobe Illustrator 16.0.0, SVG Export Plug-In . SVG Version: 6.00 Build 0)  -->
<!DOCTYPE svg PUBLIC "-//W3C//DTD SVG 1.1//EN" "http://www.w3.org/Graphics/SVG/1.1/DTD/svg11.dtd">
<svg version="1.1" id="레이어_1" xmlns="http://www.w3.org/2000/svg" xmlns:xlink="http://www.w3.org/1999/xlink" x="0px"
	 y="0px" width="311px" height="190.251px" viewBox="0 0 311 190.251" enable-background="new 0 0 311 190.251"
	 xml:space="preserve">
<rect fill="none" width="311" height="190.001"/>
<path fill="#C65959" d="M132.495,64.469c7.909-9.121,20.122-12.266,30.996-9.089l48.984-2.955
	c-3.609-6.618-8.431-12.718-14.462-17.946c-27.076-23.481-68.062-20.566-91.541,6.512c-6.573,7.581-11.077,16.256-13.56,25.327
	l35.852,31.894C123.063,87.588,124.128,74.118,132.495,64.469z"/>
<path fill="#79ADAD" d="M135.498,106.67c-2.834-2.456-5.06-5.34-6.733-8.459L92.913,66.317
	c-6.391,23.331,0.576,49.312,20.071,66.222c7.863,6.817,16.902,11.396,26.343,13.816l34.727-39.182
	C162.989,116.271,146.681,116.369,135.498,106.67z"/>
<path fill="#F1CC6E" d="M212.477,52.425l-48.985,2.955c4.008,1.17,7.842,3.172,11.204,6.086
	c12.481,10.824,13.826,29.718,3.003,42.202c-1.128,1.299-2.362,2.451-3.645,3.506l-34.727,39.183
	c23.065,5.915,48.537-1.116,65.201-20.333C222.78,104.978,225.075,75.528,212.477,52.425z"/>
<path fill="#FFFFFF" stroke="#6F6F6F" stroke-width="3" stroke-miterlimit="10" d="M177.698,103.659
	c-10.827,12.485-29.719,13.829-42.203,3.005c-12.479-10.824-13.826-29.721-3-42.203c10.822-12.484,29.718-13.825,42.197-3.001
	C187.177,72.284,188.519,91.178,177.698,103.659z"/>
<path fill="#7598F1" d="M155.087,101.083c-4.092,0-8.048-1.478-11.143-4.163c-7.09-6.148-7.855-16.919-1.709-24.008
	c3.235-3.731,7.925-5.871,12.867-5.871c4.09,0,8.047,1.479,11.141,4.162c7.092,6.147,7.857,16.918,1.708,24.012
	C164.718,98.943,160.028,101.083,155.087,101.083z"/>
<path fill="#6F6F6F" d="M155.103,68.442L155.103,68.442c3.754,0,7.385,1.356,10.225,3.82c6.507,5.641,7.21,15.527,1.566,22.036
	c-2.967,3.423-7.271,5.386-11.807,5.386c-3.754,0-7.385-1.356-10.225-3.82c-6.506-5.644-7.21-15.527-1.568-22.034
	C146.263,70.405,150.566,68.442,155.103,68.442 M155.103,65.641c-5.155,0-10.283,2.152-13.924,6.354
	c-6.665,7.687-5.836,19.318,1.848,25.984c3.485,3.023,7.783,4.505,12.061,4.505c5.154,0,10.281-2.151,13.924-6.352
	c6.664-7.688,5.84-19.32-1.85-25.986C163.677,67.123,159.38,65.641,155.103,65.641L155.103,65.641z"/>
<path fill="#FFFFFF" stroke="#6F6F6F" stroke-width="3" stroke-miterlimit="10" d="M201.846,126.971
	c-2.677,3.088-7.354,3.421-10.443,0.742l-14.136-12.258c-3.086-2.678-3.419-7.355-0.742-10.446l0,0
	c2.681-3.087,7.356-3.419,10.443-0.741l14.136,12.258C204.193,119.205,204.526,123.881,201.846,126.971L201.846,126.971z"/>
<line fill="none" stroke="#6F6F6F" stroke-width="1.1" stroke-linecap="round" stroke-linejoin="round" stroke-miterlimit="10" x1="186.354" y1="103.737" x2="176.657" y2="114.924"/>
<line fill="none" stroke="#6F6F6F" stroke-width="1.1" stroke-linecap="round" stroke-linejoin="round" stroke-miterlimit="10" x1="188.097" y1="105.479" x2="178.397" y2="116.664"/>
<path fill="none" stroke="#6F6F6F" stroke-width="1.1" stroke-linecap="round" stroke-linejoin="round" stroke-miterlimit="10" d="
	M135.944,91.037c2.609,7.168,9.163,12.561,17.26,13.317c3.109,0.292,6.119-0.134,8.871-1.138"/>
<path fill="#FFFFFF" d="M148.737,70.556c5.202-2.282,11.479-1.536,16.056,2.434c1.759,1.523,3.081,3.364,3.956,5.361"/>
<g>
	<path fill="#706F6F" d="M95.916,167.121v-15.05h2.562v15.05H95.916z"/>
	<path fill="#706F6F" d="M100.89,152.755c-0.256,0-0.384-0.129-0.384-0.47v-1.665c0-0.32,0.106-0.491,0.384-0.491h1.9
		c0.256,0,0.384,0.149,0.384,0.491v1.366c0,0.832-0.491,2.241-0.918,3.053l-1.174-0.32c0.214-0.576,0.342-1.132,0.385-1.751
		c0.021-0.149-0.064-0.213-0.192-0.213H100.89z"/>
	<path fill="#706F6F" d="M114.273,167.121v-8.368c0-0.918-0.491-1.366-1.195-1.366c-0.747,0-1.174,0.491-1.174,1.388v8.347h-2.498
		v-8.347c0-0.896-0.427-1.388-1.152-1.388c-0.704,0-1.153,0.448-1.153,1.366v8.368h-2.497v-8.453c0-2.392,1.281-3.629,3.586-3.544
		c1.238,0.043,2.007,0.684,2.392,1.345c0.405-0.661,1.217-1.302,2.476-1.345c2.306-0.085,3.672,1.152,3.672,3.544v8.453H114.273z"/>
	<path fill="#706F6F" d="M122.599,155.444h3.01c2.178,0,3.096,1.089,3.096,3.224v5.636c0,2.177-1.323,3.138-3.544,3.138
		c-2.22,0-3.501-0.961-3.501-3.138v-1.814c0-2.242,1.153-3.011,3.139-3.011h1.473v-0.854c0-0.684-0.277-0.961-0.961-0.961h-2.711
		V155.444z M126.271,164.239v-2.647h-1.217c-0.491,0-0.982,0.192-0.982,0.982v1.559c0,0.811,0.449,1.089,1.089,1.089
		C125.758,165.222,126.271,165.072,126.271,164.239z"/>
	<path fill="#706F6F" d="M141.319,163.599c0,2.391-1.451,3.693-3.33,3.693c-0.789,0-1.28-0.171-1.687-0.555v4.248h-2.454v-12.168
		c0-2.392,1.345-3.693,3.735-3.693s3.735,1.302,3.735,3.693V163.599z M136.303,163.705c0,0.876,0.513,1.388,1.281,1.388
		c0.79,0,1.238-0.47,1.238-1.494v-4.803c0-1.024-0.448-1.452-1.238-1.452c-0.769,0-1.281,0.428-1.281,1.452V163.705z"/>
	<path fill="#706F6F" d="M146.955,157.515h-0.982c-0.896,0-1.195,0.363-1.195,1.559v8.048h-2.434v-8.197
		c0-2.626,0.812-3.65,3.395-3.65h1.217V157.515z"/>
	<path fill="#706F6F" d="M147.467,158.924c0-2.391,1.452-3.8,3.778-3.8c2.327,0,3.779,1.409,3.779,3.8v4.781
		c0,2.392-1.452,3.779-3.779,3.779c-2.326,0-3.778-1.388-3.778-3.779V158.924z M149.879,163.77c0,1.024,0.641,1.516,1.366,1.516
		c0.727,0,1.346-0.491,1.346-1.516v-4.91c0-1.046-0.619-1.536-1.346-1.536c-0.726,0-1.366,0.49-1.366,1.536V163.77z"/>
	<path fill="#706F6F" d="M159.849,158.817c0-2.392,1.388-3.693,3.757-3.693c2.412,0,3.778,1.302,3.778,3.693v8.88
		c0,2.263-1.237,3.288-3.244,3.288h-2.925v-2.242h2.54c0.896,0,1.132-0.32,1.132-1.238v-0.917c-0.363,0.319-0.961,0.576-1.644,0.576
		c-2.113,0-3.395-1.303-3.395-3.693V158.817z M164.887,158.796c0-1.024-0.491-1.452-1.281-1.452c-0.769,0-1.259,0.428-1.259,1.452
		v4.525c0,1.046,0.362,1.622,1.259,1.622c0.747,0,1.238-0.47,1.281-1.28V158.796z"/>
	<path fill="#706F6F" d="M168.387,158.924c0-2.391,1.452-3.8,3.778-3.8c2.327,0,3.779,1.409,3.779,3.8v4.781
		c0,2.392-1.452,3.779-3.779,3.779c-2.326,0-3.778-1.388-3.778-3.779V158.924z M170.799,163.77c0,1.024,0.641,1.516,1.366,1.516
		c0.727,0,1.346-0.491,1.346-1.516v-4.91c0-1.046-0.619-1.536-1.346-1.536c-0.726,0-1.366,0.49-1.366,1.536V163.77z"/>
	<path fill="#706F6F" d="M176.925,158.924c0-2.391,1.452-3.8,3.778-3.8c2.327,0,3.779,1.409,3.779,3.8v4.781
		c0,2.392-1.452,3.779-3.779,3.779c-2.326,0-3.778-1.388-3.778-3.779V158.924z M179.337,163.77c0,1.024,0.641,1.516,1.366,1.516
		c0.727,0,1.346-0.491,1.346-1.516v-4.91c0-1.046-0.619-1.536-1.346-1.536c-0.726,0-1.366,0.49-1.366,1.536V163.77z"/>
	<path fill="#706F6F" d="M185.357,158.817c0-2.392,1.388-3.693,3.757-3.693c2.412,0,3.778,1.302,3.778,3.693v8.88
		c0,2.263-1.237,3.288-3.244,3.288h-2.925v-2.242h2.54c0.896,0,1.132-0.32,1.132-1.238v-0.917c-0.363,0.319-0.961,0.576-1.644,0.576
		c-2.113,0-3.395-1.303-3.395-3.693V158.817z M190.396,158.796c0-1.024-0.491-1.452-1.281-1.452c-0.769,0-1.259,0.428-1.259,1.452
		v4.525c0,1.046,0.362,1.622,1.259,1.622c0.747,0,1.238-0.47,1.281-1.28V158.796z"/>
	<path fill="#706F6F" d="M196.714,152.093v11.527c0,1.003,0.406,1.195,0.982,1.195h0.128v2.306h-0.277
		c-2.113,0-3.288-0.875-3.288-3.224v-11.805H196.714z"/>
	<path fill="#706F6F" d="M205.082,167.121h-3.331c-1.707,0-3.351-0.491-3.351-3.458v-4.824c0-2.413,1.217-3.715,3.607-3.715
		c2.369,0,3.586,1.281,3.586,3.715v1.473c0,2.732-1.366,3.074-3.266,3.074h-1.431v0.319c0,1.175,0.47,1.196,1.217,1.196h2.968
		V167.121z M201.943,161.272c0.854,0,1.153-0.3,1.153-1.217v-1.324c0-0.981-0.299-1.388-1.089-1.388s-1.11,0.406-1.11,1.431v2.498
		H201.943z"/>
	<path fill="#706F6F" d="M211.23,157.515h-0.982c-0.896,0-1.195,0.363-1.195,1.559v8.048h-2.434v-8.197
		c0-2.626,0.812-3.65,3.395-3.65h1.217V157.515z"/>
	<path fill="#706F6F" d="M212.682,163.642l-0.32-5.657v-6.554h2.455v6.554l-0.3,5.657H212.682z M212.724,167.121
		c-0.234,0-0.362-0.128-0.362-0.448V165.2c0-0.299,0.106-0.448,0.362-0.448h1.644c0.235,0,0.363,0.128,0.363,0.448v1.473
		c0,0.32-0.128,0.448-0.363,0.448H212.724z"/>
</g>
<line fill="none" stroke="#D3D3D3" stroke-width="0.5" stroke-miterlimit="10" x1="0.229" y1="190.001" x2="310.771" y2="190.001"/>
</svg>
