<?xml version="1.0" encoding="utf-8"?>
<!-- Generator: Adobe Illustrator 16.0.0, SVG Export Plug-In . SVG Version: 6.00 Build 0)  -->
<!DOCTYPE svg PUBLIC "-//W3C//DTD SVG 1.1//EN" "http://www.w3.org/Graphics/SVG/1.1/DTD/svg11.dtd">
<svg version="1.1" xmlns="http://www.w3.org/2000/svg" xmlns:xlink="http://www.w3.org/1999/xlink" x="0px" y="0px" width="15px"
	 height="15px" viewBox="0 0 15 15" enable-background="new 0 0 15 15" xml:space="preserve">
<g id="Layer_1">
	<g>
		<g>
			<path fill="#C65959" d="M4.841,5.3C5.755,4.246,7.167,3.883,8.423,4.25l5.662-0.341c-0.417-0.766-0.975-1.471-1.671-2.075
				C9.284-0.88,4.547-0.543,1.833,2.587c-0.76,0.876-1.28,1.878-1.567,2.927L4.41,9.2C3.75,7.972,3.874,6.416,4.841,5.3z"/>
			<path fill="#79ADAD" d="M5.188,10.178C4.861,9.894,4.603,9.561,4.41,9.2L0.266,5.514c-0.738,2.696,0.066,5.699,2.319,7.653
				c0.909,0.788,1.954,1.317,3.045,1.597l4.014-4.529C8.365,11.288,6.48,11.299,5.188,10.178z"/>
			<path fill="#F1CC6E" d="M14.085,3.909L8.423,4.25C8.887,4.385,9.33,4.616,9.718,4.954c1.443,1.251,1.598,3.435,0.347,4.877
				c-0.13,0.15-0.273,0.283-0.421,0.405L5.63,14.765c2.667,0.684,5.61-0.129,7.536-2.35C15.276,9.982,15.542,6.579,14.085,3.909z"/>
		</g>
		<g>
			<circle fill="#FFFFFF" stroke="#6F6F6F" stroke-width="0.3237" stroke-miterlimit="10" cx="7.453" cy="7.565" r="3.458"/>
			<g>
				<path fill="#7598F1" d="M7.452,9.532c-0.473,0-0.93-0.171-1.288-0.481C5.767,8.707,5.528,8.229,5.49,7.705
					C5.453,7.181,5.622,6.673,5.966,6.276C6.34,5.845,6.883,5.598,7.454,5.598c0.473,0,0.93,0.171,1.288,0.481
					c0.397,0.345,0.636,0.823,0.673,1.347S9.283,8.457,8.939,8.854C8.565,9.285,8.023,9.532,7.452,9.532z"/>
				<path fill="#6F6F6F" d="M7.454,5.76L7.454,5.76c0.434,0,0.854,0.157,1.182,0.441C9,6.517,9.219,6.956,9.253,7.437
					c0.034,0.48-0.121,0.946-0.437,1.311C8.473,9.143,7.976,9.37,7.452,9.37c-0.434,0-0.854-0.157-1.182-0.441
					C5.906,8.613,5.686,8.174,5.652,7.693c-0.034-0.48,0.121-0.946,0.437-1.311C6.432,5.987,6.93,5.76,7.454,5.76 M7.454,5.436
					c-0.596,0-1.189,0.249-1.61,0.734C5.074,7.059,5.169,8.403,6.058,9.173c0.403,0.35,0.899,0.521,1.394,0.521
					c0.596,0,1.188-0.249,1.609-0.734c0.771-0.888,0.675-2.232-0.213-3.003C8.445,5.607,7.949,5.436,7.454,5.436L7.454,5.436z"/>
			</g>
			<g>
				<path fill="#FFFFFF" stroke="#6F6F6F" stroke-width="0.3237" stroke-miterlimit="10" d="M12.856,12.524
					c-0.31,0.357-0.85,0.396-1.208,0.086l-1.633-1.417c-0.357-0.31-0.396-0.85-0.086-1.208l0,0C10.24,9.629,10.78,9.59,11.137,9.9
					l1.633,1.417C13.127,11.626,13.166,12.167,12.856,12.524L12.856,12.524z"/>
				
					<line fill="none" stroke="#6F6F6F" stroke-width="0.1295" stroke-linecap="round" stroke-linejoin="round" stroke-miterlimit="10" x1="11.066" y1="9.838" x2="9.945" y2="11.132"/>
				
					<line fill="none" stroke="#6F6F6F" stroke-width="0.1295" stroke-linecap="round" stroke-linejoin="round" stroke-miterlimit="10" x1="11.267" y1="10.041" x2="10.146" y2="11.333"/>
			</g>
			
				<path fill="none" stroke="#6F6F6F" stroke-width="0.1295" stroke-linecap="round" stroke-linejoin="round" stroke-miterlimit="10" d="
				M5.24,8.371C5.541,9.2,6.298,9.823,7.234,9.911C7.594,9.944,7.942,9.895,8.26,9.779"/>
			<path fill="#FFFFFF" d="M6.718,6.004C7.319,5.74,8.045,5.827,8.574,6.285c0.203,0.176,0.356,0.389,0.458,0.62"/>
		</g>
	</g>
</g>
<g id="Isolation_Mode">
</g>
</svg>
