<?xml version="1.0" encoding="utf-8"?>
<!-- Generator: Adobe Illustrator 16.0.0, SVG Export Plug-In . SVG Version: 6.00 Build 0)  -->
<!DOCTYPE svg PUBLIC "-//W3C//DTD SVG 1.1//EN" "http://www.w3.org/Graphics/SVG/1.1/DTD/svg11.dtd">
<svg version="1.1" xmlns="http://www.w3.org/2000/svg" xmlns:xlink="http://www.w3.org/1999/xlink" x="0px" y="0px" width="300px"
	 height="300px" viewBox="0 0 300 300" enable-background="new 0 0 300 300" xml:space="preserve">
<g id="Layer_1">
	<g>
		<g>
			<path fill="#C65959" d="M96.825,106.005c18.281-21.084,46.512-28.354,71.647-21.01l113.233-6.831
				c-8.344-15.298-19.489-29.398-33.431-41.483C185.686-17.598,90.947-10.859,36.671,51.733
				C21.478,69.257,11.065,89.31,5.327,110.277L88.2,184.003C75.022,159.446,77.481,128.309,96.825,106.005z"/>
			<path fill="#79ADAD" d="M103.765,203.554c-6.55-5.676-11.695-12.342-15.565-19.551L5.327,110.277
				c-14.771,53.93,1.331,113.989,46.396,153.074c18.177,15.76,39.071,26.345,60.893,31.941l80.272-90.573
				C167.313,225.749,129.615,225.975,103.765,203.554z"/>
			<path fill="#F1CC6E" d="M281.706,78.164l-113.233,6.831c9.266,2.704,18.128,7.331,25.899,14.069
				c28.853,25.021,31.96,68.696,6.94,97.55c-2.606,3.003-5.458,5.666-8.424,8.106l-80.272,90.573
				c53.318,13.674,112.196-2.582,150.718-47.001C305.524,199.642,310.828,131.569,281.706,78.164z"/>
		</g>
		<g>
			<path fill="#FFFFFF" stroke="#6F6F6F" stroke-width="6.474" stroke-miterlimit="10" d="M201.312,196.596
				c-25.026,28.86-68.694,31.967-97.553,6.944c-28.848-25.021-31.96-68.7-6.934-97.554c25.014-28.857,68.693-31.958,97.541-6.937
				C223.225,124.069,226.326,167.745,201.312,196.596z"/>
			<g>
				<path fill="#7598F1" d="M149.046,190.641c-9.457,0-18.604-3.417-25.758-9.624c-16.387-14.213-18.158-39.109-3.948-55.496
					c7.477-8.625,18.317-13.571,29.741-13.571c9.456,0,18.602,3.417,25.754,9.621c16.391,14.21,18.161,39.109,3.948,55.505
					C171.308,185.696,160.469,190.641,149.046,190.641z"/>
				<path fill="#6F6F6F" d="M149.083,115.188L149.083,115.188c8.676,0,17.069,3.135,23.634,8.83
					c15.041,13.04,16.666,35.891,3.622,50.938c-6.861,7.912-16.809,12.449-27.292,12.449c-8.678,0-17.072-3.136-23.637-8.832
					c-15.039-13.044-16.665-35.891-3.624-50.931C128.647,119.727,138.597,115.188,149.083,115.188 M149.082,108.713
					c-11.916,0-23.768,4.975-32.187,14.688c-15.406,17.767-13.49,44.655,4.273,60.062c8.056,6.989,17.99,10.415,27.879,10.415
					c11.915,0,23.765-4.974,32.183-14.682c15.406-17.771,13.502-44.661-4.272-60.07C168.902,112.139,158.97,108.713,149.082,108.713
					L149.082,108.713z"/>
			</g>
			<g>
				<path fill="#FFFFFF" stroke="#6F6F6F" stroke-width="6.474" stroke-miterlimit="10" d="M257.132,250.48
					c-6.189,7.139-17,7.908-24.141,1.718l-32.675-28.335c-7.135-6.189-7.904-17.003-1.715-24.148l0,0
					c6.196-7.136,17.005-7.905,24.141-1.715l32.674,28.336C262.558,232.53,263.327,243.338,257.132,250.48L257.132,250.48z"/>
				
					<line fill="none" stroke="#6F6F6F" stroke-width="2.5896" stroke-linecap="round" stroke-linejoin="round" stroke-miterlimit="10" x1="221.32" y1="196.776" x2="198.907" y2="222.633"/>
				
					<line fill="none" stroke="#6F6F6F" stroke-width="2.5896" stroke-linecap="round" stroke-linejoin="round" stroke-miterlimit="10" x1="225.349" y1="200.801" x2="202.93" y2="226.658"/>
			</g>
			
				<path fill="none" stroke="#6F6F6F" stroke-width="2.5896" stroke-linecap="round" stroke-linejoin="round" stroke-miterlimit="10" d="
				M104.797,167.418c6.03,16.57,21.18,29.035,39.895,30.784c7.19,0.675,14.148-0.309,20.509-2.628"/>
			<path fill="#FFFFFF" d="M134.37,120.075c12.024-5.274,26.534-3.55,37.112,5.627c4.065,3.52,7.123,7.777,9.144,12.392"/>
		</g>
	</g>
</g>
<g id="Isolation_Mode">
</g>
</svg>
