<?xml version="1.0" encoding="utf-8"?>
<!-- Generator: Adobe Illustrator 16.0.0, SVG Export Plug-In . SVG Version: 6.00 Build 0)  -->
<!DOCTYPE svg PUBLIC "-//W3C//DTD SVG 1.1//EN" "http://www.w3.org/Graphics/SVG/1.1/DTD/svg11.dtd">
<svg version="1.1" id="레이어_1" xmlns="http://www.w3.org/2000/svg" xmlns:xlink="http://www.w3.org/1999/xlink" x="0px"
	 y="0px" width="586.809px" height="46.713px" viewBox="0 0 586.809 46.713" enable-background="new 0 0 586.809 46.713"
	 xml:space="preserve">
<g>
	<rect fill="#EFEFEF" width="586.809" height="46.713"/>
	<g>
		<path fill="#706F6F" d="M190.872,33.337c-0.569,0.669-1.325,1.216-2.268,1.643s-1.906,0.686-2.892,0.779
			c-0.526,0.069-1.123,0.08-1.791,0.034c-0.669-0.046-1.32-0.121-1.956-0.225c-0.636-0.104-1.216-0.22-1.741-0.346
			c-0.526-0.127-0.921-0.248-1.184-0.363c-0.241-0.116-0.395-0.225-0.46-0.329c-0.065-0.104-0.077-0.294-0.033-0.571l0.329-3.355
			c0.021-0.23,0.071-0.369,0.147-0.415c0.077-0.046,0.247-0.011,0.51,0.104c0.416,0.185,0.893,0.352,1.43,0.501
			c0.536,0.15,1.085,0.266,1.644,0.346c0.559,0.081,1.105,0.133,1.643,0.156c0.537,0.023,1.024-0.022,1.463-0.139
			c0.92-0.23,1.577-0.61,1.972-1.142c0.395-0.53,0.592-1.291,0.592-2.283c0-0.207-0.044-0.449-0.132-0.726s-0.252-0.583-0.493-0.917
			c-0.241-0.334-0.563-0.686-0.969-1.055c-0.406-0.369-0.926-0.761-1.562-1.176c-1.205-0.784-2.229-1.511-3.072-2.18
			c-0.844-0.669-1.534-1.332-2.071-1.989s-0.931-1.332-1.183-2.023c-0.252-0.692-0.378-1.453-0.378-2.283
			c0-1.038,0.202-2.001,0.607-2.889s0.964-1.661,1.677-2.318c0.712-0.658,1.55-1.17,2.514-1.54c0.964-0.369,2.005-0.554,3.122-0.554
			s2.076,0.087,2.876,0.26s1.462,0.386,1.988,0.64c0.284,0.139,0.443,0.254,0.477,0.346c0.033,0.092,0.027,0.265-0.017,0.519
			l-0.624,2.94c-0.045,0.208-0.121,0.334-0.23,0.38c-0.109,0.046-0.328,0.012-0.657-0.104c-1.03-0.346-1.978-0.553-2.843-0.623
			c-0.866-0.069-1.616,0.012-2.251,0.242c-0.636,0.231-1.134,0.594-1.495,1.09c-0.362,0.496-0.543,1.125-0.543,1.885
			c0,0.554,0.235,1.119,0.707,1.695c0.471,0.577,1.232,1.199,2.284,1.868c1.336,0.876,2.448,1.66,3.336,2.353
			c0.887,0.691,1.594,1.366,2.119,2.023c0.526,0.657,0.898,1.327,1.117,2.006c0.219,0.681,0.329,1.436,0.329,2.266
			c0,1.107-0.181,2.11-0.542,3.01C192.006,31.78,191.508,32.599,190.872,33.337z"/>
		<path fill="#706F6F" d="M209.506,26.21c-0.021,0.277-0.082,0.49-0.181,0.64c-0.099,0.15-0.279,0.225-0.542,0.225h-10.286
			c0.152,1.545,0.618,2.687,1.396,3.425c0.777,0.738,1.703,1.13,2.777,1.176c1.007,0.046,1.89-0.057,2.646-0.311
			s1.483-0.611,2.186-1.073c0.307-0.208,0.514-0.265,0.624-0.173c0.109,0.092,0.164,0.334,0.164,0.727v2.594
			c0,0.254-0.027,0.427-0.082,0.519s-0.181,0.219-0.378,0.38c-0.636,0.461-1.44,0.808-2.415,1.038
			c-0.976,0.23-1.935,0.346-2.876,0.346c-2.629,0-4.705-0.888-6.228-2.664c-1.523-1.775-2.284-4.301-2.284-7.576
			c0-1.222,0.152-2.444,0.46-3.667c0.307-1.222,0.8-2.323,1.479-3.304c0.679-0.98,1.512-1.775,2.498-2.387
			c0.986-0.611,2.158-0.917,3.517-0.917c1.38,0,2.547,0.266,3.5,0.796c0.953,0.531,1.73,1.245,2.333,2.145
			c0.603,0.9,1.035,1.943,1.299,3.131c0.263,1.188,0.394,2.451,0.394,3.788V26.21z M202.079,19.223c-0.46,0-0.888,0.115-1.282,0.346
			c-0.394,0.231-0.739,0.531-1.035,0.899c-0.296,0.369-0.554,0.796-0.772,1.28s-0.361,0.992-0.427,1.522h6.672
			c0-0.461-0.072-0.934-0.214-1.418c-0.143-0.484-0.34-0.917-0.592-1.297c-0.252-0.38-0.575-0.697-0.97-0.951
			C203.064,19.35,202.604,19.223,202.079,19.223z"/>
		<path fill="#706F6F" d="M221.239,35.309c-0.197,0-0.323-0.023-0.378-0.069c-0.055-0.046-0.082-0.185-0.082-0.416v-1.487
			c-0.373,0.623-0.98,1.153-1.824,1.591c-0.844,0.438-1.682,0.657-2.514,0.657c-0.898,0-1.764-0.133-2.597-0.398
			s-1.518-0.68-2.054-1.245c-0.537-0.565-0.959-1.246-1.266-2.041c-0.307-0.796-0.46-1.701-0.46-2.716
			c0-1.199,0.273-2.283,0.822-3.252c0.547-0.969,1.275-1.724,2.185-2.266s1.988-0.934,3.237-1.176s2.63-0.317,4.142-0.225
			c-0.132-1.821-0.877-2.825-2.235-3.01c-0.438-0.046-0.882-0.034-1.331,0.035c-0.449,0.069-0.887,0.179-1.314,0.329
			c-0.427,0.15-0.838,0.323-1.232,0.519c-0.395,0.196-0.745,0.398-1.052,0.605c-0.46,0.323-0.788,0.484-0.985,0.484
			s-0.296-0.23-0.296-0.692v-2.871c0-0.3,0.027-0.513,0.082-0.64c0.055-0.126,0.214-0.259,0.477-0.398
			c0.657-0.346,1.43-0.669,2.316-0.969c0.888-0.299,1.934-0.45,3.139-0.45c2.235,0,3.905,0.6,5.012,1.799
			c1.106,1.2,1.66,3.056,1.66,5.57v7.888c0,0.3,0,0.628,0,0.986c0,0.358,0.005,0.721,0.017,1.089
			c0.011,0.369,0.021,0.721,0.032,1.055c0.011,0.334,0.027,0.628,0.05,0.882c0.044,0.461,0.021,0.715-0.065,0.761
			c-0.088,0.046-0.242,0.069-0.461,0.069H221.239z M220.779,25.761c-1.249,0.023-2.278,0.121-3.089,0.294
			c-0.812,0.173-1.463,0.41-1.956,0.709c-0.492,0.3-0.827,0.657-1.002,1.072c-0.176,0.415-0.263,0.876-0.263,1.384
			c0,0.738,0.208,1.309,0.624,1.712c0.416,0.404,0.997,0.605,1.742,0.605c1.183,0,2.13-0.455,2.843-1.367
			C220.391,29.261,220.758,27.791,220.779,25.761z"/>
		<path fill="#706F6F" d="M236.521,20.018c-0.417-0.184-0.801-0.294-1.15-0.329c-0.351-0.035-0.657-0.005-0.92,0.086
			c-0.526,0.185-0.948,0.484-1.266,0.899c-0.318,0.416-0.559,0.9-0.723,1.453c-0.165,0.553-0.269,1.13-0.313,1.73
			s-0.065,1.176-0.065,1.729v8.925c0,0.277-0.039,0.467-0.115,0.571c-0.077,0.104-0.236,0.156-0.477,0.156h-3.155
			c-0.241,0-0.395-0.046-0.46-0.139s-0.099-0.3-0.099-0.623V20.779c0-0.738-0.012-1.51-0.033-2.318
			c-0.021-0.807-0.032-1.476-0.032-2.006c0-0.3,0.043-0.496,0.131-0.588c0.088-0.092,0.252-0.138,0.493-0.138h3.155
			c0.328,0,0.493,0.185,0.493,0.555v1.317c0.284-0.438,0.646-0.866,1.084-1.282s0.898-0.67,1.381-0.763
			c0.46-0.092,0.914-0.121,1.363-0.087c0.449,0.035,0.794,0.145,1.035,0.329c0.109,0.092,0.181,0.179,0.214,0.259
			c0.033,0.081,0.049,0.213,0.049,0.398v3.01c0,0.254-0.044,0.438-0.131,0.553C236.894,20.134,236.74,20.134,236.521,20.018z"/>
		<path fill="#706F6F" d="M250.258,35.101c-0.241,0.115-0.542,0.219-0.903,0.312c-0.361,0.092-0.756,0.167-1.184,0.225
			c-0.427,0.057-0.87,0.092-1.331,0.104c-0.46,0.011-0.898-0.006-1.314-0.052c-1.38-0.116-2.602-0.45-3.664-1.003
			c-1.063-0.553-1.955-1.274-2.679-2.162c-0.723-0.888-1.271-1.931-1.644-3.131c-0.372-1.199-0.559-2.502-0.559-3.909
			c0-1.476,0.219-2.836,0.657-4.082s1.058-2.318,1.857-3.217s1.764-1.597,2.892-2.093c1.129-0.496,2.383-0.744,3.764-0.744
			c0.635,0,1.331,0.047,2.087,0.139c0.756,0.092,1.451,0.254,2.087,0.484c0.197,0.069,0.312,0.15,0.345,0.242
			c0.033,0.092,0.038,0.265,0.017,0.519l-0.329,2.664c-0.044,0.277-0.115,0.461-0.213,0.554c-0.099,0.092-0.313,0.081-0.642-0.035
			c-0.46-0.185-1.019-0.317-1.676-0.398c-0.657-0.081-1.238-0.109-1.742-0.086c-1.512,0.046-2.678,0.617-3.5,1.712
			c-0.821,1.096-1.232,2.542-1.232,4.341c0,1.73,0.389,3.125,1.167,4.186c0.777,1.061,1.867,1.672,3.27,1.833
			c0.701,0.116,1.397,0.133,2.087,0.052c0.69-0.081,1.299-0.213,1.824-0.398c0.351-0.115,0.564-0.144,0.641-0.086
			c0.077,0.058,0.126,0.213,0.148,0.467l0.197,2.664c0.021,0.277,0.005,0.467-0.05,0.571
			C250.581,34.876,250.455,34.985,250.258,35.101z"/>
		<path fill="#706F6F" d="M263.338,35.24c-0.241,0-0.411-0.046-0.51-0.138c-0.099-0.092-0.147-0.276-0.147-0.552V23.572
			c0-2.923-0.822-4.384-2.465-4.384c-0.921,0-1.677,0.19-2.268,0.57c-0.592,0.379-1.02,0.903-1.282,1.57v13.221
			c0,0.276-0.055,0.46-0.164,0.552c-0.11,0.092-0.274,0.138-0.493,0.138h-3.023c-0.241,0-0.405-0.046-0.493-0.139
			s-0.131-0.277-0.131-0.553V7.391c0-0.461,0.208-0.692,0.624-0.692h3.023c0.438,0,0.657,0.231,0.657,0.694v9.37
			c0.569-0.507,1.194-0.915,1.873-1.226c0.68-0.311,1.326-0.466,1.939-0.466c2.213,0,3.851,0.679,4.913,2.038s1.594,3.5,1.594,6.423
			v11.017c0,0.276-0.049,0.46-0.147,0.553c-0.099,0.092-0.258,0.138-0.477,0.138H263.338z"/>
		<path fill="#706F6F" d="M294.325,31.894c-0.997,1.32-2.175,2.293-3.532,2.919c-1.358,0.626-2.896,0.939-4.615,0.939
			c-1.909,0-3.549-0.364-4.917-1.091s-2.493-1.711-3.374-2.953c-0.88-1.242-1.527-2.673-1.941-4.295
			c-0.413-1.622-0.62-3.327-0.62-5.117c0-1.745,0.212-3.428,0.637-5.05c0.424-1.622,1.082-3.054,1.973-4.295
			c0.892-1.241,2.016-2.231,3.374-2.97c1.357-0.738,2.98-1.107,4.869-1.107c1.867,0,3.479,0.375,4.838,1.124
			c1.357,0.75,2.482,1.745,3.374,2.986c0.891,1.242,1.554,2.668,1.988,4.279c0.436,1.61,0.642,3.288,0.621,5.033
			c-0.021,1.969-0.244,3.753-0.668,5.353C295.906,29.249,295.237,30.664,294.325,31.894z M286.178,13.035
			c-1.104,0-2.053,0.264-2.849,0.789c-0.795,0.526-1.453,1.225-1.973,2.097c-0.521,0.873-0.902,1.863-1.146,2.97
			c-0.245,1.107-0.366,2.243-0.366,3.406c0,1.164,0.121,2.299,0.366,3.406c0.243,1.107,0.625,2.097,1.146,2.97
			c0.52,0.872,1.178,1.577,1.973,2.114c0.796,0.537,1.745,0.805,2.849,0.805c1.082,0,2.021-0.269,2.816-0.805
			c0.796-0.537,1.448-1.242,1.958-2.114c0.509-0.873,0.886-1.868,1.13-2.987c0.243-1.118,0.366-2.249,0.366-3.389
			c0-1.118-0.123-2.231-0.366-3.339c-0.244-1.107-0.621-2.097-1.13-2.97c-0.51-0.873-1.157-1.583-1.941-2.131
			C288.226,13.31,287.281,13.035,286.178,13.035z"/>
		<path fill="#706F6F" d="M307.008,36.07c-0.679,0-1.375-0.162-2.087-0.484c-0.712-0.323-1.331-0.819-1.856-1.487v5.916
			c0,0.253-0.038,0.433-0.115,0.536s-0.246,0.156-0.509,0.156h-3.057c-0.241,0-0.406-0.052-0.493-0.156
			c-0.088-0.104-0.132-0.283-0.132-0.536V16.559c0-0.322,0.061-0.536,0.181-0.64c0.121-0.104,0.302-0.156,0.543-0.156h2.958
			c0.263,0,0.443,0.041,0.542,0.121c0.099,0.081,0.147,0.248,0.147,0.501v1.349c0.197-0.277,0.449-0.547,0.756-0.813
			c0.307-0.265,0.646-0.496,1.02-0.692c0.372-0.196,0.771-0.351,1.199-0.467c0.427-0.115,0.849-0.173,1.266-0.173
			c1.117,0,2.119,0.242,3.007,0.727c0.887,0.484,1.648,1.176,2.284,2.076c0.635,0.899,1.122,1.984,1.462,3.252
			c0.34,1.269,0.51,2.698,0.51,4.29c0,1.5-0.176,2.872-0.526,4.117c-0.351,1.246-0.854,2.313-1.512,3.2
			c-0.657,0.887-1.457,1.58-2.398,2.076C309.254,35.822,308.191,36.07,307.008,36.07z M306.613,19.811
			c-0.46,0-0.903,0.121-1.33,0.363c-0.428,0.242-0.806,0.611-1.134,1.107c-0.329,0.497-0.598,1.125-0.806,1.885
			c-0.208,0.761-0.313,1.661-0.313,2.699c0,1.084,0.093,2.006,0.279,2.767c0.187,0.761,0.438,1.384,0.756,1.868
			s0.695,0.836,1.134,1.055c0.438,0.22,0.909,0.329,1.413,0.329c1.096,0,1.978-0.484,2.646-1.453
			c0.668-0.969,1.002-2.491,1.002-4.566c0-2.167-0.34-3.719-1.019-4.653C308.563,20.277,307.687,19.811,306.613,19.811z"/>
		<path fill="#706F6F" d="M331.524,26.21c-0.021,0.277-0.082,0.49-0.181,0.64c-0.099,0.15-0.279,0.225-0.542,0.225h-10.286
			c0.152,1.545,0.618,2.687,1.396,3.425c0.777,0.738,1.703,1.13,2.777,1.176c1.007,0.046,1.89-0.057,2.646-0.311
			s1.483-0.611,2.186-1.073c0.307-0.208,0.514-0.265,0.624-0.173c0.109,0.092,0.164,0.334,0.164,0.727v2.594
			c0,0.254-0.027,0.427-0.082,0.519s-0.181,0.219-0.378,0.38c-0.636,0.461-1.44,0.808-2.415,1.038
			c-0.976,0.23-1.935,0.346-2.876,0.346c-2.629,0-4.705-0.888-6.228-2.664c-1.523-1.775-2.284-4.301-2.284-7.576
			c0-1.222,0.152-2.444,0.46-3.667c0.307-1.222,0.8-2.323,1.479-3.304c0.679-0.98,1.512-1.775,2.498-2.387
			c0.986-0.611,2.158-0.917,3.517-0.917c1.38,0,2.547,0.266,3.5,0.796c0.953,0.531,1.73,1.245,2.333,2.145
			c0.603,0.9,1.035,1.943,1.299,3.131c0.263,1.188,0.394,2.451,0.394,3.788V26.21z M324.098,19.223c-0.46,0-0.888,0.115-1.282,0.346
			c-0.394,0.231-0.739,0.531-1.035,0.899c-0.296,0.369-0.554,0.796-0.772,1.28s-0.361,0.992-0.427,1.522h6.672
			c0-0.461-0.072-0.934-0.214-1.418c-0.143-0.484-0.34-0.917-0.592-1.297c-0.252-0.38-0.575-0.697-0.97-0.951
			C325.083,19.35,324.623,19.223,324.098,19.223z"/>
		<path fill="#706F6F" d="M342.271,20.018c-0.417-0.184-0.801-0.294-1.15-0.329c-0.351-0.035-0.657-0.005-0.92,0.086
			c-0.526,0.185-0.948,0.484-1.266,0.899c-0.318,0.416-0.559,0.9-0.723,1.453c-0.165,0.553-0.269,1.13-0.313,1.73
			s-0.065,1.176-0.065,1.729v8.925c0,0.277-0.039,0.467-0.115,0.571c-0.077,0.104-0.236,0.156-0.477,0.156h-3.155
			c-0.241,0-0.395-0.046-0.46-0.139s-0.099-0.3-0.099-0.623V20.779c0-0.738-0.012-1.51-0.033-2.318
			c-0.021-0.807-0.032-1.476-0.032-2.006c0-0.3,0.043-0.496,0.131-0.588c0.088-0.092,0.252-0.138,0.493-0.138h3.155
			c0.328,0,0.493,0.185,0.493,0.555v1.317c0.284-0.438,0.646-0.866,1.084-1.282s0.898-0.67,1.381-0.763
			c0.46-0.092,0.914-0.121,1.363-0.087c0.449,0.035,0.794,0.145,1.035,0.329c0.109,0.092,0.181,0.179,0.214,0.259
			c0.033,0.081,0.049,0.213,0.049,0.398v3.01c0,0.254-0.044,0.438-0.131,0.553C342.644,20.134,342.49,20.134,342.271,20.018z"/>
		<path fill="#706F6F" d="M353.543,35.309c-0.197,0-0.323-0.023-0.378-0.069c-0.055-0.046-0.082-0.185-0.082-0.416v-1.487
			c-0.373,0.623-0.98,1.153-1.824,1.591c-0.844,0.438-1.682,0.657-2.514,0.657c-0.898,0-1.764-0.133-2.597-0.398
			s-1.518-0.68-2.054-1.245c-0.537-0.565-0.959-1.246-1.266-2.041c-0.307-0.796-0.46-1.701-0.46-2.716
			c0-1.199,0.273-2.283,0.822-3.252c0.547-0.969,1.275-1.724,2.185-2.266s1.988-0.934,3.237-1.176s2.63-0.317,4.142-0.225
			c-0.132-1.821-0.877-2.825-2.235-3.01c-0.438-0.046-0.882-0.034-1.331,0.035c-0.449,0.069-0.887,0.179-1.314,0.329
			c-0.427,0.15-0.838,0.323-1.232,0.519c-0.395,0.196-0.745,0.398-1.052,0.605c-0.46,0.323-0.788,0.484-0.985,0.484
			s-0.296-0.23-0.296-0.692v-2.871c0-0.3,0.027-0.513,0.082-0.64c0.055-0.126,0.214-0.259,0.477-0.398
			c0.657-0.346,1.43-0.669,2.316-0.969c0.888-0.299,1.934-0.45,3.139-0.45c2.235,0,3.905,0.6,5.012,1.799
			c1.106,1.2,1.66,3.056,1.66,5.57v7.888c0,0.3,0,0.628,0,0.986c0,0.358,0.005,0.721,0.017,1.089
			c0.011,0.369,0.021,0.721,0.032,1.055c0.011,0.334,0.027,0.628,0.05,0.882c0.044,0.461,0.021,0.715-0.065,0.761
			c-0.088,0.046-0.242,0.069-0.461,0.069H353.543z M353.083,25.761c-1.249,0.023-2.278,0.121-3.089,0.294
			c-0.812,0.173-1.463,0.41-1.956,0.709c-0.492,0.3-0.827,0.657-1.002,1.072c-0.176,0.415-0.263,0.876-0.263,1.384
			c0,0.738,0.208,1.309,0.624,1.712c0.416,0.404,0.997,0.605,1.742,0.605c1.183,0,2.13-0.455,2.843-1.367
			C352.694,29.261,353.062,27.791,353.083,25.761z"/>
		<path fill="#706F6F" d="M369.056,34.998c-0.438,0.208-0.964,0.386-1.577,0.536c-0.613,0.15-1.314,0.213-2.104,0.19
			c-0.811-0.023-1.545-0.236-2.202-0.64c-0.657-0.404-1.139-0.894-1.445-1.47c-0.308-0.668-0.493-1.424-0.559-2.266
			c-0.066-0.842-0.099-1.931-0.099-3.269v-8.164h-2.334c-0.416,0-0.624-0.23-0.624-0.692v-2.872c0-0.461,0.208-0.692,0.624-0.692
			h2.334v-4.601c0-0.461,0.219-0.692,0.657-0.692h3.023c0.416,0,0.624,0.231,0.624,0.692v4.601h2.794
			c0.263,0,0.432,0.052,0.509,0.156s0.115,0.283,0.115,0.536v2.872c0,0.254-0.038,0.432-0.115,0.536
			c-0.077,0.104-0.246,0.156-0.509,0.156h-2.794v7.749c0,0.83,0,1.505,0,2.024c0,0.519,0.021,0.859,0.065,1.021
			c0.088,0.438,0.274,0.715,0.56,0.83c0.284,0.116,0.591,0.15,0.92,0.104c0.328-0.046,0.646-0.126,0.953-0.242
			c0.307-0.115,0.547-0.219,0.723-0.311c0.175-0.092,0.307-0.098,0.395-0.017c0.087,0.081,0.143,0.248,0.164,0.501l0.296,2.594
			c0.021,0.208,0.011,0.375-0.033,0.502C369.373,34.795,369.253,34.905,369.056,34.998z"/>
		<path fill="#706F6F" d="M384.534,32.541c-0.811,1.084-1.78,1.897-2.908,2.439c-1.129,0.542-2.383,0.813-3.763,0.813
			c-1.446,0-2.712-0.276-3.796-0.83c-1.085-0.554-1.994-1.297-2.728-2.231c-0.734-0.934-1.288-2.023-1.66-3.269
			c-0.373-1.246-0.559-2.56-0.559-3.944s0.181-2.698,0.542-3.943c0.362-1.246,0.909-2.335,1.644-3.27
			c0.733-0.934,1.648-1.672,2.744-2.214s2.366-0.813,3.813-0.813s2.717,0.277,3.813,0.83c1.095,0.554,2.01,1.297,2.744,2.231
			c0.733,0.934,1.286,2.018,1.659,3.252c0.372,1.234,0.559,2.542,0.559,3.926c0,1.361-0.181,2.646-0.542,3.857
			S385.214,31.642,384.534,32.541z M377.863,19.326c-0.723,0-1.358,0.179-1.906,0.536c-0.548,0.358-1.002,0.825-1.364,1.401
			c-0.361,0.577-0.636,1.234-0.821,1.972c-0.187,0.738-0.279,1.5-0.279,2.283c0,0.784,0.093,1.545,0.279,2.283
			c0.186,0.738,0.46,1.401,0.821,1.989c0.362,0.588,0.816,1.061,1.364,1.418c0.548,0.358,1.184,0.536,1.906,0.536
			c0.744,0,1.391-0.178,1.938-0.536c0.548-0.357,1.003-0.831,1.364-1.418s0.63-1.251,0.806-1.989
			c0.175-0.738,0.263-1.499,0.263-2.283c0-0.761-0.088-1.51-0.263-2.249c-0.176-0.738-0.444-1.401-0.806-1.989
			c-0.361-0.588-0.816-1.061-1.364-1.418C379.254,19.505,378.607,19.326,377.863,19.326z"/>
		<path fill="#706F6F" d="M397.385,20.018c-0.417-0.184-0.801-0.294-1.15-0.329c-0.351-0.035-0.657-0.005-0.92,0.086
			c-0.526,0.185-0.948,0.484-1.266,0.899c-0.318,0.416-0.559,0.9-0.723,1.453c-0.165,0.553-0.269,1.13-0.313,1.73
			s-0.065,1.176-0.065,1.729v8.925c0,0.277-0.039,0.467-0.115,0.571c-0.077,0.104-0.236,0.156-0.477,0.156h-3.155
			c-0.241,0-0.395-0.046-0.46-0.139s-0.099-0.3-0.099-0.623V20.779c0-0.738-0.012-1.51-0.033-2.318
			c-0.021-0.807-0.032-1.476-0.032-2.006c0-0.3,0.043-0.496,0.131-0.588c0.088-0.092,0.252-0.138,0.493-0.138h3.155
			c0.328,0,0.493,0.185,0.493,0.555v1.317c0.284-0.438,0.646-0.866,1.084-1.282s0.898-0.67,1.381-0.763
			c0.46-0.092,0.914-0.121,1.363-0.087c0.449,0.035,0.794,0.145,1.035,0.329c0.109,0.092,0.181,0.179,0.214,0.259
			c0.033,0.081,0.049,0.213,0.049,0.398v3.01c0,0.254-0.044,0.438-0.131,0.553C397.757,20.134,397.604,20.134,397.385,20.018z"/>
		<path fill="#706F6F" d="M408.13,34.513c-0.569,0.461-1.216,0.784-1.938,0.969c-0.724,0.184-1.49,0.288-2.301,0.311
			c-0.416,0-0.866-0.029-1.348-0.086c-0.482-0.058-0.942-0.127-1.38-0.208c-0.438-0.081-0.844-0.179-1.216-0.294
			c-0.373-0.116-0.657-0.22-0.854-0.312c-0.242-0.116-0.4-0.213-0.477-0.294c-0.077-0.081-0.104-0.248-0.082-0.501l0.263-2.525
			c0.021-0.277,0.076-0.45,0.164-0.519c0.087-0.069,0.252-0.057,0.493,0.035c0.679,0.254,1.385,0.473,2.119,0.657
			c0.734,0.185,1.496,0.277,2.284,0.277c0.789,0,1.369-0.208,1.742-0.623c0.372-0.415,0.559-0.934,0.559-1.557
			c0-0.438-0.192-0.87-0.575-1.297c-0.384-0.427-0.838-0.825-1.363-1.194c-0.526-0.369-1.063-0.709-1.61-1.021
			c-0.549-0.311-0.986-0.571-1.315-0.778c-0.723-0.461-1.331-1.055-1.823-1.782c-0.493-0.727-0.74-1.574-0.74-2.542
			c0-1.038,0.17-1.931,0.51-2.681c0.34-0.749,0.789-1.366,1.348-1.851s1.204-0.842,1.938-1.073c0.734-0.23,1.484-0.346,2.252-0.346
			c0.394,0,0.815,0.029,1.265,0.086c0.449,0.058,0.876,0.133,1.282,0.225c0.405,0.093,0.783,0.196,1.134,0.312
			c0.35,0.116,0.624,0.22,0.821,0.312c0.219,0.116,0.345,0.219,0.378,0.312s0.038,0.23,0.017,0.415l-0.296,2.629
			c-0.044,0.277-0.12,0.433-0.229,0.467c-0.11,0.035-0.285-0.005-0.526-0.121c-1.14-0.577-2.355-0.842-3.647-0.796
			c-0.702,0.023-1.211,0.202-1.528,0.536c-0.318,0.334-0.477,0.802-0.477,1.401c0,0.254,0.142,0.565,0.427,0.934
			s0.789,0.761,1.512,1.176c0.679,0.393,1.293,0.767,1.841,1.125c0.547,0.358,0.964,0.64,1.249,0.848
			c0.788,0.646,1.385,1.292,1.791,1.937c0.405,0.646,0.607,1.511,0.607,2.595c0,1.015-0.187,1.932-0.559,2.75
			C409.466,33.239,408.896,33.937,408.13,34.513z"/>
	</g>
</g>
</svg>
