<?xml version="1.0" encoding="utf-8"?>
<!-- Generator: Adobe Illustrator 16.0.0, SVG Export Plug-In . SVG Version: 6.00 Build 0)  -->
<!DOCTYPE svg PUBLIC "-//W3C//DTD SVG 1.1//EN" "http://www.w3.org/Graphics/SVG/1.1/DTD/svg11.dtd">
<svg version="1.1" id="레이어_1" xmlns="http://www.w3.org/2000/svg" xmlns:xlink="http://www.w3.org/1999/xlink" x="0px"
	 y="0px" width="272.818px" height="55.979px" viewBox="0 0 272.818 55.979" enable-background="new 0 0 272.818 55.979"
	 xml:space="preserve">
<g>
	<g>
		<g>
			<path fill="#706F6F" d="M148.677,34.667c-0.065,0-0.105-0.002-0.119-0.007s-0.04-0.03-0.077-0.077
				c-0.85-1.063-1.479-2.142-1.89-3.233c-0.411-1.092-0.616-2.222-0.616-3.388c0-1.157,0.205-2.282,0.616-3.374
				c0.41-1.093,1.04-2.175,1.89-3.248c0.037-0.047,0.063-0.072,0.077-0.077s0.044-0.007,0.091-0.007h0.393
				c0.056,0,0.084,0.005,0.084,0.014c0,0.01-0.015,0.037-0.042,0.084c-1.466,2.296-2.198,4.499-2.198,6.608
				c0,1.073,0.187,2.155,0.56,3.247c0.373,1.093,0.924,2.213,1.652,3.36c0.047,0.065,0.023,0.098-0.07,0.098H148.677z"/>
			<path fill="#706F6F" d="M151.043,32.792h-0.616c-0.131,0-0.196-0.065-0.196-0.195V21.858c0-0.131,0.065-0.196,0.196-0.196h0.616
				c0.13,0,0.195,0.065,0.195,0.196v10.738C151.238,32.726,151.173,32.792,151.043,32.792z"/>
			<path fill="#706F6F" d="M152.933,22.572c0-0.187,0.064-0.348,0.195-0.482c0.131-0.136,0.29-0.203,0.477-0.203
				s0.348,0.067,0.482,0.203c0.136,0.135,0.203,0.296,0.203,0.482s-0.067,0.346-0.203,0.477c-0.135,0.131-0.296,0.195-0.482,0.195
				s-0.346-0.064-0.477-0.195S152.933,22.758,152.933,22.572z M153.927,32.792h-0.616c-0.131,0-0.196-0.065-0.196-0.195v-7.183
				c0-0.13,0.065-0.195,0.196-0.195h0.616c0.13,0,0.195,0.065,0.195,0.195v7.183C154.122,32.726,154.057,32.792,153.927,32.792z"/>
			<path fill="#706F6F" d="M162.019,32.596c0,0.13-0.065,0.195-0.196,0.195h-0.56c-0.131,0-0.196-0.065-0.196-0.195v-4.41
				c0-0.858-0.154-1.468-0.462-1.827c-0.309-0.359-0.742-0.539-1.303-0.539c-0.756,0-1.332,0.21-1.729,0.63
				s-0.595,1.008-0.595,1.765v4.382c0,0.13-0.065,0.195-0.196,0.195h-0.56c-0.131,0-0.196-0.065-0.196-0.195v-5.601
				c0-0.4-0.003-0.714-0.007-0.938c-0.005-0.225-0.017-0.438-0.035-0.645c-0.01-0.064,0.007-0.114,0.049-0.146
				c0.042-0.033,0.091-0.049,0.147-0.049h0.504c0.13,0,0.195,0.065,0.195,0.195v0.771c0.262-0.401,0.576-0.695,0.945-0.882
				s0.875-0.28,1.52-0.28c0.886,0,1.554,0.257,2.002,0.77c0.447,0.514,0.672,1.237,0.672,2.171V32.596z"/>
			<path fill="#706F6F" d="M166.512,28.592l3.024,4.004c0.027,0.046,0.037,0.091,0.027,0.133c-0.009,0.042-0.041,0.063-0.098,0.063
				h-0.602c-0.094,0-0.178-0.014-0.252-0.042c-0.075-0.027-0.136-0.079-0.183-0.153l-2.52-3.332l-0.938,1.05v2.282
				c0,0.13-0.065,0.195-0.195,0.195h-0.561c-0.131,0-0.195-0.065-0.195-0.195V21.844c0-0.131,0.064-0.196,0.195-0.196h0.561
				c0.13,0,0.195,0.065,0.195,0.196v7.294l3.192-3.725c0.131-0.13,0.284-0.195,0.462-0.195h0.658c0.056,0,0.093,0.021,0.111,0.063
				c0.02,0.042,0.005,0.087-0.041,0.133L166.512,28.592z"/>
			<path fill="#706F6F" d="M170.166,34.667c-0.084,0-0.103-0.032-0.056-0.098c0.728-1.147,1.275-2.268,1.645-3.36
				c0.369-1.092,0.553-2.174,0.553-3.247c0-1.064-0.182-2.145-0.546-3.241s-0.91-2.22-1.638-3.367
				c-0.028-0.047-0.042-0.074-0.042-0.084c0-0.009,0.023-0.014,0.07-0.014h0.392c0.047,0,0.077,0.002,0.091,0.007
				c0.015,0.005,0.044,0.03,0.091,0.077c0.85,1.073,1.478,2.155,1.883,3.248c0.406,1.092,0.609,2.217,0.609,3.374
				c0,1.166-0.203,2.296-0.609,3.388c-0.405,1.092-1.033,2.17-1.883,3.233c-0.047,0.047-0.076,0.072-0.091,0.077
				c-0.014,0.005-0.054,0.007-0.119,0.007H170.166z"/>
		</g>
	</g>
	<g>
		<g>
			<path fill="#706F6F" d="M101.245,36.743c-0.084,0-0.155-0.029-0.214-0.088c-0.06-0.06-0.089-0.131-0.089-0.215V18
				c0-0.084,0.029-0.155,0.089-0.215c0.059-0.059,0.13-0.088,0.214-0.088h2.273c0.084,0,0.156,0.029,0.215,0.088
				c0.059,0.06,0.089,0.131,0.089,0.215V34.09h6.542c0.202,0,0.304,0.11,0.304,0.329v2.021c0,0.084-0.03,0.155-0.089,0.215
				c-0.059,0.059-0.131,0.088-0.215,0.088H101.245z"/>
			<path fill="#706F6F" d="M112.891,20.122c-0.488,0-0.896-0.165-1.226-0.496c-0.328-0.331-0.492-0.734-0.492-1.209
				c0-0.492,0.164-0.907,0.492-1.247c0.329-0.339,0.737-0.509,1.226-0.509s0.9,0.17,1.237,0.509c0.337,0.34,0.506,0.755,0.506,1.247
				c0,0.475-0.169,0.878-0.506,1.209S113.379,20.122,112.891,20.122z M111.805,36.768c-0.085,0-0.156-0.029-0.215-0.088
				c-0.06-0.06-0.089-0.131-0.089-0.215V23.177c0-0.084,0.029-0.155,0.089-0.214c0.059-0.059,0.13-0.089,0.215-0.089h2.122
				c0.084,0,0.155,0.03,0.214,0.089c0.06,0.059,0.089,0.13,0.089,0.214v13.288c0,0.084-0.029,0.155-0.089,0.215
				c-0.059,0.059-0.13,0.088-0.214,0.088H111.805z"/>
			<path fill="#706F6F" d="M125.395,36.717c-0.085,0-0.156-0.037-0.215-0.113c-0.06-0.076-0.089-0.156-0.089-0.24v-8.032
				c0-1.213-0.189-2.088-0.568-2.628c-0.379-0.538-0.973-0.808-1.78-0.808c-1.111,0-1.933,0.308-2.463,0.922
				c-0.53,0.615-0.796,1.503-0.796,2.665v7.906c0,0.219-0.102,0.328-0.303,0.328h-2.097c-0.085,0-0.156-0.037-0.215-0.113
				c-0.06-0.076-0.089-0.156-0.089-0.24V26.31c0-0.64-0.004-1.254-0.013-1.844c-0.009-0.589-0.029-1.053-0.063-1.39
				c-0.033-0.219,0.085-0.328,0.354-0.328h1.995c0.186,0,0.261,0.068,0.228,0.204l-0.025,0.92c0.421-0.407,0.926-0.755,1.516-1.044
				s1.271-0.434,2.046-0.434c1.617,0,2.851,0.476,3.701,1.427c0.85,0.952,1.275,2.329,1.275,4.131v8.437
				c0,0.219-0.101,0.328-0.303,0.328H125.395z"/>
			<path fill="#706F6F" d="M138.858,36.768c-0.186,0-0.316-0.021-0.392-0.063c-0.076-0.043-0.156-0.131-0.24-0.266l-4.042-5.786
				l-1.188,1.364v4.447c0,0.202-0.109,0.303-0.328,0.303h-2.046c-0.085,0-0.156-0.029-0.215-0.088
				c-0.06-0.06-0.088-0.131-0.088-0.215V16.56c0-0.084,0.028-0.156,0.088-0.215c0.059-0.059,0.13-0.089,0.215-0.089h2.046
				c0.102,0,0.181,0.03,0.24,0.089c0.059,0.06,0.088,0.131,0.088,0.215v11.626l4.8-5.159c0.135-0.151,0.27-0.228,0.404-0.228h2.501
				c0.319,0,0.37,0.117,0.151,0.353l-4.926,5.466l5.481,7.822c0.168,0.219,0.109,0.328-0.177,0.328H138.858z"/>
		</g>
	</g>
</g>
<rect fill="none" width="272.818" height="55.979"/>
</svg>
