<?xml version="1.0" encoding="utf-8"?>
<!-- Generator: Adobe Illustrator 16.0.0, SVG Export Plug-In . SVG Version: 6.00 Build 0)  -->
<!DOCTYPE svg PUBLIC "-//W3C//DTD SVG 1.1//EN" "http://www.w3.org/Graphics/SVG/1.1/DTD/svg11.dtd">
<svg version="1.1" id="레이어_1" xmlns="http://www.w3.org/2000/svg" xmlns:xlink="http://www.w3.org/1999/xlink" x="0px"
	 y="0px" width="272.818px" height="55.979px" viewBox="0 0 272.818 55.979" enable-background="new 0 0 272.818 55.979"
	 xml:space="preserve">
<g>
	<g>
		<g>
			<path fill="#706F6F" d="M165.266,34.666c-0.065,0-0.105-0.002-0.119-0.006c-0.014-0.006-0.04-0.031-0.077-0.078
				c-0.85-1.063-1.479-2.141-1.89-3.232c-0.411-1.092-0.616-2.223-0.616-3.389c0-1.156,0.205-2.281,0.616-3.373
				c0.411-1.094,1.041-2.176,1.89-3.248c0.037-0.047,0.063-0.072,0.077-0.078c0.014-0.004,0.044-0.006,0.091-0.006h0.392
				c0.056,0,0.084,0.004,0.084,0.014s-0.014,0.037-0.042,0.084c-1.465,2.295-2.198,4.498-2.198,6.607
				c0,1.074,0.187,2.156,0.56,3.248c0.373,1.092,0.924,2.213,1.652,3.359c0.046,0.066,0.023,0.098-0.07,0.098H165.266z"/>
			<path fill="#706F6F" d="M172.881,32.596c0,0.129-0.065,0.195-0.196,0.195h-0.546c-0.13,0-0.196-0.066-0.196-0.195v-1.051
				c-0.504,0.951-1.316,1.428-2.436,1.428c-0.999,0-1.778-0.383-2.338-1.148c-0.514-0.709-0.77-1.65-0.77-2.828
				c0-2.621,1.036-3.934,3.108-3.934c0.56,0,1.057,0.113,1.491,0.336c0.434,0.225,0.749,0.514,0.945,0.869v-4.41
				c0-0.131,0.065-0.197,0.196-0.197h0.546c0.13,0,0.196,0.066,0.196,0.197V32.596z M167.436,28.996
				c0,0.439,0.035,0.838,0.105,1.197c0.07,0.359,0.18,0.676,0.329,0.945c0.205,0.336,0.455,0.594,0.749,0.77
				c0.294,0.178,0.646,0.268,1.057,0.268c0.373,0,0.702-0.1,0.987-0.295c0.284-0.195,0.522-0.445,0.714-0.748
				c0.191-0.305,0.333-0.645,0.427-1.023c0.093-0.377,0.14-0.748,0.14-1.113c0-0.447-0.049-0.863-0.147-1.246
				c-0.098-0.381-0.243-0.713-0.434-0.992c-0.191-0.281-0.427-0.5-0.707-0.658c-0.28-0.16-0.607-0.238-0.98-0.238
				c-0.793,0-1.396,0.34-1.806,1.021c-0.149,0.271-0.259,0.586-0.329,0.945C167.47,28.188,167.436,28.576,167.436,28.996z"/>
			<path fill="#706F6F" d="M175.135,26.393c-0.047,0.029-0.091,0.035-0.133,0.021s-0.063-0.045-0.063-0.092v-0.531
				c0-0.131,0.065-0.229,0.196-0.295c0.327-0.176,0.674-0.301,1.043-0.371c0.369-0.068,0.772-0.104,1.211-0.104
				c0.933,0,1.615,0.221,2.044,0.664s0.644,1.113,0.644,2.01v3.514c0,0.279,0.004,0.529,0.014,0.748
				c0.009,0.221,0.023,0.432,0.042,0.639c0,0.129-0.065,0.195-0.196,0.195h-0.504c-0.131,0-0.196-0.066-0.196-0.195v-1.078
				c-0.196,0.475-0.525,0.844-0.987,1.105c-0.462,0.262-0.964,0.393-1.505,0.393c-0.943,0-1.633-0.275-2.072-0.826
				c-0.149-0.188-0.262-0.404-0.336-0.652c-0.075-0.246-0.112-0.492-0.112-0.734c0-0.568,0.133-1.059,0.399-1.471
				c0.266-0.41,0.674-0.717,1.225-0.924c0.672-0.242,1.703-0.363,3.094-0.363h0.182v-0.42c0-0.588-0.133-1.035-0.399-1.344
				c-0.266-0.309-0.712-0.463-1.337-0.463c-0.42,0-0.817,0.045-1.19,0.133C175.826,26.041,175.471,26.188,175.135,26.393z
				 M179.125,28.844h-0.266c-0.523-0.02-0.987,0.002-1.393,0.063c-0.406,0.061-0.745,0.143-1.015,0.244
				c-0.392,0.141-0.686,0.348-0.882,0.623s-0.294,0.605-0.294,0.988c0,0.232,0.037,0.449,0.112,0.65s0.191,0.357,0.35,0.469
				c0.28,0.225,0.653,0.336,1.12,0.336c0.327,0,0.628-0.064,0.903-0.195s0.516-0.318,0.721-0.561
				c0.206-0.242,0.364-0.543,0.477-0.902c0.112-0.359,0.168-0.773,0.168-1.24V28.844z"/>
			<path fill="#706F6F" d="M185.481,32.805c-0.392,0.141-0.779,0.211-1.162,0.211c-0.756,0-1.255-0.248-1.498-0.742
				c-0.159-0.336-0.238-0.93-0.238-1.779v-4.465h-1.316c-0.131,0-0.196-0.066-0.196-0.197v-0.42c0-0.129,0.065-0.195,0.196-0.195
				h1.316v-1.891c0-0.139,0.061-0.209,0.182-0.209h0.588c0.122,0,0.182,0.07,0.182,0.209v1.891h1.554
				c0.13,0,0.196,0.066,0.196,0.195v0.42c0,0.131-0.065,0.197-0.196,0.197h-1.554v4.941c0,0.832,0.336,1.246,1.008,1.246
				c0.261,0,0.555-0.057,0.882-0.168c0.046-0.018,0.091-0.018,0.133,0c0.042,0.02,0.063,0.057,0.063,0.111l0.028,0.365
				C185.668,32.656,185.612,32.748,185.481,32.805z"/>
			<path fill="#706F6F" d="M187.021,29.277c-0.009,0.467,0.044,0.879,0.161,1.238c0.116,0.359,0.287,0.66,0.511,0.904
				c0.224,0.242,0.492,0.428,0.805,0.559c0.313,0.131,0.66,0.197,1.043,0.197c0.373,0,0.723-0.035,1.05-0.105
				c0.326-0.07,0.63-0.184,0.91-0.344c0.121-0.055,0.182-0.023,0.182,0.098v0.631c0,0.084-0.052,0.148-0.154,0.195
				c-0.308,0.121-0.63,0.213-0.966,0.273s-0.7,0.092-1.092,0.092c-1.148,0-2.016-0.334-2.604-1.002
				c-0.588-0.666-0.882-1.672-0.882-3.018c0-1.184,0.294-2.141,0.882-2.869c0.616-0.736,1.395-1.105,2.338-1.105
				c0.522,0,0.975,0.094,1.358,0.279c0.383,0.188,0.709,0.467,0.98,0.84c0.476,0.664,0.714,1.549,0.714,2.66
				c0,0.121-0.003,0.215-0.007,0.279c-0.005,0.066-0.021,0.113-0.049,0.141s-0.077,0.045-0.147,0.049
				c-0.07,0.006-0.17,0.008-0.301,0.008H187.021z M191.221,28.479c0-0.383-0.038-0.723-0.112-1.021s-0.191-0.568-0.35-0.813
				c-0.346-0.551-0.845-0.826-1.498-0.826c-0.672,0-1.218,0.281-1.638,0.84c-0.168,0.252-0.308,0.543-0.42,0.869
				s-0.173,0.645-0.182,0.951H191.221z"/>
			<path fill="#706F6F" d="M197.241,26.07c-0.168-0.055-0.392-0.084-0.672-0.084c-0.69,0-1.204,0.342-1.54,1.023
				c-0.261,0.531-0.392,1.213-0.392,2.043v3.543c0,0.129-0.065,0.195-0.196,0.195h-0.546c-0.131,0-0.196-0.066-0.196-0.195V26.91
				c0-0.336-0.002-0.607-0.007-0.818c-0.005-0.209-0.012-0.436-0.021-0.68c0-0.129,0.065-0.195,0.196-0.195h0.518
				c0.13,0,0.196,0.066,0.196,0.195v1.373c0.457-1.176,1.129-1.764,2.016-1.764c0.214,0,0.429,0.027,0.644,0.084
				c0.056,0.018,0.105,0.049,0.147,0.09c0.042,0.043,0.063,0.102,0.063,0.176v0.588c0,0.057-0.023,0.094-0.07,0.111
				C197.334,26.09,197.288,26.09,197.241,26.07z"/>
			<path fill="#706F6F" d="M198.599,26.393c-0.047,0.029-0.091,0.035-0.133,0.021s-0.063-0.045-0.063-0.092v-0.531
				c0-0.131,0.065-0.229,0.196-0.295c0.326-0.176,0.674-0.301,1.043-0.371c0.369-0.068,0.772-0.104,1.211-0.104
				c0.933,0,1.614,0.221,2.044,0.664c0.429,0.443,0.644,1.113,0.644,2.01v3.514c0,0.279,0.004,0.529,0.014,0.748
				c0.009,0.221,0.023,0.432,0.042,0.639c0,0.129-0.065,0.195-0.196,0.195h-0.504c-0.131,0-0.196-0.066-0.196-0.195v-1.078
				c-0.196,0.475-0.524,0.844-0.987,1.105c-0.462,0.262-0.964,0.393-1.505,0.393c-0.943,0-1.633-0.275-2.072-0.826
				c-0.149-0.188-0.262-0.404-0.336-0.652c-0.075-0.246-0.112-0.492-0.112-0.734c0-0.568,0.133-1.059,0.399-1.471
				c0.266-0.41,0.674-0.717,1.225-0.924c0.672-0.242,1.703-0.363,3.094-0.363h0.182v-0.42c0-0.588-0.133-1.035-0.399-1.344
				s-0.712-0.463-1.337-0.463c-0.42,0-0.817,0.045-1.19,0.133C199.29,26.041,198.935,26.188,198.599,26.393z M202.589,28.844h-0.266
				c-0.522-0.02-0.987,0.002-1.393,0.063c-0.406,0.061-0.745,0.143-1.015,0.244c-0.392,0.141-0.686,0.348-0.882,0.623
				c-0.196,0.275-0.294,0.605-0.294,0.988c0,0.232,0.037,0.449,0.112,0.65c0.074,0.201,0.191,0.357,0.35,0.469
				c0.28,0.225,0.653,0.336,1.12,0.336c0.327,0,0.628-0.064,0.903-0.195c0.275-0.131,0.516-0.318,0.721-0.561
				s0.364-0.543,0.476-0.902s0.168-0.773,0.168-1.24V28.844z"/>
			<path fill="#706F6F" d="M211.409,32.596c0,0.129-0.065,0.195-0.196,0.195h-0.56c-0.131,0-0.196-0.066-0.196-0.195v-4.41
				c0-0.859-0.154-1.469-0.462-1.828c-0.308-0.359-0.742-0.539-1.302-0.539c-0.756,0-1.333,0.211-1.729,0.631
				c-0.397,0.42-0.595,1.008-0.595,1.764v4.383c0,0.129-0.065,0.195-0.196,0.195h-0.56c-0.131,0-0.196-0.066-0.196-0.195v-5.602
				c0-0.4-0.002-0.713-0.007-0.938s-0.016-0.438-0.035-0.645c-0.009-0.064,0.007-0.113,0.049-0.146s0.091-0.049,0.147-0.049h0.504
				c0.131,0,0.196,0.066,0.196,0.195v0.771c0.261-0.402,0.576-0.695,0.945-0.883c0.369-0.186,0.875-0.279,1.519-0.279
				c0.887,0,1.554,0.256,2.002,0.77s0.672,1.236,0.672,2.17V32.596z"/>
			<path fill="#706F6F" d="M213.747,34.625c-0.112-0.027-0.159-0.098-0.14-0.211l0.042-0.615c0-0.121,0.061-0.148,0.182-0.084
				c0.354,0.158,0.695,0.273,1.022,0.344c0.326,0.07,0.681,0.104,1.063,0.104c0.85,0,1.486-0.258,1.911-0.775
				c0.425-0.52,0.665-1.227,0.721-2.121c-0.215,0.42-0.532,0.736-0.952,0.951s-0.887,0.322-1.4,0.322
				c-0.458,0-0.882-0.084-1.274-0.252s-0.733-0.406-1.022-0.715c-0.29-0.307-0.518-0.68-0.686-1.119s-0.252-0.924-0.252-1.457
				c0-0.625,0.058-1.182,0.175-1.672s0.301-0.902,0.553-1.238c0.252-0.338,0.579-0.594,0.98-0.771
				c0.401-0.176,0.886-0.266,1.456-0.266c0.495,0,0.931,0.082,1.31,0.246c0.378,0.162,0.763,0.453,1.155,0.875l-0.028-0.758
				c0-0.129,0.065-0.195,0.196-0.195h0.532c0.131,0,0.196,0.066,0.196,0.195v5.602c0,0.605-0.077,1.154-0.231,1.645
				s-0.383,0.904-0.686,1.246c-0.304,0.34-0.679,0.602-1.127,0.783c-0.448,0.182-0.961,0.273-1.54,0.273
				c-0.42,0-0.789-0.025-1.106-0.076C214.479,34.832,214.129,34.746,213.747,34.625z M218.563,28.969
				c0-0.998-0.206-1.768-0.616-2.311c-0.411-0.541-0.966-0.811-1.666-0.811c-0.756,0-1.325,0.252-1.708,0.756
				s-0.574,1.301-0.574,2.393c0,0.402,0.056,0.771,0.168,1.107c0.112,0.336,0.266,0.623,0.462,0.861
				c0.196,0.236,0.429,0.424,0.7,0.559c0.271,0.137,0.564,0.203,0.882,0.203c0.327,0,0.634-0.066,0.924-0.203
				c0.289-0.135,0.539-0.326,0.749-0.574c0.21-0.246,0.375-0.539,0.497-0.875C218.502,29.738,218.563,29.371,218.563,28.969z"/>
			<path fill="#706F6F" d="M221.88,29.277c-0.009,0.467,0.044,0.879,0.161,1.238s0.287,0.66,0.511,0.904
				c0.224,0.242,0.492,0.428,0.805,0.559s0.66,0.197,1.043,0.197c0.374,0,0.723-0.035,1.05-0.105c0.326-0.07,0.63-0.184,0.91-0.344
				c0.121-0.055,0.182-0.023,0.182,0.098v0.631c0,0.084-0.051,0.148-0.154,0.195c-0.308,0.121-0.63,0.213-0.966,0.273
				s-0.7,0.092-1.092,0.092c-1.148,0-2.016-0.334-2.604-1.002c-0.588-0.666-0.882-1.672-0.882-3.018
				c0-1.184,0.294-2.141,0.882-2.869c0.616-0.736,1.395-1.105,2.338-1.105c0.523,0,0.975,0.094,1.358,0.279
				c0.383,0.188,0.709,0.467,0.98,0.84c0.476,0.664,0.714,1.549,0.714,2.66c0,0.121-0.002,0.215-0.007,0.279
				c-0.004,0.066-0.021,0.113-0.049,0.141s-0.077,0.045-0.147,0.049c-0.07,0.006-0.17,0.008-0.301,0.008H221.88z M226.081,28.479
				c0-0.383-0.038-0.723-0.112-1.021s-0.191-0.568-0.35-0.813c-0.346-0.551-0.845-0.826-1.498-0.826
				c-0.672,0-1.218,0.281-1.638,0.84c-0.168,0.252-0.308,0.543-0.42,0.869s-0.173,0.645-0.182,0.951H226.081z"/>
			<path fill="#706F6F" d="M227.9,34.666c-0.084,0-0.103-0.031-0.056-0.098c0.728-1.146,1.276-2.268,1.645-3.359
				c0.368-1.092,0.553-2.174,0.553-3.248c0-1.064-0.182-2.145-0.546-3.24c-0.364-1.098-0.91-2.221-1.638-3.367
				c-0.028-0.047-0.042-0.074-0.042-0.084s0.023-0.014,0.07-0.014h0.392c0.046,0,0.077,0.002,0.091,0.006
				c0.014,0.006,0.044,0.031,0.091,0.078c0.849,1.072,1.477,2.154,1.883,3.248c0.406,1.092,0.609,2.217,0.609,3.373
				c0,1.166-0.203,2.297-0.609,3.389c-0.406,1.092-1.034,2.17-1.883,3.232c-0.047,0.047-0.077,0.072-0.091,0.078
				c-0.014,0.004-0.054,0.006-0.119,0.006H227.9z"/>
		</g>
	</g>
	<g>
		<g>
			<path fill="#706F6F" d="M54.448,34.57c-0.455,0.37-0.969,0.69-1.541,0.96c-0.573,0.269-1.187,0.492-1.844,0.669
				c-0.657,0.177-1.339,0.312-2.046,0.404c-0.708,0.093-1.406,0.139-2.097,0.139h-3.082c-0.286,0-0.459-0.033-0.518-0.101
				c-0.059-0.067-0.088-0.228-0.088-0.48V18.353c0-0.319,0.029-0.509,0.088-0.568c0.059-0.059,0.248-0.088,0.568-0.088h4.294
				c3.284,0,5.725,0.926,7.326,2.778c0.707,0.809,1.233,1.747,1.579,2.816c0.345,1.069,0.518,2.362,0.518,3.878
				c0,1.566-0.274,2.989-0.821,4.269C56.237,32.718,55.458,33.762,54.448,34.57z M53.336,22.369
				c-1.078-1.33-2.813-1.995-5.204-1.995h-1.97V34.04h1.137c0.977,0,1.895-0.122,2.753-0.366s1.617-0.636,2.273-1.175
				c0.758-0.572,1.343-1.31,1.755-2.211c0.413-0.9,0.619-1.974,0.619-3.221c0-1.01-0.11-1.907-0.328-2.69
				C54.153,23.595,53.808,22.925,53.336,22.369z"/>
			<path fill="#706F6F" d="M67.811,36.717c-0.118,0-0.194-0.012-0.227-0.037c-0.034-0.025-0.051-0.089-0.051-0.189v-1.137
				c-0.421,0.589-0.956,1.031-1.604,1.326c-0.648,0.294-1.301,0.441-1.958,0.441c-0.691,0-1.326-0.093-1.907-0.277
				c-0.581-0.186-1.078-0.464-1.49-0.834c-0.413-0.37-0.737-0.829-0.973-1.377c-0.236-0.547-0.354-1.183-0.354-1.906
				c0-0.859,0.151-1.613,0.455-2.262c0.303-0.647,0.779-1.187,1.427-1.616c0.648-0.43,1.478-0.749,2.488-0.96
				c1.01-0.21,2.231-0.315,3.663-0.315c0-0.32-0.034-0.641-0.101-0.96c-0.067-0.32-0.181-0.606-0.341-0.859
				c-0.161-0.252-0.383-0.458-0.67-0.619c-0.286-0.159-0.648-0.239-1.086-0.239c-0.758,0-1.444,0.101-2.059,0.303
				c-0.615,0.202-1.192,0.472-1.73,0.809c-0.27,0.168-0.451,0.244-0.543,0.228c-0.093-0.017-0.139-0.109-0.139-0.278v-1.92
				c0-0.066-0.004-0.139-0.013-0.215c-0.008-0.075,0.004-0.139,0.038-0.189c0.05-0.066,0.177-0.159,0.379-0.277
				c0.572-0.286,1.158-0.521,1.755-0.707s1.352-0.278,2.261-0.278c1.701,0,2.96,0.413,3.777,1.238
				c0.816,0.825,1.225,2.121,1.225,3.89v5.987c0,0.471,0.004,0.964,0.013,1.478c0.008,0.514,0.038,0.964,0.088,1.352
				c0.034,0.269-0.059,0.403-0.278,0.403H67.811z M63.339,30.654c-0.808,0.455-1.212,1.137-1.212,2.047
				c0,0.64,0.185,1.12,0.556,1.439c0.371,0.32,0.867,0.48,1.491,0.48c0.96,0,1.73-0.354,2.311-1.062
				c0.581-0.707,0.872-1.81,0.872-3.309v-0.278C65.487,29.973,64.148,30.2,63.339,30.654z"/>
			<path fill="#706F6F" d="M79.582,36.516c-0.236,0.151-0.61,0.29-1.124,0.416c-0.514,0.127-1.065,0.189-1.655,0.189
				c-0.707,0-1.271-0.147-1.692-0.441c-0.421-0.295-0.732-0.636-0.935-1.023c-0.236-0.438-0.379-0.951-0.429-1.541
				c-0.051-0.589-0.076-1.389-0.076-2.399v-6.341h-2.097c-0.084,0-0.156-0.029-0.215-0.088c-0.059-0.06-0.088-0.131-0.088-0.215
				v-1.996c0-0.084,0.029-0.155,0.088-0.215c0.059-0.059,0.13-0.088,0.215-0.088h2.097v-3.536c0-0.085,0.033-0.156,0.101-0.215
				c0.067-0.06,0.143-0.089,0.228-0.089h2.046c0.102,0,0.181,0.029,0.24,0.089c0.059,0.059,0.088,0.13,0.088,0.215v3.536h2.425
				c0.084,0,0.155,0.029,0.214,0.088c0.059,0.06,0.088,0.131,0.088,0.215v1.996c0,0.084-0.029,0.155-0.088,0.215
				c-0.059,0.059-0.13,0.088-0.214,0.088h-2.425v6.518c0,1.146,0.025,1.869,0.076,2.172c0.067,0.304,0.228,0.489,0.48,0.557
				s0.539,0.084,0.859,0.05c0.219-0.033,0.463-0.079,0.732-0.139c0.27-0.059,0.505-0.13,0.708-0.215
				c0.084-0.033,0.143-0.038,0.177-0.013s0.067,0.105,0.101,0.24l0.202,1.667C79.725,36.33,79.683,36.431,79.582,36.516z"/>
			<path fill="#706F6F" d="M91.252,30.377c0,0.135-0.038,0.236-0.114,0.303c-0.076,0.067-0.156,0.102-0.24,0.102h-8.311
				c0.084,1.128,0.438,2.05,1.061,2.766s1.474,1.074,2.551,1.074c0.556,0,1.187-0.072,1.895-0.215
				c0.708-0.144,1.355-0.392,1.945-0.745c0.118-0.067,0.193-0.06,0.227,0.024c0.034,0.085,0.051,0.194,0.051,0.329v1.743
				c0,0.151-0.025,0.269-0.076,0.354c-0.05,0.084-0.151,0.168-0.303,0.252c-0.505,0.27-1.099,0.463-1.781,0.581
				c-0.682,0.118-1.376,0.177-2.084,0.177c-2.088,0-3.667-0.627-4.736-1.882c-1.069-1.254-1.604-3.094-1.604-5.52
				c0-0.909,0.118-1.802,0.354-2.678c0.235-0.875,0.593-1.658,1.073-2.349s1.09-1.246,1.832-1.667
				c0.741-0.421,1.617-0.632,2.627-0.632c1.027,0,1.898,0.193,2.615,0.581c0.715,0.388,1.301,0.909,1.755,1.566
				c0.455,0.656,0.783,1.423,0.985,2.299c0.202,0.875,0.303,1.81,0.303,2.804c0,0.118-0.004,0.252-0.013,0.404
				C91.256,30.2,91.252,30.31,91.252,30.377z M85.72,24.819c-0.455,0-0.859,0.102-1.212,0.304c-0.354,0.201-0.657,0.463-0.91,0.782
				c-0.252,0.32-0.459,0.691-0.619,1.112c-0.16,0.421-0.274,0.842-0.341,1.263h5.785c0-0.337-0.055-0.707-0.164-1.111
				c-0.11-0.404-0.274-0.779-0.493-1.124c-0.219-0.346-0.497-0.636-0.833-0.872C86.596,24.938,86.191,24.819,85.72,24.819z"/>
			<path fill="#706F6F" d="M105.651,25.3c-0.337-0.084-0.632-0.14-0.884-0.165c-0.252-0.024-0.472-0.021-0.657,0.013
				c-0.505,0.102-0.914,0.316-1.225,0.645c-0.312,0.328-0.547,0.712-0.708,1.149c-0.16,0.438-0.265,0.909-0.315,1.415
				c-0.051,0.505-0.076,0.984-0.076,1.439v6.567c0,0.236-0.101,0.354-0.303,0.354h-2.097c-0.186,0-0.278-0.126-0.278-0.379v-10.18
				c0-0.539-0.009-1.077-0.025-1.616c-0.017-0.539-0.025-1.011-0.025-1.415c0-0.151,0.025-0.248,0.076-0.29
				c0.051-0.042,0.135-0.063,0.253-0.063h2.097c0.118,0,0.185,0.017,0.202,0.051c0.017,0.034,0.025,0.094,0.025,0.179v1.122
				c0.117-0.204,0.273-0.407,0.467-0.61c0.193-0.204,0.404-0.387,0.632-0.548s0.458-0.288,0.694-0.382
				c0.236-0.093,0.455-0.14,0.657-0.14c0.319,0,0.61,0.004,0.871,0.013c0.261,0.008,0.535,0.097,0.821,0.265
				c0.084,0.034,0.135,0.089,0.151,0.164c0.017,0.076,0.025,0.147,0.025,0.215v1.895c0,0.067-0.025,0.144-0.076,0.228
				C105.903,25.309,105.802,25.333,105.651,25.3z"/>
			<path fill="#706F6F" d="M114.441,36.717c-0.118,0-0.194-0.012-0.228-0.037s-0.05-0.089-0.05-0.189v-1.137
				c-0.421,0.589-0.956,1.031-1.604,1.326c-0.649,0.294-1.301,0.441-1.958,0.441c-0.69,0-1.326-0.093-1.907-0.277
				c-0.581-0.186-1.078-0.464-1.49-0.834s-0.737-0.829-0.973-1.377c-0.236-0.547-0.354-1.183-0.354-1.906
				c0-0.859,0.152-1.613,0.455-2.262c0.303-0.647,0.779-1.187,1.427-1.616c0.648-0.43,1.478-0.749,2.488-0.96
				c1.01-0.21,2.231-0.315,3.663-0.315c0-0.32-0.034-0.641-0.101-0.96c-0.068-0.32-0.182-0.606-0.341-0.859
				c-0.16-0.252-0.383-0.458-0.669-0.619c-0.287-0.159-0.648-0.239-1.086-0.239c-0.758,0-1.444,0.101-2.059,0.303
				s-1.191,0.472-1.73,0.809c-0.27,0.168-0.451,0.244-0.543,0.228c-0.093-0.017-0.139-0.109-0.139-0.278v-1.92
				c0-0.066-0.004-0.139-0.013-0.215c-0.009-0.075,0.004-0.139,0.038-0.189c0.051-0.066,0.177-0.159,0.379-0.277
				c0.572-0.286,1.158-0.521,1.756-0.707c0.598-0.186,1.352-0.278,2.261-0.278c1.701,0,2.959,0.413,3.776,1.238
				s1.226,2.121,1.226,3.89v5.987c0,0.471,0.004,0.964,0.012,1.478s0.038,0.964,0.088,1.352c0.034,0.269-0.059,0.403-0.278,0.403
				H114.441z M109.97,30.654c-0.809,0.455-1.212,1.137-1.212,2.047c0,0.64,0.185,1.12,0.556,1.439c0.37,0.32,0.867,0.48,1.49,0.48
				c0.96,0,1.73-0.354,2.312-1.062s0.872-1.81,0.872-3.309v-0.278C112.117,29.973,110.779,30.2,109.97,30.654z"/>
			<path fill="#706F6F" d="M128.082,36.717c-0.084,0-0.156-0.037-0.215-0.113s-0.088-0.156-0.088-0.24v-8.032
				c0-1.213-0.189-2.088-0.568-2.628c-0.379-0.538-0.973-0.808-1.781-0.808c-1.111,0-1.932,0.308-2.463,0.922
				c-0.531,0.615-0.796,1.503-0.796,2.665v7.906c0,0.219-0.101,0.328-0.303,0.328h-2.096c-0.084,0-0.156-0.037-0.215-0.113
				c-0.059-0.076-0.088-0.156-0.088-0.24V26.31c0-0.64-0.004-1.254-0.013-1.844c-0.009-0.589-0.03-1.053-0.063-1.39
				c-0.034-0.219,0.084-0.328,0.354-0.328h1.996c0.185,0,0.261,0.068,0.228,0.204l-0.025,0.92c0.421-0.407,0.926-0.755,1.516-1.044
				c0.589-0.289,1.271-0.434,2.046-0.434c1.617,0,2.85,0.476,3.701,1.427c0.85,0.952,1.276,2.329,1.276,4.131v8.437
				c0,0.219-0.101,0.328-0.303,0.328H128.082z"/>
			<path fill="#706F6F" d="M138.161,40.658c-0.674,0-1.339-0.047-1.995-0.14c-0.657-0.093-1.306-0.257-1.945-0.492
				c-0.151-0.084-0.257-0.151-0.316-0.202s-0.088-0.135-0.088-0.253l0.126-2.046c0.034-0.32,0.202-0.404,0.505-0.252
				c0.572,0.286,1.191,0.5,1.856,0.644c0.665,0.143,1.292,0.215,1.882,0.215c1.095,0,1.966-0.286,2.614-0.858
				c0.648-0.573,0.998-1.356,1.049-2.35c-0.438,0.472-0.952,0.825-1.541,1.061c-0.59,0.236-1.171,0.354-1.743,0.354
				c-0.842,0-1.625-0.164-2.349-0.492c-0.724-0.328-1.348-0.783-1.87-1.364s-0.931-1.275-1.225-2.084
				c-0.295-0.809-0.442-1.692-0.442-2.652c0-2.492,0.501-4.336,1.503-5.532c1.002-1.195,2.438-1.793,4.307-1.793
				c0.336,0,0.678,0.042,1.023,0.126c0.345,0.085,0.678,0.194,0.998,0.328c0.319,0.136,0.614,0.291,0.884,0.468
				s0.505,0.366,0.708,0.568l-0.025-0.884c-0.017-0.135-0.009-0.228,0.025-0.278c0.034-0.051,0.134-0.076,0.303-0.076h1.996
				c0.202,0,0.303,0.127,0.303,0.379v10.434c0,2.273-0.556,4.037-1.667,5.292C141.925,40.03,140.299,40.658,138.161,40.658z
				 M138.792,24.896c-1.061,0-1.874,0.388-2.438,1.162c-0.564,0.774-0.847,2.004-0.847,3.688c0,0.641,0.084,1.213,0.253,1.718
				c0.168,0.505,0.399,0.931,0.694,1.275c0.294,0.346,0.632,0.611,1.011,0.796c0.379,0.186,0.778,0.278,1.2,0.278
				c0.471,0,0.91-0.093,1.313-0.278c0.404-0.185,0.758-0.454,1.061-0.808c0.303-0.354,0.543-0.783,0.72-1.289
				c0.177-0.505,0.266-1.086,0.266-1.743c0-1.532-0.287-2.715-0.859-3.549C140.594,25.313,139.803,24.896,138.792,24.896z"/>
			<path fill="#706F6F" d="M158.066,30.377c0,0.135-0.038,0.236-0.114,0.303c-0.076,0.067-0.156,0.102-0.24,0.102h-8.311
				c0.084,1.128,0.438,2.05,1.061,2.766s1.474,1.074,2.551,1.074c0.556,0,1.187-0.072,1.895-0.215
				c0.708-0.144,1.355-0.392,1.945-0.745c0.118-0.067,0.193-0.06,0.227,0.024c0.034,0.085,0.051,0.194,0.051,0.329v1.743
				c0,0.151-0.025,0.269-0.076,0.354c-0.05,0.084-0.151,0.168-0.303,0.252c-0.505,0.27-1.099,0.463-1.781,0.581
				c-0.682,0.118-1.376,0.177-2.084,0.177c-2.088,0-3.667-0.627-4.736-1.882c-1.069-1.254-1.604-3.094-1.604-5.52
				c0-0.909,0.118-1.802,0.354-2.678c0.235-0.875,0.593-1.658,1.073-2.349s1.09-1.246,1.832-1.667
				c0.741-0.421,1.617-0.632,2.627-0.632c1.027,0,1.898,0.193,2.615,0.581c0.715,0.388,1.301,0.909,1.755,1.566
				c0.455,0.656,0.783,1.423,0.985,2.299c0.202,0.875,0.303,1.81,0.303,2.804c0,0.118-0.004,0.252-0.013,0.404
				C158.07,30.2,158.066,30.31,158.066,30.377z M152.534,24.819c-0.455,0-0.859,0.102-1.212,0.304
				c-0.354,0.201-0.657,0.463-0.91,0.782c-0.252,0.32-0.459,0.691-0.619,1.112c-0.16,0.421-0.274,0.842-0.341,1.263h5.785
				c0-0.337-0.055-0.707-0.164-1.111c-0.11-0.404-0.274-0.779-0.493-1.124c-0.219-0.346-0.497-0.636-0.833-0.872
				C153.409,24.938,153.005,24.819,152.534,24.819z"/>
		</g>
	</g>
</g>
<rect fill="none" width="272.818" height="55.979"/>
</svg>
