<?xml version="1.0" encoding="utf-8"?>
<!-- Generator: Adobe Illustrator 16.0.0, SVG Export Plug-In . SVG Version: 6.00 Build 0)  -->
<!DOCTYPE svg PUBLIC "-//W3C//DTD SVG 1.1//EN" "http://www.w3.org/Graphics/SVG/1.1/DTD/svg11.dtd">
<svg version="1.1" id="레이어_1" xmlns="http://www.w3.org/2000/svg" xmlns:xlink="http://www.w3.org/1999/xlink" x="0px"
	 y="0px" width="272.818px" height="55.979px" viewBox="0 0 272.818 55.979" enable-background="new 0 0 272.818 55.979"
	 xml:space="preserve">
<g>
	<g>
		<g>
			<path fill="#706F6F" d="M142.515,34.667c-0.065,0-0.105-0.002-0.119-0.007s-0.04-0.03-0.077-0.077
				c-0.85-1.063-1.479-2.142-1.89-3.233c-0.411-1.092-0.616-2.222-0.616-3.388c0-1.157,0.205-2.282,0.616-3.374
				c0.411-1.093,1.041-2.175,1.89-3.248c0.037-0.047,0.063-0.072,0.077-0.077s0.044-0.007,0.091-0.007h0.392
				c0.056,0,0.084,0.005,0.084,0.014c0,0.01-0.014,0.037-0.042,0.084c-1.465,2.296-2.198,4.499-2.198,6.608
				c0,1.073,0.187,2.155,0.56,3.247c0.373,1.093,0.924,2.213,1.652,3.36c0.046,0.065,0.023,0.098-0.07,0.098H142.515z"/>
			<path fill="#706F6F" d="M143.873,22.571c0-0.187,0.065-0.348,0.196-0.482c0.131-0.136,0.29-0.203,0.476-0.203
				s0.348,0.067,0.483,0.203c0.135,0.135,0.203,0.296,0.203,0.482s-0.068,0.346-0.203,0.477s-0.296,0.195-0.483,0.195
				s-0.345-0.064-0.476-0.195S143.873,22.758,143.873,22.571z M144.867,32.791h-0.616c-0.131,0-0.196-0.065-0.196-0.195v-7.183
				c0-0.13,0.065-0.195,0.196-0.195h0.616c0.13,0,0.196,0.065,0.196,0.195v7.183C145.063,32.726,144.998,32.791,144.867,32.791z"/>
			<path fill="#706F6F" d="M152.959,32.596c0,0.13-0.065,0.195-0.196,0.195h-0.56c-0.13,0-0.196-0.065-0.196-0.195v-4.41
				c0-0.858-0.154-1.468-0.462-1.827c-0.308-0.359-0.742-0.539-1.302-0.539c-0.756,0-1.333,0.21-1.729,0.63
				s-0.595,1.008-0.595,1.765v4.382c0,0.13-0.065,0.195-0.196,0.195h-0.56c-0.131,0-0.196-0.065-0.196-0.195v-5.601
				c0-0.4-0.002-0.714-0.007-0.938c-0.005-0.225-0.017-0.438-0.035-0.645c-0.009-0.064,0.007-0.114,0.049-0.146
				c0.042-0.033,0.091-0.049,0.147-0.049h0.504c0.13,0,0.196,0.065,0.196,0.195v0.771c0.261-0.401,0.576-0.695,0.945-0.882
				s0.875-0.28,1.519-0.28c0.887,0,1.554,0.257,2.002,0.77c0.448,0.514,0.672,1.237,0.672,2.171V32.596z"/>
			<path fill="#706F6F" d="M158.488,32.806c-0.392,0.14-0.779,0.21-1.162,0.21c-0.756,0-1.255-0.248-1.498-0.742
				c-0.159-0.336-0.238-0.929-0.238-1.778v-4.466h-1.316c-0.131,0-0.196-0.065-0.196-0.196v-0.42c0-0.13,0.065-0.195,0.196-0.195
				h1.316v-1.891c0-0.14,0.061-0.21,0.182-0.21h0.588c0.122,0,0.182,0.07,0.182,0.21v1.891h1.554c0.13,0,0.196,0.065,0.196,0.195
				v0.42c0,0.131-0.065,0.196-0.196,0.196h-1.554v4.942c0,0.831,0.336,1.246,1.008,1.246c0.261,0,0.555-0.057,0.882-0.168
				c0.046-0.019,0.091-0.019,0.133,0s0.063,0.056,0.063,0.111l0.028,0.364C158.675,32.656,158.619,32.749,158.488,32.806z"/>
			<path fill="#706F6F" d="M159.356,22.571c0-0.187,0.065-0.348,0.196-0.482c0.13-0.136,0.289-0.203,0.476-0.203
				s0.348,0.067,0.483,0.203c0.135,0.135,0.203,0.296,0.203,0.482s-0.068,0.346-0.203,0.477c-0.136,0.131-0.297,0.195-0.483,0.195
				s-0.345-0.064-0.476-0.195C159.422,22.917,159.356,22.758,159.356,22.571z M160.351,32.791h-0.616
				c-0.131,0-0.196-0.065-0.196-0.195v-7.183c0-0.13,0.065-0.195,0.196-0.195h0.616c0.13,0,0.196,0.065,0.196,0.195v7.183
				C160.546,32.726,160.481,32.791,160.351,32.791z"/>
			<path fill="#706F6F" d="M165.979,32.806c-0.392,0.14-0.78,0.21-1.162,0.21c-0.756,0-1.255-0.248-1.498-0.742
				c-0.159-0.336-0.238-0.929-0.238-1.778v-4.466h-1.316c-0.13,0-0.196-0.065-0.196-0.196v-0.42c0-0.13,0.065-0.195,0.196-0.195
				h1.316v-1.891c0-0.14,0.061-0.21,0.182-0.21h0.588c0.121,0,0.182,0.07,0.182,0.21v1.891h1.554c0.13,0,0.196,0.065,0.196,0.195
				v0.42c0,0.131-0.065,0.196-0.196,0.196h-1.554v4.942c0,0.831,0.336,1.246,1.008,1.246c0.262,0,0.556-0.057,0.882-0.168
				c0.046-0.019,0.091-0.019,0.133,0s0.063,0.056,0.063,0.111l0.028,0.364C166.165,32.656,166.109,32.749,165.979,32.806z"/>
			<path fill="#706F6F" d="M167.854,32.791h-0.616c-0.131,0-0.196-0.065-0.196-0.195V21.857c0-0.131,0.065-0.196,0.196-0.196h0.616
				c0.13,0,0.196,0.065,0.196,0.196v10.738C168.05,32.726,167.985,32.791,167.854,32.791z"/>
			<path fill="#706F6F" d="M170.416,29.277c-0.009,0.467,0.044,0.88,0.161,1.239c0.116,0.359,0.287,0.66,0.511,0.903
				c0.224,0.242,0.492,0.429,0.805,0.56c0.313,0.131,0.66,0.196,1.043,0.196c0.373,0,0.723-0.035,1.05-0.105
				c0.326-0.07,0.63-0.184,0.91-0.343c0.121-0.056,0.182-0.023,0.182,0.098v0.63c0,0.084-0.052,0.149-0.154,0.196
				c-0.308,0.121-0.63,0.212-0.966,0.273c-0.336,0.061-0.7,0.091-1.092,0.091c-1.148,0-2.016-0.334-2.604-1.001
				c-0.588-0.667-0.882-1.673-0.882-3.018c0-1.185,0.294-2.142,0.882-2.869c0.616-0.737,1.395-1.106,2.338-1.106
				c0.522,0,0.975,0.094,1.358,0.28s0.709,0.467,0.98,0.84c0.476,0.663,0.714,1.549,0.714,2.66c0,0.121-0.003,0.215-0.007,0.279
				c-0.005,0.065-0.021,0.112-0.049,0.141c-0.028,0.027-0.077,0.044-0.147,0.049c-0.07,0.005-0.17,0.007-0.301,0.007H170.416z
				 M174.616,28.479c0-0.383-0.038-0.724-0.112-1.022c-0.075-0.298-0.191-0.568-0.35-0.812c-0.346-0.551-0.845-0.826-1.498-0.826
				c-0.672,0-1.218,0.28-1.638,0.84c-0.168,0.252-0.308,0.542-0.42,0.868c-0.112,0.327-0.173,0.645-0.182,0.952H174.616z"/>
			<path fill="#706F6F" d="M176.436,34.667c-0.084,0-0.103-0.032-0.056-0.098c0.728-1.147,1.276-2.268,1.645-3.36
				c0.369-1.092,0.553-2.174,0.553-3.247c0-1.064-0.182-2.145-0.546-3.241c-0.364-1.097-0.91-2.22-1.638-3.367
				c-0.028-0.047-0.042-0.074-0.042-0.084c0-0.009,0.023-0.014,0.07-0.014h0.392c0.047,0,0.077,0.002,0.091,0.007
				c0.014,0.005,0.044,0.03,0.091,0.077c0.849,1.073,1.477,2.155,1.883,3.248c0.406,1.092,0.609,2.217,0.609,3.374
				c0,1.166-0.203,2.296-0.609,3.388c-0.406,1.092-1.034,2.17-1.883,3.233c-0.047,0.047-0.077,0.072-0.091,0.077
				c-0.014,0.005-0.054,0.007-0.119,0.007H176.436z"/>
		</g>
	</g>
	<g>
		<g>
			<path fill="#706F6F" d="M100.886,20.349v16.091c0,0.202-0.101,0.303-0.303,0.303h-2.249c-0.202,0-0.303-0.101-0.303-0.303V20.349
				H93.13c-0.084,0-0.156-0.029-0.214-0.089c-0.06-0.059-0.089-0.139-0.089-0.24v-2.021c0-0.084,0.029-0.155,0.089-0.215
				c0.059-0.059,0.13-0.088,0.214-0.088h12.681c0.084,0,0.155,0.029,0.215,0.088c0.059,0.06,0.088,0.131,0.088,0.215v2.021
				c0,0.22-0.101,0.329-0.303,0.329H100.886z"/>
			<path fill="#706F6F" d="M108.161,20.121c-0.489,0-0.897-0.165-1.225-0.496c-0.329-0.331-0.493-0.734-0.493-1.209
				c0-0.492,0.164-0.907,0.493-1.247c0.328-0.339,0.736-0.509,1.225-0.509c0.488,0,0.901,0.17,1.238,0.509
				c0.337,0.34,0.505,0.755,0.505,1.247c0,0.475-0.168,0.878-0.505,1.209S108.649,20.121,108.161,20.121z M107.074,36.768
				c-0.084,0-0.156-0.029-0.214-0.088c-0.059-0.06-0.088-0.131-0.088-0.215V23.177c0-0.084,0.029-0.155,0.088-0.214
				c0.059-0.059,0.13-0.089,0.214-0.089h2.122c0.084,0,0.155,0.03,0.215,0.089c0.059,0.059,0.088,0.13,0.088,0.214v13.288
				c0,0.084-0.03,0.155-0.088,0.215c-0.06,0.059-0.131,0.088-0.215,0.088H107.074z"/>
			<path fill="#706F6F" d="M118.795,36.516c-0.236,0.151-0.61,0.29-1.124,0.416c-0.514,0.127-1.065,0.189-1.654,0.189
				c-0.708,0-1.272-0.147-1.693-0.441c-0.421-0.295-0.732-0.636-0.935-1.023c-0.236-0.438-0.379-0.951-0.429-1.541
				c-0.051-0.589-0.076-1.389-0.076-2.399v-6.341h-2.097c-0.084,0-0.156-0.029-0.214-0.088c-0.059-0.06-0.088-0.131-0.088-0.215
				v-1.996c0-0.084,0.029-0.155,0.088-0.215c0.059-0.059,0.13-0.088,0.214-0.088h2.097v-3.536c0-0.085,0.034-0.156,0.102-0.215
				c0.067-0.06,0.143-0.089,0.227-0.089h2.046c0.101,0,0.181,0.029,0.24,0.089c0.059,0.059,0.088,0.13,0.088,0.215v3.536h2.425
				c0.084,0,0.156,0.029,0.215,0.088c0.059,0.06,0.088,0.131,0.088,0.215v1.996c0,0.084-0.029,0.155-0.088,0.215
				c-0.059,0.059-0.13,0.088-0.215,0.088h-2.425v6.518c0,1.146,0.025,1.869,0.076,2.172c0.067,0.304,0.228,0.489,0.48,0.557
				c0.253,0.067,0.539,0.084,0.859,0.05c0.219-0.033,0.463-0.079,0.733-0.139c0.269-0.059,0.505-0.13,0.707-0.215
				c0.084-0.033,0.143-0.038,0.177-0.013c0.034,0.025,0.067,0.105,0.101,0.24l0.202,1.667
				C118.938,36.33,118.896,36.431,118.795,36.516z"/>
			<path fill="#706F6F" d="M119.856,36.768c-0.186,0-0.278-0.101-0.278-0.303V16.56c0-0.084,0.029-0.156,0.088-0.215
				c0.059-0.059,0.13-0.089,0.214-0.089h2.122c0.084,0,0.155,0.03,0.215,0.089c0.059,0.059,0.088,0.131,0.088,0.215v19.905
				c0,0.084-0.03,0.155-0.088,0.215c-0.06,0.059-0.131,0.088-0.215,0.088H119.856z"/>
			<path fill="#706F6F" d="M135.315,30.377c0,0.135-0.038,0.236-0.114,0.303c-0.076,0.067-0.156,0.102-0.24,0.102h-8.311
				c0.084,1.128,0.438,2.05,1.061,2.766s1.474,1.074,2.551,1.074c0.556,0,1.188-0.072,1.895-0.215
				c0.708-0.144,1.355-0.392,1.945-0.745c0.118-0.067,0.193-0.06,0.228,0.024c0.033,0.085,0.05,0.194,0.05,0.329v1.743
				c0,0.151-0.025,0.269-0.076,0.354c-0.051,0.084-0.152,0.168-0.303,0.252c-0.505,0.27-1.099,0.463-1.781,0.581
				c-0.682,0.118-1.377,0.177-2.084,0.177c-2.088,0-3.667-0.627-4.736-1.882c-1.07-1.254-1.604-3.094-1.604-5.52
				c0-0.909,0.118-1.802,0.354-2.678c0.235-0.875,0.593-1.658,1.074-2.349c0.479-0.69,1.09-1.246,1.831-1.667
				s1.617-0.632,2.627-0.632c1.027,0,1.898,0.193,2.615,0.581c0.715,0.388,1.301,0.909,1.755,1.566
				c0.455,0.656,0.783,1.423,0.985,2.299c0.202,0.875,0.303,1.81,0.303,2.804c0,0.118-0.004,0.252-0.013,0.404
				C135.319,30.2,135.315,30.31,135.315,30.377z M129.783,24.819c-0.455,0-0.859,0.102-1.213,0.304
				c-0.354,0.201-0.657,0.463-0.909,0.782c-0.253,0.32-0.459,0.691-0.619,1.112s-0.274,0.842-0.341,1.263h5.785
				c0-0.337-0.055-0.707-0.164-1.111c-0.11-0.404-0.274-0.779-0.493-1.124c-0.219-0.346-0.497-0.636-0.833-0.872
				C130.658,24.938,130.254,24.819,129.783,24.819z"/>
		</g>
	</g>
</g>
<rect fill="none" width="272.818" height="55.979"/>
</svg>
