<?xml version="1.0" encoding="utf-8"?>
<!-- Generator: Adobe Illustrator 16.0.0, SVG Export Plug-In . SVG Version: 6.00 Build 0)  -->
<!DOCTYPE svg PUBLIC "-//W3C//DTD SVG 1.1//EN" "http://www.w3.org/Graphics/SVG/1.1/DTD/svg11.dtd">
<svg version="1.1" id="레이어_1" xmlns="http://www.w3.org/2000/svg" xmlns:xlink="http://www.w3.org/1999/xlink" x="0px"
	 y="0px" width="272.818px" height="55.979px" viewBox="0 0 272.818 55.979" enable-background="new 0 0 272.818 55.979"
	 xml:space="preserve">
<g>
	<g>
		<g>
			<path fill="#706F6F" d="M236.51,34.276c-1.275-1.414-2.367-3.432-2.367-6.064v-0.266c0-2.648,1.092-4.65,2.367-6.066h0.714
				c-1.247,1.457-2.284,3.531-2.284,5.982v0.363c0,2.396,1.037,4.58,2.284,6.051H236.51z"/>
			<path fill="#706F6F" d="M237.628,32.345V31.7c0.588,0.266,1.177,0.49,2.228,0.49c1.316,0,1.807-0.547,1.807-1.316
				c0-0.842-0.378-1.148-1.429-1.443l-0.784-0.238c-1.079-0.295-1.737-0.77-1.737-1.961c0-1.135,0.785-1.934,2.381-1.934
				c0.938,0,1.555,0.225,1.961,0.436v0.643c-0.448-0.209-1.163-0.391-1.919-0.391c-1.121,0-1.681,0.42-1.681,1.189
				c0,0.758,0.336,1.064,1.247,1.332l0.813,0.223c1.331,0.379,1.933,0.813,1.933,2.088c0,1.232-0.84,2.045-2.507,2.045
				C238.959,32.862,238.175,32.638,237.628,32.345z"/>
			<path fill="#706F6F" d="M243.649,22.974h0.812v0.896h-0.812V22.974z M243.663,25.438h0.784v7.313h-0.784V25.438z"/>
			<path fill="#706F6F" d="M246.575,31.224v-5.141h-1.079v-0.645h1.079v-1.723h0.785v1.723h1.989v0.645h-1.989v5.029
				c0,0.742,0.252,1.064,1.163,1.064c0.322,0,0.687-0.057,0.98-0.141v0.531c-0.252,0.127-0.616,0.252-1.177,0.252
				C247.205,32.819,246.575,32.345,246.575,31.224z"/>
			<path fill="#706F6F" d="M250.116,29.179v-0.168c0-2.535,1.457-3.713,3.166-3.713c1.989,0,2.899,1.232,2.899,3.418v0.449H250.9
				c0,2.115,0.925,3.025,2.774,3.025c0.98,0,1.681-0.225,2.269-0.52v0.604c-0.448,0.279-1.261,0.602-2.381,0.602
				C251.265,32.876,250.116,31.532,250.116,29.179z M250.915,28.534h4.454c0-1.723-0.686-2.592-2.115-2.592
				C252.105,25.942,251.041,26.671,250.915,28.534z"/>
			<path fill="#706F6F" d="M256.598,34.276c1.247-1.457,2.283-3.529,2.283-5.98v-0.363c0-2.396-1.037-4.582-2.283-6.053h0.714
				c1.275,1.416,2.368,3.432,2.368,6.066v0.266c0,2.646-1.093,4.65-2.368,6.064H256.598z"/>
		</g>
	</g>
	<g>
		<g>
			<path fill="#706F6F" d="M25.417,36.743c-0.186,0-0.315-0.014-0.392-0.037c-0.076-0.025-0.156-0.098-0.24-0.215l-3.865-7.479
				h-2.88v7.402c0,0.219-0.11,0.328-0.329,0.328h-2.248c-0.202,0-0.303-0.109-0.303-0.328V17.999c0-0.084,0.029-0.154,0.088-0.215
				c0.059-0.059,0.13-0.088,0.215-0.088h5.103c1.87,0,3.351,0.455,4.446,1.363c1.095,0.91,1.642,2.324,1.642,4.244
				c0,1.23-0.27,2.27-0.808,3.121c-0.539,0.85-1.28,1.494-2.223,1.932l4.219,8.033c0.134,0.236,0.033,0.354-0.303,0.354H25.417z
				 M18.042,20.349v6.037h2.071c1.111,0,1.996-0.24,2.652-0.719c0.657-0.48,0.985-1.277,0.985-2.389
				c0-0.959-0.257-1.688-0.771-2.184c-0.514-0.498-1.2-0.746-2.059-0.746H18.042z"/>
			<path fill="#706F6F" d="M39.968,30.378c0,0.135-0.038,0.236-0.114,0.303c-0.076,0.066-0.156,0.102-0.24,0.102h-8.311
				c0.084,1.127,0.438,2.049,1.061,2.766c0.623,0.715,1.473,1.074,2.551,1.074c0.556,0,1.187-0.072,1.895-0.215
				c0.707-0.145,1.355-0.393,1.945-0.746c0.117-0.066,0.193-0.059,0.227,0.025s0.05,0.193,0.05,0.328v1.744
				c0,0.15-0.025,0.268-0.076,0.354c-0.05,0.084-0.151,0.168-0.303,0.252c-0.505,0.27-1.099,0.463-1.781,0.58
				c-0.682,0.119-1.376,0.178-2.084,0.178c-2.088,0-3.667-0.627-4.736-1.883c-1.07-1.254-1.604-3.094-1.604-5.52
				c0-0.908,0.118-1.801,0.354-2.678c0.236-0.875,0.594-1.658,1.074-2.348c0.48-0.691,1.09-1.246,1.832-1.668
				c0.741-0.42,1.616-0.631,2.627-0.631c1.027,0,1.898,0.193,2.614,0.58c0.716,0.389,1.301,0.91,1.756,1.566
				s0.783,1.424,0.985,2.299s0.303,1.811,0.303,2.805c0,0.117-0.004,0.252-0.013,0.404C39.972,30.2,39.968,30.31,39.968,30.378z
				 M34.436,24.819c-0.455,0-0.859,0.102-1.212,0.305c-0.354,0.201-0.657,0.463-0.91,0.781c-0.252,0.32-0.459,0.691-0.619,1.113
				c-0.16,0.42-0.274,0.842-0.341,1.262h5.785c0-0.336-0.055-0.707-0.164-1.111s-0.274-0.779-0.493-1.123
				c-0.219-0.346-0.497-0.637-0.833-0.873C35.311,24.938,34.907,24.819,34.436,24.819z"/>
			<path fill="#706F6F" d="M48,36.212c-0.909,0.607-1.987,0.91-3.233,0.91c-0.337,0-0.69-0.018-1.061-0.051
				s-0.729-0.076-1.074-0.127c-0.345-0.049-0.652-0.109-0.922-0.176c-0.27-0.068-0.48-0.135-0.631-0.203
				c-0.067-0.033-0.139-0.08-0.215-0.139s-0.105-0.156-0.088-0.289l0.151-1.643c0.017-0.168,0.042-0.27,0.076-0.303
				c0.033-0.035,0.143-0.025,0.328,0.025c0.556,0.168,1.132,0.289,1.73,0.365c0.598,0.076,1.132,0.113,1.604,0.113
				c0.741,0,1.292-0.184,1.655-0.555c0.362-0.371,0.543-0.801,0.543-1.289c0-0.27-0.093-0.543-0.278-0.82
				c-0.186-0.277-0.497-0.561-0.935-0.846c-0.455-0.27-0.926-0.545-1.415-0.822c-0.489-0.277-0.969-0.551-1.44-0.82
				c-0.54-0.32-0.99-0.746-1.352-1.275c-0.362-0.531-0.543-1.115-0.543-1.756c0-0.707,0.126-1.318,0.379-1.832
				s0.589-0.943,1.01-1.287c0.421-0.346,0.905-0.598,1.453-0.758c0.547-0.16,1.124-0.24,1.73-0.24c0.32,0,0.653,0.016,0.998,0.051
				c0.345,0.033,0.682,0.08,1.011,0.139c0.328,0.059,0.623,0.125,0.884,0.201c0.261,0.076,0.459,0.156,0.594,0.24
				c0.084,0.051,0.13,0.098,0.139,0.139c0.008,0.043,0.004,0.105-0.013,0.189l-0.151,1.617c-0.017,0.186-0.059,0.291-0.126,0.316
				c-0.068,0.025-0.194,0.021-0.379-0.014c-0.32-0.117-0.682-0.227-1.086-0.328c-0.236-0.033-0.484-0.066-0.745-0.102
				c-0.261-0.033-0.585-0.051-0.973-0.051c-0.691,0-1.179,0.16-1.465,0.48s-0.429,0.707-0.429,1.162c0,0.27,0.16,0.557,0.48,0.859
				c0.32,0.303,0.724,0.58,1.212,0.834c0.522,0.252,1.006,0.514,1.453,0.783c0.446,0.27,0.779,0.488,0.998,0.656
				c0.606,0.438,1.061,0.914,1.364,1.428s0.455,1.133,0.455,1.855C49.693,34.267,49.128,35.388,48,36.212z"/>
			<path fill="#706F6F" d="M58.155,36.517c-0.236,0.15-0.611,0.289-1.125,0.416s-1.065,0.189-1.654,0.189
				c-0.707,0-1.271-0.148-1.692-0.441c-0.421-0.295-0.732-0.637-0.935-1.023c-0.236-0.438-0.379-0.951-0.43-1.541
				c-0.05-0.59-0.076-1.389-0.076-2.4v-6.34h-2.097c-0.084,0-0.156-0.029-0.214-0.088c-0.06-0.061-0.089-0.131-0.089-0.215v-1.996
				c0-0.084,0.029-0.156,0.089-0.215c0.059-0.059,0.13-0.088,0.214-0.088h2.097v-3.537c0-0.084,0.034-0.156,0.101-0.215
				s0.143-0.088,0.228-0.088h2.046c0.101,0,0.181,0.029,0.24,0.088c0.059,0.059,0.088,0.131,0.088,0.215v3.537h2.425
				c0.084,0,0.156,0.029,0.215,0.088c0.059,0.059,0.088,0.131,0.088,0.215v1.996c0,0.084-0.03,0.154-0.088,0.215
				c-0.059,0.059-0.131,0.088-0.215,0.088h-2.425v6.518c0,1.145,0.025,1.869,0.076,2.172c0.067,0.303,0.227,0.488,0.48,0.557
				c0.252,0.066,0.539,0.084,0.859,0.049c0.219-0.033,0.463-0.078,0.732-0.139c0.269-0.059,0.505-0.129,0.707-0.215
				c0.084-0.033,0.143-0.037,0.177-0.012c0.033,0.025,0.067,0.105,0.101,0.24l0.202,1.666
				C58.298,36.331,58.256,36.431,58.155,36.517z"/>
			<path fill="#706F6F" d="M65.91,25.3c-0.337-0.084-0.631-0.139-0.884-0.164c-0.253-0.025-0.472-0.021-0.657,0.012
				c-0.505,0.102-0.914,0.316-1.225,0.645c-0.312,0.328-0.548,0.713-0.708,1.15c-0.16,0.438-0.265,0.908-0.316,1.414
				c-0.05,0.506-0.076,0.984-0.076,1.439v6.568c0,0.236-0.101,0.354-0.303,0.354h-2.097c-0.185,0-0.277-0.127-0.277-0.379v-10.18
				c0-0.539-0.009-1.078-0.025-1.617c-0.017-0.539-0.025-1.01-0.025-1.414c0-0.152,0.025-0.248,0.076-0.291
				c0.051-0.041,0.135-0.063,0.252-0.063h2.097c0.118,0,0.186,0.016,0.202,0.051c0.017,0.033,0.025,0.094,0.025,0.178v1.123
				c0.118-0.205,0.273-0.408,0.467-0.611c0.193-0.203,0.404-0.387,0.631-0.547c0.228-0.162,0.459-0.289,0.695-0.383
				c0.236-0.092,0.455-0.139,0.657-0.139c0.32,0,0.61,0.004,0.872,0.012s0.535,0.098,0.821,0.266
				c0.084,0.033,0.135,0.088,0.152,0.164c0.017,0.076,0.025,0.146,0.025,0.215v1.895c0,0.066-0.025,0.143-0.076,0.227
				C66.163,25.31,66.062,25.333,65.91,25.3z"/>
			<path fill="#706F6F" d="M68.183,20.122c-0.488,0-0.896-0.166-1.225-0.496c-0.329-0.332-0.493-0.734-0.493-1.209
				c0-0.492,0.164-0.908,0.493-1.248c0.329-0.338,0.737-0.508,1.225-0.508s0.901,0.17,1.238,0.508
				c0.337,0.34,0.505,0.756,0.505,1.248c0,0.475-0.168,0.877-0.505,1.209C69.084,19.956,68.671,20.122,68.183,20.122z
				 M67.097,36.769c-0.084,0-0.156-0.029-0.215-0.088c-0.059-0.061-0.088-0.131-0.088-0.215V23.177c0-0.084,0.029-0.154,0.088-0.213
				c0.059-0.059,0.13-0.09,0.215-0.09h2.122c0.084,0,0.156,0.031,0.215,0.09s0.088,0.129,0.088,0.213v13.289
				c0,0.084-0.029,0.154-0.088,0.215c-0.059,0.059-0.13,0.088-0.215,0.088H67.097z"/>
			<path fill="#706F6F" d="M81.142,36.692c-0.186,0.066-0.413,0.127-0.682,0.178c-0.27,0.049-0.56,0.092-0.871,0.125
				c-0.312,0.033-0.641,0.055-0.985,0.064c-0.346,0.008-0.678,0.004-0.998-0.014c-1.061-0.066-2-0.299-2.816-0.695
				c-0.817-0.395-1.503-0.912-2.059-1.553s-0.973-1.393-1.25-2.262c-0.278-0.865-0.417-1.805-0.417-2.816
				c0-1.061,0.168-2.037,0.505-2.93s0.813-1.662,1.427-2.311s1.351-1.15,2.21-1.504c0.858-0.354,1.818-0.529,2.879-0.529
				c0.522,0,1.048,0.029,1.579,0.088c0.531,0.059,1.049,0.172,1.554,0.34c0.067,0.018,0.118,0.051,0.152,0.102
				c0.033,0.051,0.042,0.152,0.025,0.303l-0.227,1.744c-0.017,0.117-0.055,0.201-0.114,0.252c-0.059,0.051-0.164,0.059-0.316,0.025
				c-0.371-0.135-0.804-0.227-1.301-0.277c-0.497-0.051-0.964-0.076-1.402-0.076c-1.364,0-2.4,0.438-3.107,1.314
				c-0.707,0.875-1.061,2.029-1.061,3.459c0,1.383,0.332,2.494,0.998,3.336c0.665,0.842,1.629,1.338,2.893,1.49
				c1.162,0.135,2.198,0.059,3.107-0.229c0.168-0.066,0.273-0.074,0.316-0.025c0.042,0.051,0.071,0.127,0.088,0.229l0.126,1.742
				c0.017,0.135,0.013,0.232-0.013,0.291C81.356,36.612,81.276,36.659,81.142,36.692z"/>
			<path fill="#706F6F" d="M89.781,36.517c-0.236,0.15-0.611,0.289-1.124,0.416c-0.514,0.127-1.065,0.189-1.655,0.189
				c-0.708,0-1.272-0.148-1.692-0.441c-0.421-0.295-0.733-0.637-0.935-1.023c-0.236-0.438-0.379-0.951-0.43-1.541
				c-0.05-0.59-0.076-1.389-0.076-2.4v-6.34h-2.097c-0.084,0-0.156-0.029-0.215-0.088c-0.059-0.061-0.088-0.131-0.088-0.215v-1.996
				c0-0.084,0.029-0.156,0.088-0.215s0.13-0.088,0.215-0.088h2.097v-3.537c0-0.084,0.034-0.156,0.101-0.215
				c0.067-0.059,0.143-0.088,0.227-0.088h2.046c0.101,0,0.181,0.029,0.24,0.088s0.089,0.131,0.089,0.215v3.537h2.425
				c0.084,0,0.155,0.029,0.215,0.088c0.059,0.059,0.088,0.131,0.088,0.215v1.996c0,0.084-0.03,0.154-0.088,0.215
				c-0.06,0.059-0.131,0.088-0.215,0.088h-2.425v6.518c0,1.145,0.025,1.869,0.076,2.172c0.067,0.303,0.227,0.488,0.48,0.557
				c0.252,0.066,0.539,0.084,0.859,0.049c0.218-0.033,0.463-0.078,0.732-0.139c0.269-0.059,0.505-0.129,0.708-0.215
				c0.084-0.033,0.143-0.037,0.177-0.012c0.033,0.025,0.067,0.105,0.101,0.24l0.202,1.666
				C89.923,36.331,89.882,36.431,89.781,36.517z"/>
			<path fill="#706F6F" d="M91.902,20.122c-0.489,0-0.897-0.166-1.225-0.496c-0.329-0.332-0.493-0.734-0.493-1.209
				c0-0.492,0.164-0.908,0.493-1.248c0.328-0.338,0.736-0.508,1.225-0.508c0.488,0,0.901,0.17,1.238,0.508
				c0.337,0.34,0.505,0.756,0.505,1.248c0,0.475-0.168,0.877-0.505,1.209C92.803,19.956,92.391,20.122,91.902,20.122z
				 M90.816,36.769c-0.084,0-0.156-0.029-0.214-0.088c-0.059-0.061-0.088-0.131-0.088-0.215V23.177c0-0.084,0.029-0.154,0.088-0.213
				c0.059-0.059,0.13-0.09,0.214-0.09h2.122c0.084,0,0.155,0.031,0.215,0.09c0.059,0.059,0.088,0.129,0.088,0.213v13.289
				c0,0.084-0.03,0.154-0.088,0.215c-0.06,0.059-0.131,0.088-0.215,0.088H90.816z"/>
			<path fill="#706F6F" d="M106.326,34.798c-0.606,0.758-1.33,1.334-2.172,1.73c-0.842,0.395-1.793,0.594-2.854,0.594
				c-1.078,0-2.029-0.193-2.854-0.582c-0.826-0.387-1.516-0.918-2.072-1.59c-0.556-0.674-0.972-1.457-1.25-2.35
				c-0.278-0.893-0.417-1.844-0.417-2.855c0-1.01,0.139-1.961,0.417-2.854c0.278-0.893,0.695-1.672,1.25-2.336
				c0.556-0.666,1.242-1.191,2.059-1.58c0.816-0.387,1.772-0.58,2.867-0.58c1.078,0,2.029,0.193,2.854,0.58
				c0.825,0.389,1.516,0.914,2.072,1.58c0.556,0.664,0.972,1.443,1.25,2.336s0.417,1.844,0.417,2.854
				c0,0.994-0.135,1.926-0.404,2.791C107.218,33.405,106.831,34.157,106.326,34.798z M101.299,24.87
				c-0.657,0-1.225,0.145-1.705,0.43c-0.48,0.287-0.872,0.662-1.174,1.125c-0.303,0.463-0.531,0.984-0.682,1.564
				c-0.152,0.582-0.228,1.168-0.228,1.756c0,0.59,0.076,1.176,0.228,1.756c0.151,0.582,0.379,1.107,0.682,1.58
				c0.303,0.471,0.694,0.85,1.174,1.137c0.48,0.285,1.048,0.428,1.705,0.428s1.225-0.143,1.705-0.428
				c0.48-0.287,0.872-0.666,1.175-1.137c0.303-0.473,0.531-0.998,0.682-1.58c0.151-0.58,0.228-1.166,0.228-1.756
				c0-0.572-0.076-1.148-0.228-1.73c-0.151-0.58-0.379-1.102-0.682-1.564c-0.303-0.465-0.695-0.844-1.175-1.137
				C102.524,25.019,101.956,24.87,101.299,24.87z"/>
			<path fill="#706F6F" d="M118.451,36.718c-0.084,0-0.156-0.037-0.215-0.113s-0.088-0.156-0.088-0.24v-8.033
				c0-1.213-0.189-2.088-0.568-2.627s-0.972-0.809-1.781-0.809c-1.111,0-1.933,0.309-2.463,0.922
				c-0.53,0.615-0.796,1.504-0.796,2.666v7.906c0,0.219-0.101,0.328-0.303,0.328h-2.097c-0.084,0-0.156-0.037-0.215-0.113
				c-0.059-0.076-0.088-0.156-0.088-0.24V26.31c0-0.639-0.004-1.254-0.013-1.844c-0.009-0.588-0.03-1.053-0.063-1.389
				c-0.034-0.219,0.084-0.328,0.354-0.328h1.996c0.185,0,0.261,0.068,0.227,0.203l-0.025,0.92c0.42-0.406,0.926-0.754,1.516-1.043
				c0.589-0.289,1.271-0.434,2.046-0.434c1.617,0,2.85,0.475,3.701,1.426c0.851,0.953,1.276,2.33,1.276,4.131v8.438
				c0,0.219-0.101,0.328-0.303,0.328H118.451z"/>
			<path fill="#706F6F" d="M136.436,36.517c-0.236,0.15-0.611,0.289-1.124,0.416c-0.514,0.127-1.065,0.189-1.655,0.189
				c-0.708,0-1.272-0.148-1.692-0.441c-0.421-0.295-0.733-0.637-0.935-1.023c-0.236-0.438-0.379-0.951-0.43-1.541
				c-0.05-0.59-0.076-1.389-0.076-2.4v-6.34h-2.097c-0.084,0-0.156-0.029-0.215-0.088c-0.059-0.061-0.088-0.131-0.088-0.215v-1.996
				c0-0.084,0.029-0.156,0.088-0.215s0.13-0.088,0.215-0.088h2.097v-3.537c0-0.084,0.034-0.156,0.101-0.215
				c0.067-0.059,0.143-0.088,0.227-0.088h2.046c0.101,0,0.181,0.029,0.24,0.088s0.089,0.131,0.089,0.215v3.537h2.425
				c0.084,0,0.155,0.029,0.215,0.088c0.059,0.059,0.088,0.131,0.088,0.215v1.996c0,0.084-0.03,0.154-0.088,0.215
				c-0.06,0.059-0.131,0.088-0.215,0.088h-2.425v6.518c0,1.145,0.025,1.869,0.076,2.172c0.067,0.303,0.227,0.488,0.48,0.557
				c0.252,0.066,0.539,0.084,0.859,0.049c0.218-0.033,0.463-0.078,0.732-0.139c0.269-0.059,0.505-0.129,0.708-0.215
				c0.084-0.033,0.143-0.037,0.177-0.012c0.033,0.025,0.067,0.105,0.101,0.24l0.202,1.666
				C136.579,36.331,136.537,36.431,136.436,36.517z"/>
			<path fill="#706F6F" d="M148.131,34.798c-0.606,0.758-1.331,1.334-2.172,1.73c-0.842,0.395-1.793,0.594-2.854,0.594
				c-1.078,0-2.03-0.193-2.854-0.582c-0.825-0.387-1.516-0.918-2.071-1.59c-0.556-0.674-0.973-1.457-1.25-2.35
				s-0.417-1.844-0.417-2.855c0-1.01,0.139-1.961,0.417-2.854s0.695-1.672,1.25-2.336c0.556-0.666,1.242-1.191,2.059-1.58
				c0.817-0.387,1.772-0.58,2.867-0.58c1.078,0,2.029,0.193,2.854,0.58c0.825,0.389,1.516,0.914,2.071,1.58
				c0.556,0.664,0.973,1.443,1.25,2.336s0.417,1.844,0.417,2.854c0,0.994-0.135,1.926-0.404,2.791
				C149.024,33.405,148.637,34.157,148.131,34.798z M143.104,24.87c-0.657,0-1.225,0.145-1.705,0.43
				c-0.48,0.287-0.872,0.662-1.174,1.125c-0.304,0.463-0.531,0.984-0.683,1.564c-0.151,0.582-0.227,1.168-0.227,1.756
				c0,0.59,0.076,1.176,0.227,1.756c0.152,0.582,0.379,1.107,0.683,1.58c0.303,0.471,0.694,0.85,1.174,1.137
				c0.48,0.285,1.048,0.428,1.705,0.428s1.225-0.143,1.705-0.428c0.48-0.287,0.872-0.666,1.175-1.137
				c0.303-0.473,0.53-0.998,0.682-1.58c0.151-0.58,0.227-1.166,0.227-1.756c0-0.572-0.076-1.148-0.227-1.73
				c-0.152-0.58-0.379-1.102-0.682-1.564c-0.303-0.465-0.695-0.844-1.175-1.137C144.33,25.019,143.761,24.87,143.104,24.87z"/>
			<path fill="#706F6F" d="M164.197,36.517c-0.236,0.15-0.61,0.289-1.124,0.416s-1.065,0.189-1.655,0.189
				c-0.707,0-1.271-0.148-1.692-0.441c-0.421-0.295-0.732-0.637-0.935-1.023c-0.236-0.438-0.379-0.951-0.429-1.541
				c-0.051-0.59-0.076-1.389-0.076-2.4v-6.34h-2.097c-0.084,0-0.156-0.029-0.214-0.088c-0.059-0.061-0.088-0.131-0.088-0.215v-1.996
				c0-0.084,0.029-0.156,0.088-0.215c0.059-0.059,0.13-0.088,0.214-0.088h2.097v-3.537c0-0.084,0.034-0.156,0.101-0.215
				s0.143-0.088,0.228-0.088h2.046c0.101,0,0.181,0.029,0.24,0.088c0.059,0.059,0.088,0.131,0.088,0.215v3.537h2.425
				c0.084,0,0.156,0.029,0.215,0.088c0.059,0.059,0.088,0.131,0.088,0.215v1.996c0,0.084-0.03,0.154-0.088,0.215
				c-0.059,0.059-0.131,0.088-0.215,0.088h-2.425v6.518c0,1.145,0.025,1.869,0.076,2.172c0.067,0.303,0.227,0.488,0.48,0.557
				c0.252,0.066,0.539,0.084,0.859,0.049c0.219-0.033,0.463-0.078,0.732-0.139c0.269-0.059,0.505-0.129,0.708-0.215
				c0.084-0.033,0.143-0.037,0.177-0.012c0.033,0.025,0.067,0.105,0.101,0.24l0.202,1.666
				C164.34,36.331,164.298,36.431,164.197,36.517z"/>
			<path fill="#706F6F" d="M173.998,36.769c-0.219,0-0.328-0.102-0.328-0.303v-8.092c0-1.26-0.181-2.18-0.543-2.76
				c-0.362-0.58-0.939-0.869-1.73-0.869c-1.769,0-2.889,0.672-3.36,2.016v9.705c0,0.201-0.101,0.303-0.303,0.303h-2.071
				c-0.084,0-0.156-0.029-0.215-0.088c-0.059-0.061-0.088-0.131-0.088-0.215V16.56c0-0.084,0.029-0.156,0.088-0.215
				s0.13-0.088,0.215-0.088h2.071c0.084,0,0.156,0.029,0.215,0.088c0.059,0.061,0.088,0.131,0.088,0.217v6.818
				c0.421-0.354,0.914-0.645,1.478-0.871c0.564-0.227,1.183-0.342,1.856-0.342c3.334,0,5.001,2.061,5.001,6.18v8.119
				c0,0.084-0.029,0.154-0.088,0.215c-0.059,0.059-0.13,0.088-0.215,0.088H173.998z"/>
			<path fill="#706F6F" d="M189.912,30.378c0,0.135-0.038,0.236-0.114,0.303s-0.156,0.102-0.24,0.102h-8.311
				c0.084,1.127,0.438,2.049,1.061,2.766c0.623,0.715,1.474,1.074,2.551,1.074c0.556,0,1.188-0.072,1.895-0.215
				c0.707-0.145,1.355-0.393,1.945-0.746c0.118-0.066,0.193-0.059,0.227,0.025s0.051,0.193,0.051,0.328v1.744
				c0,0.15-0.025,0.268-0.076,0.354c-0.051,0.084-0.152,0.168-0.303,0.252c-0.505,0.27-1.099,0.463-1.781,0.58
				c-0.682,0.119-1.377,0.178-2.084,0.178c-2.088,0-3.667-0.627-4.737-1.883c-1.069-1.254-1.604-3.094-1.604-5.52
				c0-0.908,0.117-1.801,0.354-2.678c0.235-0.875,0.594-1.658,1.073-2.348c0.48-0.691,1.09-1.246,1.832-1.668
				c0.741-0.42,1.617-0.631,2.627-0.631c1.027,0,1.898,0.193,2.614,0.58c0.716,0.389,1.301,0.91,1.756,1.566
				c0.455,0.656,0.783,1.424,0.985,2.299s0.303,1.811,0.303,2.805c0,0.117-0.004,0.252-0.013,0.404
				C189.916,30.2,189.912,30.31,189.912,30.378z M184.379,24.819c-0.455,0-0.858,0.102-1.212,0.305
				c-0.354,0.201-0.657,0.463-0.909,0.781c-0.252,0.32-0.459,0.691-0.619,1.113c-0.16,0.42-0.274,0.842-0.341,1.262h5.785
				c0-0.336-0.055-0.707-0.164-1.111c-0.11-0.404-0.274-0.779-0.493-1.123c-0.219-0.346-0.497-0.637-0.833-0.873
				C185.255,24.938,184.851,24.819,184.379,24.819z"/>
			<path fill="#706F6F" d="M203.754,36.212c-0.909,0.607-1.987,0.91-3.233,0.91c-0.337,0-0.69-0.018-1.061-0.051
				c-0.371-0.033-0.729-0.076-1.074-0.127c-0.345-0.049-0.653-0.109-0.922-0.176c-0.27-0.068-0.479-0.135-0.631-0.203
				c-0.067-0.033-0.139-0.08-0.214-0.139c-0.076-0.059-0.105-0.156-0.089-0.289l0.152-1.643c0.017-0.168,0.042-0.27,0.076-0.303
				c0.034-0.035,0.143-0.025,0.328,0.025c0.556,0.168,1.133,0.289,1.73,0.365s1.133,0.113,1.604,0.113
				c0.741,0,1.292-0.184,1.655-0.555c0.362-0.371,0.543-0.801,0.543-1.289c0-0.27-0.093-0.543-0.278-0.82
				c-0.186-0.277-0.497-0.561-0.935-0.846c-0.455-0.27-0.926-0.545-1.415-0.822c-0.489-0.277-0.969-0.551-1.44-0.82
				c-0.539-0.32-0.99-0.746-1.352-1.275c-0.362-0.531-0.543-1.115-0.543-1.756c0-0.707,0.126-1.318,0.379-1.832
				s0.589-0.943,1.01-1.287c0.421-0.346,0.905-0.598,1.453-0.758s1.124-0.24,1.73-0.24c0.32,0,0.652,0.016,0.998,0.051
				c0.345,0.033,0.682,0.08,1.011,0.139c0.328,0.059,0.623,0.125,0.884,0.201s0.459,0.156,0.594,0.24
				c0.084,0.051,0.13,0.098,0.139,0.139c0.008,0.043,0.004,0.105-0.013,0.189l-0.152,1.617c-0.017,0.186-0.059,0.291-0.126,0.316
				c-0.067,0.025-0.194,0.021-0.379-0.014c-0.32-0.117-0.682-0.227-1.086-0.328c-0.236-0.033-0.484-0.066-0.745-0.102
				c-0.261-0.033-0.585-0.051-0.973-0.051c-0.69,0-1.179,0.16-1.465,0.48c-0.287,0.32-0.43,0.707-0.43,1.162
				c0,0.27,0.16,0.557,0.48,0.859c0.32,0.303,0.724,0.58,1.212,0.834c0.522,0.252,1.006,0.514,1.453,0.783s0.779,0.488,0.998,0.656
				c0.606,0.438,1.061,0.914,1.364,1.428s0.455,1.133,0.455,1.855C205.447,34.267,204.882,35.388,203.754,36.212z"/>
			<path fill="#706F6F" d="M208.125,20.122c-0.489,0-0.896-0.166-1.225-0.496c-0.329-0.332-0.493-0.734-0.493-1.209
				c0-0.492,0.164-0.908,0.493-1.248c0.329-0.338,0.736-0.508,1.225-0.508c0.488,0,0.9,0.17,1.238,0.508
				c0.336,0.34,0.505,0.756,0.505,1.248c0,0.475-0.169,0.877-0.505,1.209C209.025,19.956,208.613,20.122,208.125,20.122z
				 M207.039,36.769c-0.085,0-0.156-0.029-0.215-0.088c-0.06-0.061-0.089-0.131-0.089-0.215V23.177c0-0.084,0.029-0.154,0.089-0.213
				c0.059-0.059,0.13-0.09,0.215-0.09h2.122c0.084,0,0.156,0.031,0.215,0.09c0.059,0.059,0.088,0.129,0.088,0.213v13.289
				c0,0.084-0.03,0.154-0.088,0.215c-0.059,0.059-0.131,0.088-0.215,0.088H207.039z"/>
			<path fill="#706F6F" d="M218.759,36.517c-0.236,0.15-0.611,0.289-1.125,0.416c-0.514,0.127-1.065,0.189-1.655,0.189
				c-0.707,0-1.271-0.148-1.692-0.441c-0.421-0.295-0.732-0.637-0.935-1.023c-0.236-0.438-0.379-0.951-0.429-1.541
				c-0.051-0.59-0.076-1.389-0.076-2.4v-6.34h-2.097c-0.084,0-0.156-0.029-0.215-0.088c-0.059-0.061-0.088-0.131-0.088-0.215v-1.996
				c0-0.084,0.029-0.156,0.088-0.215c0.059-0.059,0.13-0.088,0.215-0.088h2.097v-3.537c0-0.084,0.033-0.156,0.101-0.215
				s0.143-0.088,0.228-0.088h2.046c0.102,0,0.181,0.029,0.24,0.088c0.059,0.059,0.088,0.131,0.088,0.215v3.537h2.425
				c0.084,0,0.155,0.029,0.215,0.088c0.059,0.059,0.088,0.131,0.088,0.215v1.996c0,0.084-0.029,0.154-0.088,0.215
				c-0.06,0.059-0.131,0.088-0.215,0.088h-2.425v6.518c0,1.145,0.025,1.869,0.076,2.172c0.067,0.303,0.228,0.488,0.48,0.557
				c0.252,0.066,0.539,0.084,0.859,0.049c0.219-0.033,0.463-0.078,0.732-0.139c0.27-0.059,0.505-0.129,0.708-0.215
				c0.084-0.033,0.143-0.037,0.177-0.012s0.067,0.105,0.101,0.24l0.202,1.666C218.902,36.331,218.86,36.431,218.759,36.517z"/>
			<path fill="#706F6F" d="M230.429,30.378c0,0.135-0.038,0.236-0.114,0.303s-0.156,0.102-0.24,0.102h-8.311
				c0.084,1.127,0.438,2.049,1.061,2.766c0.623,0.715,1.474,1.074,2.551,1.074c0.556,0,1.187-0.072,1.895-0.215
				c0.708-0.145,1.355-0.393,1.945-0.746c0.118-0.066,0.193-0.059,0.228,0.025c0.033,0.084,0.051,0.193,0.051,0.328v1.744
				c0,0.15-0.025,0.268-0.076,0.354c-0.05,0.084-0.151,0.168-0.303,0.252c-0.505,0.27-1.099,0.463-1.781,0.58
				c-0.682,0.119-1.377,0.178-2.084,0.178c-2.088,0-3.667-0.627-4.736-1.883c-1.069-1.254-1.604-3.094-1.604-5.52
				c0-0.908,0.118-1.801,0.354-2.678c0.236-0.875,0.594-1.658,1.074-2.348c0.48-0.691,1.09-1.246,1.831-1.668
				c0.741-0.42,1.617-0.631,2.627-0.631c1.027,0,1.898,0.193,2.615,0.58c0.715,0.389,1.301,0.91,1.755,1.566
				s0.783,1.424,0.985,2.299s0.304,1.811,0.304,2.805c0,0.117-0.005,0.252-0.013,0.404C230.433,30.2,230.429,30.31,230.429,30.378z
				 M224.897,24.819c-0.455,0-0.859,0.102-1.213,0.305c-0.354,0.201-0.656,0.463-0.909,0.781c-0.252,0.32-0.459,0.691-0.619,1.113
				c-0.161,0.42-0.274,0.842-0.341,1.262h5.785c0-0.336-0.055-0.707-0.165-1.111c-0.11-0.404-0.274-0.779-0.493-1.123
				c-0.219-0.346-0.497-0.637-0.833-0.873C225.772,24.938,225.368,24.819,224.897,24.819z"/>
		</g>
	</g>
</g>
<rect fill="none" width="272.818" height="55.979"/>
</svg>
