<?xml version="1.0" encoding="utf-8"?>
<!-- Generator: Adobe Illustrator 16.0.0, SVG Export Plug-In . SVG Version: 6.00 Build 0)  -->
<!DOCTYPE svg PUBLIC "-//W3C//DTD SVG 1.1//EN" "http://www.w3.org/Graphics/SVG/1.1/DTD/svg11.dtd">
<svg version="1.1" id="레이어_1" xmlns="http://www.w3.org/2000/svg" xmlns:xlink="http://www.w3.org/1999/xlink" x="0px"
	 y="0px" width="272.818px" height="55.979px" viewBox="0 0 272.818 55.979" enable-background="new 0 0 272.818 55.979"
	 xml:space="preserve">
<g>
	<g>
		<path fill="#706F6F" d="M180.54,34.276c-1.274-1.415-2.367-3.432-2.367-6.065v-0.266c0-2.647,1.093-4.65,2.367-6.065h0.715
			c-1.247,1.457-2.283,3.53-2.283,5.981v0.364c0,2.396,1.036,4.58,2.283,6.051H180.54z"/>
		<path fill="#706F6F" d="M182.079,25.647h1.387l0.49-3.095h0.672l-0.504,3.095h1.891l0.49-3.095h0.645l-0.504,3.095h1.177v0.687
			h-1.289l-0.35,2.214h1.233v0.7h-1.345l-0.519,3.292h-0.658l0.532-3.292h-1.891l-0.519,3.292h-0.658l0.532-3.292h-1.219v-0.7h1.331
			l0.35-2.214h-1.274V25.647z M183.662,28.548h1.877l0.35-2.214h-1.891L183.662,28.548z"/>
		<path fill="#706F6F" d="M188.238,34.276c1.247-1.457,2.283-3.529,2.283-5.981v-0.363c0-2.396-1.036-4.581-2.283-6.052h0.715
			c1.274,1.415,2.367,3.432,2.367,6.065v0.266c0,2.647-1.093,4.65-2.367,6.065H188.238z"/>
	</g>
	<g>
		<g>
			<path fill="#706F6F" d="M83.875,36.742c-0.084,0-0.156-0.029-0.214-0.088c-0.059-0.06-0.088-0.131-0.088-0.215v-18.44
				c0-0.084,0.029-0.155,0.088-0.215c0.059-0.059,0.13-0.088,0.214-0.088h2.249c0.084,0,0.155,0.029,0.214,0.088
				c0.059,0.06,0.089,0.131,0.089,0.215v7.578h7.831v-7.578c0-0.084,0.029-0.155,0.088-0.215c0.059-0.059,0.13-0.088,0.215-0.088
				h2.248c0.084,0,0.156,0.029,0.215,0.088c0.059,0.06,0.088,0.131,0.088,0.215v18.44c0,0.084-0.03,0.155-0.088,0.215
				c-0.059,0.059-0.131,0.088-0.215,0.088h-2.248c-0.202,0-0.303-0.101-0.303-0.303v-8.21h-7.831v8.21
				c0,0.202-0.101,0.303-0.303,0.303H83.875z"/>
			<path fill="#706F6F" d="M107.948,36.717c-0.118,0-0.193-0.012-0.227-0.037c-0.034-0.025-0.051-0.089-0.051-0.189v-1.137
				c-0.421,0.589-0.956,1.031-1.604,1.326c-0.648,0.294-1.301,0.441-1.958,0.441c-0.691,0-1.326-0.093-1.907-0.277
				c-0.581-0.186-1.078-0.464-1.491-0.834s-0.737-0.829-0.972-1.377c-0.236-0.547-0.354-1.183-0.354-1.906
				c0-0.859,0.152-1.613,0.455-2.262c0.303-0.647,0.778-1.187,1.427-1.616c0.648-0.43,1.478-0.749,2.488-0.96
				c1.011-0.21,2.231-0.315,3.663-0.315c0-0.32-0.034-0.641-0.101-0.96c-0.067-0.32-0.181-0.606-0.341-0.859
				c-0.16-0.252-0.383-0.458-0.669-0.619c-0.287-0.159-0.648-0.239-1.086-0.239c-0.758,0-1.444,0.101-2.059,0.303
				c-0.615,0.202-1.192,0.472-1.73,0.809c-0.27,0.168-0.451,0.244-0.543,0.228c-0.093-0.017-0.139-0.109-0.139-0.278v-1.92
				c0-0.066-0.004-0.139-0.013-0.215c-0.009-0.075,0.004-0.139,0.038-0.189c0.05-0.066,0.177-0.159,0.379-0.277
				c0.572-0.286,1.158-0.521,1.756-0.707c0.597-0.186,1.351-0.278,2.261-0.278c1.701,0,2.959,0.413,3.776,1.238
				c0.816,0.825,1.225,2.121,1.225,3.89v5.987c0,0.471,0.004,0.964,0.013,1.478c0.008,0.514,0.038,0.964,0.088,1.352
				c0.033,0.269-0.06,0.403-0.278,0.403H107.948z M103.478,30.654c-0.809,0.455-1.213,1.137-1.213,2.047
				c0,0.64,0.185,1.12,0.556,1.439c0.37,0.32,0.867,0.48,1.49,0.48c0.96,0,1.73-0.354,2.312-1.062s0.872-1.81,0.872-3.309v-0.278
				C105.625,29.973,104.286,30.2,103.478,30.654z"/>
			<path fill="#706F6F" d="M119.013,36.212c-0.91,0.606-1.987,0.909-3.233,0.909c-0.337,0-0.691-0.017-1.061-0.05
				c-0.371-0.034-0.729-0.076-1.074-0.127c-0.345-0.05-0.653-0.109-0.922-0.177c-0.27-0.067-0.48-0.135-0.631-0.202
				c-0.068-0.033-0.139-0.08-0.215-0.139c-0.076-0.06-0.105-0.156-0.088-0.29l0.151-1.643c0.017-0.168,0.042-0.269,0.076-0.303
				c0.033-0.034,0.143-0.025,0.328,0.025c0.556,0.168,1.132,0.29,1.73,0.366c0.598,0.075,1.132,0.113,1.604,0.113
				c0.741,0,1.292-0.185,1.655-0.556c0.362-0.37,0.543-0.8,0.543-1.288c0-0.27-0.093-0.543-0.278-0.821
				c-0.185-0.277-0.497-0.56-0.935-0.846c-0.455-0.27-0.926-0.544-1.415-0.821c-0.488-0.278-0.968-0.552-1.44-0.821
				c-0.539-0.319-0.989-0.745-1.351-1.275c-0.362-0.53-0.543-1.115-0.543-1.756c0-0.707,0.126-1.317,0.379-1.831
				c0.253-0.514,0.589-0.943,1.011-1.288c0.421-0.346,0.905-0.598,1.452-0.758c0.547-0.16,1.125-0.24,1.73-0.24
				c0.32,0,0.652,0.017,0.998,0.051c0.345,0.033,0.682,0.08,1.01,0.139c0.329,0.06,0.623,0.126,0.884,0.202
				c0.261,0.075,0.458,0.156,0.594,0.24c0.084,0.05,0.13,0.097,0.139,0.139c0.008,0.042,0.004,0.105-0.013,0.189l-0.151,1.616
				c-0.017,0.186-0.059,0.291-0.126,0.316s-0.194,0.021-0.379-0.013c-0.32-0.118-0.682-0.228-1.086-0.329
				c-0.236-0.033-0.484-0.066-0.746-0.101c-0.261-0.033-0.585-0.051-0.972-0.051c-0.691,0-1.179,0.16-1.465,0.48
				c-0.287,0.32-0.429,0.707-0.429,1.162c0,0.27,0.16,0.556,0.48,0.858c0.319,0.304,0.724,0.581,1.212,0.834
				c0.522,0.252,1.006,0.514,1.453,0.783c0.446,0.27,0.778,0.488,0.998,0.656c0.606,0.438,1.061,0.914,1.364,1.428
				s0.455,1.133,0.455,1.856C120.705,34.267,120.141,35.387,119.013,36.212z"/>
			<path fill="#706F6F" d="M131.062,36.768c-0.219,0-0.328-0.101-0.328-0.302v-8.092c0-1.261-0.181-2.181-0.543-2.761
				c-0.362-0.579-0.939-0.869-1.73-0.869c-1.769,0-2.889,0.672-3.36,2.016v9.706c0,0.201-0.101,0.302-0.303,0.302h-2.071
				c-0.084,0-0.156-0.029-0.214-0.088c-0.059-0.06-0.088-0.131-0.088-0.215V16.56c0-0.084,0.029-0.156,0.088-0.215
				c0.059-0.059,0.13-0.089,0.214-0.089h2.071c0.084,0,0.156,0.03,0.215,0.089c0.059,0.06,0.088,0.131,0.088,0.216v6.819
				c0.421-0.354,0.914-0.645,1.478-0.872c0.564-0.227,1.183-0.341,1.856-0.341c3.334,0,5.002,2.06,5.002,6.179v8.119
				c0,0.084-0.03,0.155-0.089,0.215c-0.059,0.059-0.13,0.088-0.214,0.088H131.062z"/>
			<path fill="#706F6F" d="M149.021,36.516c-0.236,0.151-0.61,0.29-1.124,0.416c-0.514,0.127-1.065,0.189-1.654,0.189
				c-0.708,0-1.272-0.147-1.692-0.441c-0.421-0.295-0.733-0.636-0.935-1.023c-0.236-0.438-0.379-0.951-0.43-1.541
				c-0.051-0.589-0.076-1.389-0.076-2.399v-6.341h-2.097c-0.084,0-0.156-0.029-0.215-0.088c-0.059-0.06-0.088-0.131-0.088-0.215
				v-1.996c0-0.084,0.029-0.155,0.088-0.215c0.059-0.059,0.13-0.088,0.215-0.088h2.097v-3.536c0-0.085,0.034-0.156,0.101-0.215
				c0.067-0.06,0.143-0.089,0.227-0.089h2.046c0.101,0,0.181,0.029,0.24,0.089c0.059,0.059,0.088,0.13,0.088,0.215v3.536h2.425
				c0.084,0,0.155,0.029,0.214,0.088c0.059,0.06,0.089,0.131,0.089,0.215v1.996c0,0.084-0.03,0.155-0.089,0.215
				c-0.059,0.059-0.13,0.088-0.214,0.088h-2.425v6.518c0,1.146,0.025,1.869,0.076,2.172c0.067,0.304,0.227,0.489,0.479,0.557
				c0.253,0.067,0.539,0.084,0.859,0.05c0.218-0.033,0.463-0.079,0.732-0.139c0.269-0.059,0.505-0.13,0.707-0.215
				c0.084-0.033,0.143-0.038,0.177-0.013s0.067,0.105,0.101,0.24l0.202,1.667C149.165,36.33,149.123,36.431,149.021,36.516z"/>
			<path fill="#706F6F" d="M157.661,36.717c-0.118,0-0.194-0.012-0.227-0.037c-0.034-0.025-0.051-0.089-0.051-0.189v-1.137
				c-0.421,0.589-0.956,1.031-1.604,1.326c-0.648,0.294-1.301,0.441-1.958,0.441c-0.691,0-1.326-0.093-1.907-0.277
				c-0.581-0.186-1.078-0.464-1.491-0.834s-0.737-0.829-0.972-1.377c-0.236-0.547-0.354-1.183-0.354-1.906
				c0-0.859,0.152-1.613,0.455-2.262c0.303-0.647,0.779-1.187,1.428-1.616c0.648-0.43,1.478-0.749,2.488-0.96
				c1.01-0.21,2.231-0.315,3.663-0.315c0-0.32-0.034-0.641-0.101-0.96c-0.067-0.32-0.181-0.606-0.341-0.859
				c-0.16-0.252-0.383-0.458-0.669-0.619c-0.286-0.159-0.648-0.239-1.086-0.239c-0.758,0-1.444,0.101-2.059,0.303
				c-0.615,0.202-1.192,0.472-1.73,0.809c-0.27,0.168-0.451,0.244-0.543,0.228c-0.093-0.017-0.139-0.109-0.139-0.278v-1.92
				c0-0.066-0.004-0.139-0.013-0.215c-0.009-0.075,0.004-0.139,0.038-0.189c0.05-0.066,0.177-0.159,0.379-0.277
				c0.572-0.286,1.158-0.521,1.755-0.707s1.352-0.278,2.261-0.278c1.701,0,2.959,0.413,3.776,1.238s1.226,2.121,1.226,3.89v5.987
				c0,0.471,0.004,0.964,0.013,1.478c0.008,0.514,0.038,0.964,0.088,1.352c0.034,0.269-0.059,0.403-0.277,0.403H157.661z
				 M153.189,30.654c-0.808,0.455-1.212,1.137-1.212,2.047c0,0.64,0.185,1.12,0.556,1.439c0.37,0.32,0.867,0.48,1.49,0.48
				c0.96,0,1.73-0.354,2.312-1.062s0.872-1.81,0.872-3.309v-0.278C155.337,29.973,153.998,30.2,153.189,30.654z"/>
			<path fill="#706F6F" d="M167.335,40.658c-0.674,0-1.339-0.047-1.996-0.14s-1.305-0.257-1.945-0.492
				c-0.151-0.084-0.257-0.151-0.315-0.202c-0.059-0.051-0.088-0.135-0.088-0.253l0.126-2.046c0.033-0.32,0.202-0.404,0.505-0.252
				c0.572,0.286,1.191,0.5,1.857,0.644c0.665,0.143,1.292,0.215,1.882,0.215c1.094,0,1.966-0.286,2.614-0.858
				c0.648-0.573,0.998-1.356,1.048-2.35c-0.438,0.472-0.952,0.825-1.541,1.061c-0.589,0.236-1.17,0.354-1.743,0.354
				c-0.842,0-1.625-0.164-2.349-0.492c-0.725-0.328-1.348-0.783-1.87-1.364s-0.931-1.275-1.225-2.084
				c-0.295-0.809-0.442-1.692-0.442-2.652c0-2.492,0.501-4.336,1.503-5.532c1.001-1.195,2.438-1.793,4.307-1.793
				c0.336,0,0.678,0.042,1.023,0.126c0.345,0.085,0.678,0.194,0.998,0.328c0.32,0.136,0.615,0.291,0.884,0.468
				c0.269,0.177,0.505,0.366,0.708,0.568l-0.025-0.884c-0.017-0.135-0.009-0.228,0.025-0.278c0.033-0.051,0.134-0.076,0.303-0.076
				h1.996c0.202,0,0.303,0.127,0.303,0.379v10.434c0,2.273-0.556,4.037-1.667,5.292C171.1,40.03,169.474,40.658,167.335,40.658z
				 M167.967,24.896c-1.061,0-1.874,0.388-2.438,1.162c-0.564,0.774-0.846,2.004-0.846,3.688c0,0.641,0.084,1.213,0.252,1.718
				s0.4,0.931,0.695,1.275c0.294,0.346,0.631,0.611,1.01,0.796c0.379,0.186,0.779,0.278,1.2,0.278c0.471,0,0.909-0.093,1.313-0.278
				c0.404-0.185,0.758-0.454,1.061-0.808c0.303-0.354,0.543-0.783,0.72-1.289c0.177-0.505,0.265-1.086,0.265-1.743
				c0-1.532-0.286-2.715-0.858-3.549C169.769,25.313,168.978,24.896,167.967,24.896z"/>
		</g>
	</g>
</g>
<rect fill="none" width="272.818" height="55.979"/>
</svg>
