<?xml version="1.0" encoding="utf-8"?>
<!-- Generator: Adobe Illustrator 16.0.0, SVG Export Plug-In . SVG Version: 6.00 Build 0)  -->
<!DOCTYPE svg PUBLIC "-//W3C//DTD SVG 1.1//EN" "http://www.w3.org/Graphics/SVG/1.1/DTD/svg11.dtd">
<svg version="1.1" id="레이어_1" xmlns="http://www.w3.org/2000/svg" xmlns:xlink="http://www.w3.org/1999/xlink" x="0px"
	 y="0px" width="272.818px" height="55.979px" viewBox="0 0 272.818 55.979" enable-background="new 0 0 272.818 55.979"
	 xml:space="preserve">
<g>
	<g>
		<g>
			<path fill="#706F6F" d="M183.224,34.668c-0.065,0-0.104-0.002-0.118-0.008c-0.015-0.004-0.04-0.029-0.077-0.076
				c-0.85-1.064-1.479-2.143-1.891-3.234c-0.41-1.092-0.616-2.221-0.616-3.387c0-1.158,0.206-2.283,0.616-3.375
				c0.411-1.092,1.041-2.174,1.891-3.248c0.037-0.047,0.063-0.072,0.077-0.076c0.014-0.006,0.044-0.008,0.091-0.008h0.392
				c0.057,0,0.084,0.006,0.084,0.014c0,0.01-0.014,0.037-0.042,0.084c-1.465,2.297-2.198,4.5-2.198,6.609
				c0,1.072,0.188,2.154,0.561,3.246c0.373,1.094,0.924,2.213,1.652,3.361c0.046,0.064,0.022,0.098-0.07,0.098H183.224z"/>
			<path fill="#706F6F" d="M190.77,32.596c0,0.131-0.064,0.195-0.195,0.195h-0.561c-0.131,0-0.195-0.064-0.195-0.195v-4.41
				c0-0.857-0.154-1.467-0.463-1.826c-0.308-0.359-0.741-0.539-1.302-0.539c-0.756,0-1.332,0.209-1.729,0.629
				c-0.397,0.42-0.595,1.008-0.595,1.766v4.381c0,0.131-0.066,0.195-0.196,0.195h-0.561c-0.131,0-0.195-0.064-0.195-0.195v-5.6
				c0-0.4-0.003-0.715-0.007-0.938c-0.006-0.225-0.017-0.439-0.035-0.645c-0.01-0.064,0.007-0.115,0.049-0.146
				c0.042-0.033,0.091-0.049,0.146-0.049h0.504c0.131,0,0.196,0.064,0.196,0.195v0.77c0.262-0.4,0.576-0.695,0.945-0.881
				c0.368-0.188,0.875-0.281,1.519-0.281c0.887,0,1.555,0.258,2.002,0.77c0.448,0.514,0.672,1.238,0.672,2.172V32.596z"/>
			<path fill="#706F6F" d="M198.792,32.596c0,0.131-0.065,0.195-0.196,0.195h-0.504c-0.131,0-0.196-0.064-0.196-0.195v-1.162
				c-0.242,0.561-0.566,0.965-0.973,1.211c-0.406,0.248-0.917,0.371-1.533,0.371c-1.745,0-2.618-0.975-2.618-2.926v-4.676
				c0-0.131,0.065-0.195,0.196-0.195h0.56c0.131,0,0.196,0.064,0.196,0.195v4.424c0,1.586,0.606,2.381,1.82,2.381
				c0.354,0,0.674-0.078,0.959-0.232c0.284-0.154,0.524-0.363,0.721-0.629s0.346-0.576,0.448-0.932
				c0.103-0.354,0.149-0.729,0.14-1.119v-3.893c0-0.131,0.065-0.195,0.196-0.195h0.56c0.131,0,0.196,0.064,0.196,0.195v5.627
				c0,0.309,0.002,0.584,0.007,0.826C198.775,32.111,198.782,32.354,198.792,32.596z"/>
			<path fill="#706F6F" d="M200.779,26.996c0-0.393-0.005-0.703-0.014-0.932c-0.01-0.229-0.023-0.445-0.042-0.65
				c0-0.131,0.065-0.195,0.196-0.195h0.518c0.131,0,0.196,0.064,0.196,0.195v0.756c0.215-0.346,0.504-0.619,0.868-0.818
				c0.363-0.201,0.812-0.301,1.344-0.301c0.56,0,1.05,0.137,1.47,0.412s0.677,0.68,0.771,1.211c0.195-0.531,0.511-0.936,0.944-1.211
				c0.435-0.275,0.936-0.412,1.505-0.412c0.364,0,0.693,0.064,0.987,0.195s0.546,0.311,0.756,0.539s0.371,0.496,0.483,0.805
				s0.168,0.635,0.168,0.98v5.025c0,0.131-0.065,0.195-0.196,0.195h-0.532c-0.131,0-0.195-0.061-0.195-0.182v-4.844
				c0-1.277-0.537-1.918-1.61-1.918c-0.327,0-0.618,0.072-0.875,0.217s-0.476,0.344-0.658,0.596
				c-0.182,0.252-0.317,0.545-0.405,0.881c-0.089,0.338-0.129,0.691-0.119,1.064v3.99c0,0.131-0.065,0.195-0.196,0.195h-0.56
				c-0.131,0-0.196-0.064-0.196-0.195v-4.83c0-1.277-0.542-1.918-1.624-1.918c-0.635,0-1.134,0.205-1.498,0.617
				c-0.364,0.41-0.546,0.951-0.546,1.623v4.508c0,0.131-0.065,0.195-0.196,0.195h-0.546c-0.131,0-0.196-0.064-0.196-0.195V26.996z"
				/>
			<path fill="#706F6F" d="M216.543,26.072c-0.168-0.057-0.392-0.084-0.672-0.084c-0.69,0-1.203,0.34-1.54,1.021
				c-0.261,0.531-0.392,1.213-0.392,2.045v3.541c0,0.131-0.065,0.195-0.196,0.195h-0.546c-0.131,0-0.195-0.064-0.195-0.195v-5.684
				c0-0.336-0.003-0.609-0.008-0.818c-0.005-0.211-0.012-0.438-0.021-0.68c0-0.131,0.065-0.195,0.196-0.195h0.518
				c0.131,0,0.196,0.064,0.196,0.195v1.371c0.457-1.176,1.129-1.764,2.016-1.764c0.215,0,0.429,0.029,0.644,0.084
				c0.057,0.02,0.105,0.049,0.147,0.092c0.042,0.041,0.063,0.1,0.063,0.174v0.588c0,0.057-0.023,0.094-0.07,0.113
				C216.637,26.09,216.59,26.09,216.543,26.072z"/>
			<path fill="#706F6F" d="M217.901,26.395c-0.047,0.027-0.091,0.035-0.133,0.02c-0.042-0.014-0.063-0.043-0.063-0.09v-0.533
				c0-0.129,0.065-0.229,0.196-0.293c0.326-0.178,0.674-0.301,1.043-0.371c0.368-0.07,0.772-0.105,1.211-0.105
				c0.934,0,1.614,0.223,2.044,0.666s0.645,1.113,0.645,2.008v3.514c0,0.281,0.004,0.531,0.014,0.75
				c0.009,0.219,0.023,0.432,0.042,0.637c0,0.131-0.065,0.195-0.196,0.195h-0.504c-0.131,0-0.196-0.064-0.196-0.195v-1.078
				c-0.195,0.477-0.524,0.846-0.986,1.105c-0.462,0.262-0.964,0.393-1.505,0.393c-0.943,0-1.634-0.275-2.072-0.826
				c-0.149-0.186-0.262-0.402-0.336-0.65c-0.075-0.248-0.112-0.492-0.112-0.734c0-0.57,0.133-1.061,0.399-1.471
				c0.266-0.41,0.674-0.719,1.225-0.924c0.672-0.242,1.703-0.363,3.094-0.363h0.183v-0.422c0-0.588-0.134-1.035-0.399-1.344
				c-0.266-0.307-0.712-0.461-1.337-0.461c-0.42,0-0.816,0.045-1.19,0.133C218.592,26.041,218.237,26.189,217.901,26.395z
				 M221.892,28.844h-0.267c-0.522-0.018-0.986,0.002-1.393,0.063s-0.744,0.143-1.016,0.246c-0.392,0.139-0.686,0.348-0.882,0.623
				c-0.195,0.275-0.294,0.604-0.294,0.986c0,0.234,0.037,0.451,0.112,0.65c0.074,0.201,0.191,0.357,0.35,0.471
				c0.28,0.223,0.653,0.336,1.12,0.336c0.327,0,0.628-0.066,0.903-0.197s0.516-0.316,0.721-0.559
				c0.205-0.244,0.364-0.545,0.477-0.904c0.111-0.359,0.168-0.771,0.168-1.238V28.844z"/>
			<path fill="#706F6F" d="M230.711,32.596c0,0.131-0.065,0.195-0.195,0.195h-0.561c-0.131,0-0.195-0.064-0.195-0.195v-4.41
				c0-0.857-0.154-1.467-0.463-1.826c-0.308-0.359-0.742-0.539-1.302-0.539c-0.756,0-1.332,0.209-1.729,0.629
				c-0.397,0.42-0.596,1.008-0.596,1.766v4.381c0,0.131-0.065,0.195-0.195,0.195h-0.561c-0.131,0-0.196-0.064-0.196-0.195v-5.6
				c0-0.4-0.002-0.715-0.007-0.938c-0.005-0.225-0.017-0.439-0.034-0.645c-0.01-0.064,0.007-0.115,0.049-0.146
				c0.042-0.033,0.091-0.049,0.146-0.049h0.504c0.131,0,0.196,0.064,0.196,0.195v0.77c0.261-0.4,0.576-0.695,0.945-0.881
				c0.368-0.188,0.875-0.281,1.519-0.281c0.887,0,1.554,0.258,2.002,0.77c0.448,0.514,0.672,1.238,0.672,2.172V32.596z"/>
			<path fill="#706F6F" d="M233.049,34.625c-0.111-0.027-0.158-0.098-0.14-0.209l0.042-0.615c0-0.123,0.061-0.15,0.182-0.084
				c0.354,0.158,0.695,0.271,1.022,0.342c0.326,0.07,0.681,0.105,1.063,0.105c0.85,0,1.486-0.26,1.911-0.777
				s0.665-1.225,0.722-2.121c-0.215,0.42-0.532,0.738-0.952,0.953c-0.42,0.213-0.887,0.32-1.4,0.32
				c-0.457,0-0.882-0.084-1.274-0.252c-0.392-0.168-0.732-0.404-1.021-0.713s-0.518-0.682-0.686-1.121
				c-0.168-0.438-0.252-0.924-0.252-1.455c0-0.625,0.058-1.184,0.175-1.674c0.116-0.49,0.301-0.902,0.553-1.238
				s0.579-0.592,0.979-0.77c0.401-0.178,0.887-0.266,1.456-0.266c0.495,0,0.932,0.08,1.31,0.244s0.763,0.455,1.155,0.875
				l-0.028-0.756c0-0.131,0.065-0.195,0.196-0.195h0.531c0.131,0,0.196,0.064,0.196,0.195v5.6c0,0.607-0.077,1.154-0.23,1.645
				c-0.154,0.49-0.383,0.906-0.687,1.246c-0.304,0.342-0.679,0.604-1.127,0.785s-0.962,0.273-1.54,0.273
				c-0.42,0-0.789-0.027-1.105-0.078C233.781,34.834,233.432,34.748,233.049,34.625z M237.865,28.971c0-1-0.205-1.77-0.616-2.311
				s-0.966-0.813-1.666-0.813c-0.756,0-1.325,0.252-1.708,0.756s-0.574,1.303-0.574,2.395c0,0.4,0.057,0.77,0.168,1.105
				c0.112,0.336,0.267,0.623,0.463,0.861c0.195,0.238,0.429,0.426,0.699,0.561s0.564,0.203,0.883,0.203
				c0.326,0,0.634-0.068,0.924-0.203c0.289-0.135,0.539-0.326,0.749-0.574s0.375-0.539,0.497-0.875
				C237.805,29.74,237.865,29.371,237.865,28.971z"/>
			<path fill="#706F6F" d="M241.183,29.277c-0.009,0.467,0.044,0.881,0.161,1.24s0.287,0.66,0.511,0.902
				c0.225,0.242,0.492,0.43,0.806,0.561c0.313,0.131,0.66,0.195,1.043,0.195c0.373,0,0.723-0.035,1.05-0.105
				c0.326-0.07,0.63-0.184,0.91-0.342c0.121-0.057,0.182-0.023,0.182,0.098v0.629c0,0.084-0.052,0.15-0.153,0.197
				c-0.309,0.121-0.631,0.211-0.967,0.273c-0.336,0.061-0.699,0.09-1.092,0.09c-1.148,0-2.016-0.334-2.604-1
				c-0.588-0.668-0.883-1.674-0.883-3.018c0-1.186,0.295-2.143,0.883-2.869c0.615-0.738,1.395-1.107,2.338-1.107
				c0.522,0,0.975,0.094,1.357,0.281c0.383,0.186,0.709,0.467,0.98,0.84c0.476,0.662,0.714,1.549,0.714,2.66
				c0,0.121-0.003,0.215-0.007,0.279c-0.005,0.064-0.021,0.111-0.049,0.141c-0.028,0.027-0.077,0.043-0.147,0.049
				c-0.07,0.004-0.17,0.006-0.301,0.006H241.183z M245.383,28.48c0-0.383-0.037-0.725-0.112-1.023
				c-0.074-0.297-0.191-0.568-0.35-0.811c-0.346-0.551-0.845-0.826-1.498-0.826c-0.672,0-1.218,0.279-1.638,0.84
				c-0.168,0.252-0.309,0.541-0.42,0.867c-0.112,0.328-0.173,0.645-0.183,0.953H245.383z"/>
			<path fill="#706F6F" d="M247.203,34.668c-0.084,0-0.104-0.033-0.057-0.098c0.729-1.148,1.276-2.268,1.646-3.361
				c0.368-1.092,0.553-2.174,0.553-3.246c0-1.064-0.182-2.145-0.546-3.242c-0.364-1.096-0.91-2.219-1.638-3.367
				c-0.028-0.047-0.042-0.074-0.042-0.084c0-0.008,0.023-0.014,0.07-0.014h0.392c0.047,0,0.077,0.002,0.091,0.008
				c0.014,0.004,0.044,0.029,0.091,0.076c0.85,1.074,1.478,2.156,1.883,3.248c0.406,1.092,0.609,2.217,0.609,3.375
				c0,1.166-0.203,2.295-0.609,3.387c-0.405,1.092-1.033,2.17-1.883,3.234c-0.047,0.047-0.077,0.072-0.091,0.076
				c-0.014,0.006-0.054,0.008-0.119,0.008H247.203z"/>
		</g>
	</g>
	<g>
		<g>
			<path fill="#706F6F" d="M35.223,36.742c-0.135,0-0.236-0.025-0.303-0.074c-0.068-0.051-0.152-0.16-0.253-0.33l-7.932-13.652
				v13.652c0,0.17-0.025,0.279-0.076,0.33c-0.051,0.049-0.16,0.074-0.328,0.074h-2.097c-0.135,0-0.236-0.025-0.304-0.074
				c-0.067-0.051-0.101-0.16-0.101-0.33V18.125c0-0.201,0.033-0.332,0.101-0.391s0.194-0.088,0.379-0.088h2.324
				c0.135,0,0.235,0.021,0.304,0.063c0.066,0.043,0.151,0.156,0.252,0.342l7.932,13.627V18.051c0-0.168,0.025-0.279,0.076-0.328
				c0.051-0.051,0.16-0.076,0.328-0.076h2.097c0.169,0,0.273,0.025,0.316,0.076c0.042,0.049,0.063,0.16,0.063,0.328v18.213
				c0,0.201-0.029,0.332-0.088,0.391c-0.06,0.059-0.182,0.088-0.366,0.088H35.223z"/>
			<path fill="#706F6F" d="M49.772,36.717c-0.085,0-0.156-0.02-0.215-0.063c-0.06-0.043-0.08-0.105-0.063-0.189v-1.016
				c-0.438,0.539-0.972,0.955-1.604,1.242s-1.293,0.43-1.983,0.43c-1.634,0-2.854-0.479-3.662-1.439
				c-0.809-0.959-1.213-2.332-1.213-4.117v-8.463c0-0.084,0.029-0.164,0.089-0.24c0.059-0.074,0.13-0.113,0.215-0.113h2.07
				c0.085,0,0.16,0.043,0.228,0.127s0.102,0.168,0.102,0.252v8.033c0,1.264,0.206,2.156,0.618,2.678
				c0.413,0.521,1.023,0.783,1.832,0.783c0.909,0,1.663-0.346,2.261-1.035c0.598-0.691,0.896-1.719,0.896-3.082v-7.402
				c0-0.084,0.029-0.164,0.089-0.24c0.059-0.074,0.13-0.113,0.215-0.113h2.097c0.084,0,0.155,0.047,0.214,0.139
				c0.06,0.094,0.089,0.182,0.089,0.266v10.307c0,0.521,0.009,1.035,0.025,1.541s0.025,0.969,0.025,1.389
				c0,0.219-0.093,0.328-0.278,0.328H49.772z"/>
			<path fill="#706F6F" d="M71.37,36.717c-0.085,0-0.16-0.037-0.228-0.113s-0.101-0.156-0.101-0.24v-8.74
				c0-0.791-0.186-1.436-0.556-1.932c-0.371-0.496-0.91-0.746-1.617-0.746c-0.505,0-0.956,0.105-1.352,0.316
				s-0.729,0.498-0.998,0.859s-0.476,0.795-0.618,1.301c-0.144,0.506-0.215,1.053-0.215,1.643v7.324
				c0,0.219-0.101,0.328-0.304,0.328h-2.096c-0.085,0-0.16-0.037-0.228-0.113s-0.102-0.156-0.102-0.24v-8.74
				c0-1.783-0.741-2.678-2.223-2.678c-0.943,0-1.68,0.287-2.21,0.859c-0.531,0.572-0.796,1.365-0.796,2.375v8.209
				c0,0.219-0.102,0.328-0.304,0.328H55.33c-0.085,0-0.156-0.037-0.215-0.113c-0.06-0.076-0.089-0.156-0.089-0.24V26.311
				c0-0.641-0.009-1.254-0.025-1.844s-0.042-1.053-0.075-1.391c-0.034-0.219,0.084-0.328,0.354-0.328h2.146
				c0.152,0,0.228,0.068,0.228,0.205l-0.025,0.895c0.337-0.391,0.8-0.723,1.39-0.994s1.213-0.408,1.869-0.408
				c0.876,0,1.676,0.203,2.4,0.605c0.724,0.404,1.246,1.004,1.565,1.795c0.388-0.809,0.96-1.41,1.718-1.807
				c0.758-0.395,1.566-0.594,2.426-0.594c1.431,0,2.584,0.426,3.46,1.275c0.876,0.852,1.313,2.043,1.313,3.574v9.094
				c0,0.084-0.029,0.16-0.088,0.229c-0.06,0.066-0.131,0.1-0.215,0.1H71.37z"/>
			<path fill="#706F6F" d="M82.763,37.096c-0.674,0-1.339-0.16-1.996-0.479c-0.656-0.32-1.153-0.717-1.49-1.188v0.959
				c0,0.27-0.126,0.404-0.379,0.404h-1.92c-0.27,0-0.404-0.135-0.404-0.404V16.51c0-0.219,0.109-0.328,0.329-0.328h2.071
				c0.117,0,0.197,0.02,0.239,0.063s0.063,0.131,0.063,0.266v7.221c0.455-0.486,0.98-0.865,1.579-1.135
				c0.598-0.268,1.233-0.402,1.907-0.402c0.892,0,1.696,0.176,2.412,0.529s1.321,0.85,1.818,1.488s0.88,1.416,1.149,2.332
				s0.404,1.938,0.404,3.064c0,1.16-0.131,2.203-0.392,3.127s-0.64,1.711-1.137,2.357s-1.103,1.143-1.818,1.488
				C84.484,36.924,83.672,37.096,82.763,37.096z M82.484,24.77c-1.011,0-1.798,0.398-2.361,1.197
				c-0.564,0.797-0.847,2.012-0.847,3.641c0,0.789,0.084,1.49,0.253,2.104c0.168,0.613,0.399,1.129,0.694,1.549
				c0.294,0.42,0.636,0.74,1.023,0.957c0.387,0.219,0.8,0.328,1.237,0.328c1.011,0,1.802-0.41,2.375-1.234
				c0.572-0.822,0.858-2.057,0.858-3.703c0-1.529-0.278-2.717-0.833-3.566C84.328,25.193,83.528,24.77,82.484,24.77z"/>
			<path fill="#706F6F" d="M101.304,30.377c0,0.135-0.038,0.236-0.114,0.303c-0.075,0.068-0.155,0.102-0.24,0.102h-8.311
				c0.084,1.129,0.438,2.051,1.062,2.766c0.622,0.717,1.474,1.074,2.551,1.074c0.556,0,1.188-0.072,1.895-0.215
				c0.708-0.143,1.355-0.391,1.945-0.744c0.118-0.068,0.193-0.061,0.228,0.023c0.033,0.086,0.051,0.195,0.051,0.33v1.742
				c0,0.152-0.025,0.27-0.076,0.354s-0.151,0.168-0.303,0.252c-0.506,0.27-1.1,0.463-1.781,0.582
				c-0.682,0.117-1.377,0.176-2.084,0.176c-2.088,0-3.667-0.627-4.736-1.881s-1.604-3.094-1.604-5.52
				c0-0.91,0.118-1.803,0.354-2.678c0.235-0.875,0.593-1.658,1.073-2.35c0.479-0.689,1.09-1.246,1.831-1.666
				c0.741-0.422,1.617-0.633,2.627-0.633c1.027,0,1.898,0.193,2.615,0.582c0.715,0.387,1.301,0.908,1.755,1.566
				c0.455,0.656,0.783,1.422,0.985,2.299c0.202,0.875,0.303,1.809,0.303,2.803c0,0.119-0.004,0.252-0.012,0.404
				C101.308,30.201,101.304,30.311,101.304,30.377z M95.771,24.82c-0.455,0-0.859,0.102-1.213,0.303s-0.656,0.463-0.909,0.783
				s-0.459,0.691-0.619,1.111c-0.16,0.422-0.273,0.842-0.341,1.264h5.785c0-0.338-0.056-0.707-0.164-1.111
				c-0.11-0.404-0.274-0.779-0.493-1.125s-0.497-0.635-0.833-0.871C96.646,24.938,96.242,24.82,95.771,24.82z"/>
			<path fill="#706F6F" d="M109.892,25.301c-0.337-0.084-0.631-0.141-0.884-0.166c-0.253-0.023-0.472-0.02-0.656,0.014
				c-0.506,0.102-0.914,0.316-1.226,0.645s-0.548,0.711-0.707,1.148c-0.16,0.439-0.266,0.91-0.316,1.416
				c-0.05,0.504-0.075,0.984-0.075,1.439v6.566c0,0.236-0.102,0.354-0.304,0.354h-2.097c-0.186,0-0.277-0.125-0.277-0.379v-10.18
				c0-0.539-0.009-1.076-0.025-1.615s-0.025-1.012-0.025-1.416c0-0.15,0.025-0.248,0.076-0.289c0.051-0.043,0.135-0.064,0.252-0.064
				h2.097c0.118,0,0.186,0.018,0.202,0.051c0.017,0.035,0.025,0.094,0.025,0.18v1.121c0.118-0.203,0.273-0.406,0.468-0.609
				c0.193-0.205,0.404-0.387,0.631-0.549c0.228-0.16,0.459-0.287,0.695-0.381c0.235-0.094,0.454-0.141,0.656-0.141
				c0.32,0,0.61,0.004,0.872,0.014c0.261,0.008,0.534,0.096,0.82,0.264c0.084,0.035,0.135,0.09,0.152,0.164
				c0.016,0.076,0.025,0.148,0.025,0.215v1.895c0,0.068-0.025,0.145-0.076,0.229S110.044,25.334,109.892,25.301z"/>
			<path fill="#706F6F" d="M123.608,25.301c-0.337-0.084-0.632-0.141-0.884-0.166c-0.253-0.023-0.472-0.02-0.657,0.014
				c-0.505,0.102-0.914,0.316-1.226,0.645s-0.547,0.711-0.707,1.148c-0.16,0.439-0.265,0.91-0.315,1.416
				c-0.051,0.504-0.076,0.984-0.076,1.439v6.566c0,0.236-0.101,0.354-0.303,0.354h-2.097c-0.186,0-0.278-0.125-0.278-0.379v-10.18
				c0-0.539-0.009-1.076-0.024-1.615c-0.018-0.539-0.025-1.012-0.025-1.416c0-0.15,0.025-0.248,0.075-0.289
				c0.051-0.043,0.135-0.064,0.253-0.064h2.097c0.117,0,0.185,0.018,0.202,0.051c0.017,0.035,0.025,0.094,0.025,0.18v1.121
				c0.117-0.203,0.273-0.406,0.467-0.609c0.193-0.205,0.404-0.387,0.632-0.549c0.228-0.16,0.458-0.287,0.694-0.381
				s0.455-0.141,0.657-0.141c0.319,0,0.61,0.004,0.871,0.014c0.261,0.008,0.534,0.096,0.821,0.264
				c0.084,0.035,0.135,0.09,0.151,0.164c0.017,0.076,0.025,0.148,0.025,0.215v1.895c0,0.068-0.025,0.145-0.076,0.229
				C123.861,25.309,123.76,25.334,123.608,25.301z"/>
			<path fill="#706F6F" d="M132.398,36.717c-0.118,0-0.193-0.012-0.227-0.037c-0.034-0.025-0.051-0.088-0.051-0.189v-1.137
				c-0.422,0.59-0.956,1.031-1.604,1.326s-1.301,0.441-1.958,0.441c-0.69,0-1.326-0.092-1.906-0.277
				c-0.581-0.186-1.078-0.463-1.491-0.834c-0.412-0.369-0.736-0.828-0.972-1.377c-0.236-0.547-0.354-1.182-0.354-1.906
				c0-0.859,0.152-1.613,0.455-2.262c0.303-0.646,0.778-1.186,1.427-1.615s1.479-0.75,2.488-0.961
				c1.011-0.209,2.231-0.314,3.663-0.314c0-0.32-0.034-0.641-0.101-0.961c-0.068-0.32-0.182-0.605-0.342-0.859
				c-0.16-0.252-0.383-0.457-0.669-0.619c-0.286-0.158-0.648-0.238-1.086-0.238c-0.758,0-1.444,0.1-2.06,0.303
				c-0.614,0.201-1.191,0.471-1.729,0.809c-0.271,0.168-0.451,0.244-0.544,0.227c-0.092-0.016-0.139-0.109-0.139-0.277v-1.92
				c0-0.066-0.004-0.139-0.013-0.215s0.004-0.139,0.038-0.189c0.051-0.066,0.177-0.16,0.379-0.277
				c0.572-0.287,1.158-0.521,1.756-0.707s1.352-0.279,2.261-0.279c1.7,0,2.959,0.414,3.776,1.238
				c0.816,0.826,1.226,2.121,1.226,3.891v5.986c0,0.471,0.004,0.965,0.013,1.479c0.008,0.514,0.037,0.963,0.088,1.352
				c0.033,0.268-0.06,0.402-0.277,0.402H132.398z M127.928,30.654c-0.809,0.455-1.213,1.137-1.213,2.047
				c0,0.641,0.186,1.121,0.556,1.439c0.37,0.32,0.867,0.48,1.49,0.48c0.96,0,1.73-0.354,2.312-1.061s0.872-1.811,0.872-3.309v-0.279
				C130.074,29.973,128.736,30.201,127.928,30.654z"/>
			<path fill="#706F6F" d="M146.039,36.717c-0.084,0-0.155-0.037-0.215-0.113c-0.059-0.076-0.088-0.156-0.088-0.24v-8.031
				c0-1.213-0.189-2.088-0.568-2.629c-0.379-0.537-0.973-0.807-1.781-0.807c-1.111,0-1.932,0.307-2.463,0.922
				c-0.53,0.615-0.795,1.502-0.795,2.664v7.906c0,0.219-0.102,0.328-0.304,0.328h-2.097c-0.084,0-0.156-0.037-0.215-0.113
				s-0.088-0.156-0.088-0.24V26.311c0-0.641-0.005-1.254-0.013-1.844c-0.009-0.59-0.03-1.053-0.063-1.391
				c-0.034-0.219,0.084-0.328,0.354-0.328h1.996c0.185,0,0.261,0.068,0.228,0.205l-0.025,0.92c0.421-0.408,0.926-0.756,1.516-1.045
				c0.589-0.289,1.271-0.434,2.046-0.434c1.617,0,2.85,0.477,3.701,1.428c0.85,0.951,1.275,2.328,1.275,4.131v8.436
				c0,0.219-0.102,0.328-0.304,0.328H146.039z"/>
			<path fill="#706F6F" d="M156.118,40.658c-0.674,0-1.339-0.047-1.995-0.139c-0.657-0.094-1.306-0.258-1.945-0.492
				c-0.151-0.084-0.257-0.152-0.316-0.203c-0.059-0.051-0.088-0.135-0.088-0.252l0.126-2.047c0.034-0.32,0.202-0.404,0.506-0.252
				c0.572,0.287,1.19,0.5,1.856,0.645c0.665,0.143,1.292,0.215,1.882,0.215c1.095,0,1.966-0.287,2.614-0.859s0.998-1.355,1.049-2.35
				c-0.438,0.473-0.952,0.826-1.541,1.061c-0.59,0.236-1.171,0.354-1.743,0.354c-0.843,0-1.626-0.164-2.35-0.492
				s-1.347-0.783-1.869-1.363c-0.522-0.582-0.931-1.275-1.225-2.084c-0.295-0.809-0.442-1.693-0.442-2.652
				c0-2.492,0.501-4.336,1.503-5.533c1.002-1.195,2.438-1.793,4.307-1.793c0.337,0,0.678,0.043,1.023,0.127
				c0.345,0.084,0.678,0.193,0.998,0.328c0.319,0.135,0.614,0.291,0.884,0.467c0.27,0.178,0.505,0.367,0.707,0.568l-0.025-0.883
				c-0.017-0.135-0.008-0.229,0.025-0.279c0.034-0.051,0.135-0.076,0.304-0.076h1.995c0.202,0,0.304,0.127,0.304,0.379v10.434
				c0,2.273-0.556,4.037-1.668,5.293C159.882,40.031,158.257,40.658,156.118,40.658z M156.75,24.896
				c-1.062,0-1.874,0.387-2.438,1.162c-0.564,0.773-0.847,2.004-0.847,3.688c0,0.641,0.084,1.213,0.253,1.717
				c0.168,0.506,0.399,0.932,0.694,1.275c0.294,0.346,0.632,0.611,1.011,0.797s0.778,0.277,1.199,0.277
				c0.472,0,0.91-0.092,1.314-0.277c0.403-0.186,0.758-0.455,1.061-0.809s0.543-0.783,0.72-1.289
				c0.177-0.504,0.266-1.086,0.266-1.742c0-1.533-0.287-2.715-0.859-3.549S157.76,24.896,156.75,24.896z"/>
			<path fill="#706F6F" d="M176.023,30.377c0,0.135-0.038,0.236-0.114,0.303c-0.075,0.068-0.155,0.102-0.239,0.102h-8.311
				c0.084,1.129,0.438,2.051,1.061,2.766c0.623,0.717,1.474,1.074,2.551,1.074c0.557,0,1.188-0.072,1.895-0.215
				c0.708-0.143,1.355-0.391,1.945-0.744c0.118-0.068,0.193-0.061,0.228,0.023c0.033,0.086,0.051,0.195,0.051,0.33v1.742
				c0,0.152-0.025,0.27-0.076,0.354s-0.151,0.168-0.303,0.252c-0.506,0.27-1.099,0.463-1.781,0.582
				c-0.682,0.117-1.377,0.176-2.084,0.176c-2.088,0-3.667-0.627-4.736-1.881s-1.604-3.094-1.604-5.52
				c0-0.91,0.118-1.803,0.354-2.678c0.235-0.875,0.593-1.658,1.073-2.35c0.479-0.689,1.09-1.246,1.831-1.666
				c0.741-0.422,1.617-0.633,2.628-0.633c1.026,0,1.898,0.193,2.614,0.582c0.716,0.387,1.301,0.908,1.755,1.566
				c0.455,0.656,0.783,1.422,0.985,2.299c0.202,0.875,0.304,1.809,0.304,2.803c0,0.119-0.005,0.252-0.013,0.404
				C176.027,30.201,176.023,30.311,176.023,30.377z M170.491,24.82c-0.455,0-0.858,0.102-1.213,0.303
				c-0.354,0.201-0.656,0.463-0.909,0.783c-0.252,0.32-0.459,0.691-0.619,1.111c-0.16,0.422-0.273,0.842-0.341,1.264h5.785
				c0-0.338-0.056-0.707-0.164-1.111c-0.11-0.404-0.274-0.779-0.493-1.125s-0.497-0.635-0.833-0.871
				C171.366,24.938,170.963,24.82,170.491,24.82z"/>
		</g>
	</g>
</g>
<rect fill="none" width="272.818" height="55.979"/>
</svg>
