<?xml version="1.0" encoding="utf-8"?>
<!-- Generator: Adobe Illustrator 16.0.0, SVG Export Plug-In . SVG Version: 6.00 Build 0)  -->
<!DOCTYPE svg PUBLIC "-//W3C//DTD SVG 1.1//EN" "http://www.w3.org/Graphics/SVG/1.1/DTD/svg11.dtd">
<svg version="1.1" id="레이어_1" xmlns="http://www.w3.org/2000/svg" xmlns:xlink="http://www.w3.org/1999/xlink" x="0px"
	 y="0px" width="272.818px" height="55.979px" viewBox="0 0 272.818 55.979" enable-background="new 0 0 272.818 55.979"
	 xml:space="preserve">
<g>
	<g>
		<g>
			<path fill="#706F6F" d="M146.137,34.667c-0.065,0-0.104-0.002-0.119-0.007c-0.014-0.005-0.039-0.03-0.076-0.077
				c-0.85-1.063-1.479-2.142-1.891-3.233c-0.41-1.092-0.615-2.222-0.615-3.388c0-1.157,0.205-2.282,0.615-3.374
				c0.411-1.093,1.041-2.175,1.891-3.248c0.037-0.047,0.063-0.072,0.076-0.077c0.015-0.005,0.045-0.007,0.092-0.007h0.392
				c0.056,0,0.084,0.005,0.084,0.014c0,0.01-0.014,0.037-0.042,0.084c-1.465,2.296-2.198,4.499-2.198,6.608
				c0,1.073,0.187,2.155,0.561,3.247c0.373,1.093,0.924,2.213,1.651,3.36c0.047,0.065,0.023,0.098-0.069,0.098H146.137z"/>
			<path fill="#706F6F" d="M147.495,22.571c0-0.187,0.065-0.348,0.196-0.482c0.13-0.136,0.289-0.203,0.476-0.203
				s0.348,0.067,0.483,0.203c0.135,0.135,0.203,0.296,0.203,0.482s-0.068,0.346-0.203,0.477c-0.136,0.131-0.297,0.195-0.483,0.195
				s-0.346-0.064-0.476-0.195C147.561,22.917,147.495,22.758,147.495,22.571z M148.489,32.791h-0.616
				c-0.131,0-0.196-0.065-0.196-0.195v-7.183c0-0.13,0.065-0.195,0.196-0.195h0.616c0.13,0,0.196,0.065,0.196,0.195v7.183
				C148.686,32.726,148.619,32.791,148.489,32.791z"/>
			<path fill="#706F6F" d="M156.581,32.596c0,0.13-0.065,0.195-0.196,0.195h-0.56c-0.131,0-0.196-0.065-0.196-0.195v-4.41
				c0-0.858-0.154-1.468-0.462-1.827s-0.742-0.539-1.302-0.539c-0.756,0-1.333,0.21-1.729,0.63s-0.595,1.008-0.595,1.765v4.382
				c0,0.13-0.065,0.195-0.196,0.195h-0.56c-0.131,0-0.196-0.065-0.196-0.195v-5.601c0-0.4-0.003-0.714-0.007-0.938
				c-0.005-0.225-0.017-0.438-0.035-0.645c-0.01-0.064,0.007-0.114,0.049-0.146c0.042-0.033,0.091-0.049,0.147-0.049h0.504
				c0.13,0,0.196,0.065,0.196,0.195v0.771c0.261-0.401,0.576-0.695,0.944-0.882c0.369-0.187,0.875-0.28,1.52-0.28
				c0.886,0,1.554,0.257,2.002,0.77c0.447,0.514,0.672,1.237,0.672,2.171V32.596z"/>
			<path fill="#706F6F" d="M164.603,32.596c0,0.13-0.065,0.195-0.196,0.195h-0.504c-0.131,0-0.195-0.065-0.195-0.195v-1.162
				c-0.243,0.56-0.567,0.964-0.974,1.211c-0.405,0.247-0.917,0.371-1.532,0.371c-1.746,0-2.618-0.976-2.618-2.926v-4.677
				c0-0.13,0.064-0.195,0.195-0.195h0.561c0.13,0,0.196,0.065,0.196,0.195v4.425c0,1.586,0.606,2.38,1.819,2.38
				c0.354,0,0.675-0.077,0.959-0.231c0.285-0.154,0.525-0.364,0.722-0.63c0.195-0.266,0.345-0.576,0.447-0.931
				s0.149-0.729,0.141-1.12v-3.893c0-0.13,0.064-0.195,0.195-0.195h0.561c0.131,0,0.195,0.065,0.195,0.195v5.628
				c0,0.309,0.003,0.584,0.008,0.826C164.586,32.11,164.594,32.353,164.603,32.596z"/>
			<path fill="#706F6F" d="M170.133,26.071c-0.168-0.056-0.393-0.084-0.672-0.084c-0.691,0-1.204,0.341-1.54,1.022
				c-0.262,0.531-0.393,1.213-0.393,2.044v3.542c0,0.13-0.065,0.195-0.196,0.195h-0.546c-0.13,0-0.195-0.065-0.195-0.195v-5.685
				c0-0.336-0.003-0.608-0.007-0.818c-0.005-0.21-0.012-0.437-0.021-0.68c0-0.13,0.065-0.195,0.196-0.195h0.518
				c0.131,0,0.196,0.065,0.196,0.195v1.372c0.457-1.176,1.129-1.764,2.016-1.764c0.215,0,0.43,0.028,0.645,0.084
				c0.056,0.019,0.104,0.049,0.146,0.091s0.063,0.101,0.063,0.175v0.588c0,0.057-0.023,0.094-0.07,0.112
				S170.179,26.09,170.133,26.071z"/>
			<path fill="#706F6F" d="M171.98,32.791h-0.616c-0.131,0-0.196-0.065-0.196-0.195V21.857c0-0.131,0.065-0.196,0.196-0.196h0.616
				c0.131,0,0.196,0.065,0.196,0.196v10.738C172.177,32.726,172.111,32.791,171.98,32.791z"/>
			<path fill="#706F6F" d="M173.422,34.667c-0.084,0-0.103-0.032-0.056-0.098c0.728-1.147,1.276-2.268,1.646-3.36
				c0.368-1.092,0.553-2.174,0.553-3.247c0-1.064-0.182-2.145-0.546-3.241s-0.91-2.22-1.639-3.367
				c-0.027-0.047-0.042-0.074-0.042-0.084c0-0.009,0.023-0.014,0.07-0.014h0.393c0.046,0,0.076,0.002,0.091,0.007
				c0.014,0.005,0.044,0.03,0.091,0.077c0.849,1.073,1.477,2.155,1.883,3.248c0.406,1.092,0.609,2.217,0.609,3.374
				c0,1.166-0.203,2.296-0.609,3.388s-1.034,2.17-1.883,3.233c-0.047,0.047-0.077,0.072-0.091,0.077
				c-0.015,0.005-0.054,0.007-0.119,0.007H173.422z"/>
		</g>
	</g>
	<g>
		<g>
			<path fill="#706F6F" d="M109.281,35.707c-0.624,0.488-1.318,0.854-2.084,1.099c-0.768,0.244-1.597,0.366-2.488,0.366
				c-1.752,0-3.268-0.488-4.547-1.465c-0.843-0.64-1.453-1.444-1.832-2.412c-0.379-0.969-0.568-2.085-0.568-3.348V18.05
				c0-0.084,0.029-0.168,0.089-0.253c0.059-0.084,0.13-0.126,0.214-0.126h2.249c0.084,0,0.155,0.034,0.215,0.101
				c0.059,0.067,0.088,0.144,0.088,0.228v11.948c0,1.313,0.345,2.392,1.036,3.233c0.689,0.843,1.709,1.263,3.057,1.263
				c1.38,0,2.412-0.412,3.094-1.237c0.683-0.825,1.023-1.911,1.023-3.259V17.999c0-0.084,0.029-0.16,0.088-0.228
				c0.06-0.066,0.131-0.101,0.215-0.101h2.248c0.084,0,0.156,0.042,0.215,0.126c0.059,0.085,0.089,0.169,0.089,0.253v11.897
				c0,1.247-0.198,2.358-0.594,3.335S110.089,35.067,109.281,35.707z"/>
			<path fill="#706F6F" d="M125.22,36.742c-0.186,0-0.315-0.013-0.392-0.037c-0.075-0.025-0.155-0.098-0.24-0.215l-3.864-7.478
				h-2.88v7.401c0,0.219-0.109,0.328-0.328,0.328h-2.248c-0.202,0-0.304-0.109-0.304-0.328V17.999c0-0.084,0.029-0.155,0.089-0.215
				c0.059-0.059,0.13-0.088,0.215-0.088h5.103c1.869,0,3.351,0.454,4.445,1.363c1.095,0.91,1.643,2.324,1.643,4.244
				c0,1.229-0.27,2.27-0.809,3.12s-1.28,1.494-2.223,1.933l4.218,8.032c0.135,0.236,0.034,0.354-0.303,0.354H125.22z
				 M117.844,20.349v6.037h2.071c1.111,0,1.996-0.24,2.652-0.72c0.657-0.48,0.985-1.276,0.985-2.388c0-0.96-0.257-1.688-0.771-2.185
				s-1.2-0.745-2.059-0.745H117.844z"/>
			<path fill="#706F6F" d="M129.539,36.742c-0.084,0-0.155-0.029-0.215-0.088c-0.059-0.06-0.088-0.131-0.088-0.215v-18.44
				c0-0.084,0.029-0.155,0.088-0.215c0.06-0.059,0.131-0.088,0.215-0.088h2.273c0.084,0,0.156,0.029,0.215,0.088
				c0.059,0.06,0.089,0.131,0.089,0.215V34.09h6.542c0.202,0,0.304,0.11,0.304,0.329v2.021c0,0.084-0.03,0.155-0.089,0.215
				c-0.059,0.059-0.131,0.088-0.215,0.088H129.539z"/>
		</g>
	</g>
</g>
<rect fill="none" width="272.818" height="55.979"/>
</svg>
