<?xml version="1.0" encoding="utf-8"?>
<!-- Generator: Adobe Illustrator 16.0.0, SVG Export Plug-In . SVG Version: 6.00 Build 0)  -->
<!DOCTYPE svg PUBLIC "-//W3C//DTD SVG 1.1//EN" "http://www.w3.org/Graphics/SVG/1.1/DTD/svg11.dtd">
<svg version="1.1" id="레이어_1" xmlns="http://www.w3.org/2000/svg" xmlns:xlink="http://www.w3.org/1999/xlink" x="0px"
	 y="0px" width="272.818px" height="55.979px" viewBox="0 0 272.818 55.979" enable-background="new 0 0 272.818 55.979"
	 xml:space="preserve">
<g>
	<g>
		<g>
			<path fill="#706F6F" d="M187.206,34.667c-0.065,0-0.105-0.002-0.119-0.007c-0.014-0.005-0.04-0.03-0.077-0.077
				c-0.849-1.063-1.479-2.142-1.89-3.233c-0.411-1.092-0.616-2.222-0.616-3.388c0-1.157,0.205-2.282,0.616-3.374
				c0.41-1.093,1.041-2.175,1.89-3.248c0.037-0.047,0.063-0.072,0.077-0.077c0.014-0.005,0.044-0.007,0.091-0.007h0.392
				c0.056,0,0.084,0.005,0.084,0.014c0,0.01-0.014,0.037-0.042,0.084c-1.465,2.296-2.198,4.499-2.198,6.608
				c0,1.073,0.187,2.155,0.56,3.247c0.373,1.093,0.924,2.213,1.652,3.36c0.047,0.065,0.023,0.098-0.07,0.098H187.206z"/>
			<path fill="#706F6F" d="M191.938,21.535c0.122,0.038,0.178,0.136,0.168,0.294l-0.028,0.406c-0.009,0.056-0.033,0.091-0.07,0.105
				c-0.038,0.014-0.08,0.012-0.126-0.008c-0.103-0.037-0.196-0.063-0.28-0.076c-0.084-0.015-0.182-0.021-0.294-0.021
				c-0.551,0-0.905,0.275-1.064,0.826c-0.065,0.224-0.098,0.719-0.098,1.484v0.672h1.54c0.131,0,0.196,0.065,0.196,0.195v0.42
				c0,0.131-0.065,0.196-0.196,0.196h-1.54v6.566c0,0.13-0.065,0.195-0.196,0.195h-0.546c-0.131,0-0.196-0.065-0.196-0.195v-6.566
				h-1.358c-0.131,0-0.196-0.065-0.196-0.196v-0.42c0-0.13,0.065-0.195,0.196-0.195h1.358v-0.574c0-1.018,0.093-1.75,0.28-2.198
				c0.289-0.672,0.868-1.008,1.736-1.008C191.494,21.437,191.732,21.47,191.938,21.535z"/>
			<path fill="#706F6F" d="M192.736,22.571c0-0.187,0.065-0.348,0.196-0.482c0.131-0.136,0.289-0.203,0.476-0.203
				c0.187,0,0.348,0.067,0.483,0.203c0.135,0.135,0.203,0.296,0.203,0.482s-0.068,0.346-0.203,0.477s-0.296,0.195-0.483,0.195
				c-0.187,0-0.345-0.064-0.476-0.195S192.736,22.757,192.736,22.571z M193.729,32.791h-0.616c-0.131,0-0.196-0.065-0.196-0.195
				v-7.183c0-0.13,0.065-0.195,0.196-0.195h0.616c0.131,0,0.196,0.065,0.196,0.195v7.183
				C193.926,32.725,193.86,32.791,193.729,32.791z"/>
			<path fill="#706F6F" d="M196.432,32.791h-0.616c-0.131,0-0.196-0.065-0.196-0.195V21.857c0-0.131,0.065-0.196,0.196-0.196h0.616
				c0.131,0,0.196,0.065,0.196,0.196v10.738C196.628,32.725,196.563,32.791,196.432,32.791z"/>
			<path fill="#706F6F" d="M198.783,29.277c-0.009,0.467,0.044,0.88,0.161,1.239s0.287,0.66,0.511,0.903
				c0.224,0.242,0.492,0.429,0.805,0.56s0.66,0.196,1.043,0.196c0.374,0,0.723-0.035,1.05-0.105c0.326-0.07,0.63-0.184,0.91-0.343
				c0.121-0.056,0.182-0.023,0.182,0.098v0.63c0,0.084-0.051,0.149-0.154,0.196c-0.308,0.121-0.63,0.212-0.966,0.273
				c-0.336,0.061-0.7,0.091-1.092,0.091c-1.148,0-2.016-0.334-2.604-1.001s-0.882-1.673-0.882-3.018
				c0-1.185,0.294-2.142,0.882-2.869c0.616-0.737,1.395-1.106,2.338-1.106c0.523,0,0.975,0.094,1.358,0.28s0.709,0.467,0.98,0.84
				c0.476,0.663,0.714,1.549,0.714,2.66c0,0.121-0.002,0.215-0.007,0.279c-0.004,0.065-0.021,0.112-0.049,0.141
				c-0.028,0.027-0.077,0.044-0.147,0.049c-0.07,0.005-0.17,0.007-0.301,0.007H198.783z M202.983,28.479
				c0-0.383-0.038-0.724-0.112-1.022c-0.075-0.298-0.191-0.568-0.35-0.812c-0.346-0.551-0.845-0.826-1.498-0.826
				c-0.672,0-1.218,0.28-1.638,0.84c-0.168,0.252-0.308,0.542-0.42,0.868c-0.112,0.327-0.173,0.645-0.182,0.952H202.983z"/>
			<path fill="#706F6F" d="M208.766,32.805c-0.392,0.14-0.78,0.21-1.162,0.21c-0.756,0-1.255-0.248-1.498-0.742
				c-0.159-0.336-0.238-0.929-0.238-1.778v-4.466h-1.316c-0.13,0-0.196-0.065-0.196-0.196v-0.42c0-0.13,0.065-0.195,0.196-0.195
				h1.316v-1.891c0-0.14,0.061-0.21,0.182-0.21h0.588c0.121,0,0.182,0.07,0.182,0.21v1.891h1.554c0.13,0,0.196,0.065,0.196,0.195
				v0.42c0,0.131-0.065,0.196-0.196,0.196h-1.554v4.942c0,0.831,0.336,1.246,1.008,1.246c0.262,0,0.556-0.057,0.882-0.168
				c0.046-0.019,0.091-0.019,0.133,0s0.063,0.056,0.063,0.111l0.028,0.364C208.952,32.656,208.896,32.749,208.766,32.805z"/>
			<path fill="#706F6F" d="M208.975,34.863c-0.112-0.027-0.159-0.098-0.14-0.21l0.042-0.476c0-0.112,0.056-0.146,0.168-0.099
				c0.149,0.057,0.322,0.084,0.518,0.084c0.196,0,0.375-0.03,0.539-0.091c0.163-0.061,0.287-0.143,0.371-0.245
				c0.103-0.131,0.217-0.345,0.343-0.644s0.25-0.64,0.371-1.022c-0.42-1.139-0.836-2.263-1.246-3.374
				c-0.411-1.11-0.826-2.234-1.246-3.374c-0.019-0.046-0.019-0.091,0-0.133c0.019-0.042,0.056-0.063,0.112-0.063h0.658
				c0.13,0,0.224,0.065,0.28,0.195l1.89,5.433c0.345-0.952,0.674-1.859,0.987-2.724c0.313-0.863,0.642-1.766,0.987-2.709
				c0.046-0.13,0.14-0.195,0.28-0.195h0.602c0.056,0,0.093,0.021,0.112,0.063c0.019,0.042,0.019,0.087,0,0.133l-2.912,7.813
				c-0.103,0.271-0.217,0.513-0.343,0.728s-0.254,0.388-0.385,0.519c-0.168,0.158-0.355,0.277-0.56,0.356
				c-0.206,0.079-0.42,0.119-0.644,0.119c-0.14,0-0.266-0.005-0.378-0.014C209.27,34.923,209.134,34.9,208.975,34.863z"/>
			<path fill="#706F6F" d="M215.247,25.413c0-0.13,0.065-0.195,0.196-0.195h0.532c0.13,0,0.196,0.065,0.196,0.195l-0.07,1.051
				c0.187-0.411,0.501-0.742,0.945-0.994s0.959-0.378,1.547-0.378c0.55,0,1.02,0.098,1.407,0.294
				c0.387,0.195,0.705,0.464,0.952,0.805c0.247,0.341,0.429,0.744,0.546,1.211s0.175,0.966,0.175,1.498
				c0,0.579-0.068,1.115-0.203,1.61c-0.135,0.494-0.332,0.924-0.588,1.288c-0.257,0.363-0.577,0.65-0.959,0.86
				c-0.383,0.21-0.826,0.315-1.33,0.315c-0.569,0-1.06-0.11-1.47-0.329c-0.411-0.22-0.723-0.525-0.938-0.917v3.01
				c0,0.131-0.065,0.196-0.196,0.196h-0.532c-0.056,0-0.105-0.019-0.147-0.056c-0.042-0.038-0.063-0.085-0.063-0.141V25.413z
				 M220.651,28.899c0-0.383-0.038-0.754-0.112-1.113c-0.075-0.358-0.201-0.679-0.378-0.959c-0.177-0.279-0.406-0.506-0.686-0.679
				s-0.63-0.259-1.05-0.259c-0.383,0-0.714,0.079-0.994,0.238c-0.28,0.158-0.511,0.375-0.693,0.65
				c-0.182,0.275-0.32,0.595-0.413,0.959s-0.14,0.752-0.14,1.162c0,1.083,0.203,1.901,0.609,2.457
				c0.406,0.556,0.95,0.833,1.631,0.833c0.354,0,0.669-0.077,0.945-0.231c0.275-0.153,0.509-0.375,0.7-0.665
				c0.191-0.289,0.336-0.634,0.434-1.035C220.602,29.856,220.651,29.403,220.651,28.899z"/>
			<path fill="#706F6F" d="M223.675,29.277c-0.009,0.467,0.044,0.88,0.161,1.239s0.287,0.66,0.511,0.903
				c0.224,0.242,0.492,0.429,0.805,0.56s0.66,0.196,1.043,0.196c0.374,0,0.723-0.035,1.05-0.105c0.326-0.07,0.63-0.184,0.91-0.343
				c0.121-0.056,0.182-0.023,0.182,0.098v0.63c0,0.084-0.051,0.149-0.154,0.196c-0.308,0.121-0.63,0.212-0.966,0.273
				c-0.336,0.061-0.7,0.091-1.092,0.091c-1.148,0-2.016-0.334-2.604-1.001s-0.882-1.673-0.882-3.018
				c0-1.185,0.294-2.142,0.882-2.869c0.616-0.737,1.395-1.106,2.338-1.106c0.523,0,0.975,0.094,1.358,0.28s0.709,0.467,0.98,0.84
				c0.476,0.663,0.714,1.549,0.714,2.66c0,0.121-0.002,0.215-0.007,0.279c-0.004,0.065-0.021,0.112-0.049,0.141
				c-0.028,0.027-0.077,0.044-0.147,0.049c-0.07,0.005-0.17,0.007-0.301,0.007H223.675z M227.875,28.479
				c0-0.383-0.038-0.724-0.112-1.022c-0.075-0.298-0.191-0.568-0.35-0.812c-0.346-0.551-0.845-0.826-1.498-0.826
				c-0.672,0-1.218,0.28-1.638,0.84c-0.168,0.252-0.308,0.542-0.42,0.868c-0.112,0.327-0.173,0.645-0.182,0.952H227.875z"/>
			<path fill="#706F6F" d="M229.485,34.667c-0.084,0-0.103-0.032-0.056-0.098c0.728-1.147,1.276-2.268,1.645-3.36
				c0.369-1.092,0.553-2.174,0.553-3.247c0-1.064-0.182-2.145-0.546-3.241c-0.364-1.097-0.91-2.22-1.638-3.367
				c-0.028-0.047-0.042-0.074-0.042-0.084c0-0.009,0.023-0.014,0.07-0.014h0.392c0.047,0,0.077,0.002,0.091,0.007
				c0.014,0.005,0.044,0.03,0.091,0.077c0.849,1.073,1.477,2.155,1.883,3.248c0.406,1.092,0.609,2.217,0.609,3.374
				c0,1.166-0.203,2.296-0.609,3.388c-0.406,1.092-1.034,2.17-1.883,3.233c-0.047,0.047-0.077,0.072-0.091,0.077
				c-0.014,0.005-0.054,0.007-0.119,0.007H229.485z"/>
		</g>
	</g>
	<g>
		<path fill="#706F6F" d="M44.611,20.374v5.229h6.265c0.219,0,0.328,0.101,0.328,0.303v2.047c0,0.202-0.109,0.303-0.328,0.303
			h-6.265v8.108c0,0.253-0.118,0.379-0.354,0.379h-2.072c-0.252,0-0.379-0.126-0.379-0.379V18.15c0-0.185,0.034-0.307,0.101-0.366
			c0.067-0.059,0.168-0.088,0.303-0.088h9.018c0.084,0,0.155,0.029,0.215,0.088c0.059,0.06,0.088,0.131,0.088,0.215v2.021
			c0,0.236-0.101,0.354-0.303,0.354H44.611z"/>
		<path fill="#706F6F" d="M54.261,20.121c-0.489,0-0.897-0.165-1.226-0.496c-0.328-0.331-0.492-0.734-0.492-1.209
			c0-0.492,0.164-0.907,0.492-1.247c0.329-0.339,0.737-0.509,1.226-0.509c0.488,0,0.9,0.17,1.238,0.509
			c0.336,0.34,0.505,0.755,0.505,1.247c0,0.475-0.168,0.878-0.505,1.209C55.161,19.956,54.749,20.121,54.261,20.121z M53.174,36.767
			c-0.084,0-0.156-0.029-0.214-0.088c-0.06-0.06-0.089-0.131-0.089-0.215V23.176c0-0.084,0.029-0.155,0.089-0.214
			c0.059-0.059,0.13-0.089,0.214-0.089h2.122c0.084,0,0.155,0.03,0.214,0.089s0.089,0.13,0.089,0.214v13.288
			c0,0.084-0.03,0.155-0.089,0.215c-0.059,0.059-0.13,0.088-0.214,0.088H53.174z"/>
		<path fill="#706F6F" d="M58.049,36.767c-0.186,0-0.278-0.101-0.278-0.303V16.559c0-0.084,0.029-0.156,0.088-0.215
			s0.13-0.089,0.215-0.089h2.122c0.084,0,0.156,0.03,0.215,0.089s0.088,0.131,0.088,0.215v19.905c0,0.084-0.029,0.155-0.088,0.215
			c-0.059,0.059-0.13,0.088-0.215,0.088H58.049z"/>
		<path fill="#706F6F" d="M73.509,30.376c0,0.135-0.038,0.236-0.114,0.303c-0.076,0.067-0.156,0.102-0.24,0.102h-8.311
			c0.084,1.128,0.438,2.05,1.061,2.766s1.474,1.074,2.551,1.074c0.556,0,1.187-0.072,1.895-0.215
			c0.708-0.144,1.355-0.392,1.945-0.745c0.118-0.067,0.193-0.06,0.227,0.024c0.034,0.085,0.051,0.194,0.051,0.329v1.743
			c0,0.151-0.025,0.269-0.076,0.354c-0.05,0.084-0.151,0.168-0.303,0.252c-0.505,0.27-1.099,0.463-1.781,0.581
			c-0.682,0.118-1.376,0.177-2.084,0.177c-2.088,0-3.667-0.627-4.736-1.882c-1.069-1.254-1.604-3.094-1.604-5.52
			c0-0.909,0.118-1.802,0.354-2.678c0.235-0.875,0.593-1.658,1.073-2.349s1.09-1.246,1.832-1.667
			c0.741-0.421,1.617-0.632,2.627-0.632c1.027,0,1.898,0.193,2.615,0.581c0.715,0.388,1.301,0.909,1.755,1.566
			c0.455,0.656,0.783,1.423,0.985,2.299c0.202,0.875,0.303,1.81,0.303,2.804c0,0.118-0.004,0.252-0.013,0.404
			C73.513,30.2,73.509,30.309,73.509,30.376z M67.977,24.819c-0.455,0-0.859,0.102-1.212,0.304c-0.354,0.201-0.657,0.463-0.91,0.782
			c-0.252,0.32-0.459,0.691-0.619,1.112c-0.16,0.421-0.274,0.842-0.341,1.263h5.785c0-0.337-0.055-0.707-0.164-1.111
			c-0.11-0.404-0.274-0.779-0.493-1.124c-0.219-0.346-0.497-0.636-0.833-0.872C68.852,24.937,68.448,24.819,67.977,24.819z"/>
		<path fill="#706F6F" d="M91.823,30.376c0,0.135-0.038,0.236-0.114,0.303c-0.076,0.067-0.156,0.102-0.24,0.102h-8.311
			c0.084,1.128,0.438,2.05,1.061,2.766c0.623,0.716,1.473,1.074,2.551,1.074c0.556,0,1.187-0.072,1.895-0.215
			c0.707-0.144,1.355-0.392,1.945-0.745c0.117-0.067,0.193-0.06,0.227,0.024c0.034,0.085,0.05,0.194,0.05,0.329v1.743
			c0,0.151-0.025,0.269-0.076,0.354c-0.05,0.084-0.151,0.168-0.303,0.252c-0.505,0.27-1.099,0.463-1.781,0.581
			s-1.376,0.177-2.084,0.177c-2.088,0-3.667-0.627-4.736-1.882c-1.07-1.254-1.604-3.094-1.604-5.52c0-0.909,0.118-1.802,0.354-2.678
			c0.236-0.875,0.594-1.658,1.074-2.349s1.09-1.246,1.832-1.667c0.741-0.421,1.616-0.632,2.627-0.632
			c1.027,0,1.898,0.193,2.614,0.581s1.301,0.909,1.756,1.566c0.455,0.656,0.783,1.423,0.985,2.299
			c0.202,0.875,0.303,1.81,0.303,2.804c0,0.118-0.004,0.252-0.013,0.404C91.827,30.2,91.823,30.309,91.823,30.376z M86.291,24.819
			c-0.455,0-0.859,0.102-1.212,0.304c-0.354,0.201-0.657,0.463-0.91,0.782c-0.252,0.32-0.459,0.691-0.619,1.112
			c-0.16,0.421-0.274,0.842-0.341,1.263h5.785c0-0.337-0.055-0.707-0.164-1.111s-0.274-0.779-0.493-1.124
			c-0.219-0.346-0.497-0.636-0.833-0.872C87.166,24.937,86.762,24.819,86.291,24.819z"/>
		<path fill="#706F6F" d="M101.498,36.667c-0.186,0-0.312-0.051-0.379-0.151l-3.107-4.8l-3.107,4.8
			c-0.084,0.101-0.211,0.151-0.379,0.151h-2.602c-0.202,0-0.228-0.102-0.076-0.303l4.598-6.96l-4.143-6.327
			c-0.068-0.084-0.085-0.156-0.051-0.215c0.034-0.06,0.118-0.089,0.253-0.089h2.526c0.134,0,0.236,0.051,0.303,0.152l2.678,4.154
			l2.677-4.154c0.067-0.102,0.168-0.152,0.303-0.152h2.526c0.134,0,0.218,0.029,0.252,0.089c0.034,0.059,0.017,0.131-0.051,0.215
			l-4.143,6.327l4.597,6.96c0.152,0.201,0.126,0.303-0.076,0.303H101.498z"/>
		<path fill="#706F6F" d="M112.183,36.515c-0.236,0.151-0.611,0.29-1.124,0.416c-0.514,0.127-1.065,0.189-1.655,0.189
			c-0.708,0-1.272-0.147-1.692-0.441c-0.421-0.295-0.733-0.636-0.935-1.023c-0.236-0.438-0.379-0.951-0.43-1.541
			c-0.05-0.589-0.076-1.389-0.076-2.399v-6.341h-2.097c-0.084,0-0.156-0.029-0.215-0.088c-0.059-0.06-0.088-0.131-0.088-0.215
			v-1.996c0-0.084,0.029-0.155,0.088-0.215c0.059-0.059,0.13-0.088,0.215-0.088h2.097v-3.536c0-0.085,0.034-0.156,0.101-0.215
			c0.067-0.06,0.143-0.089,0.227-0.089h2.046c0.101,0,0.181,0.029,0.24,0.089c0.059,0.059,0.089,0.13,0.089,0.215v3.536h2.425
			c0.084,0,0.155,0.029,0.215,0.088c0.059,0.06,0.088,0.131,0.088,0.215v1.996c0,0.084-0.03,0.155-0.088,0.215
			c-0.06,0.059-0.131,0.088-0.215,0.088h-2.425v6.518c0,1.146,0.025,1.869,0.076,2.172c0.067,0.304,0.227,0.489,0.48,0.557
			c0.252,0.067,0.539,0.084,0.859,0.05c0.218-0.033,0.463-0.079,0.732-0.139c0.269-0.059,0.505-0.13,0.708-0.215
			c0.084-0.033,0.143-0.038,0.177-0.013c0.033,0.025,0.067,0.105,0.101,0.24l0.202,1.667
			C112.325,36.33,112.284,36.43,112.183,36.515z"/>
		<path fill="#706F6F" d="M123.853,30.376c0,0.135-0.038,0.236-0.113,0.303c-0.076,0.067-0.156,0.102-0.24,0.102h-8.311
			c0.084,1.128,0.438,2.05,1.061,2.766s1.474,1.074,2.552,1.074c0.556,0,1.187-0.072,1.895-0.215
			c0.707-0.144,1.355-0.392,1.945-0.745c0.118-0.067,0.193-0.06,0.228,0.024c0.034,0.085,0.05,0.194,0.05,0.329v1.743
			c0,0.151-0.025,0.269-0.076,0.354c-0.05,0.084-0.152,0.168-0.303,0.252c-0.505,0.27-1.099,0.463-1.781,0.581
			s-1.376,0.177-2.084,0.177c-2.088,0-3.667-0.627-4.736-1.882c-1.07-1.254-1.604-3.094-1.604-5.52c0-0.909,0.117-1.802,0.354-2.678
			c0.235-0.875,0.594-1.658,1.074-2.349s1.09-1.246,1.832-1.667c0.741-0.421,1.616-0.632,2.627-0.632
			c1.027,0,1.898,0.193,2.614,0.581s1.301,0.909,1.756,1.566c0.455,0.656,0.783,1.423,0.985,2.299
			c0.202,0.875,0.303,1.81,0.303,2.804c0,0.118-0.004,0.252-0.013,0.404C123.856,30.2,123.853,30.309,123.853,30.376z
			 M118.321,24.819c-0.455,0-0.859,0.102-1.212,0.304c-0.354,0.201-0.657,0.463-0.91,0.782c-0.252,0.32-0.459,0.691-0.619,1.112
			c-0.161,0.421-0.274,0.842-0.341,1.263h5.785c0-0.337-0.055-0.707-0.164-1.111c-0.11-0.404-0.274-0.779-0.493-1.124
			c-0.219-0.346-0.497-0.636-0.833-0.872C119.196,24.937,118.792,24.819,118.321,24.819z"/>
		<path fill="#706F6F" d="M134.462,36.716c-0.084,0-0.156-0.037-0.214-0.113c-0.059-0.076-0.088-0.156-0.088-0.24v-8.032
			c0-1.213-0.189-2.088-0.568-2.628c-0.379-0.538-0.973-0.808-1.781-0.808c-1.111,0-1.932,0.308-2.463,0.922
			c-0.53,0.615-0.795,1.503-0.795,2.665v7.906c0,0.219-0.101,0.328-0.303,0.328h-2.097c-0.084,0-0.156-0.037-0.215-0.113
			s-0.088-0.156-0.088-0.24V26.309c0-0.64-0.004-1.254-0.012-1.844c-0.009-0.589-0.03-1.053-0.063-1.39
			c-0.034-0.219,0.084-0.328,0.354-0.328h1.996c0.185,0,0.261,0.068,0.228,0.204l-0.025,0.92c0.421-0.407,0.926-0.755,1.516-1.044
			s1.271-0.434,2.046-0.434c1.617,0,2.85,0.476,3.701,1.427c0.85,0.952,1.275,2.329,1.275,4.131v8.437
			c0,0.219-0.101,0.328-0.303,0.328H134.462z"/>
		<path fill="#706F6F" d="M145.93,36.211c-0.91,0.606-1.987,0.909-3.233,0.909c-0.337,0-0.691-0.017-1.061-0.05
			c-0.371-0.034-0.729-0.076-1.073-0.127c-0.346-0.05-0.653-0.109-0.922-0.177c-0.27-0.067-0.48-0.135-0.631-0.202
			c-0.067-0.033-0.139-0.08-0.215-0.139c-0.076-0.06-0.105-0.156-0.088-0.29l0.152-1.643c0.017-0.168,0.042-0.269,0.076-0.303
			c0.034-0.034,0.143-0.025,0.328,0.025c0.556,0.168,1.132,0.29,1.73,0.366c0.598,0.075,1.132,0.113,1.604,0.113
			c0.741,0,1.292-0.185,1.655-0.556c0.362-0.37,0.543-0.8,0.543-1.288c0-0.27-0.093-0.543-0.278-0.821
			c-0.186-0.277-0.497-0.56-0.935-0.846c-0.455-0.27-0.927-0.544-1.415-0.821c-0.488-0.278-0.968-0.552-1.439-0.821
			c-0.539-0.319-0.99-0.745-1.352-1.275c-0.362-0.53-0.543-1.115-0.543-1.756c0-0.707,0.126-1.317,0.379-1.831
			c0.252-0.514,0.589-0.943,1.01-1.288c0.421-0.346,0.905-0.598,1.453-0.758c0.547-0.16,1.124-0.24,1.73-0.24
			c0.319,0,0.652,0.017,0.998,0.051c0.345,0.033,0.682,0.08,1.01,0.139c0.329,0.06,0.623,0.126,0.884,0.202
			c0.261,0.075,0.458,0.156,0.594,0.24c0.084,0.05,0.13,0.097,0.139,0.139c0.008,0.042,0.004,0.105-0.013,0.189l-0.152,1.616
			c-0.017,0.186-0.059,0.291-0.126,0.316s-0.193,0.021-0.379-0.013c-0.32-0.118-0.682-0.228-1.086-0.329
			c-0.236-0.033-0.484-0.066-0.745-0.101c-0.262-0.033-0.585-0.051-0.973-0.051c-0.69,0-1.179,0.16-1.465,0.48
			c-0.287,0.32-0.43,0.707-0.43,1.162c0,0.27,0.16,0.556,0.48,0.858c0.32,0.304,0.724,0.581,1.212,0.834
			c0.522,0.252,1.006,0.514,1.453,0.783c0.446,0.27,0.779,0.488,0.998,0.656c0.606,0.438,1.061,0.914,1.364,1.428
			s0.455,1.133,0.455,1.856C147.623,34.266,147.058,35.386,145.93,36.211z"/>
		<path fill="#706F6F" d="M150.3,20.121c-0.489,0-0.897-0.165-1.225-0.496c-0.329-0.331-0.493-0.734-0.493-1.209
			c0-0.492,0.164-0.907,0.493-1.247c0.328-0.339,0.736-0.509,1.225-0.509c0.488,0,0.9,0.17,1.238,0.509
			c0.336,0.34,0.505,0.755,0.505,1.247c0,0.475-0.168,0.878-0.505,1.209C151.201,19.956,150.789,20.121,150.3,20.121z
			 M149.214,36.767c-0.084,0-0.156-0.029-0.215-0.088c-0.059-0.06-0.088-0.131-0.088-0.215V23.176c0-0.084,0.029-0.155,0.088-0.214
			s0.13-0.089,0.215-0.089h2.122c0.084,0,0.155,0.03,0.215,0.089c0.059,0.059,0.088,0.13,0.088,0.214v13.288
			c0,0.084-0.029,0.155-0.088,0.215c-0.06,0.059-0.131,0.088-0.215,0.088H149.214z"/>
		<path fill="#706F6F" d="M164.724,34.797c-0.606,0.758-1.33,1.334-2.172,1.729s-1.793,0.594-2.854,0.594
			c-1.078,0-2.029-0.193-2.854-0.581c-0.826-0.387-1.516-0.918-2.072-1.591c-0.556-0.674-0.972-1.457-1.25-2.35
			c-0.278-0.893-0.417-1.844-0.417-2.854c0-1.01,0.139-1.962,0.417-2.854c0.278-0.893,0.695-1.671,1.25-2.336
			s1.242-1.191,2.059-1.579c0.816-0.388,1.772-0.581,2.867-0.581c1.078,0,2.029,0.193,2.854,0.581s1.516,0.914,2.072,1.579
			c0.556,0.665,0.972,1.443,1.25,2.336s0.417,1.845,0.417,2.854c0,0.994-0.135,1.925-0.404,2.791
			C165.616,33.404,165.229,34.157,164.724,34.797z M159.697,24.87c-0.657,0-1.225,0.144-1.705,0.43s-0.872,0.661-1.174,1.124
			c-0.303,0.463-0.531,0.985-0.682,1.565c-0.152,0.581-0.228,1.167-0.228,1.756c0,0.59,0.076,1.175,0.228,1.756
			c0.151,0.581,0.379,1.107,0.682,1.579c0.303,0.472,0.694,0.851,1.174,1.137s1.048,0.429,1.705,0.429s1.225-0.143,1.705-0.429
			s0.872-0.665,1.175-1.137s0.531-0.998,0.682-1.579s0.228-1.166,0.228-1.756c0-0.572-0.076-1.149-0.228-1.73
			s-0.379-1.103-0.682-1.565c-0.303-0.464-0.695-0.843-1.175-1.137C160.922,25.017,160.354,24.87,159.697,24.87z"/>
		<path fill="#706F6F" d="M176.849,36.716c-0.084,0-0.156-0.037-0.215-0.113c-0.059-0.076-0.088-0.156-0.088-0.24v-8.032
			c0-1.213-0.189-2.088-0.568-2.628c-0.379-0.538-0.973-0.808-1.781-0.808c-1.111,0-1.933,0.308-2.463,0.922
			c-0.531,0.615-0.796,1.503-0.796,2.665v7.906c0,0.219-0.101,0.328-0.303,0.328h-2.096c-0.085,0-0.156-0.037-0.215-0.113
			c-0.06-0.076-0.089-0.156-0.089-0.24V26.309c0-0.64-0.004-1.254-0.012-1.844c-0.009-0.589-0.03-1.053-0.063-1.39
			c-0.034-0.219,0.084-0.328,0.354-0.328h1.995c0.186,0,0.261,0.068,0.228,0.204l-0.025,0.92c0.421-0.407,0.926-0.755,1.516-1.044
			c0.59-0.289,1.271-0.434,2.046-0.434c1.617,0,2.85,0.476,3.701,1.427c0.85,0.952,1.275,2.329,1.275,4.131v8.437
			c0,0.219-0.101,0.328-0.303,0.328H176.849z"/>
	</g>
</g>
<rect fill="none" width="272.818" height="55.979"/>
</svg>
